<?xml version="1.0" encoding="UTF-8" standalone="no"?>
<svg
   xmlns:dc="http://purl.org/dc/elements/1.1/"
   xmlns:cc="http://creativecommons.org/ns#"
   xmlns:rdf="http://www.w3.org/1999/02/22-rdf-syntax-ns#"
   xmlns:svg="http://www.w3.org/2000/svg"
   xmlns="http://www.w3.org/2000/svg"
   xmlns:sodipodi="http://sodipodi.sourceforge.net/DTD/sodipodi-0.dtd"
   xmlns:inkscape="http://www.inkscape.org/namespaces/inkscape"
   sodipodi:docname="bag_of_coffee_simple_1_140x140.svg"
   inkscape:version="1.0 (4035a4fb49, 2020-05-01)"
   id="svg8"
   version="1.1"
   viewBox="0 0 140 140"
   height="140mm"
   width="140mm">
  <defs
     id="defs2" />
  <sodipodi:namedview
     showguides="false"
     inkscape:window-maximized="1"
     inkscape:window-y="-8"
     inkscape:window-x="1672"
     inkscape:window-height="987"
     inkscape:window-width="1680"
     showgrid="false"
     inkscape:document-rotation="0"
     inkscape:current-layer="layer1"
     inkscape:document-units="mm"
     inkscape:cy="301.20216"
     inkscape:cx="-17.637011"
     inkscape:zoom="0.7"
     inkscape:pageshadow="2"
     inkscape:pageopacity="0.0"
     borderopacity="1.0"
     bordercolor="#666666"
     pagecolor="#ffffff"
     id="base" />
  <metadata
     id="metadata5">
    <rdf:RDF>
      <cc:Work
         rdf:about="">
        <dc:format>image/svg+xml</dc:format>
        <dc:type
           rdf:resource="http://purl.org/dc/dcmitype/StillImage" />
        <dc:title></dc:title>
      </cc:Work>
    </rdf:RDF>
  </metadata>
  <g
     id="layer1"
     inkscape:groupmode="layer"
     inkscape:label="Layer 1">
    <path
       d="M 35.301575,9.4423902 C 26.177086,10.76434 17.007829,12.355567 7.742892,11.977909 3.6860047,16.451434 9.5146969,24.593985 5.9174762,30.314262 1.47897,52.720542 0.29512864,75.691387 1.2894148,98.486212 c 0.1857396,9.043108 0.8204465,18.073718 1.2524662,27.107868 -0.9042696,5.9584 2.6860191,10.92962 8.94226,10.46318 14.32969,3.41251 29.167263,2.06255 43.755673,2.79004 11.463822,0.17354 23.3442,1.08159 34.249321,-3.18923 2.800542,-4.16013 0.73314,-10.06643 1.66752,-14.94706 C 91.345031,92.346825 92.252886,63.558578 85.651057,35.760695 84.100965,29.951178 82.784714,24.062775 81.045717,18.315843 85.673381,15.30321 81.009953,7.7901833 78.444885,4.7341103 72.044728,3.5422697 65.35318,4.9582313 58.882916,5.4474326 53.381791,6.1331882 48.007282,7.971674 42.657574,6.4657813 40.605313,7.2449165 35.180829,6.4122029 35.30158,9.4423902 Z M 50.14165,19.539759 C 49.121713,15.816992 48.101776,12.094225 47.081839,8.3714576 57.018441,6.9496937 67.028511,5.1523189 77.106227,5.7161872 81.941992,7.9306217 84.672845,19.764913 76.115261,17.275691 67.439212,17.814925 58.854006,19.531461 50.14165,19.539759 Z m -10.556339,1.070934 c -9.787144,-0.12974 -19.716135,2.130393 -29.406413,0.131306 -2.1122759,-1.048275 0.161401,-5.330972 -1.6506443,-7.627837 9.0134593,0.0038 17.9972123,-1.106905 26.8621123,-2.625531 2.475423,2.353437 3.146732,6.8391 4.194945,10.122062 z M 7.6103069,13.879116 c 1.2325299,2.165906 0.7173439,8.39305 -0.2334465,2.729387 -0.2377458,-0.886441 -0.3762248,-1.946812 0.2334465,-2.729387 z m 72.3644721,4.436727 c 3.401104,15.415835 8.792838,30.563664 9.066857,46.509616 1.01932,20.101551 1.567489,40.237701 0.731529,60.355711 -0.0598,4.65624 0.950529,11.13851 -5.799063,10.71639 -3.826383,0.62875 -12.055524,4.07081 -9.468886,-2.85042 1.881948,-22.83974 3.915945,-45.791019 2.23432,-68.711926 -0.383084,-9.316572 -2.346578,-18.538357 -4.218343,-27.664541 -1.305447,-5.925107 -3.164489,-11.716402 -4.632652,-17.589884 4.028746,-0.254982 8.057492,-0.509964 12.086238,-0.764946 z m -4.895696,41.766382 c -11.258717,0.640877 -22.496055,1.8907 -33.796552,1.781089 -4.607321,-0.495631 -12.29632,2.481147 -10.930216,-4.911829 -1.652626,-11.618695 -3.965411,-23.1781 -7.595956,-34.351918 5.693272,0.262696 11.375097,-0.673618 17.022022,-0.758496 0.926599,1.637728 1.049296,10.557017 3.631688,5.807205 0.980964,3.100449 3.406498,1.821379 2.753825,-1.070932 2.63854,2.555081 2.088941,-2.422756 4.251024,1.34978 2.99476,-0.902349 -3.141315,-9.414393 3.664334,-7.403889 4.170023,0.74788 11.320568,-3.821278 13.2465,0.842668 3.419542,12.460025 6.515845,25.122695 7.743285,38.004407 l 0.01005,0.711946 m -43.44928,76.954174 c -5.504152,1.70106 -11.494436,-1.05705 -9.991884,-7.50261 0.205955,-7.65922 -0.484261,-15.27405 -0.501913,-22.92301 C 20.21553,83.285443 17.840151,59.965712 13.359775,37.048605 13.003007,31.541171 7.7328336,27.0782 8.9872231,21.528641 c 5.4204039,2.382165 14.4526059,-1.911312 14.2851519,6.8001 9.62474,35.352402 9.950783,72.357719 8.35743,108.707689 z M 8.069278,26.118347 c 2.579924,5.3056 4.668534,10.871089 5.416418,16.776009 4.173387,26.535259 6.793233,53.334686 6.868872,80.213014 -0.416132,4.15218 1.489056,10.71058 0.304481,13.28832 C 15.786077,134.99932 10.590034,134.93373 5.7781822,133.44722 2.0407301,128.48258 4.4963864,121.27369 3.2953932,115.39229 2.0407946,100.2305 1.9751283,84.977614 2.4268687,69.774993 3.0887263,55.313466 4.586096,40.800277 7.7228597,26.681139 Z m 3.689056,24.767623 c -2.2164662,3.825 -2.9193959,8.629992 -4.0784845,12.972483 -1.5444364,2.790023 0.5671615,7.085344 1.0415599,1.545059 0.7471161,-4.858698 2.6127136,-9.498362 3.6203566,-14.256241 l -0.190225,-0.253892 -0.393208,-0.0074 z m 46.644834,14.703903 c -2.623031,2.661073 -5.636271,10.32274 -9.877407,7.126303 -0.387912,-4.739093 5.477334,-9.648867 9.877407,-7.126303 z m 0.611966,0.45898 c 2.866606,4.954884 -1.747913,12.553055 -7.738357,10.537968 -3.624682,-1.881516 -1.679538,-2.483196 1.189419,-2.841954 3.173336,-1.662079 3.198779,-6.234485 6.548938,-7.695983 M 11.46877,66.834803 c -2.6458617,2.662271 0.720664,7.068935 0.735648,1.272857 0.251246,-0.42068 0.03197,-1.630002 -0.735648,-1.272857 z m 57.337753,14.513132 c 0.137003,2.104095 -0.346148,4.810427 1.29807,5.283619 -2.980052,2.208431 0.195847,5.975184 0.689301,6.305135 -5.119562,0.723715 -1.503174,-8.314425 -3.039831,-11.660254 0.09398,-2.145984 3.847866,-0.103704 1.052404,0.0715 m -9.332424,0.152987 c -0.610489,2.480458 1.938087,5.355183 0.458979,5.660647 0.887783,2.104262 0.07279,9.628081 -0.655712,3.671772 0.33549,-2.572397 -2.531242,-11.435008 1.199153,-9.59029 l -0.340692,0.180013 -0.661732,0.07786 z m 4.589714,0 c 0.103015,2.10988 -0.277641,4.794085 1.249255,5.354662 -2.281972,1.824386 -0.793561,6.050252 0.930559,6.196886 -5.238057,1.127266 -1.752558,-7.772493 -3.270653,-10.991892 -0.767354,-2.591759 4.50823,-1.3086 1.090835,-0.559656 z M 49.377293,80.657599 c 3.955088,1.838951 4.470846,11.401264 0.910677,13.632849 -2.877866,-2.519833 -3.80625,-11.033206 -0.910677,-13.632849 z m 5.966012,5.738976 c 1.760033,-0.06043 -0.782461,3.221533 0.535323,5.472172 -1.388354,4.509261 -1.232894,-5.086706 -1.562468,-6.869675 -1.900607,-1.933114 1.694184,-6.069892 1.405397,-3.355513 -1.786708,0.694477 -0.13651,3.425406 -0.378252,4.753016 z M 44.022018,81.092236 c 4.649222,0.505743 -3.5537,1.732218 -0.930399,5.221519 -0.920337,3.535422 0.906375,7.230253 3.867259,7.029397 -5.441223,4.61159 -7.051254,-11.306575 -2.93686,-12.250916 z m 5.525865,0.557189 c -1.570601,2.64669 -1.569376,10.74262 1.579109,11.212403 0.46567,-3.271402 1.291649,-9.111384 -1.579109,-11.212403 z M 75.997021,97.411873 C 76.03588,110.8341 73.912267,124.1315 73.090203,137.49539 59.678041,137.3424 46.265879,137.1894 32.853717,137.03641 c 0.655655,-12.43391 0.709207,-24.88182 0.764955,-37.329672 7.463403,-0.06399 14.955013,0.336672 22.400706,-0.01904 6.646669,-0.860305 13.319698,-1.508755 19.977643,-2.275821 z m 6.013447,7.197757 c 0.190097,5.47441 1.489144,11.43934 0.955914,17.15888 -0.307204,1.97267 -1.037589,11.88926 0.896985,5.78432 0.427548,-7.60007 0.774245,-15.38352 -1.159902,-22.8135 l -0.278575,-0.22898 -0.414415,0.0993 z m 4.895239,17.44688 c -1.040943,1.74161 0.377267,9.4481 1.074426,3.80842 -0.168536,-0.9482 0.50479,-3.95318 -1.074426,-3.80842 z"
       style="fill:#ff0000;stroke:none;stroke-width:0.152991"
       id="path858" />
    <g
       id="g1211"
       gcodetools="Gcodetools orientation group">
      <g
         id="g1201"
         gcodetools="Gcodetools orientation point (2 points)">
        <path
           id="path1195"
           d="m 0,140 2.9375,-6.34375 0.8125,1.90625 6.84375,-6.84375 v 0 l 0.6875,0.6875 -6.84375,6.84375 1.90625,0.8125 z"
           gcodetools="Gcodetools orientation point arrow"
           style="fill:#000000;stroke:none" />
        <text
           id="text1199"
           gcodetools="Gcodetools orientation point text"
           style="font-style:normal;font-variant:normal;font-weight:normal;font-stretch:normal;font-size:10px;font-family:'DejaVu Sans';fill:#000000;fill-opacity:1;stroke:none"
           y="130"
           xml:space="preserve"
           x="10"><tspan
             id="tspan1197"
             sodipodi:role="line"
             y="130"
             x="10">(0.0; 0.0; 0.0)</tspan></text>
      </g>
      <g
         id="g1209"
         gcodetools="Gcodetools orientation point (2 points)">
        <path
           id="path1203"
           d="m 100,140 2.9375,-6.34375 0.8125,1.90625 6.84375,-6.84375 v 0 l 0.6875,0.6875 -6.84375,6.84375 1.90625,0.8125 z"
           gcodetools="Gcodetools orientation point arrow"
           style="fill:#000000;stroke:none" />
        <text
           id="text1207"
           gcodetools="Gcodetools orientation point text"
           style="font-style:normal;font-variant:normal;font-weight:normal;font-stretch:normal;font-size:10px;font-family:'DejaVu Sans';fill:#000000;fill-opacity:1;stroke:none"
           y="130"
           xml:space="preserve"
           x="110"><tspan
             id="tspan1205"
             sodipodi:role="line"
             y="130"
             x="110">(100.0; 0.0; -1.0)</tspan></text>
      </g>
    </g>
    <g
       id="g1320"
       transform="translate(-394.95618,92.556143)"
       gcodetools="Gcodetools tool definition">
      <path
         id="path1238"
         d="M -20,-20 H 380 V 155 H -20 Z"
         style="fill-opacity:0.5;stroke:#444444"
         gcodetools="Gcodetools tool background" />
      <g
         id="g1248"
         gcodetools="Gcodetools tool parameter">
        <text
           id="text1242"
           gcodetools="Gcodetools tool definition field name"
           style="font-style:normal;font-variant:normal;font-weight:normal;font-stretch:normal;font-size:20px;font-family:'DejaVu Sans';fill:#000000;fill-opacity:1;stroke:none"
           y="0"
           xml:space="preserve"
           x="0"><tspan
             id="tspan1240"
             sodipodi:role="line"
             y="0"
             x="0">name</tspan></text>
        <text
           id="text1246"
           gcodetools="Gcodetools tool definition field value"
           style="font-style:normal;font-variant:normal;font-weight:normal;font-stretch:normal;font-size:20px;font-family:'DejaVu Sans';fill:#000000;fill-opacity:1;stroke:none"
           y="0"
           xml:space="preserve"
           x="150"><tspan
             id="tspan1244"
             sodipodi:role="line"
             y="0"
             x="150">Cylindrical cutter</tspan></text>
      </g>
      <g
         id="g1258"
         gcodetools="Gcodetools tool parameter">
        <text
           id="text1252"
           gcodetools="Gcodetools tool definition field name"
           style="font-style:normal;font-variant:normal;font-weight:normal;font-stretch:normal;font-size:10px;font-family:'DejaVu Sans';fill:#000000;fill-opacity:1;stroke:none"
           y="20"
           xml:space="preserve"
           x="0"><tspan
             id="tspan1250"
             sodipodi:role="line"
             y="20"
             x="0">id</tspan></text>
        <text
           id="text1256"
           gcodetools="Gcodetools tool definition field value"
           style="font-style:normal;font-variant:normal;font-weight:normal;font-stretch:normal;font-size:10px;font-family:'DejaVu Sans';fill:#000000;fill-opacity:1;stroke:none"
           y="20"
           xml:space="preserve"
           x="150"><tspan
             id="tspan1254"
             sodipodi:role="line"
             y="20"
             x="150">Cylindrical cutter 0001</tspan></text>
      </g>
      <g
         id="g1268"
         gcodetools="Gcodetools tool parameter">
        <text
           id="text1262"
           gcodetools="Gcodetools tool definition field name"
           style="font-style:normal;font-variant:normal;font-weight:normal;font-stretch:normal;font-size:10px;font-family:'DejaVu Sans';fill:#000000;fill-opacity:1;stroke:none"
           y="35"
           xml:space="preserve"
           x="0"><tspan
             id="tspan1260"
             sodipodi:role="line"
             y="35"
             x="0">diameter</tspan></text>
        <text
           id="text1266"
           gcodetools="Gcodetools tool definition field value"
           style="font-style:normal;font-variant:normal;font-weight:normal;font-stretch:normal;font-size:10px;font-family:'DejaVu Sans';fill:#000000;fill-opacity:1;stroke:none"
           y="35"
           xml:space="preserve"
           x="150"><tspan
             id="tspan1264"
             sodipodi:role="line"
             y="35"
             x="150">10</tspan></text>
      </g>
      <g
         id="g1278"
         gcodetools="Gcodetools tool parameter">
        <text
           id="text1272"
           gcodetools="Gcodetools tool definition field name"
           style="font-style:normal;font-variant:normal;font-weight:normal;font-stretch:normal;font-size:10px;font-family:'DejaVu Sans';fill:#000000;fill-opacity:1;stroke:none"
           y="50"
           xml:space="preserve"
           x="0"><tspan
             id="tspan1270"
             sodipodi:role="line"
             y="50"
             x="0">feed</tspan></text>
        <text
           id="text1276"
           gcodetools="Gcodetools tool definition field value"
           style="font-style:normal;font-variant:normal;font-weight:normal;font-stretch:normal;font-size:10px;font-family:'DejaVu Sans';fill:#000000;fill-opacity:1;stroke:none"
           y="50"
           xml:space="preserve"
           x="150"><tspan
             id="tspan1274"
             sodipodi:role="line"
             y="50"
             x="150">1100</tspan></text>
      </g>
      <g
         id="g1288"
         gcodetools="Gcodetools tool parameter">
        <text
           id="text1282"
           gcodetools="Gcodetools tool definition field name"
           style="font-style:normal;font-variant:normal;font-weight:normal;font-stretch:normal;font-size:10px;font-family:'DejaVu Sans';fill:#000000;fill-opacity:1;stroke:none"
           y="65"
           xml:space="preserve"
           x="0"><tspan
             id="tspan1280"
             sodipodi:role="line"
             y="65"
             x="0">penetration angle</tspan></text>
        <text
           id="text1286"
           gcodetools="Gcodetools tool definition field value"
           style="font-style:normal;font-variant:normal;font-weight:normal;font-stretch:normal;font-size:10px;font-family:'DejaVu Sans';fill:#000000;fill-opacity:1;stroke:none"
           y="65"
           xml:space="preserve"
           x="150"><tspan
             id="tspan1284"
             sodipodi:role="line"
             y="65"
             x="150">90</tspan></text>
      </g>
      <g
         id="g1298"
         gcodetools="Gcodetools tool parameter">
        <text
           id="text1292"
           gcodetools="Gcodetools tool definition field name"
           style="font-style:normal;font-variant:normal;font-weight:normal;font-stretch:normal;font-size:10px;font-family:'DejaVu Sans';fill:#000000;fill-opacity:1;stroke:none"
           y="80"
           xml:space="preserve"
           x="0"><tspan
             id="tspan1290"
             sodipodi:role="line"
             y="80"
             x="0">penetration feed</tspan></text>
        <text
           id="text1296"
           gcodetools="Gcodetools tool definition field value"
           style="font-style:normal;font-variant:normal;font-weight:normal;font-stretch:normal;font-size:10px;font-family:'DejaVu Sans';fill:#000000;fill-opacity:1;stroke:none"
           y="80"
           xml:space="preserve"
           x="150"><tspan
             id="tspan1294"
             sodipodi:role="line"
             y="80"
             x="150">1000</tspan></text>
      </g>
      <g
         id="g1308"
         gcodetools="Gcodetools tool parameter">
        <text
           id="text1302"
           gcodetools="Gcodetools tool definition field name"
           style="font-style:normal;font-variant:normal;font-weight:normal;font-stretch:normal;font-size:10px;font-family:'DejaVu Sans';fill:#000000;fill-opacity:1;stroke:none"
           y="95"
           xml:space="preserve"
           x="0"><tspan
             id="tspan1300"
             sodipodi:role="line"
             y="95"
             x="0">depth step</tspan></text>
        <text
           id="text1306"
           gcodetools="Gcodetools tool definition field value"
           style="font-style:normal;font-variant:normal;font-weight:normal;font-stretch:normal;font-size:10px;font-family:'DejaVu Sans';fill:#000000;fill-opacity:1;stroke:none"
           y="95"
           xml:space="preserve"
           x="150"><tspan
             id="tspan1304"
             sodipodi:role="line"
             y="95"
             x="150">1</tspan></text>
      </g>
      <g
         id="g1318"
         gcodetools="Gcodetools tool parameter">
        <text
           id="text1312"
           gcodetools="Gcodetools tool definition field name"
           style="font-style:normal;font-variant:normal;font-weight:normal;font-stretch:normal;font-size:10px;font-family:'DejaVu Sans';fill:#000000;fill-opacity:1;stroke:none"
           y="110"
           xml:space="preserve"
           x="0"><tspan
             id="tspan1310"
             sodipodi:role="line"
             y="110"
             x="0">tool change gcode</tspan></text>
        <text
           id="text1316"
           gcodetools="Gcodetools tool definition field value"
           style="font-style:normal;font-variant:normal;font-weight:normal;font-stretch:normal;font-size:10px;font-family:'DejaVu Sans';fill:#000000;fill-opacity:1;stroke:none"
           y="110"
           xml:space="preserve"
           x="150"><tspan
             id="tspan1314"
             sodipodi:role="line"
             y="110"
             x="150">(None)</tspan></text>
      </g>
    </g>
  </g>
</svg>
