<?xml version="1.0" encoding="UTF-8" standalone="no"?>
<!-- Created with Inkscape (http://www.inkscape.org/) -->

<svg
   xmlns:dc="http://purl.org/dc/elements/1.1/"
   xmlns:cc="http://creativecommons.org/ns#"
   xmlns:rdf="http://www.w3.org/1999/02/22-rdf-syntax-ns#"
   xmlns:svg="http://www.w3.org/2000/svg"
   xmlns="http://www.w3.org/2000/svg"
   xmlns:sodipodi="http://sodipodi.sourceforge.net/DTD/sodipodi-0.dtd"
   xmlns:inkscape="http://www.inkscape.org/namespaces/inkscape"
   id="svg8"
   version="1.1"
   viewBox="0 0 507.9685 507.9685"
   height="140mm"
   width="140mm"
   inkscape:version="0.92.2 5c3e80d, 2017-08-06"
   sodipodi:docname="bat_owl_single_tile.svg">
  <sodipodi:namedview
     inkscape:window-maximized="1"
     inkscape:window-y="1"
     inkscape:window-x="0"
     inkscape:window-height="981"
     inkscape:window-width="1920"
     units="mm"
     showgrid="false"
     inkscape:current-layer="layer1"
     inkscape:document-units="px"
     inkscape:cy="268.22192"
     inkscape:cx="-84.209306"
     inkscape:zoom="0.90509668"
     inkscape:pageshadow="2"
     inkscape:pageopacity="0.0"
     borderopacity="1.0"
     bordercolor="#666666"
     pagecolor="#ffffff"
     id="base"
     inkscape:snap-others="false"
     inkscape:snap-nodes="false"
     inkscape:snap-global="false" />
  <defs
     id="defs2" />
  <metadata
     id="metadata5">
    <rdf:RDF>
      <cc:Work
         rdf:about="">
        <dc:format>image/svg+xml</dc:format>
        <dc:type
           rdf:resource="http://purl.org/dc/dcmitype/StillImage" />
        <dc:title></dc:title>
      </cc:Work>
    </rdf:RDF>
  </metadata>
  <g
     inkscape:label="Layer 1"
     inkscape:groupmode="layer"
     id="layer1"
     transform="translate(0,132.85262)">
    <path
       inkscape:connector-curvature="0"
       d="m 205.87393,5.1977077 c -0.74016,-0.0396 -1.48357,0.275892 -2.12146,0.7681916 -0.63788,0.492288 -1.17122,1.160868 -1.48796,1.83102 -0.17445,0.369072 -0.19422,0.784884 -0.14101,1.20594 0.0533,0.421056 0.17988,0.848472 0.29674,1.2396237 0.2471,0.826932 1.05668,1.416624 1.28172,2.249832 0.16356,0.605604 0.005,1.279716 -0.10944,1.936248 -0.11436,0.656532 -0.18522,1.294884 0.14733,1.826808 0.19929,0.318792 0.51687,0.581712 0.87762,0.759768 0.36075,0.178068 0.76539,0.270576 1.14071,0.24834 0.58728,-0.0348 1.19404,-0.450276 1.47322,-0.968124 0.29154,-0.540756 0.20892,-1.16736 0.0947,-1.80576 -0.11424,-0.6384 -0.26,-1.289844 -0.0947,-1.881528 0.26858,-0.961332 1.25854,-1.607664 1.55321,-2.561316 0.21036,-0.6806637 0.38821,-1.4758557 0.1158,-2.1340797 -0.2592,-0.62622 -0.677,-1.286064 -1.19963,-1.799448 -0.52262,-0.5133956 -1.15003,-0.8792636 -1.8268,-0.9155156 z m -93.04308,-5.93713142 c -0.5955,-0.08556 -1.2613,0.302028 -1.63108,0.776604 -0.24295,0.312144 -0.25373,0.768804 -0.2315,1.16385602 0.0191,0.338964 0.0391,0.720276 0.12206,1.0691514 0.0829,0.348864 0.22865,0.665712 0.49881,0.871308 0.25749,0.195948 0.58838,0.266892 0.93234,0.263076 0.34395,-0.0048 0.69928,-0.08196 1.006,-0.185208 0.53994,-0.181608 1.16622,-0.53946 1.31961,-1.088088 0.14756,-0.5278794 -0.2386,-1.0952754 -0.543,-1.55109542 -0.18312,-0.274224 -0.38806,-0.57969599936 -0.62928,-0.829224 -0.24124,-0.249516 -0.51756,-0.44346 -0.84396,-0.49038 z m -5.27837,-0.38723998 c -0.57841,0.11568 -1.0446,0.61174798 -1.39536,1.08597598 -0.3457,0.46734 -0.7018,1.05334802 -0.62088,1.62897602 0.0541,0.384216 0.40165,0.6802794 0.69664,0.9323394 0.37827,0.323232 0.8323,0.598176 1.3196,0.698736 0.31766,0.06552 0.68778,0.139428 1.03546,0.141012 0.34768,0.00108 0.67338,-0.06972 0.90499,-0.296748 0.27846,-0.272988 0.35839,-0.660684 0.35779,-1.0775634 -6e-4,-0.41688 -0.0809,-0.862608 -0.12418,-1.25014802 -0.0544,-0.487776 -0.11064,-1.060176 -0.46723,-1.39746 -0.42848,-0.40532398 -1.12844,-0.58082398 -1.70683,-0.46511998 z m 91.05841,-1.715268 c -0.62125,0 -1.21273,0.123012 -1.75105,0.345156 -0.53831,0.222144 -1.02401,0.543564 -1.43113,0.940764 -0.40713,0.397188 -0.73623,0.87017998 -0.96391,1.39535998 -0.22769,0.525192 -0.35358,1.102848 -0.35358,1.70895602 0,0.6060954 0.12589,1.1837634 0.35358,1.7089434 0.22768,0.525192 0.55678,0.998172 0.96391,1.395372 0.40712,0.397188 0.89282,0.71862 1.43113,0.940752 0.53832,0.2221436 1.1298,0.3451556 1.75105,0.3451676 0.62125,0 1.21272,-0.123024 1.75104,-0.3451676 0.53832,-0.222132 1.02402,-0.543564 1.43115,-0.940752 0.40712,-0.3972 0.73622,-0.87018 0.96391,-1.395372 0.22769,-0.52518 0.35357,-1.102848 0.35357,-1.7089434 0,-0.60610802 -0.12588,-1.18376402 -0.35357,-1.70895602 -0.22769,-0.52518 -0.55679,-0.99815998 -0.96391,-1.39535998 -0.40713,-0.3972 -0.89283,-0.71862 -1.43115,-0.940764 -0.53832,-0.222132 -1.12979,-0.345156 -1.75104,-0.345156 z m 14.15566,-0.0048 c -0.60673,0 -1.18321,0.11424 -1.70895,0.319908 -0.52573,0.205704 -0.99985,0.503484 -1.39747,0.871308 -0.39761,0.367824 -0.71839,0.80588398 -0.94076,1.29223198 -0.22236,0.486348 -0.34516,1.021404 -0.34516,1.58268002 0,0.561264 0.1228,1.0942194 0.34516,1.5805674 0.22237,0.486336 0.54315,0.924408 0.94076,1.292232 0.39762,0.367824 0.87174,0.665604 1.39747,0.871308 0.52574,0.205716 1.10222,0.319896 1.70895,0.319896 0.60673,1.2e-5 1.18532,-0.11412 1.71105,-0.319896 0.52574,-0.205704 0.99987,-0.503484 1.39748,-0.871308 0.3976,-0.367824 0.71839,-0.805896 0.94075,-1.292232 0.22237,-0.486348 0.34517,-1.0193034 0.34517,-1.5805674 0,-0.56127602 -0.1228,-1.09633202 -0.34517,-1.58268002 -0.22236,-0.486348 -0.54315,-0.92441998 -0.94075,-1.29223198 -0.39761,-0.367824 -0.87174,-0.665604 -1.39748,-0.871308 -0.52573,-0.205704 -1.10432,-0.319908 -1.71105,-0.319908 z m -7.57031,-12.2872563 c -1.21985,0 -2.41075,0.12498 -3.56101,0.366204 -1.15026,0.241224 -2.25989,0.598344 -3.31689,1.056516 -1.05698,0.458184 -2.06325,1.018104 -3.00328,1.668972 -0.94004,0.650856 -1.81454,1.392696 -2.61394,2.2119483 -0.7994,0.819264 -1.52215,1.715796 -2.15723,2.67918 -0.63509,0.963396 -1.18191,1.993692 -1.62897,3.076956 -0.44708,1.083252 -0.79589,2.22012 -1.03127,3.39895198 -0.23538,1.178844 -0.35779,2.39926802 -0.35779,3.64941542 0,1.250148 0.12241,2.47056 0.35779,3.6494036 0.23538,1.178844 0.58419,2.315712 1.03127,3.3989517 0.44706,1.083264 0.99388,2.113572 1.62897,3.076956 0.63508,0.963396 1.35783,1.859916 2.15723,2.67918 0.7994,0.819264 1.6739,1.561104 2.61394,2.211948 0.94003,0.650868 1.9463,1.2108 3.00328,1.668972 1.057,0.458172 2.16663,0.813192 3.31689,1.054416 1.15026,0.241224 2.34116,0.368304 3.56101,0.368304 1.21985,0 2.41076,-0.12708 3.56101,-0.368304 1.15026,-0.241224 2.2599,-0.596244 3.31687,-1.054416 1.057,-0.458172 2.06116,-1.018104 3.0012,-1.668972 0.94004,-0.650844 1.81454,-1.392684 2.61393,-2.211948 0.7994,-0.819264 1.52216,-1.715784 2.15724,-2.67918 0.63507,-0.963384 1.1819,-1.993692 1.62897,-3.076956 0.44708,-1.0832397 0.79589,-2.2201077 1.03126,-3.3989517 0.23538,-1.1788436 0.35779,-2.3992556 0.35779,-3.6494036 0,-1.2501474 -0.12241,-2.47057142 -0.35779,-3.64941542 -0.23537,-1.17883198 -0.58418,-2.31569998 -1.03126,-3.39895198 -0.44707,-1.083264 -0.9939,-2.11356 -1.62897,-3.076956 -0.63508,-0.963384 -1.35784,-1.859916 -2.15724,-2.67918 -0.79939,-0.8192523 -1.67389,-1.5610923 -2.61393,-2.2119483 -0.94004,-0.650868 -1.9442,-1.210788 -3.0012,-1.668972 -1.05697,-0.458172 -2.16661,-0.815292 -3.31687,-1.056516 -1.15025,-0.241224 -2.34116,-0.366204 -3.56101,-0.366204 z m 0.0569,-3.297936 c -1.41421,0 -2.79574,0.148224 -4.12927,0.431448 -1.33353,0.283212 -2.61973,0.701688 -3.84513,1.239612 -1.22541,0.537948 -2.38912,1.195248 -3.47894,1.959408 -1.08982,0.764148 -2.10599,1.635228 -3.03275,2.5971 -0.92677,0.961884 -1.76402,2.015304 -2.50029,3.1464003 -0.73626,1.131096 -1.37165,2.339712 -1.88994,3.61152 -0.51832,1.271832 -0.92045,2.606328 -1.19332,3.990372 -0.27288,1.38404398 -0.41672,2.817228 -0.41672,4.2849954 0,1.467768 0.14384,2.900952 0.41672,4.2849956 0.27287,1.384044 0.675,2.71854 1.19332,3.9903597 0.51829,1.27182 1.15368,2.480436 1.88994,3.611532 0.73627,1.131096 1.57352,2.186628 2.50029,3.148512 0.92676,0.96186 1.94293,1.83084 3.03275,2.594988 1.08982,0.76416 2.25353,1.423572 3.47894,1.961508 1.2254,0.537936 2.5116,0.9543 3.84513,1.237512 1.33353,0.283212 2.71506,0.431448 4.12927,0.431448 1.4142,0 2.79572,-0.148236 4.12926,-0.431448 1.33352,-0.283212 2.61973,-0.699576 3.84514,-1.237512 1.22539,-0.537936 2.38911,-1.197348 3.47893,-1.961508 1.08981,-0.764148 2.10387,-1.633128 3.03065,-2.594988 0.92677,-0.961884 1.76612,-2.017416 2.50239,-3.148512 0.73626,-1.131096 1.36954,-2.339712 1.88784,-3.611532 0.51829,-1.2718197 0.92255,-2.6063157 1.19543,-3.9903597 0.27287,-1.3840436 0.4146,-2.8172276 0.4146,-4.2849956 0,-1.4677674 -0.14173,-2.90095142 -0.4146,-4.2849954 -0.27288,-1.384044 -0.67714,-2.71854 -1.19543,-3.990372 -0.5183,-1.271808 -1.15158,-2.480424 -1.88784,-3.61152 -0.73627,-1.1310963 -1.57562,-2.1845163 -2.50239,-3.1464003 -0.92678,-0.961872 -1.94084,-1.832952 -3.03065,-2.5971 -1.08982,-0.76416 -2.25354,-1.42146 -3.47893,-1.959408 -1.22541,-0.537924 -2.51162,-0.9564 -3.84514,-1.239612 -1.33354,-0.283224 -2.71506,-0.431448 -4.12926,-0.431448 z m -82.14752,-1.311168 c -0.5376,0.186624 -0.84884,0.764964 -1.20594,1.20804 -0.38206,0.474048 -0.85208,0.943176 -0.98918,1.536372 -0.14097,0.610104 -0.19258,1.394556 0.221,1.864692 0.29884,0.339348 0.86628,0.272988 1.31538,0.328332 0.39937,0.04908 0.82374,0.139872 1.23751,0.172572 0.41378,0.03264 0.81867,0.0072 1.17859,-0.172572 0.49079,-0.2454 0.85709,-0.782292 0.98707,-1.315404 0.15814,-0.64854 -0.15275,-1.332192 -0.32832,-1.976232 -0.13403,-0.49158 -0.14691,-1.114392 -0.54931,-1.426932 -0.49453,-0.384108 -1.27526,-0.424236 -1.8668,-0.218868 z m -26.276161,-0.147324 c -0.38373,-0.012 -0.75212,0.04392 -1.0502,0.256764 -0.32064,0.22896 -0.5119,0.582624 -0.6377,0.976536 -0.12581,0.393912 -0.18583,0.828312 -0.23993,1.218576 -0.0481,0.34614 -0.10272,0.731952 -0.0905,1.098612 0.0122,0.366648 0.0905,0.714684 0.30937,0.98706 0.2174,0.270516 0.54102,0.41286 0.89447,0.498792 0.35345,0.08604 0.73755,0.1158 1.08177,0.15996 0.54547,0.06996 1.20612,0.218772 1.64582,-0.1116 0.34232,-0.257184 0.32231,-0.794232 0.43986,-1.205952 0.19502,-0.682992 0.55112,-1.3845 0.43776,-2.085684 -0.0811,-0.501684 -0.37972,-0.989796 -0.76818,-1.317492 -0.2389,-0.201528 -0.5688,-0.280272 -0.87763,-0.328308 -0.36192,-0.0564 -0.76119,-0.135636 -1.14492,-0.147324 z m 12.998121,-26.520301 c -0.71069,0.252312 -1.17896,0.940476 -1.75524,1.426932 -2.71387,2.290752 -5.49778,4.515168 -8.01229,7.023108 -2.036971,2.031648 -3.938471,4.205196 -5.707721,6.473808 -1.74723,2.240364 -3.38444,4.578132 -4.82799,7.02522 -0.62343,1.056792 -1.41959,2.085672 -1.64583,3.291625 -0.14564,0.776352 -0.1782,1.587312 -0.10308,2.388732 0.0751,0.801432 0.25663,1.592832 0.54088,2.329812 0.32912,0.853272 0.85551,1.60284 1.44798,2.312988 0.59247,0.710136 1.25243,1.381308 1.84577,2.077248 0.99025,1.16154 2.20749,2.1169683 3.18217,3.2916243 1.57499,1.898124 2.86625,4.015536 4.28079,6.036048 1.734241,2.47717198 3.606101,4.8666834 5.156311,7.4629674 1.03164,1.7277716 2.02808,3.4968236 2.74443,5.3773073 0.56538,1.484208 0.60766,3.13872 1.20804,4.609116 0.22299,0.546096 0.38895,1.204428 0.6356,1.7805 0.24667,0.576084 0.57334,1.0698 1.11967,1.292232 0.49331,0.200868 1.19259,-0.03096 1.53637,-0.43776 0.42761,-0.50604 0.46034,-1.171008 0.42512,-1.870992 -0.0353,-0.699996 -0.13748,-1.434576 0.0148,-2.079372 0.1702,-0.7209 0.4277,-1.427856 0.7682,-2.085672 0.65301,-1.261584 1.67545,-2.2991157 2.414,-3.5126037 0.92742,-1.523856 1.5999,-3.1923476 2.52343,-4.7185556 1.14513,-1.8924114 2.53345,-3.62738342 3.73149,-5.4867474 0.95145,-1.476696 1.79035,-3.024672 2.74442,-4.499676 1.30055,-2.010672 2.52991,-4.0844283 4.05982,-5.9265963 0.57841,-0.69648 1.3733,-1.234704 2.10672,-1.809984 0.73341,-0.57528 1.40523,-1.187484 1.7342,-2.03094 0.3193,-0.818664 0.4013,-1.716864 0.33463,-2.62026 -0.0667,-0.903396 -0.28141,-1.812072 -0.55351,-2.647608 -0.40843,-1.254145 -1.47577,-2.186089 -2.19511,-3.291625 -1.48888,-2.288172 -2.755,-4.7277 -4.39024,-6.913668 -1.8635,-2.491068 -3.9926,-4.779552 -6.14549,-7.02522 -1.4683,-1.531584 -3.02728,-2.974056 -4.60911,-4.388124 -0.55174,-0.493212 -1.05448,-1.081152 -1.59321,-1.607928 -0.53872,-0.526776 -1.11452,-0.992916 -1.80996,-1.245936 -0.37814,-0.13758 -0.82674,-0.13464 -1.20595,0 z m -19.974921,-6.475918 c -0.58721,-0.0558 -1.15132,0.430786 -1.53639,0.87763 -0.46119,0.5352 -0.71813,1.194732 -0.92391,1.883628 -0.20579,0.688896 -0.36036,1.408848 -0.61245,2.068836 -0.44607,1.167948 -1.10258,2.27856 -1.31539,3.510516 -0.28025,1.622376 -0.39739,3.25068 -0.41461,4.884816 -0.0173,1.634136 0.0641,3.274536 0.17889,4.9206 0.22958,3.292128 0.59261,6.60774 0.56405,9.948528 -0.002,0.213876 0.2013,0.368292 0.45459,0.446184 0.25329,0.07788 0.55761,0.08016 0.75345,-0.006 0.30763,-0.135792 0.42106,-0.454116 0.49669,-0.812388 0.0756,-0.35826 0.1134,-0.757596 0.2715,-1.054404 0.61992,-1.164204 1.43789,-2.211684 2.19512,-3.291624 0.99132,-1.413804 1.89753,-2.90418 3.07274,-4.169256 0.4591,-0.494184 1.12126,-0.833184 1.72158,-1.20804 0.60032,-0.37488 1.1387,-0.786732 1.35116,-1.426932 0.23621,-0.711756 0.0839,-1.44648 -0.17468,-2.184612 -0.25858,-0.738108 -0.62491,-1.480068 -0.81449,-2.205624 -0.55008,-2.105244 -1.26253,-4.164 -1.86469,-6.254928 -0.18912,-0.6567 -0.27923,-1.355796 -0.41461,-2.035164 -0.13537,-0.67938 -0.3151,-1.338588 -0.6819,-1.9152 -0.27153,-0.426864 -0.59628,-0.896028 -0.97864,-1.271196 -0.38238,-0.375168 -0.82439,-0.657178 -1.32801,-0.705046 z m 41.484131,-0.76818 c -0.28365,-0.08088 -0.55237,0.04656 -0.80818,0.239928 -0.25579,0.193416 -0.4986,0.45258 -0.72819,0.637692 -0.5747,0.463378 -1.14342,0.960718 -1.65424,1.50481 -0.51082,0.544092 -0.96392,1.13634 -1.30907,1.788924 -0.4314,0.815676 -0.64458,1.713648 -0.80817,2.630772 -0.1636,0.917124 -0.27606,1.85322 -0.50721,2.746524 -0.26123,1.009488 -0.82445,2.019408 -1.24593,3.026436 -0.21076,0.503532 -0.38615,1.00518 -0.47145,1.506912 -0.0852,0.501732 -0.081,1.003536 0.0694,1.5027 0.1122,0.372312 0.41904,0.6138 0.76399,0.833424 0.34494,0.219636 0.72948,0.417324 0.99338,0.702948 1.33059,1.44018 2.36841,3.124728 3.5105,4.718556 0.75062,1.047504 1.5812,2.049108 2.19511,3.182184 0.36731,0.677928 0.42196,1.771728 0.57667,2.683392 0.0774,0.45582 0.18051,0.866388 0.35988,1.157532 0.1794,0.291156 0.43384,0.462144 0.8187,0.43986 0.54053,-0.0312 0.90414,-0.303492 1.14702,-0.728196 0.2429,-0.424692 0.36556,-1.00158 0.43145,-1.6416 0.13179,-1.280028 0.0312,-2.81238 0.1789,-3.885132 0.18462,-1.340868 0.21871,-2.696388 0.18941,-4.053492 -0.0293,-1.357092 -0.122,-2.71638 -0.18941,-4.068228 -0.10992,-2.203092 -0.28051,-4.41216 -0.65875,-6.585336 -0.33622,-1.931748 -0.71661,-3.878028 -1.42694,-5.705628 -0.18085,-0.465324 -0.29684,-1.055808 -0.48826,-1.563732 -0.19143,-0.507934 -0.45855,-0.934426 -0.93867,-1.07125 z M 90.326189,-116.59658 c -0.53632,-0.12299 -1.12102,0.0438 -1.63739,0.36199 -0.51638,0.31821 -0.96599,0.78722 -1.23541,1.26699 -0.20275,0.36104 -0.26469,0.79145 -0.23572,1.22699 0.0289,0.43554 0.14917,0.87643 0.31359,1.25646 0.31956,0.73863 1.2169,1.06837 1.70684,1.70684 1.29113,1.68247 2.1369,3.66461 3.18218,5.50988 0.26253,0.46346 0.4426,0.99477 0.66086,1.49429 0.21826,0.49954 0.4759,0.96649 0.89235,1.29855 0.32644,0.26028 0.82936,0.25018 1.30067,0.2673 0.47129,0.0172 0.91092,0.0617 1.10492,0.43143 0.24705,0.47082 0.21034,1.072 0.005,1.63319 -0.20613,0.561191 -0.58309,1.082375 -1.01442,1.393259 -0.47216,0.340296 -1.05312,0.350124 -1.66264,0.269388 -0.60956,-0.08076 -1.24718,-0.252048 -1.82892,-0.269388 -1.73541,-0.05172 -3.4732,-0.11472 -5.19842,-0.309384 -0.9381,-0.10596 -1.91852,-0.11556 -2.8728,-0.210456 -0.95426,-0.0948 -1.88284,-0.275976 -2.71495,-0.721884 -0.96785,-0.518635 -1.66728,-1.474795 -2.24984,-2.405575 -0.63207,-1.00988 -1.0231,-2.13776 -1.38063,-3.28322 -0.35754,-1.14546 -0.68203,-2.30856 -1.1807,-3.39052 -0.34126,-0.71674 -0.78772,-1.39199 -1.11965,-2.11305 -0.33193,-0.72105 -0.55056,-1.4867 -0.43355,-2.38663 -0.21358,-0.48554 -0.50942,-1.05288 -0.88604,-1.49639 -0.37662,-0.44351 -0.83345,-0.76471 -1.36379,-0.75555 -0.53067,0.008 -1.03136,0.32995 -1.42062,0.7787 -0.38925,0.44875 -0.66623,1.02512 -0.75135,1.54901 -0.0512,0.42829 0.0799,0.91022 0.30728,1.42482 0.22735,0.51459 0.55144,1.06268 0.88183,1.62897 0.33039,0.56628 0.66809,1.14875 0.92603,1.73211 0.25793,0.58335 0.43616,1.16837 0.44617,1.7342 0.69745,1.46879 1.80053,2.75003 2.81809,4.06191 0.50879,0.65595 0.99521,1.32061 1.39958,2.01834 0.40435,0.6977 0.72589,1.428967 0.90288,2.222467 0.19837,0.88938 -0.0792,1.833288 -0.30939,2.714964 -0.21969,0.841308 -0.70231,1.592388 -1.01021,2.405568 -1.14124,3.014088 -2.13948,6.082104 -3.10431,9.1572 -0.18136,0.578016 -0.18719,1.273584 -0.27149,1.9131 -0.0842,0.639516 -0.24644,1.224576 -0.73663,1.580568 -0.31411,0.228144 -0.74884,0.333216 -1.17858,0.319896 -0.42975,-0.01332 -0.85419,-0.14532 -1.14913,-0.397764 -0.42006,-0.359604 -0.12833,-1.109316 -0.31148,-1.631088 -0.41196,-1.173708 -1.01071,-2.263584 -1.64371,-3.34002 -0.63297,-1.076448 -1.29971,-2.139228 -1.84784,-3.255852 -1.07637,-2.192688 -2.02417,-4.446228 -3.02645,-6.673752 -0.65093,-1.446648 -1.156,-2.965104 -1.94046,-4.343917 -0.26618,-0.46783 -0.42816,-1.1256 -0.93024,-1.3196 -0.44491,-0.17193 -1.01676,0.0221 -1.39746,0.30938 -0.56354,0.42532 -0.86898,1.1704 -1.00812,1.862581 -0.10248,0.509724 0.0136,1.053084 0.15574,1.55322 0.33046,1.162872 0.84303,2.257644 1.4143,3.329496 0.57128,1.071852 1.19968,2.120316 1.76578,3.188496 1.04719,1.975932 2.2011,3.89352 3.33793,5.81928 1.21555,2.059092 2.78308,3.933036 3.72517,6.130752 0.1953,0.455616 0.45215,0.934344 0.62927,1.418508 0.17713,0.484164 0.273,0.973224 0.14523,1.45218 -0.1273,0.477156 -0.48353,0.819024 -0.89235,1.132284 -0.40883,0.313272 -0.8691,0.598908 -1.20175,0.963912 -2.12819,2.335344 -3.86974,5.010552 -6.05288,7.29462 -0.39855,0.416964 -0.75213,1.02426 -1.14911,1.515312 -0.39699,0.491076 -0.83785,0.865596 -1.41221,0.812388 -0.53317,-0.04932 -0.89038,-0.453876 -1.17858,-0.963912 -0.2882,-0.510036 -0.50782,-1.126056 -0.76188,-1.597404 -0.62496,-1.159476 -0.81809,-2.506332 -1.31749,-3.725172 -0.83359,-2.034564 -1.98863,-3.929496 -2.79493,-5.975016 -0.73796,-1.87212 -1.40622,-3.781512 -1.86258,-5.7414 -0.20451,-0.878244 -0.15641,-1.837008 -0.1789,-2.765472 -0.0226,-0.928464 -0.11616,-1.826292 -0.59772,-2.588676 -0.17431,-0.275988 -0.41802,-0.568392 -0.70084,-0.780816 -0.2828,-0.212412 -0.60406,-0.3465 -0.92812,-0.307272 -0.62706,0.07584 -1.1792,0.471852 -1.61846,0.999696 -0.43926,0.527844 -0.7661,1.18884 -0.94287,1.795236 -0.12496,0.4287 -0.0676,0.872712 0.0505,1.317492 0.11808,0.444804 0.29841,0.889008 0.41671,1.319592 0.87176,3.173352 2.05152,6.275952 3.49156,9.235068 1.00554,2.066268 2.32848,3.963084 3.56943,5.897148 0.44749,0.697428 1.03905,1.326732 1.57215,1.980444 0.53311,0.6537 1.00696,1.333452 1.22068,2.13408 0.0954,0.357444 0.0659,0.765876 -0.0821,1.104924 -0.27966,0.6405 -0.89925,1.078116 -1.42693,1.536372 -0.77385,0.67206 -1.60973,1.292976 -2.52343,1.757352 -1.89764,0.964452 -4.00211,1.457772 -6.03605,2.085684 -1.99266,0.615168 -3.96566,1.395516 -6.03606,1.645812 -1.41681,0.171252 -2.86028,-0.246972 -4.28078,-0.10944 -0.6714,0.06492 -1.44711,0.02088 -2.16144,0.09252 -0.71434,0.07164 -1.36685,0.258852 -1.78894,0.785016 -0.20599,0.256824 -0.21219,0.58494 -0.16415,0.932352 0.048,0.347412 0.15035,0.712848 0.16415,1.04178 0.0733,1.742242 0.35037,3.479326 0.58089,5.215258 0.23052,1.735908 0.41407,3.471204 0.29676,5.211024 -0.0682,1.009512 -0.4167,1.9809 -0.65876,2.963304 -0.43521,1.76634 -0.86916,3.536316 -1.42693,5.267856 -0.47916,1.487496 -0.9389,2.996496 -1.64581,4.390236 -0.28686,0.56556 -0.50114,1.276992 -0.79765,1.889952 -0.29652,0.612948 -0.67578,1.127016 -1.28802,1.292232 -0.39487,0.10656 -0.83952,-0.231132 -1.09651,-0.549312 -0.41534,-0.514212 -0.61238,-1.147896 -0.7303,-1.816272 -0.11796,-0.6684 -0.15613,-1.37136 -0.25676,-2.024652 -0.41273,-2.679372 -0.2829,-5.415288 -0.43988,-8.12172 -0.2398,-4.134696 -0.8517,-8.259624 -0.76819,-12.400404 0.0144,-0.71695 0.19667,-1.435762 0.33885,-2.150926 0.14218,-0.715164 0.2452,-1.427436 0.10092,-2.12988 -0.15146,-0.737868 -0.53004,-1.480032 -1.09862,-1.97412 -0.38458,-0.334236 -0.92848,-0.655044 -1.42693,-0.5493 -0.43015,0.0912 -0.83798,0.3465 -1.16805,0.683988 -0.33008,0.337512 -0.58142,0.756324 -0.69663,1.180692 -0.11388,0.41958 0.0211,0.835956 0.19993,1.25436 0.17877,0.41838 0.40151,0.840204 0.45881,1.271184 0.26279,1.976376 0.22875,3.971866 0.15995,5.970802 -0.0688,1.998936 -0.17266,4.00182 -0.0505,5.991852 0.1782,2.90316 0.71689,5.772852 0.98706,8.66892 0.0936,1.00428 0.034,2.037672 0.0358,3.058008 0.002,1.020324 0.0661,2.027676 0.40409,2.97804 0.1496,0.42072 0.55274,0.747324 0.90918,1.079664 0.35645,0.332328 0.66613,0.670608 0.62719,1.115448 -0.0338,0.38652 -0.27727,0.702516 -0.59562,0.970224 -0.31834,0.26772 -0.71124,0.486756 -1.0502,0.675588 -1.11623,0.62178 -2.61525,0.255828 -3.73149,0.877632 -0.54234,0.302112 -1.30763,0.669912 -1.88363,1.107024 -0.28801,0.218544 -0.52911,0.454849 -0.67137,0.709249 -0.14227,0.254412 -0.18622,0.527052 -0.0799,0.8187 0.14454,0.39678 0.56625,0.422448 1.05651,0.364104 0.49026,-0.05832 1.05051,-0.201348 1.46903,-0.145224 1.21609,0.163068 2.43624,0.335712 3.61993,0.658752 1.42919,0.390036 2.82482,0.918744 4.17137,1.53636 1.36935,0.628092 2.76639,1.263564 3.95037,2.195124 0.99694,0.784416 1.94017,1.651404 2.80755,2.588688 0.86739,0.93726 1.65935,1.944012 2.35086,3.007488 0.72795,1.1194923 1.39782,2.3011203 1.94889,3.5315643 0.55105,1.23042 0.9829,2.510316 1.2333,3.821976 0.16471,0.862812 0.094,1.778148 -0.0715,2.70863998 -0.16552,0.930516 -0.42506,1.87520402 -0.63981,2.80125542 -0.21475,0.926052 -0.38528,1.831824 -0.36831,2.68128 0.017,0.8494676 0.22166,1.6438316 0.75135,2.3445356 0.18191,0.240612 0.58357,0.286128 0.87762,0.218892 0.41778,-0.09564 0.74171,-0.376164 1.04601,-0.698736 0.30428,-0.322584 0.58767,-0.686784 0.92814,-0.947076 1.06422,-0.8136356 2.16397,-1.5846836 3.29372,-2.3045636 1.60336,-1.021644 3.24577,-1.9862394 4.93744,-2.85385142 2.92825,-1.501824 6.07128,-2.55759598 8.99935,-4.05981598 2.40612,-1.234428 4.59283,-2.875704 7.02311,-4.061904 3.51019,-1.713336 7.25905,-2.8895523 10.86614,-4.3881363 1.63459,-0.679104 3.57247,-0.993996 5.35415,-1.5027 0.89084,-0.254352 1.7436,-0.557256 2.49818,-0.978648 0.75459,-0.421392 1.41013,-0.9618 1.91309,-1.690008 0.24972,-0.361512 0.28436,-0.800256 0.25256,-1.25856 -0.0318,-0.458304 -0.12826,-0.935136 -0.14101,-1.374312 -0.0108,-0.367488 0.10368,-0.986376 0.1368,-1.47744 0.0166,-0.245544 0.0131,-0.457992 -0.0379,-0.593508 -0.0509,-0.135516 -0.14929,-0.192624 -0.31989,-0.124176 -3.52919,1.415832 -7.12043,3.315072 -10.64517,5.046876 -6.37263,3.131076 -12.5513,6.6561003 -18.98576,9.6580923 -1.81954,0.848904 -3.61432,1.793676 -5.44254,2.643408 -1.82823,0.84972 -3.68863,1.60392 -5.64037,2.075148 -0.49911,0.120516 -1.07523,0.34675198 -1.62267,0.45670798 -0.54744,0.10992 -1.06609,0.10512 -1.45008,-0.23571598 -0.2876,-0.255288 -0.28049,-0.642984 -0.21888,-1.06074 0.0617,-0.417732 0.17591,-0.86544 0.10728,-1.243812 -0.19187,-1.058652 -0.59629,-2.072436 -0.98707,-3.074856 -0.5707,-1.464 -1.1398,-2.9472 -1.97413,-4.2786843 -0.97992,-1.563804 -2.22648,-2.957328 -3.51261,-4.280796 -1.5541,-1.599228 -3.2882,-3.021876 -5.04897,-4.390236 -0.68507,-0.532392 -1.84771,-0.84804 -2.79283,-1.243824 -0.47256,-0.197904 -0.88914,-0.416256 -1.16596,-0.690324 -0.27683,-0.274068 -0.41264,-0.605376 -0.31991,-1.029157 0.0674,-0.308448 0.37782,-0.412788 0.74925,-0.429348 0.37142,-0.01656 0.80299,0.05556 1.11544,0.10104 1.49751,0.217884 2.92346,0.779401 4.27659,1.513213 1.35313,0.733824 2.63409,1.639188 3.84513,2.546592 1.11862,0.838152 2.06396,1.919556 2.85387,3.072744 0.85062,1.241784 1.29266,2.719824 1.97413,4.061916 0.31858,0.627396 0.46042,1.5545523 0.69874,2.3277003 0.11916,0.38658 0.26374,0.734232 0.46512,0.987072 0.20137,0.25284 0.46059,0.411048 0.81238,0.416712 0.40756,-0.622536 0.67346,-1.360164 0.84816,-2.169852 0.1747,-0.8097123 0.25838,-1.6930803 0.30095,-2.6076363 0.0851,-1.829088 0.007,-3.7848 0.16837,-5.539356 -0.0394,-2.34096 -0.24379,-4.678453 -0.55561,-7.004161 -0.31182,-2.325708 -0.73244,-4.63884 -1.20174,-6.932628 -0.58719,-2.870028 -1.48487,-5.671776 -2.41399,-8.450028 -0.32321,-0.966444 -0.81098,-1.888008 -1.24804,-2.820192 -0.43707,-0.932196 -0.82366,-1.875996 -0.94708,-2.887536 -0.0535,-0.43914 -0.18893,-1.057956 -0.20205,-1.58688 -0.0132,-0.528924 0.0972,-0.966948 0.53248,-1.046004 0.50311,-0.09132 0.94746,-0.05076 1.34274,0.09888 0.39529,0.149652 0.74149,0.40704 1.0481,0.749244 0.61323,0.684408 1.06824,1.706856 1.44166,2.870712 0.74685,2.3277 1.16627,5.22582 1.87311,7.145172 0.60266,1.636428 1.05615,3.325572 1.42062,5.036352 0.36448,1.71078 0.63987,3.442248 0.88394,5.16894 0.52312,3.70098 0.7215,7.457221 0.65875,11.194465 -0.0334,1.983576 -0.0884,3.997008 -0.5493,5.926608 -0.18817,0.6663483 -1.2025,2.0829843 -1.69001,3.2011203 -0.24377,0.55908 -0.35497,1.043352 -0.16627,1.321716 0.1887,0.27834 0.67802,0.351096 1.63739,0.08628 0.59263,-0.211896 1.17104,-0.584016 1.53637,-1.0965 0.59796,-0.838836 0.45647,-2.023188 0.87763,-2.9632923 0.73877,-1.649076 1.95605,-3.040944 2.85385,-4.609128 0.73986,-1.292292 1.35111,-2.657172 2.08569,-3.952476 0.53852,-0.94956 0.87226,-2.524968 1.33012,-3.775681 0.22892,-0.625344 0.48922,-1.170192 0.82079,-1.513224 0.33157,-0.34302 0.73407,-0.48498 1.25015,-0.307272 0.44405,0.152904 0.65174,0.46494 0.70715,0.87552 0.0554,0.410592 -0.0421,0.919764 -0.20836,1.466917 -0.33242,1.094316 -0.94071,2.339856 -1.15754,3.25374 -0.29651,1.249848 -0.72025,2.483688 -1.31538,3.622056 -1.05799,2.023752 -2.72297,3.673884 -3.95248,5.5982763 -0.37497,0.586944 -1.19227,1.67526 -1.76787,2.525544 -0.28781,0.42516 -0.51424,0.790452 -0.59561,1.003908 -0.0814,0.213456 -0.0163,0.273768 0.27992,0.09048 6.61075,-4.091064 12.55401,-7.5150363 18.30385,-10.3862883 2.87494,-1.435632 5.70094,-2.7339 8.53845,-3.90618 2.83751,-1.17228 5.68503,-2.220277 8.60367,-3.156925 0.30862,-0.099 0.49293,-0.0192 0.60404,0.0048 0.11112,0.0234 0.14894,-0.0084 0.16416,-0.332532 0.0671,-1.433292 -0.26272,-2.832432 -0.65034,-4.230288 -0.38762,-1.397856 -0.83265,-2.794164 -0.99548,-4.219764 -0.23677,-2.072928 -0.21214,-4.168488 -0.21888,-6.254916 -0.005,-1.262592 -0.0866,-2.540112 -0.0989,-3.809364 -0.0122,-1.269252 0.0451,-2.53026 0.31781,-3.763056 0.33976,-1.535988 0.88725,-3.0192 1.54269,-4.459692 0.65542,-1.44048 1.41897,-2.83945 2.1888,-4.211338 0.26325,-0.46914 0.47434,-1.04334 0.74713,-1.542684 0.27279,-0.499344 0.6084,-0.922824 1.11967,-1.090188 0.43975,-0.143964 0.90355,-0.05316 1.35536,0.138912 0.45182,0.192 0.89067,0.484812 1.27751,0.738708 0.59557,0.390912 0.98307,1.332084 1.38484,2.102508 0.20089,0.385224 0.40646,0.726468 0.64191,0.936564 0.23544,0.210096 0.50177,0.288132 0.8271,0.143112 0.31089,-0.138564 0.44872,-0.376464 0.47987,-0.677688 0.0311,-0.301224 -0.045,-0.66582 -0.16627,-1.054404 -0.24275,-0.777168 -0.66376,-1.65294 -0.75346,-2.327712 -0.18542,-1.395048 -0.58141,-2.766168 -0.65874,-4.171356 -0.10764,-1.956288 -0.16087,-3.9309 -0.0925,-5.897136 0.0682,-1.966248 0.25866,-3.923136 0.64191,-5.844528 0.17882,-0.89652 0.80103,-1.757112 1.30065,-2.607624 0.24981,-0.425256 0.46943,-0.84714 0.58719,-1.271196 0.11772,-0.424044 0.13476,-0.849888 -0.021,-1.279608 -0.12993,-0.35832 -0.36412,-0.62838 -0.66085,-0.843948 -0.29673,-0.215568 -0.65673,-0.37758 -1.03968,-0.521952 -0.76592,-0.288708 -1.62464,-0.505512 -2.25195,-0.938652 -1.62667,-1.123152 -3.08628,-2.471076 -4.6091,-3.731484 -0.71986,-0.595812 -1.51695,-1.12134 -2.27089,-1.687908 -0.75395,-0.566568 -1.46342,-1.174656 -2.00781,-1.934148 -0.75588,-1.054548 -0.93354,-2.422032 -1.42693,-3.622044 -0.31781,-0.772992 -1.01375,-1.469136 -0.98917,-2.304552 0.008,-0.286176 0.0598,-0.649068 0.17889,-0.951288 0.11916,-0.302232 0.306,-0.54372 0.5893,-0.585084 0.60818,-0.08892 1.1227,0.0924 1.57636,0.441972 0.45364,0.349524 0.84651,0.86814 1.21857,1.45218 0.74411,1.168092 1.39863,2.600292 2.25405,3.483144 1.15197,1.188936 2.25873,2.431644 3.5126,3.512604 0.93096,0.802584 1.80083,1.828584 2.74442,2.689704 0.4718,0.430572 0.9613,0.82014 1.48587,1.11966 0.52458,0.299508 1.08589,0.509544 1.69632,0.580872 0.27671,0.03228 0.54996,-0.157224 0.76818,-0.33042 0.60463,-0.479844 1.06704,-1.09764 1.49007,-1.753152 0.42303,-0.655512 0.80541,-1.34892 1.25225,-1.978332 1.386231,-1.95258 2.775231,-3.9036 4.059811,-5.924508 1.16114,-1.8267 2.26041,-3.69636 3.29372,-5.598288 0.42955,-0.790632 0.59134,-2.087844 0.86711,-3.142203 0.13789,-0.52717 0.3053,-0.9925 0.5472,-1.30484 0.24189,-0.31236 0.55883,-0.4706 0.99969,-0.38094 0.28737,0.0584 0.32838,0.35159 0.29044,0.70294 -0.0379,0.35134 -0.15517,0.76022 -0.181,1.05231 -0.12254,1.387573 -0.5886,2.727133 -0.98707,4.061905 -0.49977,1.674108 -1.06099,3.334176 -1.75524,4.937436 -0.53963,1.24614 -1.13655,2.477148 -1.8668,3.622056 -1.44411,2.264088 -3.44973,4.128672 -4.937441,6.364368 -0.5354,0.8046 -1.09015,1.61964 -1.42692,2.525532 -0.51999,1.39872 -0.63667,2.915472 -0.87763,4.388124 -0.27989,1.71054 -0.52758,3.430116 -0.65875,5.158428 -0.22572,2.973744 -0.4653,5.960868 -0.58297,8.946732 -0.11772,2.985876 -0.11436,5.971356 0.14311,8.942518 0.12881,1.486668 0.44785,2.961216 0.87762,4.390236 0.7785,2.492472 1.36977,4.907976 1.97624,7.460868 0.27101,0.1557 0.6328,-0.134052 0.87762,-0.32832 0.41328,-0.327936 0.54568,-0.907416 0.877631,-1.31748 1.31841,-1.62864 2.78705,-3.150432 4.39023,-4.499676 0.86562,-0.728508 1.6992,-1.694232 2.59921,-2.475036 0.45001,-0.390408 0.91667,-0.73338 1.4122,-0.978648 0.49552,-0.245268 1.01912,-0.392592 1.58478,-0.387252 0.47202,0.0048 0.86106,0.275028 1.22488,0.614556 0.36383,0.339516 0.70238,0.747612 1.07967,1.031256 1.60287,1.20504 3.20426,2.419284 4.72065,3.731496 0.70445,0.609576 1.26963,1.69128 1.88364,2.559216 0.30701,0.433968 0.62577,0.814188 0.98076,1.056516 0.35499,0.242328 0.7454,0.345312 1.19542,0.225192 0.369,-0.09852 0.61628,-0.328836 0.78503,-0.641904 0.16873,-0.313092 0.25824,-0.708048 0.31148,-1.138596 0.10644,-0.86112 0.068,-1.85928 0.22098,-2.607636 0.65626,-3.209844 0.85425,-6.500256 1.09651,-9.76753 0.22461,-3.029928 0.41798,-6.071808 0.33042,-9.10878 -0.0619,-2.148576 -0.16334,-4.303584 -0.34936,-6.44856 -0.18602,-2.144964 -0.45748,-4.28004 -0.85869,-6.391728 -0.13506,-0.710868 -0.24051,-1.450632 -0.4104,-2.16354 -0.16988,-0.712908 -0.40505,-1.399992 -0.79765,-2.007804 -0.35198,-0.544956 -0.8885,-0.92376 -1.43956,-1.292232 -0.55106,-0.368484 -1.11685,-0.725928 -1.52374,-1.231212 -0.94948,-1.17906 -1.73802,-2.478216 -2.43083,-3.834612 -0.69281,-1.356396 -1.28853,-2.770968 -1.84786,-4.177668 -0.92467,-2.325456 -1.54127,-4.777524 -1.97624,-7.241988 -0.11484,-0.650688 -0.5166,-1.558093 -0.7303,-2.342443 -0.10692,-0.39216 -0.16707,-0.7536 -0.12,-1.03757 0.047,-0.28398 0.20176,-0.48899 0.52194,-0.57036 0.36316,-0.0923 0.67006,-0.0756 0.93235,0.0316 0.2623,0.10728 0.47944,0.30344 0.66296,0.56826 0.36703,0.52959 0.59874,1.33236 0.78292,2.241405 0.18418,0.909036 0.32103,1.92534 0.4988,2.879124 0.17775,0.95376 0.39726,1.844916 0.74503,2.508696 1.13553,2.167428 2.43602,4.253688 3.84093,6.257028 0.72494,1.03374 1.29492,2.349192 1.98886,3.489468 0.34697,0.570132 0.7247,1.096512 1.16806,1.521624 0.44336,0.425136 0.95247,0.749832 1.56163,0.915516 0.49166,0.13374 0.95491,-0.357468 1.42693,-0.5493 1.54855,-0.629376 3.21797,-1.04946 4.6091,-1.976244 1.4425,-0.960996 2.4889,-2.413656 3.73151,-3.622044 1.42801,-1.388712 3.04947,-2.601828 4.27869,-4.169244 0.22262,-0.283872 0.32192,-0.789288 0.45248,-1.20384 0.13057,-0.414552 0.29356,-0.73938 0.64613,-0.662964 0.34151,0.07404 0.42839,0.424824 0.41461,0.841848 -0.0138,0.417036 -0.12887,0.90084 -0.19574,1.243836 -0.11904,0.610392 -0.56289,1.109448 -0.87762,1.6458 -0.92439,1.575336 -1.74341,3.249708 -2.96331,4.609128 -0.81655,0.909948 -1.69387,1.797 -2.64129,2.588676 -0.94742,0.791676 -1.96382,1.48992 -3.06432,2.022528 -1.04648,0.506472 -2.34573,0.285072 -3.40317,0.768204 -0.39264,0.179376 -0.85205,0.355392 -1.24383,0.591384 -0.39179,0.235992 -0.71651,0.5319 -0.84185,0.944976 -0.20329,0.669912 0.062,1.31844 0.42303,1.96992 0.361,0.651492 0.81794,1.305516 1.0039,1.980444 0.61366,2.227164 1.1396,4.500948 1.31749,6.804228 0.15222,1.970904 0.18838,3.955512 0.11364,5.937132 -0.0746,1.98162 -0.26119,3.958956 -0.55351,5.913984 -0.0931,0.622824 -0.53065,1.289544 -0.84816,1.923624 -0.15875,0.31704 -0.28866,0.626412 -0.32832,0.917604 -0.0396,0.291204 0.01,0.564012 0.20626,0.810276 0.21445,0.242196 0.48577,0.358714 0.7745,0.374626 0.28872,0.01596 0.59452,-0.06696 0.87552,-0.220978 0.56198,-0.307968 1.02786,-0.899652 1.06704,-1.549008 0.53426,-0.675204 1.33072,-1.213992 2.17196,-1.39746 0.35741,-0.07788 0.76482,-0.01944 1.08598,0.155748 0.45077,0.245832 0.80963,0.616116 1.12808,1.031256 0.31846,0.41514 0.59722,0.874836 0.89026,1.296444 0.8919,1.283254 1.82006,2.609926 2.24983,4.112422 0.45611,1.770444 0.46636,2.678604 1.39746,5.587764 0.16968,0.488724 0.005,1.0338 0,1.551096 -0.0194,1.914456 0.1554,3.778944 0.21889,5.667744 0.0635,1.8888 0.0149,3.80184 -0.45249,5.817156 -0.11568,1.438884 -0.26472,1.697028 -0.62086,3.415812 -0.0444,0.721632 -0.56895,1.643676 -0.91763,2.458188 -0.17432,0.407256 -0.30571,0.788412 -0.30937,1.102812 -0.004,0.314412 0.12099,0.56298 0.4525,0.70716 9.13877,3.974893 14.66408,6.329233 19.65293,8.618413 4.98883,2.28918 9.44036,4.5127923 16.43074,8.2206363 0.18844,0.09984 0.46797,0.123168 0.71558,0.07152 0.24762,-0.0516 0.46342,-0.179172 0.52616,-0.38304 0.14276,-0.464028 -0.17371,-0.830508 -0.61034,-1.170156 -0.43665,-0.33966 -0.99389,-0.651612 -1.33012,-1.001808 -0.79818,-0.831312 -1.7577,-1.5103323 -2.48346,-2.4055803 -0.6734,-0.830664 -1.22748,-1.761168 -1.70684,-2.717064 -1.25543,-2.503416 -2.22616,-5.153796 -3.02644,-7.837596 -0.21167,-0.709825 -0.78986,-1.663549 -1.14282,-2.506609 -0.17646,-0.421512 -0.29688,-0.815268 -0.28621,-1.136484 0.0108,-0.321204 0.15269,-0.569028 0.49879,-0.700836 0.61165,-0.232956 1.09136,-0.09132 1.49006,0.288324 0.3987,0.379716 0.71589,0.995952 0.9997,1.711056 0.56765,1.430232 1.00394,3.254569 1.70053,4.362877 1.30585,2.077668 2.63598,4.402032 3.87881,6.518004 0.83197,1.416444 1.14835,3.1407843 2.17408,4.4239083 0.32161,0.402324 0.71749,1.043892 1.13649,1.506912 0.20949,0.231504 0.42418,0.41976 0.63769,0.509304 0.21353,0.08952 0.42737,0.08136 0.6314,-0.07572 0.21326,-0.164292 0.25038,-0.36456 0.18309,-0.589296 -0.0672,-0.224748 -0.23897,-0.475092 -0.44407,-0.73662 -0.41018,-0.523044 -0.95364,-1.09458 -1.05863,-1.622664 -0.26869,-1.3515123 -0.37865,-2.7168243 -0.39145,-4.0892643 -0.0128,-1.37244 0.071,-2.75178 0.19152,-4.135572 0.24103,-2.767584 0.62622,-5.549173 0.66505,-8.304829 0.0299,-2.769324 0.28224,-5.365344 0.69874,-8.458464 0.56227,-2.346996 1.36905,-4.650012 2.40558,-6.829488 0.43633,-0.91746 0.74701,-2.369652 1.19121,-3.516816 0.22211,-0.573588 0.47886,-1.071624 0.79976,-1.386936 0.3209,-0.315324 0.70696,-0.448056 1.19121,-0.294648 0.38302,0.121332 0.37248,0.523776 0.25255,0.995484 -0.11988,0.471708 -0.34972,1.012608 -0.40828,1.410084 -0.21674,1.471188 -0.6136,2.912256 -1.00812,4.34604 -0.33857,1.230432 -0.88568,2.401824 -1.16386,3.647304 -0.2815,1.26036 -0.32224,2.569716 -0.39776,3.870396 -0.0756,1.300692 -0.18728,2.592048 -0.61245,3.811464 -0.50641,2.112564 -0.76488,4.24158 -0.98076,6.465397 -0.21587,2.223792 -0.38874,4.543032 -0.72608,7.037844 -0.0228,1.112724 -0.19611,2.422128 -0.18943,3.672552 0.004,0.625212 0.0532,1.23702 0.18732,1.7994483 0.13416,0.562428 0.35359,1.076268 0.70083,1.511124 0.17253,0.216036 0.44981,0.341796 0.74926,0.38934 0.29942,0.04752 0.62037,0.018 0.87972,-0.07788 0.31074,-0.11484 0.52692,-0.458952 0.62085,-0.776616 0.14746,-0.498576 -0.27518,-1.047192 -0.15573,-1.553196 0.13355,-0.5657523 0.42809,-1.0684083 0.7745,-1.5468963 0.34642,-0.478488 0.74488,-0.932544 1.08809,-1.401684 0.37937,-0.51858 0.81508,-0.992784 1.24172,-1.473228 1.10582,-1.24524 2.40844,-2.321148 3.41579,-3.647304 0.4213,-0.554628 0.62104,-1.266144 1.08599,-1.784712 0.56642,-0.63174 1.23757,-1.221 2.01833,-1.553208 0.48137,-0.204852 1.02931,-0.268788 1.55111,-0.231504 0.26938,0.0192 0.61093,0.01824 0.7766,0.231504 0.1906,0.245328 0.27389,0.569292 0.2778,0.90288 0.005,0.333576 -0.0712,0.676956 -0.19992,0.9597 -0.2745,0.602976 -1.03658,0.826968 -1.55322,1.241724 -0.93248,0.748572 -1.92212,1.430244 -2.79283,2.249844 -1.70663,1.606476 -3.34618,3.311244 -4.73329,5.2005 -0.42533,0.579336 -0.74614,1.2304443 -1.08808,1.8625923 -0.44033,0.813984 -1.11605,1.566576 -1.24172,2.48346 -0.11088,0.809172 0.40694,1.591044 0.46722,2.40558 0.0439,0.593868 0.0625,1.205976 -0.0779,1.784712 -0.0872,0.359916 -0.19126,0.761112 -0.46722,1.008108 -0.24381,0.218256 -0.61013,0.243792 -0.93024,0.31148398 -0.53387,0.11292 -1.08752,0.221208 -1.62898,0.153636 -0.3816,-0.04764 -0.80504,-0.126936 -1.08809,-0.38725198 -0.23005,-0.211572 -0.18714,-0.614376 -0.38725,-0.854472 -0.464,-0.556728 -1.15279,-0.886872 -1.78471,-1.241724 -1.67634,-0.941292 -3.43685,-1.71288 -5.21736,-2.445564 -1.7805,-0.732684 -3.58191,-1.425828 -5.3373,-2.209848 -6.76513,-3.0215283 -13.57212,-5.9531883 -20.25274,-9.1572003 -1.70023,-0.815424 -3.25337,-1.972716 -5.04479,-2.561316 -0.59791,-0.196476 -1.25577,-0.476364 -1.86258,-0.309384 -0.4247,0.11688 -0.84204,0.341604 -1.19752,0.637692 -0.35549,0.296112 -0.64773,0.663192 -0.8187,1.069152 -0.14092,0.334596 -0.20458,0.72714 -0.18099,1.111236 0.0236,0.384108 0.13287,0.761004 0.33462,1.06284 0.25716,0.384696 0.8169,0.437448 1.24174,0.620856 1.51766,0.655212 3.12596,1.08474 4.65751,1.706844 9.63348,3.9131763 19.10359,8.2315443 28.4797,12.7266363 1.53346,0.73517998 3.12024,1.38914398 4.66594,2.115132 1.5457,0.725988 3.05033,1.5233514 4.41338,2.5402794 0.64521,0.48138 1.08567,1.271268 1.56163,1.982556 0.23798,0.3556316 0.48441,0.6920156 0.77029,0.9596996 0.28588,0.267684 0.61,0.466548 1.0039,0.549312 0.42669,0.08964 0.97554,-0.132072 1.20806,-0.500904 0.37603,-0.596508 0.31322,-1.3000196 0.15995,-2.0309516 -0.15329,-0.730944 -0.39641,-1.490196 -0.37884,-2.195124 0.0224,-0.9006114 0.10092,-1.80337142 0.2736,-2.68759142 0.17517,-0.89759998 0.491,-1.76345998 0.76819,-2.63498398 0.3401,-1.06938 0.69614,-2.134668 1.09861,-3.182184 0.52026,-1.354116 1.02235,-2.72274 1.70053,-4.0050963 0.42694,-0.807312 0.89667,-1.603248 1.48166,-2.304552 0.73773,-0.884436 1.6573,-1.602216 2.52343,-2.361372 0.99683,-0.873732 1.97261,-1.784004 3.07274,-2.523444 1.05283,-0.707652 2.17523,-1.327524 3.34846,-1.809972 1.14557,-0.471072 2.34629,-0.823692 3.56521,-1.043892 0.73996,-0.133632 1.52297,-0.0588 2.29193,-0.0294 0.76897,0.02928 1.52403,0.01404 2.20775,-0.29886 0.37633,-0.172236 0.81937,-0.46788 0.87763,-0.87762 0.0588,-0.413328 -0.0551,-0.871633 -0.27783,-1.271197 -0.22272,-0.399552 -0.55304,-0.74058 -0.92812,-0.923928 -0.41604,-0.203352 -0.87159,-0.06708 -1.33854,0.10728 -0.46696,0.174444 -0.94612,0.387924 -1.40589,0.332532 -0.74871,-0.09024 -1.44143,-0.487716 -2.08567,-0.879732 -0.36612,-0.222768 -0.81235,-0.424272 -1.19122,-0.675576 -0.37886,-0.251304 -0.68911,-0.55206 -0.78291,-0.970224 -0.12361,-0.550956 0.17663,-1.04226 0.53667,-1.534272 0.36005,-0.492024 0.78017,-0.98466 0.89026,-1.538484 0.27524,-1.597116 0.16654,-3.360972 0.181,-5.187876 0.007,-0.913452 0.0452,-1.8417 0.17678,-2.773896 0.13154,-0.932184 0.35654,-1.867704 0.73872,-2.792832 0.33407,-1.25826 0.45284,-2.555988 0.49669,-3.864072 0.0439,-1.308084 0.0133,-2.62596 0.0526,-3.927216 0.0552,-1.828332 0.61455,-3.87264 0.86711,-5.808742 0.12629,-0.968052 0.17539,-1.907724 0.0463,-2.782308 -0.12908,-0.874584 -0.43525,-1.683684 -1.02286,-2.384532 -0.19129,-0.228168 -0.48258,-0.326472 -0.79975,-0.359892 -0.31716,-0.03336 -0.66163,-0.0012 -0.9576,0.03156 -0.55385,0.06096 -1.22694,0.195372 -1.53637,0.65874 -0.25763,0.430284 -0.38182,1.62 -0.43776,3.230604 -0.0559,1.610592 -0.043,3.642358 -0.0232,5.75191 0.0397,4.219116 0.10476,8.754144 -0.30727,10.880868 -0.39353,2.25402 -0.42599,3.68748 -0.43986,5.116332 -0.0139,1.428864 -0.01,2.852184 -0.32832,5.088972 -0.24251,0.223416 -0.59451,0.284088 -0.9576,0.24414 -0.36311,-0.03996 -0.73603,-0.180228 -1.01653,-0.35358 -0.62721,-0.387636 -1.02028,-1.01268 -1.33433,-1.708944 -0.31408,-0.696288 -0.54937,-1.463664 -0.8608,-2.131992 -0.93859,-2.014188 -1.55213,-4.164024 -2.30455,-6.254928 -0.48578,-1.34988 -1.14079,-2.656104 -1.42693,-4.061904 -0.34361,-1.68822 -0.48289,-3.440244 -0.33043,-5.156316 0.0791,-0.890832 0.38518,-1.746816 0.67768,-2.603412 0.2925,-0.856596 0.5726,-1.71384 0.60404,-2.607624 0.0268,-0.760738 -0.0888,-1.55167 -0.38726,-2.251942 -0.23934,-0.5616 -0.52144,-1.24608 -1.08808,-1.473228 -0.48749,-0.19542 -1.00086,-0.05352 -1.52375,0.1347 -0.52289,0.188256 -1.05557,0.422712 -1.58057,0.408288 -1.19396,-0.0498 -2.36597,-0.276132 -3.53575,-0.591396 -1.1698,-0.315264 -2.33722,-0.719088 -3.52103,-1.125972 -1.18382,-0.406884 -2.3839,-0.816024 -3.61994,-1.140696 -1.23604,-0.324684 -2.50815,-0.56484 -3.83463,-0.633492 -0.99031,-0.407592 -2.15862,-0.854376 -3.13587,-1.460604 -0.48863,-0.30312 -0.92913,-0.645612 -1.2754,-1.043892 -0.34627,-0.39828 -0.59809,-0.852636 -0.70926,-1.376424 -0.0889,-0.419028 0.11844,-0.793764 0.39988,-1.157532 0.28147,-0.36378 0.63716,-0.716004 0.84186,-1.092312 0.96772,-1.779084 1.9392,-3.555816 2.87068,-5.354136 1.19715,-2.311188 2.51721,-4.571664 3.49157,-6.985236 0.6799,-1.684164 1.13902,-3.45012 1.63108,-5.198412 0.34674,-1.231968 0.86873,-2.446812 0.93024,-3.725172 0.0251,-0.522516 0.15096,-1.19628 -0.23151,-1.553196 -0.23714,-0.221316 -0.56737,-0.306516 -0.91551,-0.313596 -0.34813,-0.0072 -0.71463,0.06552 -1.02495,0.159948 -0.91597,0.278676 -1.7558,0.965856 -2.25194,1.784724 -0.32075,0.529332 -0.42464,1.139112 -0.48406,1.767864 -0.0594,0.628764 -0.0725,1.276548 -0.21256,1.879428 -0.5763,2.48172 -1.15616,4.97508 -2.01834,7.372488 -0.8737,2.429448 -1.95413,4.789968 -3.18218,7.060992 -0.343,0.634344 -0.5652,1.514292 -0.88184,2.251944 -0.15832,0.36882 -0.34044,0.702624 -0.57245,0.951276 -0.23201,0.248664 -0.5142,0.41292 -0.87342,0.444084 -0.42179,0.0108 -0.83061,-0.09624 -1.23331,-0.29886 -0.40267,-0.202572 -0.79922,-0.500676 -1.19332,-0.87342 -0.78818,-0.745464 -1.5697,-1.78656 -2.38663,-2.950668 -0.81693,-1.164108 -1.6694,-2.451792 -2.5992,-3.685188 -0.92979,-1.233396 -1.93753,-2.414028 -3.06433,-3.367392 -0.35017,-0.62388 -0.60095,-1.391664 -0.46512,-2.094096 0.16075,-0.831228 0.61178,-1.550736 1.15543,-2.226684 0.54366,-0.675948 1.17939,-1.308156 1.71527,-1.963608 0.75262,-0.920532 1.81334,-1.579092 2.48346,-2.561328 0.80892,-1.18572 1.39228,-2.497548 1.92782,-3.836712 0.53555,-1.339176 1.02308,-2.705604 1.6416,-4.000872 0.38633,-0.809028 0.89261,-1.573368 1.34907,-2.355072 0.45645,-0.781716 0.863,-1.5807 1.05651,-2.4561 0.0978,-0.442176 0.17469,-0.916776 0.17889,-1.382724 0.005,-0.465948 -0.0625,-0.924264 -0.25465,-1.334327 -0.24884,-0.53104 -0.73808,-1.08797 -1.3196,-1.16386 -0.51618,-0.0673 -1.00922,0.35196 -1.39747,0.69874 -0.46017,0.41102 -0.73275,1.001027 -1.00811,1.553195 -0.40533,0.812856 -0.63838,1.699812 -0.93235,2.559216 -0.46598,1.362276 -0.78827,2.776416 -1.31959,4.114536 -0.7088,1.785036 -1.63798,3.47286 -2.48134,5.198412 -0.68577,1.403064 -1.35316,2.816688 -2.0962,4.190292 -0.34197,0.632148 -0.48075,1.474992 -1.08599,1.862592 -0.33921,0.217236 -0.77313,0.386436 -1.20594,0.446172 -0.43281,0.05976 -0.86446,0.0108 -1.19963,-0.212556 -0.29279,-0.195144 -0.39355,-0.532992 -0.4483,-0.904992 -0.0547,-0.372 -0.0635,-0.77886 -0.17257,-1.113348 -0.24605,-0.754368 -0.41873,-1.54164 -0.7766,-2.249832 -0.41099,-0.8133 -1.15323,-1.432152 -1.55111,-2.251944 -0.57337,-1.181388 -1.04854,-2.414112 -1.43324,-3.676776 -0.38471,-1.26264 -0.68074,-2.55402 -0.89657,-3.849336 -0.14041,-0.8424 -0.24288,-1.723836 -0.0757,-2.561316 0.17219,-0.862848 0.71613,-1.607232 1.08599,-2.405592 0.96298,-2.078723 1.86888,-4.188033 2.94856,-6.208603 0.4401,-0.82362 1.03274,-1.57691 1.57846,-2.34876 0.54575,-0.77187 1.04405,-1.56219 1.29224,-2.46242 0.2475,-0.89772 0.29139,-1.90836 0,-2.79283 -0.11568,-0.35132 -0.26049,-0.78087 -0.46932,-1.13017 -0.20884,-0.3493 -0.48214,-0.61823 -0.85028,-0.65453 -0.38267,-0.0377 -0.58825,0.495 -0.85236,0.77448 -0.84631,0.89554 -1.71236,1.80532 -2.32771,2.87281 -1.05083,1.82297 -1.43375,3.95859 -2.25193,5.89715 -0.38253,0.90629 -0.61822,1.93746 -0.95129,2.89596 -0.33309,0.95848 -0.76378,1.84397 -1.53217,2.45819 -0.67173,0.53692 -1.51041,0.722663 -2.39295,0.816587 -0.88254,0.09396 -1.80751,0.09552 -2.64972,0.269388 -1.96247,0.404976 -3.89819,1.024332 -5.89713,1.163856 -0.6978,0.04872 -1.42388,0.12804 -2.1362,0.126276 -0.71232,-0.0024 -1.4128,-0.08328 -2.05621,-0.357792 -0.48819,-0.20826 -1.04256,-0.569268 -1.16385,-1.085976 -0.10092,-0.430309 0.22423,-0.872509 0.46723,-1.241719 0.50287,-0.76409 1.22915,-1.3407 1.96149,-1.91309 0.73236,-0.57241 1.46981,-1.14115 1.99518,-1.88995 0.87794,-1.25129 1.18565,-2.81981 1.8626,-4.1903 0.41379,-0.82286 0.98559,-1.6766 1.46902,-2.58657 0.48342,-0.90999 0.87844,-1.87642 0.93656,-2.92332 -0.0386,-0.53188 -0.19864,-1.14964 -0.62087,-1.47534 -0.14482,-0.11184 -0.36046,-0.0874 -0.54299,-0.0757 -0.77659,0.0496 -1.63316,0.14415 -2.24984,0.61875 -0.56956,0.43834 -0.83711,1.18913 -1.08808,1.8626 -0.47915,1.36465 -0.84877,2.67967 -1.39957,3.9651 -0.55081,1.28542 -1.28155,2.54296 -2.47924,3.79672 -0.66303,1.1141 -1.2531,2.26944 -1.86259,3.41369 -0.34268,0.64331 -0.47515,1.44325 -1.00812,1.94046 -0.23718,0.22127 -0.52867,0.459829 -0.83764,0.620869 -0.30895,0.161028 -0.63526,0.243024 -0.94707,0.153636 -0.48281,-0.138408 -0.53329,-0.853485 -0.85449,-1.239625 -0.51464,-0.61872 -1.06245,-1.22679 -1.70684,-1.70894 -0.77852,-0.58253 -1.7933,-0.79905 -2.56132,-1.39537 -0.80953,-0.62858 -1.51998,-1.40433 -2.09619,-2.25194 -0.33827,-0.49755 -0.25381,-1.32752 -0.77451,-1.62897 -0.29187,-0.16899 -0.64414,-0.20428 -0.99969,-0.15996 -0.35554,0.0443 -0.71505,0.16879 -1.01863,0.31569 -0.84034,0.40665 -1.42366,1.14729 -1.98045,1.92994 -0.55679,0.78266 -1.08763,1.6069 -1.82259,2.18249 -0.67452,0.52825 -1.55028,0.74713 -2.24985,1.24172 -0.76299,0.53944 -1.28513,1.39489 -2.09409,1.86259 -0.4957,0.2866 -1.06841,0.649179 -1.631081,0.542991 -0.39704,-0.07488 -0.69187,-0.450351 -0.93024,-0.776601 -0.52706,-0.72142 -0.6038,-1.68779 -1.01022,-2.48345 -0.222,-0.43464 -0.51143,-0.83064 -0.77449,-1.24172 -0.96685,-1.51073 -2.00741,-2.97284 -2.94858,-4.49968 -0.59598,-0.96686 -1.31407,-1.88362 -1.70895,-2.94857 -0.29278,-0.78963 -0.14139,-1.70599 -0.46512,-2.48345 -0.17514,-0.42062 -0.34136,-0.9318 -0.57456,-1.36378 -0.23319,-0.432 -0.53245,-0.78422 -0.97654,-0.88606 z"
       style="opacity:1;fill:none;fill-opacity:1;fill-rule:nonzero;stroke:#0000ff;stroke-width:1.01817131;stroke-linecap:round;stroke-miterlimit:4;stroke-dasharray:none;stroke-opacity:1"
       id="path10293" />
  </g>
  <defs
     id="defs5166">
    <marker
       style="overflow:visible"
       refY="-1.687441"
       refX="-4"
       orient="auto"
       id="CheckToolsAndOPMarker">
      <path
         id="path5163"
         style="fill:#000044;fill-rule:evenodd;stroke:none"
         d="m -4.588864,-1.687441 v 0 L -9.177728,0 c 0.73311,-0.996261 0.728882,-2.359329 0,-3.374882"
         inkscape:connector-curvature="0" />
    </marker>
  </defs>
  <defs
     id="defs5171">
    <marker
       style="overflow:visible"
       refY="-1.687441"
       refX="-4"
       orient="auto"
       id="DrawCurveMarker">
      <path
         id="path5168"
         style="fill:#000044;fill-rule:evenodd;stroke:none"
         d="m -4.588864,-1.687441 v 0 L -9.177728,0 c 0.73311,-0.996261 0.728882,-2.359329 0,-3.374882"
         inkscape:connector-curvature="0" />
    </marker>
  </defs>
  <defs
     id="defs5176">
    <marker
       style="overflow:visible"
       refY="-1.687441"
       refX="4"
       orient="auto"
       id="DrawCurveMarker_r">
      <path
         id="path5173"
         style="fill:#000044;fill-rule:evenodd;stroke:none"
         d="m 4.588864,-1.687441 v 0 L 9.177728,0 c -0.73311,-0.996261 -0.728882,-2.359329 0,-3.374882"
         inkscape:connector-curvature="0" />
    </marker>
  </defs>
  <defs
     id="defs5181">
    <marker
       style="overflow:visible"
       refY="-1.687441"
       refX="-4"
       orient="auto"
       id="InOutPathMarker">
      <path
         id="path5178"
         style="fill:#0072a7;fill-rule:evenodd;stroke:none"
         d="m -4.588864,-1.687441 v 0 L -9.177728,0 c 0.73311,-0.996261 0.728882,-2.359329 0,-3.374882"
         inkscape:connector-curvature="0" />
    </marker>
  </defs>
</svg>
