<?xml version="1.0" encoding="UTF-8" standalone="no"?>
<!-- Created with Inkscape (http://www.inkscape.org/) -->

<svg
   xmlns:dc="http://purl.org/dc/elements/1.1/"
   xmlns:cc="http://creativecommons.org/ns#"
   xmlns:rdf="http://www.w3.org/1999/02/22-rdf-syntax-ns#"
   xmlns:svg="http://www.w3.org/2000/svg"
   xmlns="http://www.w3.org/2000/svg"
   xmlns:sodipodi="http://sodipodi.sourceforge.net/DTD/sodipodi-0.dtd"
   xmlns:inkscape="http://www.inkscape.org/namespaces/inkscape"
   width="140mm"
   height="140mm"
   viewBox="0 0 140 140"
   version="1.1"
   id="svg8"
   inkscape:version="0.92.4 (5da689c313, 2019-01-14)"
   sodipodi:docname="Coffee.svg">
  <defs
     id="defs2" />
  <sodipodi:namedview
     id="base"
     pagecolor="#ffffff"
     bordercolor="#666666"
     borderopacity="1.0"
     inkscape:pageopacity="0.0"
     inkscape:pageshadow="2"
     inkscape:zoom="1.4"
     inkscape:cx="188.85835"
     inkscape:cy="247.92496"
     inkscape:document-units="mm"
     inkscape:current-layer="svgg"
     showgrid="false"
     inkscape:window-width="1920"
     inkscape:window-height="1017"
     inkscape:window-x="-8"
     inkscape:window-y="-8"
     inkscape:window-maximized="1" />
  <metadata
     id="metadata5">
    <rdf:RDF>
      <cc:Work
         rdf:about="">
        <dc:format>image/svg+xml</dc:format>
        <dc:type
           rdf:resource="http://purl.org/dc/dcmitype/StillImage" />
        <dc:title></dc:title>
      </cc:Work>
    </rdf:RDF>
  </metadata>
  <g
     inkscape:label="Layer 1"
     inkscape:groupmode="layer"
     id="layer1"
     transform="translate(0,-157)">
    <g
       id="svgg"
       transform="matrix(0.35930401,0,0,0.35930401,-12.981214,151.21347)">
      <path
         d="m 120.181,38.986 c -0.002,0.152 0.537,0.721 1.198,1.264 l 1.202,0.987 v 9.151 c 0,11.281 -0.762,13.801 -4.2,13.892 -3.613,0.094 -4.509,-2.514 -4.739,-13.791 l -0.17,-8.314 0.986,-1.172 c 1.451,-1.724 1.044,-1.925 -3.908,-1.925 -4.597,0 -5.785,0.589 -3.346,1.659 0.839,0.368 0.84,0.38 0.78,8.111 -0.099,12.78 2.472,17.143 10.103,17.143 6.625,0 7.979,-2.814 7.99,-16.598 l 0.006,-8.304 1.29,-0.695 c 2.403,-1.294 1.719,-1.684 -2.949,-1.684 -2.332,0 -4.241,0.124 -4.243,0.276 m -36.243,0.342 c -3.135,0.164 -3.533,0.605 -1.438,1.594 l 1.171,0.553 0.007,4.608 c 0.003,2.535 -0.102,7.725 -0.236,11.535 l -0.242,6.926 -1.047,0.618 c -2.392,1.414 -1.483,1.659 5.497,1.484 8.995,-0.225 11.284,-1.118 12.828,-5.003 1.209,-3.044 -0.252,-6.666 -3.363,-8.333 -0.796,-0.427 -1.514,-0.815 -1.597,-0.864 -0.083,-0.049 0.346,-0.564 0.954,-1.144 2.385,-2.279 3.067,-3.513 3.067,-5.545 0,-5.658 -3.42,-7.068 -15.601,-6.429 m 48.781,2.693 c 0,2.892 0.019,2.956 0.904,2.956 0.9,0 1.669,-1.565 1.674,-3.41 0.002,-0.535 0.344,-0.645 1.989,-0.645 h 1.986 l 0.272,9.083 c 0.454,15.123 0.515,14.584 -1.735,15.334 -0.239,0.079 -0.324,0.42 -0.191,0.766 0.36,0.938 9.965,0.949 9.782,0.011 -0.065,-0.336 -0.654,-0.875 -1.309,-1.198 l -1.189,-0.586 -0.009,-11.705 -0.008,-11.705 h 2.013 2.014 l 0.401,1.566 c 0.617,2.413 0.661,2.489 1.442,2.489 0.862,0 1.251,-1.483 1.068,-4.064 l -0.118,-1.65 -9.493,-0.099 -9.493,-0.098 v 2.955 m 46.7,-2.667 c -7.277,0.115 -8.109,0.354 -5.451,1.568 l 1.211,0.553 -0.225,8.848 c -0.31,12.145 -0.433,13.255 -1.536,13.845 -1.675,0.896 -1.043,1.375 2.158,1.635 5.927,0.482 8.921,-0.365 5.824,-1.648 l -1.124,-0.466 v -5.485 -5.485 h 1.468 c 1.34,0 1.532,0.127 2.219,1.475 1.028,2.013 2.213,2.063 2.209,0.092 -0.011,-5.81 -1.105,-8.23 -2.209,-4.885 -0.468,1.419 -0.547,1.475 -2.087,1.475 h -1.6 v -4.977 -4.977 h 4.192 4.192 l 0.453,1.751 c 0.248,0.963 0.514,1.958 0.589,2.212 0.075,0.253 0.453,0.461 0.839,0.461 0.822,0 1.164,-1.259 1.164,-4.286 v -1.982 l -2.673,0.084 c -1.47,0.046 -5.796,0.132 -9.613,0.192 m 33.736,-0.023 c -2.565,0.168 -2.817,0.616 -0.882,1.569 l 1.166,0.575 -0.015,3.318 c -0.009,1.825 -0.145,6.871 -0.303,11.215 l -0.288,7.896 -0.979,0.781 c -1.558,1.243 -1.286,1.817 0.732,1.54 0.941,-0.129 3.111,-0.234 4.823,-0.234 3.188,0 3.881,-0.443 2.014,-1.286 -0.763,-0.344 -0.805,-0.597 -0.805,-4.746 v -4.383 l 1.198,0.23 c 2.624,0.502 3.746,3.127 3.501,8.192 -0.216,4.462 6.771,7.4 8.046,3.384 0.311,-0.979 -0.1,-1.269 -1.001,-0.707 -1.039,0.65 -1.021,0.7 -1.574,-4.346 -0.585,-5.33 -1.467,-6.914 -4.229,-7.595 l -1.547,-0.382 1.323,-0.478 c 3.156,-1.141 4.88,-4.477 4.525,-8.756 -0.417,-5.022 -4.492,-6.524 -15.705,-5.787 m 43.435,2.697 c 0,3.924 1.44,4.515 2.244,0.921 l 0.454,-2.027 h 1.911 1.911 l 0.241,6.359 c 0.133,3.498 0.242,8.714 0.242,11.592 l 10e-4,5.233 -1.106,0.653 c -2.547,1.505 -1.564,2 3.749,1.888 5.274,-0.112 6.205,-0.51 3.837,-1.639 L 268.756,64.38 V 52.651 40.922 h 1.969 c 2.038,0 2.823,0.96 2.823,3.453 0,0.396 0.315,0.602 0.922,0.602 0.906,0 0.922,-0.049 0.922,-2.949 v -2.95 h -9.401 -9.401 v 2.95 m -60.012,-2.12 c 0.078,0.253 0.669,0.71 1.313,1.014 l 1.171,0.553 0.014,4.424 c 0.029,9.355 -0.775,17.776 -1.746,18.296 -0.473,0.253 -0.81,0.719 -0.749,1.036 0.161,0.843 9.502,1.071 9.502,0.232 0,-0.568 -1.384,-2.053 -1.913,-2.053 -0.164,0 -0.299,-5.039 -0.299,-11.198 V 41.014 l 1.106,-0.221 c 0.649,-0.13 1.106,-0.454 1.106,-0.784 0,-0.475 -0.747,-0.562 -4.823,-0.562 -3.689,0 -4.79,0.108 -4.682,0.461 m 42.132,0.238 c -3.542,1.64 -4.791,4.91 -3.162,8.276 0.843,1.74 2.285,2.877 7.249,5.715 5.11,2.921 6.422,5.504 4.524,8.907 -2.937,5.27 -11.196,1.558 -8.462,-3.804 1.068,-2.095 0.032,-3.067 -1.906,-1.789 -5.833,3.847 0.524,10.734 8.625,9.345 10.675,-1.831 10.756,-11.619 0.136,-16.631 -5.944,-2.805 -7.409,-5.204 -4.841,-7.927 2.315,-2.454 4.981,-1.501 7.302,2.612 1.911,3.385 3.254,2.426 3.254,-2.323 0,-3.378 -0.787,-4.265 -1.587,-1.79 -0.197,0.609 -0.402,1.159 -0.455,1.224 -0.054,0.064 -0.874,-0.475 -1.821,-1.198 -2.094,-1.599 -6.129,-1.88 -8.856,-0.617 M 91.613,42.129 c 3.897,1.943 2.833,8.007 -1.567,8.924 l -1.198,0.25 V 46.29 41.276 l 1.014,0.243 c 0.557,0.133 1.345,0.407 1.751,0.61 m 130.066,-0.034 c 3.184,1.669 2.534,9.33 -0.85,10.017 -0.506,0.102 -1.211,0.299 -1.566,0.436 -0.598,0.231 -0.645,-0.176 -0.645,-5.533 v -5.783 l 1.198,0.257 c 0.659,0.141 1.497,0.414 1.863,0.606 M 92.017,54.527 c 4.184,1.9 3.764,7.243 -0.73,9.284 -2.512,1.14 -2.439,1.278 -2.439,-4.64 0,-6.083 0,-6.083 3.169,-4.644 M 83.13,75.526 c -2.133,0.97 -3.714,2.966 -4.588,5.797 -1.13,3.659 -1.184,211.354 -0.055,213.792 0.795,1.717 2.117,2.991 4.528,4.364 l 1.725,0.982 16.708,-0.005 16.709,-0.005 0.844,-3.401 c 3.999,-16.101 14.413,-25.976 26.648,-25.267 9.384,0.543 15.998,9.88 16.464,23.243 l 0.19,5.442 18.425,-0.096 18.425,-0.096 0.856,-3.385 c 1.741,-6.887 6.541,-17.089 11.76,-24.995 15.809,-23.95 32.335,-13.537 28.365,17.874 -0.305,2.416 0.262,1.56 2.076,-3.134 12.693,-32.852 35.291,-37.838 36.757,-8.111 0.289,5.859 -1.232,16.049 -3.042,20.381 -0.293,0.702 -0.533,1.36 -0.533,1.463 0,0.669 5.944,-0.233 7.484,-1.136 4.133,-2.422 4.313,-3.324 4.313,-21.632 v -15 l 3.912,-0.24 c 41.044,-2.511 72.764,-41.755 67.452,-83.452 -4.503,-35.352 -33.516,-63.526 -67.562,-65.609 l -3.765,-0.23 -0.112,-15.521 C 286.976,78.324 286.702,77.263 281.383,75.365 278.892,74.476 85.095,74.634 83.13,75.526 m 69.796,38.755 c 7.587,1.995 14.51,5.924 19.794,11.234 2.58,2.593 4.328,4.99 8.544,11.72 1.137,1.814 1.167,1.801 2.883,-1.286 10.817,-19.447 32.114,-27.648 51.055,-19.66 26.389,11.13 30.418,50.178 9.168,88.839 -9.562,17.396 -31.358,38.977 -55.983,55.429 l -6.083,4.064 -1.106,-0.562 c -1.117,-0.568 -3.883,-2.561 -14.702,-10.589 -40.378,-29.965 -59.78,-61.337 -59.745,-96.604 0.024,-24.612 9.639,-37.887 31.314,-43.23 3.384,-0.834 10.394,-0.53 14.861,0.645 m 141.853,19.572 c 40.346,11.309 54.019,62.213 24.876,92.613 -8.234,8.589 -23.36,16.483 -31.584,16.483 h -0.882 v -55.334 -55.334 l 1.935,0.265 c 1.065,0.145 3.61,0.733 5.655,1.307 m -32.31,128.888 c -12.614,6.217 -26.306,39.801 -27.516,67.489 -0.203,4.654 -0.302,5.254 -0.869,5.254 -0.352,0 -2.862,1.783 -5.576,3.963 -5.624,4.515 -12.841,9.683 -17.552,12.567 -1.768,1.083 -4.231,2.607 -5.473,3.387 l -2.259,1.419 -0.226,-1.728 c -0.124,-0.95 -0.336,-5.319 -0.47,-9.708 l -0.244,-7.98 1.254,-0.645 c 18.067,-9.287 34.565,-35.907 34.611,-55.847 0.05,-21.549 -12.053,-25.709 -23.704,-8.148 -10.414,15.695 -16.956,37.491 -17.828,59.395 l -0.242,6.076 -1.874,1.872 c -2.236,2.233 -5.107,3.716 -8.276,4.274 -3.022,0.532 -3.026,0.525 -2.395,-4.657 1.58,-12.981 0.096,-19.523 -5.012,-22.112 -8.078,-4.093 -15.848,7.991 -11.473,17.841 1.706,3.84 1.096,5.598 -5.314,15.331 -7.185,10.909 -13.174,14.103 -20.022,10.677 -10.447,-5.226 -17.5,-24.534 -16.83,-46.069 0.792,-25.446 7.047,-37.95 18.994,-37.967 8.922,-0.014 13.071,10.512 9.369,23.773 -1.351,4.842 -0.888,6.267 2.04,6.267 5.374,0 5.338,-18.453 -0.051,-26.524 -6.681,-10.005 -20.7,-7.875 -28.736,4.366 -8.233,12.541 -10.636,41.634 -4.755,57.583 8.357,22.665 23.662,30.044 36.331,17.515 2.741,-2.71 8.973,-11.38 9.017,-12.544 0.009,-0.218 0.502,1.465 1.096,3.74 2.152,8.23 4.275,10.447 7.775,8.119 1.421,-0.946 4.981,-7.545 5.365,-9.947 l 0.221,-1.386 2.257,-0.004 c 3.825,-0.008 8.933,-1.913 11.497,-4.289 1.281,-1.187 1.267,-1.207 1.269,1.805 0.016,23.339 6.381,43.981 13.517,43.837 9.464,-0.19 7.967,-21.753 -2.03,-29.243 l -2.295,-1.719 4.343,-2.659 c 8.431,-5.161 21.184,-13.75 23.371,-15.74 l 0.963,-0.876 0.249,5.089 c 1.595,32.547 7.499,48.994 16,44.571 7.376,-3.837 3.809,-23.504 -5.32,-29.33 l -1.523,-0.972 5.025,-3.087 c 6.703,-4.117 16.141,-10.344 19.731,-13.019 3.052,-2.274 3.525,-2.307 3.538,-0.248 0.019,3.119 3.613,6.621 6.796,6.621 3.683,0 6.057,-1.155 11.182,-5.443 1.305,-1.091 1.987,-1.459 2.092,-1.129 0.086,0.269 0.344,1.101 0.574,1.849 0.967,3.15 4.789,5.461 8.051,4.87 5.014,-0.91 16.797,-10.918 15.167,-12.883 -0.977,-1.177 -2.422,-0.62 -6.203,2.392 -7.382,5.881 -11.478,6.22 -11.478,0.95 v -1.553 l 3.778,-2.607 c 7.857,-5.421 10.979,-10.431 8.22,-13.19 -3.367,-3.367 -13.793,4.415 -17.06,12.733 -1.297,3.302 -10.888,9.099 -13.217,7.989 -3.344,-1.595 -2.819,-4.322 1.361,-7.069 7.845,-5.156 11.415,-10.505 8.958,-13.424 -3.033,-3.606 -13.398,3.398 -16.618,11.229 -0.543,1.319 -0.858,1.645 -1.598,1.655 -0.593,0.007 -1.996,0.922 -3.939,2.566 -5.303,4.488 -26.01,18.807 -27.198,18.807 -0.056,0 -0.211,-3.11 -0.345,-6.912 -0.134,-3.802 -0.342,-8.186 -0.463,-9.742 l -0.219,-2.829 2.165,-1.098 c 9.263,-4.698 21.785,-18.449 27.441,-30.133 11.383,-23.517 6.789,-50.412 -7.415,-43.411 m -31.774,3.862 c 3.835,2.37 4.02,13.584 0.461,27.959 -2.838,11.461 -11.919,25.809 -20.902,33.027 -3.886,3.122 -7.361,5.683 -7.711,5.683 -0.797,0 1,-17.276 2.645,-25.438 5.144,-25.511 17.811,-45.987 25.507,-41.231 m 38.398,0.229 c 2.302,1.716 3.228,5.797 2.821,12.431 -1.332,21.69 -11.475,40.164 -28.78,52.417 l -2.581,1.828 0.258,-5.187 c 1.059,-21.281 7.58,-43.127 16.625,-55.694 4.307,-5.984 8.564,-8.1 11.657,-5.795 m -43.505,3.007 c -4.181,2.769 -10.196,13.419 -13.991,24.77 -2.178,6.517 -2.917,5.884 6.725,5.767 l 8.184,-0.1 1.398,-4.423 c 1.699,-5.378 2.96,-13.304 2.991,-18.802 0.043,-7.574 -1.531,-9.713 -5.307,-7.212 m 37.866,0.231 c -4.25,3.245 -9.519,12.642 -13.289,23.697 -1.13,3.314 -2.054,6.176 -2.054,6.36 0,0.19 3.578,0.334 8.283,0.334 h 8.283 l 0.915,-3.042 c 2.513,-8.357 3.526,-14.402 3.506,-20.921 -0.024,-7.574 -1.677,-9.457 -5.644,-6.428 m -122.989,10.561 c -4.981,1.912 -11.064,12.229 -11.064,18.765 v 1.065 h 10.678 10.678 l 0.449,-0.83 c 0.881,-1.631 0.881,-10.554 0,-13.455 -1.72,-5.661 -5.438,-7.581 -10.741,-5.545 m 37.682,41.93 c 2.911,3.402 3.566,10.699 1.689,18.831 -0.528,2.286 -0.538,2.285 -3.25,-0.286 l -2.236,-2.12 0.567,-2.138 c 1.072,-4.042 0.62,-4.922 -2.347,-4.571 -1.769,0.21 -1.799,0.197 -2.021,-0.917 -1.448,-7.237 3.766,-13.275 7.598,-8.799 m 108.641,4.192 c -1.112,1.534 -6.187,6.321 -6.437,6.071 -0.487,-0.487 3.935,-5.612 6.078,-7.045 1.263,-0.843 1.402,-0.464 0.359,0.974 m 21.046,-1.244 c 0,0.499 -3.796,4.528 -6.007,6.376 l -1.881,1.571 0.718,-1.29 c 1.436,-2.58 7.17,-7.904 7.17,-6.657 M 176.042,346.21 c 2.347,1.324 2.286,1.093 1.11,4.216 -1.414,3.755 -2.611,5.618 -2.911,4.528 -0.347,-1.261 -0.755,-9.885 -0.467,-9.885 0.135,0 1.156,0.514 2.268,1.141 m 31.791,18.583 c 5.223,5.993 7.133,20.428 2.916,22.046 -2.562,0.984 -6.153,-10.43 -7.029,-22.345 l -0.212,-2.879 1.52,0.851 c 0.836,0.469 2.098,1.516 2.805,2.327 m 38.058,0.03 c 5.199,5.485 7.275,17.281 3.738,21.239 l -0.997,1.116 -1.133,-0.954 c -2.283,-1.921 -5.656,-16.052 -5.656,-23.698 v -0.909 l 1.136,0.666 c 0.625,0.367 1.935,1.51 2.912,2.54"
         id="path0"
         inkscape:connector-curvature="0"
         style="fill:none;fill-rule:evenodd;stroke:#000000" />
    </g>
  </g>
</svg>
