<?xml version="1.0" encoding="UTF-8" standalone="no"?>
<!-- Created with Inkscape (http://www.inkscape.org/) -->

<svg
   xmlns:dc="http://purl.org/dc/elements/1.1/"
   xmlns:cc="http://creativecommons.org/ns#"
   xmlns:rdf="http://www.w3.org/1999/02/22-rdf-syntax-ns#"
   xmlns:svg="http://www.w3.org/2000/svg"
   xmlns="http://www.w3.org/2000/svg"
   xmlns:sodipodi="http://sodipodi.sourceforge.net/DTD/sodipodi-0.dtd"
   xmlns:inkscape="http://www.inkscape.org/namespaces/inkscape"
   id="svg8"
   version="1.1"
   viewBox="0 0 507.9685 507.9685"
   height="140mm"
   width="140mm"
   inkscape:version="0.92.2 5c3e80d, 2017-08-06"
   sodipodi:docname="daveMcT.svg">
  <sodipodi:namedview
     inkscape:window-maximized="1"
     inkscape:window-y="1"
     inkscape:window-x="0"
     inkscape:window-height="981"
     inkscape:window-width="1920"
     units="mm"
     showgrid="false"
     inkscape:current-layer="svg8"
     inkscape:document-units="px"
     inkscape:cy="217.60106"
     inkscape:cx="270.90669"
     inkscape:zoom="1.28"
     inkscape:pageshadow="2"
     inkscape:pageopacity="0.0"
     borderopacity="1.0"
     bordercolor="#666666"
     pagecolor="#ffffff"
     id="base" />
  <defs
     id="defs2" />
  <metadata
     id="metadata5">
    <rdf:RDF>
      <cc:Work
         rdf:about="">
        <dc:format>image/svg+xml</dc:format>
        <dc:type
           rdf:resource="http://purl.org/dc/dcmitype/StillImage" />
        <dc:title></dc:title>
      </cc:Work>
    </rdf:RDF>
  </metadata>
  <g
     transform="translate(0,132.85262)"
     id="layer1"
     inkscape:groupmode="layer"
     inkscape:label="Layer 1">
    <g
       id="g4939"
       transform="translate(-418.91206,-26.527707)"
       gcodetools="Gcodetools tool definition">
      <path
         id="path4857"
         d="M -20,-20 H 380 V 155 H -20 Z"
         style="fill:#00ff00;fill-opacity:0.5;stroke:#444444;stroke-width:1px"
         gcodetools="Gcodetools tool background"
         inkscape:connector-curvature="0" />
      <g
         id="g4867"
         gcodetools="Gcodetools tool parameter">
        <text
           id="text4861"
           xml:space="preserve"
           y="0"
           x="0"
           style="font-style:normal;font-variant:normal;font-weight:normal;font-stretch:normal;font-size:20px;font-family:'DejaVu Sans';fill:#000000;fill-opacity:1;stroke:none"
           gcodetools="Gcodetools tool definition field name"><tspan
             id="tspan4859"
             sodipodi:role="line"
             y="0"
             x="0">name</tspan></text>
        <text
           id="text4865"
           xml:space="preserve"
           y="0"
           x="150"
           style="font-style:normal;font-variant:normal;font-weight:normal;font-stretch:normal;font-size:20px;font-family:'DejaVu Sans';fill:#000000;fill-opacity:1;stroke:none"
           gcodetools="Gcodetools tool definition field value"><tspan
             id="tspan4863"
             sodipodi:role="line"
             y="0"
             x="150">Cylindrical cutter</tspan></text>
      </g>
      <g
         id="g4877"
         gcodetools="Gcodetools tool parameter">
        <text
           id="text4871"
           xml:space="preserve"
           y="20"
           x="0"
           style="font-style:normal;font-variant:normal;font-weight:normal;font-stretch:normal;font-size:10px;font-family:'DejaVu Sans';fill:#000000;fill-opacity:1;stroke:none"
           gcodetools="Gcodetools tool definition field name"><tspan
             id="tspan4869"
             sodipodi:role="line"
             y="20"
             x="0">id</tspan></text>
        <text
           id="text4875"
           xml:space="preserve"
           y="20"
           x="150"
           style="font-style:normal;font-variant:normal;font-weight:normal;font-stretch:normal;font-size:10px;font-family:'DejaVu Sans';fill:#000000;fill-opacity:1;stroke:none"
           gcodetools="Gcodetools tool definition field value"><tspan
             id="tspan4873"
             sodipodi:role="line"
             y="20"
             x="150">Cylindrical cutter 0001</tspan></text>
      </g>
      <g
         id="g4887"
         gcodetools="Gcodetools tool parameter">
        <text
           id="text4881"
           xml:space="preserve"
           y="35"
           x="0"
           style="font-style:normal;font-variant:normal;font-weight:normal;font-stretch:normal;font-size:10px;font-family:'DejaVu Sans';fill:#000000;fill-opacity:1;stroke:none"
           gcodetools="Gcodetools tool definition field name"><tspan
             id="tspan4879"
             sodipodi:role="line"
             y="35"
             x="0">diameter</tspan></text>
        <text
           id="text4885"
           xml:space="preserve"
           y="35"
           x="150"
           style="font-style:normal;font-variant:normal;font-weight:normal;font-stretch:normal;font-size:10px;font-family:'DejaVu Sans';fill:#000000;fill-opacity:1;stroke:none"
           gcodetools="Gcodetools tool definition field value"><tspan
             id="tspan4883"
             sodipodi:role="line"
             y="35"
             x="150">10</tspan></text>
      </g>
      <g
         id="g4897"
         gcodetools="Gcodetools tool parameter">
        <text
           id="text4891"
           xml:space="preserve"
           y="50"
           x="0"
           style="font-style:normal;font-variant:normal;font-weight:normal;font-stretch:normal;font-size:10px;font-family:'DejaVu Sans';fill:#000000;fill-opacity:1;stroke:none"
           gcodetools="Gcodetools tool definition field name"><tspan
             id="tspan4889"
             sodipodi:role="line"
             y="50"
             x="0">feed</tspan></text>
        <text
           id="text4895"
           xml:space="preserve"
           y="50"
           x="150"
           style="font-style:normal;font-variant:normal;font-weight:normal;font-stretch:normal;font-size:10px;font-family:'DejaVu Sans';fill:#000000;fill-opacity:1;stroke:none"
           gcodetools="Gcodetools tool definition field value"><tspan
             id="tspan4893"
             sodipodi:role="line"
             y="50"
             x="150">1100</tspan></text>
      </g>
      <g
         id="g4907"
         gcodetools="Gcodetools tool parameter">
        <text
           id="text4901"
           xml:space="preserve"
           y="65"
           x="0"
           style="font-style:normal;font-variant:normal;font-weight:normal;font-stretch:normal;font-size:10px;font-family:'DejaVu Sans';fill:#000000;fill-opacity:1;stroke:none"
           gcodetools="Gcodetools tool definition field name"><tspan
             id="tspan4899"
             sodipodi:role="line"
             y="65"
             x="0">penetration angle</tspan></text>
        <text
           id="text4905"
           xml:space="preserve"
           y="65"
           x="150"
           style="font-style:normal;font-variant:normal;font-weight:normal;font-stretch:normal;font-size:10px;font-family:'DejaVu Sans';fill:#000000;fill-opacity:1;stroke:none"
           gcodetools="Gcodetools tool definition field value"><tspan
             id="tspan4903"
             sodipodi:role="line"
             y="65"
             x="150">90</tspan></text>
      </g>
      <g
         id="g4917"
         gcodetools="Gcodetools tool parameter">
        <text
           id="text4911"
           xml:space="preserve"
           y="80"
           x="0"
           style="font-style:normal;font-variant:normal;font-weight:normal;font-stretch:normal;font-size:10px;font-family:'DejaVu Sans';fill:#000000;fill-opacity:1;stroke:none"
           gcodetools="Gcodetools tool definition field name"><tspan
             id="tspan4909"
             sodipodi:role="line"
             y="80"
             x="0">penetration feed</tspan></text>
        <text
           id="text4915"
           xml:space="preserve"
           y="80"
           x="150"
           style="font-style:normal;font-variant:normal;font-weight:normal;font-stretch:normal;font-size:10px;font-family:'DejaVu Sans';fill:#000000;fill-opacity:1;stroke:none"
           gcodetools="Gcodetools tool definition field value"><tspan
             id="tspan4913"
             sodipodi:role="line"
             y="80"
             x="150">1000</tspan></text>
      </g>
      <g
         id="g4927"
         gcodetools="Gcodetools tool parameter">
        <text
           id="text4921"
           xml:space="preserve"
           y="95"
           x="0"
           style="font-style:normal;font-variant:normal;font-weight:normal;font-stretch:normal;font-size:10px;font-family:'DejaVu Sans';fill:#000000;fill-opacity:1;stroke:none"
           gcodetools="Gcodetools tool definition field name"><tspan
             id="tspan4919"
             sodipodi:role="line"
             y="95"
             x="0">depth step</tspan></text>
        <text
           id="text4925"
           xml:space="preserve"
           y="95"
           x="150"
           style="font-style:normal;font-variant:normal;font-weight:normal;font-stretch:normal;font-size:10px;font-family:'DejaVu Sans';fill:#000000;fill-opacity:1;stroke:none"
           gcodetools="Gcodetools tool definition field value"><tspan
             id="tspan4923"
             sodipodi:role="line"
             y="95"
             x="150">1</tspan></text>
      </g>
      <g
         id="g4937"
         gcodetools="Gcodetools tool parameter">
        <text
           id="text4931"
           xml:space="preserve"
           y="110"
           x="0"
           style="font-style:normal;font-variant:normal;font-weight:normal;font-stretch:normal;font-size:10px;font-family:'DejaVu Sans';fill:#000000;fill-opacity:1;stroke:none"
           gcodetools="Gcodetools tool definition field name"><tspan
             id="tspan4929"
             sodipodi:role="line"
             y="110"
             x="0">tool change gcode</tspan></text>
        <text
           id="text4935"
           xml:space="preserve"
           y="110"
           x="150"
           style="font-style:normal;font-variant:normal;font-weight:normal;font-stretch:normal;font-size:10px;font-family:'DejaVu Sans';fill:#000000;fill-opacity:1;stroke:none"
           gcodetools="Gcodetools tool definition field value"><tspan
             id="tspan4933"
             sodipodi:role="line"
             y="110"
             x="150">(None)</tspan></text>
      </g>
    </g>
  </g>
  <defs
     id="defs5166">
    <marker
       id="CheckToolsAndOPMarker"
       orient="auto"
       refX="-4"
       refY="-1.687441"
       style="overflow:visible">
      <path
         d="m -4.588864,-1.687441 v 0 L -9.177728,0 c 0.73311,-0.996261 0.728882,-2.359329 0,-3.374882"
         style="fill:#000044;fill-rule:evenodd;stroke:none"
         id="path5163"
         inkscape:connector-curvature="0" />
    </marker>
  </defs>
  <defs
     id="defs5171">
    <marker
       id="DrawCurveMarker"
       orient="auto"
       refX="-4"
       refY="-1.687441"
       style="overflow:visible">
      <path
         d="m -4.588864,-1.687441 v 0 L -9.177728,0 c 0.73311,-0.996261 0.728882,-2.359329 0,-3.374882"
         style="fill:#000044;fill-rule:evenodd;stroke:none"
         id="path5168"
         inkscape:connector-curvature="0" />
    </marker>
  </defs>
  <defs
     id="defs5176">
    <marker
       id="DrawCurveMarker_r"
       orient="auto"
       refX="4"
       refY="-1.687441"
       style="overflow:visible">
      <path
         d="m 4.588864,-1.687441 v 0 L 9.177728,0 c -0.73311,-0.996261 -0.728882,-2.359329 0,-3.374882"
         style="fill:#000044;fill-rule:evenodd;stroke:none"
         id="path5173"
         inkscape:connector-curvature="0" />
    </marker>
  </defs>
  <defs
     id="defs5181">
    <marker
       id="InOutPathMarker"
       orient="auto"
       refX="-4"
       refY="-1.687441"
       style="overflow:visible">
      <path
         d="m -4.588864,-1.687441 v 0 L -9.177728,0 c 0.73311,-0.996261 0.728882,-2.359329 0,-3.374882"
         style="fill:#0072a7;fill-rule:evenodd;stroke:none"
         id="path5178"
         inkscape:connector-curvature="0" />
    </marker>
  </defs>
  <path
     id="rect8799"
     style="color:#000000;font-style:normal;font-variant:normal;font-weight:normal;font-stretch:normal;font-size:medium;line-height:normal;font-family:sans-serif;font-variant-ligatures:normal;font-variant-position:normal;font-variant-caps:normal;font-variant-numeric:normal;font-variant-alternates:normal;font-feature-settings:normal;text-indent:0;text-align:start;text-decoration:none;text-decoration-line:none;text-decoration-style:solid;text-decoration-color:#000000;letter-spacing:normal;word-spacing:normal;text-transform:none;writing-mode:lr-tb;direction:ltr;text-orientation:mixed;dominant-baseline:auto;baseline-shift:baseline;text-anchor:start;white-space:normal;shape-padding:0;clip-rule:nonzero;display:inline;overflow:visible;visibility:visible;opacity:1;isolation:auto;mix-blend-mode:normal;color-interpolation:sRGB;color-interpolation-filters:linearRGB;solid-color:#000000;solid-opacity:1;vector-effect:none;fill:#000000;fill-opacity:1;fill-rule:nonzero;stroke:none;stroke-width:0.25900412;stroke-linecap:round;stroke-linejoin:miter;stroke-miterlimit:4;stroke-dasharray:none;stroke-dashoffset:0;stroke-opacity:1;color-rendering:auto;image-rendering:auto;shape-rendering:auto;text-rendering:auto;enable-background:accumulate"
     d="m 0,136.20703 v 0.13086 367.33984 h 490.12695 v -367.4707 z m 0.25976562,0.25977 H 489.86719 V 503.41992 H 0.25976562 Z M 71.306611,242.58729 c 2.09201,-16.44257 7.352218,-29.27468 17.546002,-42.80284 9.763903,-12.95768 24.920797,-23.92103 41.801587,-30.23612 6.114,-2.28723 15.79125,-4.47054 19.96405,-4.50413 1.47898,-0.0119 3.59967,-0.20377 4.71267,-0.42637 l 2.02363,-0.40472 0.19108,-12.79599 0.19109,-12.796 0.14837,12.87478 0.14837,12.87477 h 3.24567 3.24565 l 0.19134,-12.87477 0.19136,-12.87478 0.14838,13.15381 0.14837,13.15381 3.74835,0.4018 c 9.21271,0.98755 17.54947,2.73787 20.52561,4.3094 0.62258,0.32874 1.43407,0.59772 1.80334,0.59772 0.36926,0 3.50061,1.3221 6.95857,2.93802 29.83037,13.93981 49.98229,40.66214 53.97518,71.57349 2.44786,18.95032 0.25476,35.12922 -7.138,52.65812 -2.27538,5.39513 -7.7604,15.09789 -9.21944,16.30879 -0.66458,0.55154 -0.70319,1.04523 -0.16101,2.05833 0.76343,1.42645 0.41092,10.03027 -0.64755,15.80536 -3.91149,21.34141 -4.99868,26.58379 -7.43549,35.8538 -1.89789,7.21991 -2.06147,8.67653 -2.12287,18.90473 -0.0437,7.27665 -0.34763,11.75363 -0.88511,13.03774 -1.07337,2.56441 -3.28925,4.88916 -4.66018,4.88916 -0.9121,0 -1.1551,0.94694 -1.4637,5.70402 -0.66927,10.31657 -4.07053,16.04181 -11.13233,18.73873 -4.10194,1.56654 -8.91555,1.10188 -19.9812,-1.9288 -4.84026,-1.32567 -10.15386,-2.62992 -11.808,-2.89834 l -3.00751,-0.48804 -0.44782,9.50391 c -0.62561,13.27754 -0.83852,14.39308 -2.74689,14.39308 h -1.5464 l -0.15551,-12.22289 c -0.0856,-6.72258 -0.30889,5.96477 -0.49638,28.19413 l -0.34088,40.41702 -0.1555,-31.67717 c -0.0856,-17.42244 -0.34586,-35.21733 -0.57851,-39.54423 l -0.42302,-7.86707 -2.9391,-0.23376 -2.9391,-0.23376 0.32545,22.50298 c 0.17899,12.37663 0.13452,30.27673 -0.0988,39.77799 -0.41584,16.93232 -0.42673,16.71571 -0.54871,-10.91912 l -0.12444,-28.19412 h -1.95567 c -1.69561,0 -1.95744,-0.23838 -1.96904,-1.79269 -0.007,-0.98597 -0.44379,-6.19292 -0.96983,-11.57099 -0.52606,-5.37808 -0.96008,-9.8843 -0.96446,-10.01383 -0.0218,-0.64302 -8.58776,1.60152 -19.45972,5.09905 -14.76661,4.75044 -26.83227,-3.4701 -26.83227,-18.28128 0,-4.96737 -0.057,-5.16105 -1.51608,-5.16105 -1.58747,0 -3.8045,-2.01697 -4.65753,-4.23726 -0.27551,-0.71707 -0.73425,-6.61238 -1.019451,-13.10065 -0.285194,-6.48829 -0.965675,-13.67535 -1.512186,-15.97124 -1.025276,-4.30731 -1.785344,-7.63455 -6.686813,-29.27203 -3.690946,-16.29363 -4.657407,-23.58149 -3.687411,-27.80604 0.57366,-2.4984 0.545754,-3.36299 -0.133483,-4.13643 -0.900556,-1.02547 -8.166314,-12.89537 -8.166314,-13.34113 0,-0.14165 -0.834473,-2.11145 -1.854371,-4.37732 -5.380449,-11.95345 -6.666641,-18.20244 -6.952835,-33.78065 -0.128442,-6.9915 0.0096,-14.62301 0.306825,-16.95893 z m 0.70461,26.6436 c 1.142074,9.10828 3.481411,17.20201 7.533911,26.06617 2.255168,4.9328 8.752459,15.74527 9.462605,15.74718 0.22014,6e-4 1.164464,-1.09898 2.09851,-2.4435 3.709379,-5.33952 25.326903,-25.13214 27.081613,-24.79545 0.91045,0.1747 1.08364,1.56615 1.23957,9.95887 0.0997,5.3657 0.46637,10.04095 0.81486,10.38943 0.34848,0.34848 0.63361,2.41846 0.63361,4.59994 0,3.63237 -0.15096,4.05664 -1.7927,5.03869 -0.98598,0.58978 -3.33277,2.44391 -5.21509,4.12029 l -3.42241,3.04797 0.0214,5.63559 0.0214,5.63559 4.05285,2.56898 c 12.73013,8.06924 26.68184,12.55961 42.18825,13.5783 l 2.28161,0.14989 0.40476,9.77831 c 0.22261,5.37807 0.44262,17.86794 0.48891,27.75529 l 0.0842,17.97696 1.96163,-0.2879 c 1.07889,-0.15834 2.39897,0.075 2.93348,0.51867 0.85868,0.71263 0.97187,-2.46755 0.97187,-27.30441 v -28.11097 h 1.58315 c 0.87074,0 2.0528,-0.46965 2.62681,-1.04367 0.65777,-0.65776 1.60984,-0.90156 2.57485,-0.65937 2.21908,0.55696 7.77483,-0.61562 16.51483,-3.48557 10.31876,-3.38837 13.70481,-4.72119 16.79142,-6.60946 1.43415,-0.87736 3.36564,-1.97877 4.2922,-2.4476 3.97277,-2.01016 5.00364,-3.47872 5.40099,-7.69421 0.36501,-3.87242 0.30462,-4.08586 -1.72396,-6.09371 -1.15624,-1.14441 -3.93568,-3.39785 -6.17654,-5.00769 l -4.07429,-2.92697 V 297.6244 c 0,-8.97821 0.24971,-15.26213 0.60647,-15.26213 1.28934,0 26.02765,24.4209 28.89795,28.52716 0.80312,1.14896 1.60689,2.07777 1.78616,2.06402 0.17927,-0.0138 1.38216,-1.69543 2.67307,-3.73708 13.83599,-21.88233 18.08883,-47.93322 12.03514,-73.72174 -1.80693,-7.69746 -2.45708,-9.5839 -6.03345,-17.50623 -3.34387,-7.40745 -13.29711,-21.35595 -18.22193,-25.53638 -1.02344,-0.86874 -3.62089,-3.10202 -5.77212,-4.96284 -15.95244,-13.79894 -38.58339,-21.96686 -60.95146,-21.99849 -9.04001,-0.0128 -15.10387,0.94907 -23.88473,3.78861 -14.72092,4.76043 -27.38679,12.39543 -37.758351,22.76077 -9.541668,9.53596 -18.063624,23.10903 -21.101014,33.60801 -0.466775,1.61342 -1.089011,3.66686 -1.382762,4.56321 -0.444124,1.35522 -1.687137,8.29733 -2.801351,15.6453 -0.544024,3.58767 -0.38428,18.28327 0.254079,23.3743 z m 51.452199,22.16446 0.34596,-13.45704 6.22073,-5.12176 c 3.4214,-2.81696 6.64824,-5.4935 7.17076,-5.94789 1.45742,-1.26738 5.16503,-3.80374 8.77268,-6.0014 9.54986,-5.81742 22.36295,-5.94212 32.31914,-0.31455 3.81932,2.15882 18.05246,13.25476 20.57031,16.03632 1.36639,1.50951 1.38447,1.84263 1.04947,19.33771 l -0.34088,17.80172 -4.30891,2.14353 c -2.36989,1.17894 -5.92233,2.69068 -7.89428,3.35944 -1.97196,0.66876 -4.32926,1.71585 -5.23846,2.32687 -6.52405,4.38445 -17.24953,6.68149 -24.71504,5.29313 -2.19165,-0.40757 -6.10254,-1.74406 -8.6909,-2.96997 -2.58836,-1.2259 -6.17285,-2.58409 -7.96554,-3.0182 -1.7927,-0.4341 -6.55032,-2.30737 -10.57249,-4.16281 l -7.31305,-3.37352 0.12226,-4.23728 c 0.0672,-2.3305 0.27796,-10.29294 0.46824,-17.6943 z m 7.6797,24.36773 c 3.49574,1.64301 7.12939,3.15769 8.07477,3.36594 1.50856,0.33228 1.26926,-0.0844 -1.95567,-3.40523 -6.30672,-6.49434 -9.21556,-14.25791 -9.21556,-24.59595 0,-6.683 1.31956,-11.52958 4.56954,-16.78325 2.12734,-3.43891 1.96323,-3.37911 -4.11309,1.49881 l -3.65421,2.93349 -0.0309,16.99944 -0.0309,16.99945 6.3559,2.9873 z m -1.14574,-15.72585 c 1.99379,10.82144 11.30976,20.90367 22.76568,24.63821 4.63221,1.51006 13.22529,1.82693 18.2334,0.67235 7.40829,-1.7079 14.22894,-7.03435 19.78906,-15.45384 3.58335,-5.42611 4.67402,-9.62627 4.69477,-18.07931 0.0209,-8.55228 -1.33293,-13.04184 -6.07944,-20.15918 -3.5014,-5.25032 -7.81605,-8.90833 -13.76642,-11.67133 -7.3297,-3.40347 -19.14066,-3.16647 -27.25162,0.54684 -6.58332,3.01395 -15.56556,13.95626 -18.09388,22.04228 -1.02709,3.28481 -1.18303,12.62538 -0.29155,17.46398 z m 62.5282,15.52748 5.92491,-2.75282 V 295.4412 278.07052 l -2.77052,-2.61646 c -1.52379,-1.43906 -3.34577,-3.04022 -4.04884,-3.55814 -1.24288,-0.91559 -1.24191,-0.88749 0.0353,1.01399 8.26123,12.2996 6.90765,31.08516 -3.04474,42.25604 -1.33486,1.4983 -2.33567,2.82035 -2.224,2.93789 0.11167,0.11753 2.86924,-1.02507 6.12794,-2.53913 z m -102.602408,12.8332 c 0.54436,3.18417 1.586508,8.25084 2.315891,11.25926 0.729364,3.00842 1.591043,6.82196 1.914814,8.47454 0.32379,1.65257 1.647166,7.55159 2.940858,13.10893 3.031475,13.02246 3.404545,15.61919 4.214465,29.33493 0.6543,11.0804 0.72234,11.45102 2.36924,12.90519 1.99827,1.76442 3.00672,1.60337 3.51785,-0.56182 0.53677,-2.27381 3.44998,-3.17558 5.18533,-1.60509 0.72793,0.65876 1.32352,1.739 1.32352,2.4005 0,1.62145 2.36029,1.57902 3.2365,-0.0581 1.75983,-3.28828 -0.41501,-14.07064 -4.30985,-21.36729 l -2.36205,-4.42511 -0.50784,-14.34152 c -0.27931,-7.88783 -0.53307,-20.8284 -0.56391,-28.7568 l -0.0561,-14.4153 3.09647,-2.88256 c 1.70305,-1.58541 3.76245,-3.3441 4.57644,-3.9082 1.46968,-1.01851 1.47875,-1.12144 1.30378,-14.80033 l -0.17621,-13.77473 -8.80048,7.71502 c -19.792275,17.35108 -21.737653,20.9646 -19.218745,35.69854 z m 19.236068,89.61943 c 1.01782,3.78282 4.19114,7.55809 7.96219,9.47256 5.35616,2.71918 10.46835,2.5104 20.70353,-0.84554 7.95741,-2.6091 12.13294,-3.61776 18.41582,-4.44862 3.02623,-0.40018 3.09647,-0.46122 3.09647,-2.69108 v -2.2816 l -3.09647,0.41077 c -7.09375,0.94105 -13.97114,2.5336 -21.16749,4.90163 -7.46285,2.45571 -8.82694,2.60753 -14.02247,1.56065 -2.08487,-0.42009 -6.08477,-4.12897 -7.11684,-6.59907 -0.48441,-1.15934 -0.88073,-4.28075 -0.88073,-6.93649 0,-2.65574 -0.1796,-5.72656 -0.3991,-6.82408 -0.74265,-3.71327 -3.82039,-3.19392 -4.38677,0.74025 -0.40264,2.79669 0.11481,10.65264 0.89186,13.54062 z m 4.82196,-35.30408 c 3.49078,7.61539 4.24986,10.56761 4.2712,16.61145 0.0172,4.87162 -0.99228,6.89615 -3.43862,6.89615 -1.21231,0 -1.27269,0.3192 -0.92642,4.89766 0.46687,6.1731 1.97004,9.32038 5.35881,11.22009 3.61398,2.02595 7.56943,1.89926 14.14448,-0.45306 2.97668,-1.06494 6.73222,-2.25482 8.34564,-2.64417 4.19963,-1.01343 7.90747,-1.89391 9.70298,-2.30407 1.4675,-0.33523 1.53354,-0.55719 1.18129,-3.9701 -0.51197,-4.96065 0.24246,-6.55104 3.86845,-8.15499 l 3.02403,-1.33768 -0.47753,-26.82096 c -0.26265,-14.75154 -0.58909,-26.93675 -0.72546,-27.07825 -0.13634,-0.14151 -1.7003,-0.39684 -3.47542,-0.56742 l -3.22751,-0.31012 -0.74398,2.76291 c -0.4952,1.83906 -1.80814,3.82708 -3.92654,5.94549 -3.06846,3.06845 -3.31653,3.18256 -6.91883,3.18256 -3.62335,0 -3.82996,-0.0972 -6.83633,-3.21626 -2.36757,-2.45632 -3.41747,-4.24389 -4.44337,-7.56537 -0.73881,-2.39201 -1.34438,-4.97824 -1.34571,-5.7472 -0.002,-1.06187 -1.03172,-1.93033 -4.28273,-3.61141 -2.35418,-1.21733 -6.02985,-3.34411 -8.16818,-4.72618 -2.13832,-1.38207 -4.07138,-2.51285 -4.29567,-2.51285 -0.2243,0 -0.22898,9.69112 -0.0104,21.53581 l 0.39743,21.5358 z m 17.41649,-29.44092 c 2.27206,4.73624 4.31564,6.33859 8.08406,6.33859 4.58155,0 8.67649,-3.62072 10.32177,-9.12643 0.3555,-1.18962 -0.1661,-1.40965 -5.95744,-2.51297 -3.49089,-0.66505 -8.35136,-1.90238 -10.80107,-2.74961 l -4.45399,-1.5404 0.42192,2.7496 c 0.23206,1.51228 1.30519,4.59083 2.38475,6.84122 z m 23.86526,63.25904 c 1.55638,-0.17907 1.81935,-0.52851 1.99501,-2.65084 0.11129,-1.34452 0.44966,-2.44458 0.75194,-2.44458 0.30229,0 0.65127,-1.47019 0.77551,-3.26707 0.17405,-2.51727 0.0267,-3.19051 -0.64228,-2.9335 -0.4775,0.18347 -1.12611,0.33358 -1.44136,0.33358 -0.31524,0 -1.1713,0.64202 -1.90234,1.4267 -1.04957,1.12658 -1.32917,2.30129 -1.32917,5.58434 0,4.15102 0.003,4.15732 1.79269,3.95137 z m 0.211,20.16521 c 0.60292,7.52747 1.01033,9.94129 1.67789,9.94129 0.70733,0 0.88162,-2.25541 0.88162,-11.40803 v -11.40803 h -2.02632 c -1.77003,0 -1.98226,0.18552 -1.67789,1.46675 0.19164,0.8067 0.70676,5.94032 1.1447,11.40802 z m 5.53196,-13.49433 c 0.72649,0.60293 1.51746,0.66807 2.77053,0.22816 l 1.75373,-0.61568 0.18361,-8.04231 c 0.19494,-8.53819 -0.17135,-9.85535 -2.7406,-9.85535 -2.62783,0 -2.98404,1.1344 -2.98404,9.50293 0,6.39623 0.19751,8.10233 1.01677,8.78225 z m 6.15398,-14.31322 c 0,1.62268 0.34594,2.54018 1.06126,2.81467 0.80761,0.30991 0.9732,0.94977 0.69286,2.6773 -0.3506,2.1605 -0.27598,2.27005 1.5463,2.27005 h 1.91468 v -4.80934 c 0,-5.43245 -0.44778,-6.12494 -4.34207,-6.71514 -2.06552,-0.31303 -2.36039,-0.2278 -1.68789,0.48787 0.44818,0.47694 0.81486,1.95051 0.81486,3.27459 z m -0.36441,-58.0786 c 0.1581,0 0.46877,-0.29334 0.69036,-0.65189 0.22159,-0.35853 0.0922,-0.65188 -0.28748,-0.65188 -0.3797,0 -0.69036,0.29335 -0.69036,0.65188 0,0.35855 0.12936,0.65189 0.28748,0.65189 z m 0.64778,27.34392 c 1.2588,1.04473 4.96925,0.61214 5.77336,-0.6731 0.35594,-0.56891 0.4552,-2.05765 0.22059,-3.3083 -0.38545,-2.05462 -0.6053,-2.24771 -2.27953,-2.00198 -1.42801,0.20958 -2.17362,-0.13573 -3.25131,-1.50579 l -1.39837,-1.77773 v 4.24536 c 0,2.89247 0.29804,4.49272 0.93526,5.02154 z m 1.65172,26.35788 c 3.29252,0.5265 3.9319,1.74148 3.9319,7.47159 v 4.54489 l 3.21911,0.44273 c 1.77052,0.24352 5.80407,1.16998 8.96345,2.05882 10.52153,2.96005 12.89068,3.46733 16.24111,3.47759 6.45702,0.0197 9.97236,-4.26853 10.54576,-12.86459 0.31069,-4.6576 0.29226,-4.72619 -1.2698,-4.72619 -2.73033,0 -3.1496,-1.0958 -3.1496,-8.2316 0,-6.39787 0.0948,-6.84665 2.34829,-11.11468 1.29155,-2.44617 2.61876,-5.32764 2.94936,-6.40326 0.60077,-1.95462 2.1474,-45.24918 1.63477,-45.7618 -0.14913,-0.14913 -1.84328,0.7323 -3.76477,1.95874 -1.92148,1.22644 -4.97613,2.97917 -6.78812,3.89495 l -3.29452,1.66506 -0.77674,13.90641 c -1.3042,23.34957 -2.37893,28.46556 -6.75314,32.14621 -2.4441,2.05657 -6.42274,3.12659 -9.48763,2.55161 -3.07454,-0.57678 -7.142,-4.35605 -8.28206,-7.69524 l -0.87033,-2.54915 -3.99221,-0.0584 -3.99221,-0.0584 2e-4,12.46551 2e-4,12.46551 2.58698,0.41368 z m -2.08808,16.46016 c 0.26342,0.40478 2.09236,0.9449 4.06432,1.20027 4.5456,0.58867 12.52006,2.39682 19.23067,4.36041 3.79049,1.10916 6.84524,1.526 11.18259,1.526 5.6471,0 6.11957,-0.10951 8.80047,-2.03984 1.79129,-1.28979 3.52007,-3.36752 4.70153,-5.65053 1.61973,-3.12989 1.91318,-4.55261 2.20382,-10.68442 0.28514,-6.01585 0.1763,-7.20566 -0.72774,-7.95594 -1.71641,-1.42449 -3.01778,0.19274 -3.0236,3.75747 -0.007,4.84607 -1.27209,11.29401 -2.6521,13.52689 -3.03669,4.91348 -8.59952,5.89562 -17.87742,3.15632 -8.94143,-2.63996 -15.42957,-4.03055 -21.18069,-4.53964 -5.18058,-0.45859 -5.22067,-0.45033 -5.21076,1.07246 0.005,0.84402 0.22549,1.86577 0.48891,2.27055 z m 1.52419,-51.4202 c 0.63132,1.67693 2.64353,1.93526 3.84047,0.49306 0.56953,-0.68625 0.68077,-2.27392 0.37681,-5.37808 -0.62123,-6.3443 -1.7999,-14.78484 -2.11316,-15.13247 -0.14764,-0.16384 -1.01415,0.56953 -1.92556,1.62971 -1.63521,1.90215 -1.65099,2.02672 -1.19393,9.42433 0.25473,4.12319 0.71166,8.15675 1.01537,8.96345 z m -0.9233,46.2916 c 0.16316,-0.62326 0.16908,-1.79666 0.0132,-2.60754 -0.15592,-0.8109 -0.28943,-0.30096 -0.29666,1.1332 -0.007,1.43415 0.12034,2.09761 0.28351,1.47434 z m 1.7401,30.79408 c 0.95292,0 1.33825,-2.91706 2.13123,-16.13422 l 0.43999,-7.33373 h -1.72773 -1.72771 v 11.73397 c 0,9.4435 0.17259,11.73398 0.88422,11.73398 z m 3.3679,-87.71552 c 2.20778,17.47948 3.25834,22.91322 4.98003,25.75761 1.02212,1.68866 5.09414,3.93993 7.12639,3.93993 5.30848,0 9.66736,-3.57928 11.33192,-9.30516 1.00171,-3.44573 2.922,-25.09015 2.9391,-33.12783 l 0.009,-4.29759 -6.02995,2.09952 c -5.03571,1.75334 -13.11782,3.88642 -19.88256,5.24754 -1.74239,0.35059 -1.71748,-0.15844 -0.47406,9.68598 z m 35.36685,-44.15193 c 1.6938,1.15247 4.50848,3.4118 6.25484,5.02073 3.10055,2.85658 3.16503,2.99306 2.74311,5.80665 -0.77159,5.14533 -1.63443,20.11745 -1.65962,28.79801 -0.0135,4.66099 -0.32568,12.42169 -0.69369,17.246 -0.63702,8.35078 -0.78523,8.97607 -3.09028,13.03775 -2.4041,4.23622 -2.42118,4.31899 -2.42577,11.74996 -0.005,6.46929 0.14277,7.51262 1.08265,7.69716 0.66312,0.13021 1.42604,-0.47703 1.95567,-1.55656 1.50271,-3.06296 2.83555,-3.41332 5.02077,-1.31976 2.34271,2.24447 4.15768,1.89763 5.78609,-1.10567 0.94301,-1.73921 1.12663,-3.9591 1.14196,-13.8064 0.0113,-7.23905 0.31278,-12.60798 0.78709,-14.01558 2.32136,-6.88896 3.6167,-12.75451 7.41398,-33.5722 0.7194,-3.94392 1.57029,-8.34415 1.89089,-9.7783 1.58054,-7.07028 1.52368,-10.25806 -0.25468,-14.27678 -1.40739,-3.18045 -3.76113,-5.92802 -13.59154,-15.86575 -6.53916,-6.61055 -12.69609,-12.59998 -13.68206,-13.30985 l -1.7927,-1.29069 0.0168,14.22295 0.0168,14.22294 3.07966,2.09539 z m 54.65322,4.74942 c 0.50503,-3.76465 1.82564,-12.56513 2.93471,-19.55662 1.10907,-6.99149 2.28952,-15.93864 2.62323,-19.88257 1.17201,-13.85144 2.93178,-18.78085 7.71295,-21.60515 1.76502,-1.04263 1.84052,-1.30406 2.11924,-7.33894 0.3354,-7.26243 2.04406,-11.84471 6.08422,-16.31669 5.8731,-6.50081 12.44345,-8.51991 27.72467,-8.51991 h 10.84035 l 0.4188,-4.00695 c 0.23035,-2.20383 0.41882,-5.68307 0.41882,-7.73167 0,-2.04859 0.18866,-5.10116 0.41924,-6.78348 0.38717,-2.82472 0.54929,-3.04369 2.11864,-2.86151 l 1.69938,0.19727 0.17912,10.59317 c 0.0985,5.82624 0.44536,10.59317 0.77073,10.59317 0.34777,0 0.61441,-17.91786 0.64692,-43.47034 0.0304,-23.90868 0.19696,-43.61198 0.37008,-43.7851 0.17311,-0.17311 0.31475,19.18545 0.31475,43.01903 v 43.33379 h 3.25944 3.25944 l 0.11159,-43.38811 0.11158,-43.38812 0.45614,43.53797 c 0.25087,23.94588 0.64069,43.72251 0.86624,43.94807 0.22556,0.22556 0.41011,-4.47906 0.41011,-10.45469 v -10.86479 h 1.59124 c 0.8752,0 1.72862,0.22226 1.89651,0.49391 0.16788,0.27164 0.67412,5.11191 1.12496,10.75614 l 0.8197,10.26224 h 10.35964 c 17.33422,0 22.8898,1.42572 28.83244,7.39923 4.57665,4.60043 6.44409,8.69932 6.50255,14.27265 0.0398,3.7953 0.20806,4.39732 1.22978,4.40023 1.86545,0.006 3.61414,1.1927 4.59373,3.11916 1.27684,2.51111 2.37105,9.51811 2.37208,15.19046 6.6e-4,4.64516 1.28583,13.67878 2.53774,17.84082 0.32895,1.09359 1.38783,5.50854 2.35308,9.81099 0.96525,4.30246 2.0489,8.7027 2.40812,9.77832 0.35922,1.0756 0.89213,6.79592 1.18426,12.7118 0.34304,6.94731 1.12554,13.75703 2.20974,19.23067 3.60781,18.21417 4.48229,30.52518 2.61491,36.81332 -3.09418,10.41922 -13.73609,19.57675 -31.3657,26.99064 -7.80759,3.28338 -22.86548,7.12565 -31.32003,7.99185 l -4.07776,0.41779 -0.002,9.19936 c -9.4e-4,5.05966 -0.19395,14.25965 -0.42855,20.44443 l -0.42656,11.24506 h -2.50494 -2.50494 l -0.15636,-20.69742 c -0.086,-11.38358 -0.30904,-0.0163 -0.49557,25.26063 l -0.33916,45.95806 -0.15637,-45.79509 -0.15636,-45.79508 h -3.84454 -3.84454 l -0.4578,8.6375 c -0.27712,5.22863 -0.18694,10.43843 0.22851,13.20073 0.67269,4.4728 0.68218,4.4147 0.47915,-2.9335 -0.11392,-4.12318 -7e-5,-8.96345 0.25299,-10.75614 0.25308,-1.79269 0.45751,16.24829 0.45432,40.09106 l -0.006,43.35052 -0.41522,-31.10905 c -0.22837,-17.10996 -0.61916,-31.31296 -0.8684,-31.5622 -0.24925,-0.24925 -0.45317,2.52921 -0.45317,6.17434 l 4e-5,6.62753 h -2.2816 -2.28161 l -0.005,-21.02338 -0.005,-21.02336 -7.35241,-1.4324 c -14.19045,-2.7646 -26.40737,-7.88409 -36.27654,-15.20164 -10.96838,-8.13254 -15.34209,-16.76867 -16.99695,-33.56128 -0.38865,-3.94392 -0.97965,-9.07753 -1.31335,-11.40803 -0.87561,-6.11542 -0.64875,-22.67329 0.4198,-30.6387 z m 1.47094,17.27502 c 4.01676,-6.46741 11.32406,-8.46494 17.60444,-4.81235 1.21045,0.70397 2.32516,1.15559 2.47714,1.0036 0.15199,-0.15199 -0.35317,-2.14401 -1.12258,-4.42673 -1.29433,-3.84007 -1.36728,-4.97896 -0.97558,-15.23246 0.36332,-9.51018 0.23376,-12.19168 -0.91336,-18.90474 -2.29685,-13.44142 -1.95608,-15.69983 3.51905,-23.32187 2.18112,-3.03636 3.58462,-8.06546 2.66579,-9.55216 -0.74222,-1.20094 -2.07006,-0.76593 -2.84348,0.93155 -0.57511,1.26222 -1.23081,1.62972 -2.90775,1.62972 -2.63803,0 -3.72974,-0.98578 -3.72974,-3.36783 v -1.8033 l -2.22088,1.31035 c -3.61281,2.13162 -5.03555,6.33302 -5.94313,17.55041 -0.24657,3.04757 -1.00924,9.20791 -1.69481,13.68963 -1.57598,10.30254 -3.65702,24.48209 -4.40099,29.98682 -0.31497,2.3305 -0.60778,7.17077 -0.6507,10.75615 l -0.078,6.51886 z m 0.7808,25.09766 c 1.39967,11.50102 1.93199,13.72265 4.63916,19.36183 4.63137,9.64733 15.77034,17.96674 31.62515,23.61996 12.92149,4.60729 18.03191,5.39763 35.39868,5.47448 13.66492,0.0605 16.02336,-0.0904 21.83822,-1.39693 26.18356,-5.88316 45.62248,-17.56509 50.81593,-30.53812 2.19936,-5.49385 2.2056,-12.50568 0.0243,-27.27736 -1.60986,-10.90213 -1.67238,-11.11572 -3.84966,-13.15308 -6.80421,-6.36698 -17.13109,-3.49517 -19.36736,5.38588 l -0.72469,2.87803 h -9.70093 c -5.3355,0 -9.70092,0.10075 -9.70092,0.2239 0,0.12314 0.5867,1.92915 1.30378,4.01338 1.75297,5.09514 1.79655,15.29616 0.0893,20.9094 -6.22931,20.48118 -29.80073,30.84504 -48.79865,21.45575 -12.00738,-5.93438 -19.73879,-18.16712 -19.73879,-31.23102 0,-4.65453 0.41995,-7.13977 2.36434,-13.99212 0.43528,-1.53399 0.3952,-1.54875 -3.08029,-1.1334 -5.74924,0.68706 -7.09708,0.008 -9.71425,-4.89081 -3.72216,-6.96782 -3.87453,-7.14451 -7.57048,-8.77904 -4.48225,-1.98227 -6.35951,-1.97179 -10.43315,0.0582 -2.32721,1.15969 -3.70623,2.41052 -4.79678,4.35089 -2.86882,5.10438 -2.89186,6.01634 -0.62291,24.66018 z m 14.06427,-102.07701 c 0.40501,2.95485 0.4881,3.05212 2.44458,2.8615 1.90562,-0.18565 2.04936,-0.38996 2.43189,-3.45675 0.22361,-1.79268 0.26028,-4.06614 0.0815,-5.05212 -0.28856,-1.59132 -0.60884,-1.7927 -2.85115,-1.7927 -2.43235,0 -2.52606,0.0813 -2.52606,2.19063 0,1.20484 0.18867,3.56709 0.41925,5.24944 z m 2.51424,-8.74384 c 1.77111,0 2.2816,-0.26524 2.2816,-1.18545 0,-0.652 0.46765,-2.77878 1.03922,-4.72619 0.79119,-2.69565 1.84139,-4.31913 4.40024,-6.80212 5.14706,-4.99447 7.96879,-5.65904 25.68816,-6.04998 l 14.5045,-0.32 v -2.19209 -2.19211 h -14.60939 c -15.92968,0 -19.23145,0.53993 -25.39674,4.15302 -5.62405,3.29592 -9.7504,10.45434 -10.10042,17.52224 -0.0808,1.6311 0.11688,1.79268 2.19283,1.79268 z m 1.002,44.65428 c 1.0955,7.06459 1.24509,10.20987 0.89918,18.90473 -0.39907,10.03057 -0.35125,10.61753 1.24794,15.31936 1.86567,5.48532 5.00137,12.60127 5.38416,12.21847 0.13798,-0.13797 0.69027,-7.85718 1.22732,-17.15378 2.02896,-35.1224 2.62311,-38.47653 7.67049,-43.30166 2.89647,-2.76892 5.08098,-3.84187 9.47549,-4.654 4.11048,-0.75964 4.68222,-1.26369 4.70635,-4.14917 0.0272,-3.25258 2.87465,-8.48956 5.63631,-10.36616 3.33065,-2.26323 6.4346,-2.24288 8.83612,0.058 l 1.82836,1.75164 v -8.51066 -8.51065 l -2.65827,-0.35656 c -3.76878,-0.5055 -4.46725,-1.7692 -4.49176,-8.12667 l -0.0208,-5.37808 -8.96345,0.0113 c -22.26353,0.0282 -28.5652,5.00427 -28.26017,22.31582 0.0422,2.3921 0.34231,3.74835 0.82958,3.74835 1.50547,0 3.14771,2.18275 3.14143,4.17534 -0.007,2.32584 -2.28988,7.1384 -5.5523,11.7066 -2.04109,2.85803 -2.26331,3.5961 -2.25708,7.49671 0.005,2.37961 0.59827,8.1401 1.32104,12.8011 z m 12.45732,48.79868 c 7.15974,0.74834 7.19848,0.73626 9.35674,-2.92099 2.66483,-4.51564 9.18611,-10.47763 13.79515,-12.61203 2.0932,-0.96934 4.31518,-2.03028 4.93777,-2.35766 0.62257,-0.32738 1.76657,-0.59524 2.54221,-0.59524 1.39613,0 1.40601,-0.0866 0.98647,-8.63751 -0.82144,-16.74193 -1.26709,-22.65308 -1.70787,-22.65308 -0.24495,0 -0.31906,-0.86055 -0.1647,-1.91233 0.66857,-4.55524 -5.78361,-13.73297 -9.65462,-13.73297 -1.06366,0 -1.93393,-0.29335 -1.93393,-0.65188 0,-1.14409 -5.99436,-0.70653 -8.7774,0.64072 -3.92039,1.89782 -7.34105,5.73341 -8.75743,9.81971 -0.84169,2.42832 -1.57155,7.89415 -2.30272,17.24478 -1.13575,14.5249 -2.07672,29.11722 -2.23241,34.62013 l -0.0942,3.32955 z m 6.10243,25.43104 c 2.45293,9.4174 8.40683,16.92135 16.94753,21.35964 7.05806,3.66783 14.46348,4.60302 22.67352,2.86333 10.36458,-2.19623 18.81326,-8.98218 23.7269,-19.05736 l 2.47759,-5.08018 0.005,-9.12642 c 0.005,-8.20858 -0.14253,-9.40706 -1.46176,-11.91701 -0.80671,-1.53483 -1.47117,-3.14825 -1.47659,-3.58538 -0.02,-1.6184 -6.58147,-9.63307 -10.233,-12.49941 -5.4232,-4.25706 -10.86476,-6.22182 -18.4958,-6.67821 -5.37009,-0.32116 -6.86384,-0.16895 -10.62528,1.08278 -8.27557,2.75393 -14.19126,7.09951 -18.56322,13.63628 -2.29751,3.43513 -2.98069,5.12304 -5.04496,12.46425 -1.14061,4.0564 -1.10686,12.01902 0.0701,16.53769 z m 14.96702,-92.25306 c 2.82944,1.02313 6.52428,5.20757 8.67798,9.82788 1.58533,3.40101 2.55253,11.03126 2.70957,21.37572 0.0315,2.0747 0.26519,2.66432 0.95159,2.40092 0.75468,-0.28959 0.90775,-4.20516 0.89756,-22.95857 l -0.0123,-22.60942 -1.67141,-1.7927 c -2.08879,-2.24037 -4.96064,-2.35691 -7.97767,-0.32372 -2.83691,1.91179 -4.36805,4.61644 -5.09506,9.00005 -0.32351,1.95061 -0.62248,3.70765 -0.6644,3.90452 -0.0419,0.19688 0.94095,0.72577 2.18414,1.17532 z m 7.5409,-33.10696 c 0.46785,0.87418 1.36759,1.26093 2.93348,1.26093 h 2.25868 v -4.23727 c 0,-2.39025 -0.28416,-4.23727 -0.65188,-4.23727 -0.35855,0 -0.65189,-0.88005 -0.65189,-1.95566 0,-1.72595 -0.22333,-1.95566 -1.90134,-1.95566 -1.04573,0 -2.0493,0.36668 -2.23014,0.81486 -0.61301,1.51919 -0.43565,9.04186 0.24309,10.31007 z m 1.93272,-18.29569 h 1.95567 v -10.4302 c 0,-8.64684 -0.16061,-10.4302 -0.93936,-10.4302 -1.5303,0 -1.75745,0.96089 -2.27999,9.64487 -0.27409,4.55512 -0.54192,8.94207 -0.59516,9.74878 -0.0803,1.21664 0.23666,1.46675 1.85884,1.46675 z m 0.97783,226.85678 h 1.62973 v -20.20851 -20.2085 h -1.62973 -1.62971 v 20.2085 20.20851 z m 1.37352,-128.80106 c 0.21763,0.56713 0.80434,1.03115 1.30378,1.03115 0.71858,0 0.90808,-1.42958 0.90808,-6.85035 0,-6.68714 -0.031,-6.83093 -1.30377,-6.03611 -1.11986,0.69937 -1.30377,1.52022 -1.30377,5.81919 0,2.75274 0.17805,5.46899 0.39568,6.03612 z m 0.68381,-88.10204 c 0.17856,-0.44134 0.18942,-1.32139 0.0242,-1.95566 -0.16527,-0.63426 -0.31138,-0.27316 -0.32466,0.80245 -0.0133,1.07562 0.12194,1.59456 0.30051,1.15321 z m 2.17994,1.45435 c 0.35854,0.22159 0.6519,2.42171 0.6519,4.88915 0,4.76528 0.46829,5.56612 2.89823,4.95625 1.4429,-0.36214 1.5399,-0.73889 1.90404,-7.3951 0.21103,-3.85744 0.56773,-8.26025 0.79267,-9.78404 l 0.40897,-2.77052 h -3.65384 -3.65386 v 4.85068 c 0,2.66788 0.29335,5.03199 0.65189,5.25358 z m 0.22535,67.95925 -0.074,19.71959 h 3.61574 3.61576 l -0.43115,-26.89036 c -0.23713,-14.78969 -0.43153,-32.23768 -0.43201,-38.77332 l -6.4e-4,-11.88296 -1.67567,0.76349 c -1.26489,0.57631 -2.15959,0.58082 -3.6497,0.0183 l -1.97402,-0.74511 0.53991,19.03535 c 0.29696,10.46945 0.50663,27.90917 0.46594,38.75495 z m 23.66645,-73.24117 c 17.95417,0.49451 18.2446,0.54919 23.07736,4.34546 2.89657,2.27533 5.71205,7.3635 6.25124,11.29736 0.40642,2.96517 0.44235,3.00278 2.86849,3.00278 h 2.45691 l -0.31529,-2.77052 c -0.73548,-6.46279 -2.25136,-9.76998 -6.36956,-13.89641 -5.99464,-6.00662 -7.41433,-6.34579 -27.90409,-6.6666 l -16.7861,-0.26281 v 2.2451 2.24509 z m -16.29344,3.82757 c 0.17857,-0.44134 0.18944,-1.32139 0.0242,-1.95566 -0.16528,-0.63426 -0.31138,-0.27316 -0.32467,0.80245 -0.0133,1.07562 0.12195,1.59456 0.30053,1.15321 z m 0.39751,9.34156 c 0.78137,0.78137 3.71776,-0.40535 4.69557,-1.89766 0.73961,-1.12878 0.87577,-2.53804 0.56587,-5.85664 l -0.40809,-4.37018 h -2.18734 c -1.99579,0 -2.18734,0.17126 -2.18734,1.95566 0,1.07561 -0.32861,1.95566 -0.73024,1.95566 -0.77233,0 -0.54515,7.41643 0.25157,8.21316 z m -0.17402,69.15221 6.5e-4,10.5469 3.42241,1.06299 c 1.88233,0.58465 3.74624,1.20233 4.14203,1.37262 0.47802,0.20566 0.8716,-1.70362 1.17229,-5.68689 0.6871,-9.1017 4.40802,-15.88185 10.391,-18.93414 2.20827,-1.12657 3.49632,-1.29515 8.06404,-1.0554 5.28728,0.2775 5.50836,0.35537 8.08038,2.84587 6.02569,5.83472 7.04673,9.98773 7.0804,28.79903 l 0.0203,11.24506 h 1.88833 c 1.87663,0 1.89331,-0.0352 2.69248,-5.66504 0.56607,-3.98773 0.63426,-7.79974 0.23031,-12.87478 -0.31562,-3.96535 -0.4835,-15.2035 -0.37307,-24.97366 l 0.20078,-17.76394 h -1.66752 c -1.66361,0 -1.66754,-0.0137 -1.66754,-5.78937 0,-4.54548 -0.34116,-6.69578 -1.58791,-10.00804 -2.11672,-5.62364 -2.9336,-14.82713 -1.42697,-16.07751 0.57875,-0.48032 1.64054,-0.71949 2.35952,-0.53146 3.07901,0.80517 0.75472,-8.69299 -3.13141,-12.79651 -3.73928,-3.94844 -5.40755,-4.34075 -20.36823,-4.78961 l -13.70234,-0.41112 0.4364,5.23274 c 0.39954,4.79082 0.31898,5.35015 -0.9539,6.62303 -0.91305,0.91305 -2.20994,1.39028 -3.77811,1.39028 h -2.38784 l 0.43138,28.84601 c 0.23725,15.86531 0.43172,33.59213 0.43217,39.39294 z m 2.62151,-88.44745 h 1.96881 l -0.42169,-6.35591 c -0.80522,-12.13628 -1.13663,-14.14287 -2.37514,-14.38086 -1.04826,-0.20144 -1.1408,0.63081 -1.1408,10.25877 v 10.478 z m 0.20912,226.20488 h 1.52605 l 0.42962,-13.79474 c 0.23628,-7.5871 0.4296,-16.68093 0.4296,-20.2085 v -6.41376 h -1.95566 -1.95566 v 20.2085 20.2085 z M 350.26089,329.758 c 3.8171,2.17923 9.81436,7.92897 12.26944,11.76305 2.47312,3.86224 2.51166,3.87128 12.80919,3.00081 l 4.98752,-0.4216 v -10.28738 c 0,-19.45962 -2.12464,-26.34079 -9.26342,-30.00177 -2.78472,-1.42808 -8.59984,-1.66126 -11.40334,-0.45725 -7.3642,3.16269 -11.51573,10.89229 -11.83381,22.03298 -0.0786,2.75564 0.0689,3.02065 2.43442,4.37116 z m 31.38297,-62.06319 c 0.65561,1.79269 2.02095,5.1662 3.03407,7.4967 l 1.84204,4.23727 0.18077,23.142 c 0.0994,12.7281 0.2461,25.83772 0.32595,29.13249 0.14415,5.94855 0.15429,5.98217 1.44894,4.80243 2.1954,-2.00053 5.35253,-3.29764 7.95324,-3.2676 2.98535,0.0345 6.99115,1.38565 8.7042,2.93594 1.22986,1.113 1.24561,0.98564 0.89946,-7.27176 -0.48718,-11.62135 -1.3395,-18.13857 -3.61409,-27.63527 -4.20914,-17.57359 -5.2142,-23.25174 -5.77526,-32.6275 -0.63726,-10.64897 -1.57877,-13.94231 -4.2794,-14.96909 -2.14595,-0.81588 -2.61259,-0.52283 -4.23666,2.66059 -1.91436,3.75246 -3.89016,3.2719 -4.84146,-1.17756 -0.51103,-2.39016 -1.25636,-3.0704 -2.74026,-2.50097 -0.87222,0.3347 -0.9545,1.23186 -0.55828,6.08773 0.25557,3.13234 1.00112,7.16191 1.65674,8.9546 z m 2.62403,15.31935 c 1.1866,0 1.28352,-0.26902 0.88076,-2.44457 -0.24892,-1.34453 -0.82823,-3.47131 -1.28738,-4.72619 -0.81522,-2.22805 -0.83589,-2.17068 -0.88075,2.44458 -0.0422,4.34146 0.0626,4.72618 1.28737,4.72618 z m 0.37791,-27.46075 c 0.53858,2.69291 1.13911,2.5695 2.77571,-0.5704 l 1.35913,-2.60756 h -2.27113 c -2.43502,0 -2.48296,0.0817 -1.86371,3.17796 z" />
</svg>
