<?xml version="1.0" encoding="UTF-8" standalone="no"?>
<!-- Created with Inkscape (http://www.inkscape.org/) -->

<svg
   xmlns:dc="http://purl.org/dc/elements/1.1/"
   xmlns:cc="http://creativecommons.org/ns#"
   xmlns:rdf="http://www.w3.org/1999/02/22-rdf-syntax-ns#"
   xmlns:svg="http://www.w3.org/2000/svg"
   xmlns="http://www.w3.org/2000/svg"
   xmlns:sodipodi="http://sodipodi.sourceforge.net/DTD/sodipodi-0.dtd"
   xmlns:inkscape="http://www.inkscape.org/namespaces/inkscape"
   width="135mm"
   height="135mm"
   viewBox="0 0 510.23621 510.23621"
   version="1.1"
   id="svg8"
   style="enable-background:new"
   inkscape:version="0.92.2 5c3e80d, 2017-08-06"
   sodipodi:docname="heart_tree_2.svg">
  <defs
     id="defs2">
    <filter
       inkscape:collect="always"
       style="color-interpolation-filters:sRGB"
       id="filter4827">
      <feBlend
         inkscape:collect="always"
         mode="luminosity"
         in2="BackgroundImage"
         id="feBlend4829" />
    </filter>
  </defs>
  <sodipodi:namedview
     id="base"
     pagecolor="#ffffff"
     bordercolor="#666666"
     borderopacity="1.0"
     inkscape:pageopacity="0.0"
     inkscape:pageshadow="2"
     inkscape:zoom="0.98994949"
     inkscape:cx="254.83092"
     inkscape:cy="213.82639"
     inkscape:document-units="px"
     inkscape:current-layer="layer1"
     showgrid="false"
     inkscape:window-width="1920"
     inkscape:window-height="981"
     inkscape:window-x="0"
     inkscape:window-y="1"
     inkscape:window-maximized="1" />
  <metadata
     id="metadata5">
    <rdf:RDF>
      <cc:Work
         rdf:about="">
        <dc:format>image/svg+xml</dc:format>
        <dc:type
           rdf:resource="http://purl.org/dc/dcmitype/StillImage" />
        <dc:title></dc:title>
      </cc:Work>
    </rdf:RDF>
  </metadata>
  <g
     inkscape:label="Layer 1"
     inkscape:groupmode="layer"
     id="layer1"
     style="filter:url(#filter4827)"
     transform="translate(0,-162.00003)">
    <path
       style="fill:none;stroke:#000000;stroke-width:0.70699567"
       d="m 362.83176,609.79323 c -1.51089,0.93377 -42.20696,-2.09929 -62.21957,-4.6372 -31.6087,-4.00849 -60.58589,-10.98809 -79.75429,-19.21006 -5.16402,-2.21502 -7.15175,-2.74175 -9.13325,-2.4202 -5.69983,0.92496 -16.74179,7.30969 -29.76482,17.21075 -11.37883,8.65101 -22.66355,12.75644 -36.88668,13.41954 -9.35514,0.43614 -19.11384,-0.87839 -27.17423,-3.66047 -7.19916,-2.48481 -9.92962,-1.53071 -17.21842,6.01654 l -2.389718,2.47449 1.297168,-2.33827 c 1.44228,-2.59976 7.77834,-9.32717 8.78463,-9.32717 1.29,0 0.57332,-1.0947 -1.66272,-2.53972 -7.928189,-5.12354 -23.659832,-5.47512 -45.769219,-1.02287 -13.940025,2.80715 -17.331191,3.1254 -23.411185,2.19711 -18.20941,-2.78022 -30.7926967,-18.26514 -33.0740843,-40.70075 -0.8088192,-7.95417 -0.1173099,-17.93432 1.7610481,-25.41161 1.4355985,-5.7151 2.1708477,-5.65172 0.933289,0.0804 -0.4893695,2.26671 -0.905709,8.09815 -0.925159,12.95874 -0.0297,7.43876 0.2324698,9.67666 1.6572082,14.13992 l 1.6925983,5.30246 0.9332087,-4.94896 c 2.872887,-15.23557 9.01244,-23.0154 18.97176,-24.04037 l 3.534996,-0.36381 -3.181497,1.17177 c -7.474132,2.75276 -12.034917,7.60183 -14.924104,15.86757 -1.299988,3.71912 -1.595228,6.12974 -1.638038,13.3743 -0.0478,8.0962 0.10128,9.16358 1.778988,12.72592 1.007169,2.13865 2.661097,4.86941 3.675406,6.06835 2.443458,2.88827 9.098131,6.36746 14.708525,7.68994 6.482533,1.52804 19.264199,1.38598 29.274539,-0.32538 8.78285,-1.5015 17.903771,-1.73532 29.693818,-0.76119 3.888476,0.32127 7.208362,0.45906 7.377502,0.30618 0.16915,-0.15287 -0.804569,-1.46515 -2.163847,-2.91619 -3.906296,-4.17002 -10.368049,-13.98043 -9.66889,-14.67959 0.14563,-0.14569 1.372338,1.23126 2.725897,3.0599 1.353559,1.82863 4.380065,4.77409 6.725593,6.54546 7.343127,5.54565 25.745357,12.74457 35.116627,13.73755 2.52983,0.26806 3.26038,0.18841 2.28231,-0.24885 -3.7187,-1.66249 -4.29842,-5.93175 -0.85919,-6.32748 1.6977,-0.19533 1.94423,-0.52981 1.94423,-2.63775 0,-1.9887 0.31306,-2.49263 1.77667,-2.85998 3.22043,-0.80827 6.00029,3.1363 6.00029,8.51432 0,2.84967 -0.18144,3.22226 -1.59074,3.26629 -0.87493,0.0273 -2.22704,0.34994 -3.00474,0.71691 -2.27828,1.07506 8.92442,0.0465 13.21437,-1.21323 7.09885,-2.0846 11.91777,-5.23736 18.95394,-12.40055 7.7508,-7.89073 16.72318,-15.67216 23.90864,-20.73513 2.75931,-1.94423 5.03071,-3.77197 5.04754,-4.06165 0.016,-0.28968 -1.5771,-2.51672 -3.5421,-4.94898 -9.52853,-11.79424 -20.65976,-33.47761 -30.24724,-58.92077 -5.12596,-13.60323 -8.43449,-21.23851 -11.72812,-27.06556 -8.5538,-15.1332 -18.7374,-25.01041 -27.45219,-26.62618 -2.54502,-0.47187 -2.69768,-0.38799 -3.71172,2.03893 -0.63725,1.52516 -1.05752,4.76081 -1.05752,8.14194 0,10.77766 4.38673,19.59383 17.10658,34.37974 8.36122,9.71931 14.29261,17.75753 19.82428,26.86585 4.0743,6.70866 10.26146,17.92153 9.55779,17.32139 -0.22793,-0.19442 -2.55152,-3.37591 -5.16348,-7.06995 -6.26228,-8.85669 -14.96924,-19.40188 -23.45081,-28.40177 -3.78456,-4.01583 -7.08828,-7.39451 -7.34162,-7.50816 -0.25332,-0.11356 -0.67925,0.36357 -0.94652,1.06048 -0.26729,0.69694 -2.88171,5.48135 -5.80985,10.63202 -5.82812,10.25172 -6.89307,14.4018 -5.25209,20.46719 1.16643,4.31143 6.59984,9.89216 12.88518,13.23456 2.86271,1.52233 6.37298,3.67676 7.80061,4.78762 2.72339,2.11913 6.27705,8.31094 6.19183,10.78846 -0.0345,1.00539 -0.43948,0.58217 -1.31652,-1.37605 -1.66589,-3.71957 -6.93092,-8.54866 -13.48779,-12.37102 -6.42233,-3.74391 -12.55055,-9.7212 -14.86084,-14.49482 -2.19066,-4.52645 -2.23817,-10.0913 -0.12131,-14.22473 l 1.49165,-2.9128 -13.22365,-0.36904 c -9.162667,-0.25572 -14.299082,-0.71021 -16.725619,-1.48 -1.926088,-0.61102 -3.562006,-1.04308 -3.635376,-0.96013 -0.0735,0.0829 0.1328,1.74156 0.458159,3.6858 0.32535,1.94423 0.81355,7.51866 1.084869,12.38759 0.751859,13.49251 -1.144809,21.70572 -5.874633,25.43935 -2.515548,1.98572 -7.594582,1.6989 -12.398267,-0.70017 -1.838168,-0.91802 -3.264357,-1.74689 -3.169307,-1.84194 0.0951,-0.095 1.643698,0.1638 3.441466,0.57519 3.968376,0.90809 6.184834,0.42163 9.045221,-1.98522 3.548886,-2.98619 4.558465,-7.83957 4.098775,-19.70387 -0.537599,-13.87456 -1.359838,-17.23412 -5.905653,-24.12966 -6.816743,-10.34031 -9.59646,-20.52469 -9.63178,-35.28901 -0.0134,-5.05501 0.34818,-11.72165 0.800589,-14.81473 0.969069,-6.62544 3.630786,-18.29 4.072696,-17.84809 0.16941,0.16941 -0.0329,1.70203 -0.4495,3.40595 -0.416559,1.70392 -0.947099,8.34749 -1.178989,14.76346 -0.645399,17.85744 1.313159,29.03843 7.331763,41.85558 3.507436,7.46941 5.365354,9.27544 11.783577,11.45447 3.892086,1.3214 5.495754,1.3875 9.136151,0.37658 l 2.679788,-0.74417 -3.145798,-3.49887 c -3.874986,-4.30993 -6.486973,-8.6938 -8.273091,-13.88518 -1.883818,-5.47539 -1.682258,-6.36617 0.332169,-1.46806 3.037997,7.38689 8.490951,14.24696 15.4848,19.48051 4.83539,3.61838 15.37304,2.37282 19.47786,-2.3023 4.39353,-5.00398 4.74839,-14.01954 0.89719,-22.79421 -3.31529,-7.55357 -5.68072,-16.64756 -6.61243,-25.42175 l -0.85399,-8.04215 -3.55619,-2.03398 c -8.98163,-5.13708 -19.068876,-16.08215 -23.746511,-25.76593 -2.184797,-4.52305 -1.974188,-4.31398 2.282598,2.26576 5.525814,8.54129 14.375233,16.63803 23.917203,21.88285 4.32558,2.37762 8.62493,3.70065 17.94976,5.5237 4.93739,0.9653 6.9601,1.74446 9.43717,3.63525 1.73403,1.32363 3.29444,2.26499 3.46754,2.09186 0.62931,-0.62931 -1.21522,-12.44506 -2.54707,-16.3162 -3.89231,-11.31317 -12.07565,-21.68438 -23.4459,-29.71423 -22.304,-15.75148 -29.014493,-22.65998 -30.617681,-31.52107 l -0.44768,-2.47448 1.452929,2.8113 c 1.456568,2.81828 5.670774,7.66706 6.201963,7.13584 0.15579,-0.15578 0.5748,-3.57104 0.931309,-7.58962 0.35652,-4.01856 0.95013,-8.26093 1.31917,-9.42749 0.50094,-1.58353 0.54592,-1.13563 0.17743,1.76749 -0.27138,2.13867 -0.45971,6.65497 -0.41845,10.03626 0.10929,8.95982 1.94463,12.386 10.13296,18.91589 6.47138,5.16065 8.74547,6.41323 5.51821,3.03942 -1.02289,-1.06936 -2.74183,-3.85313 -3.8199,-6.18623 -1.71899,-3.72025 -1.95593,-5.06804 -1.92624,-10.95843 0.0396,-7.84879 1.25782,-12.91776 5.31721,-22.12347 5.12219,-11.61587 5.87107,-19.67663 2.31492,-24.91694 -1.78082,-2.6242 -1.50108,-3.07667 0.87375,-1.41326 2.2143,1.55095 3.78446,5.45884 3.78446,9.4189 0,3.90679 -1.58937,9.56404 -7.02925,25.0199 -2.98397,8.47815 -3.6605,11.26633 -3.69788,15.24067 -0.0649,6.89239 1.34301,9.19516 10.85916,17.76176 15.80561,14.22848 24.07218,26.76684 27.48252,41.68422 3.63728,15.91006 5.07967,20.56998 8.46551,27.3492 3.22965,6.46648 6.69761,11.54317 7.40329,10.83749 0.58479,-0.58481 1.92387,-50.73922 1.55402,-58.20622 -0.46468,-9.38223 -1.90548,-15.11685 -4.94099,-19.66595 -2.81326,-4.21606 -9.18249,-9.15035 -15.70501,-12.16677 -2.72194,-1.25877 -7.39418,-3.4146 -10.38281,-4.79071 -5.3242,-2.45156 -11.24348,-7.09967 -12.72709,-9.99398 -0.47924,-0.93495 0.23514,-0.54624 1.99024,1.08314 3.75295,3.48381 6.84017,5.19177 12.53342,6.93391 2.6657,0.81571 5.05262,1.4831 5.3043,1.4831 0.25172,0 0.46565,-3.42009 0.47551,-7.6002 0.0187,-7.93276 0.18544,-8.55183 4.2204,-15.66512 2.56111,-4.51498 2.16754,-2.18998 -0.70699,4.17643 -4.76223,10.54733 -2.29087,18.2892 7.62794,23.89542 10.98352,6.20801 16.38178,18.01318 17.25497,37.7342 0.36985,8.35315 0.56438,9.52904 1.43268,8.66071 1.41009,-1.4101 2.31773,-1.24983 2.31773,0.40924 0,0.78554 0.47133,1.414 1.0605,1.414 1.46427,0 1.33472,1.92448 -0.18437,2.73742 -0.68462,0.3664 -2.11629,0.49957 -3.18149,0.29593 l -1.93672,-0.37022 v 9.90546 c 0,11.47102 0.85542,21.08792 2.93822,33.03262 1.53839,8.82255 5.0726,22.3928 6.33729,24.33312 0.59257,0.90909 0.63812,0.85376 0.24316,-0.29525 -0.26732,-0.77769 -0.65149,-5.11118 -0.85369,-9.62996 -0.83388,-18.63599 5.69031,-39.03146 18.96984,-59.30214 5.44515,-8.31183 9.4185,-16.63414 11.38063,-23.83721 2.13939,-7.85388 2.12672,-22.26505 -0.0267,-30.24795 -1.84958,-6.85684 -6.48252,-16.63842 -11.05035,-23.33086 -4.04478,-5.92609 -1.37577,-3.86907 3.66893,2.82763 9.75518,12.94982 14.06377,30.7841 11.27307,46.66207 -0.97877,5.56873 -4.1684,17.20403 -5.79689,21.14601 -0.54044,1.30821 -0.18625,1.33552 11.40339,0.87907 6.57862,-0.25919 21.33839,-0.80743 32.79947,-1.21856 11.56211,-0.41474 21.21516,-1.06019 21.68487,-1.45 0.46556,-0.38641 1.06072,-1.97063 1.32259,-3.52051 0.40041,-2.36999 0.64045,-2.68156 1.51,-1.9599 0.56865,0.47194 1.84116,2.23556 2.82784,3.91918 l 1.79387,3.06109 h 5.47531 c 5.19873,0 5.51727,-0.0922 6.30595,-1.82302 0.93304,-2.04786 2.21608,-1.96548 3.31239,0.2127 0.40402,0.80273 1.15641,1.96774 1.67194,2.58893 0.62439,0.75236 0.76858,1.89871 0.43187,3.43362 -0.77967,3.55405 -1.68905,57.3542 -0.98243,58.12152 1.06144,1.15265 0.72844,6.04704 -0.44197,6.49616 -0.58327,0.22381 -1.06051,1.12932 -1.06051,2.01223 0,1.91004 -1.69066,3.50882 -3.12743,2.95747 -0.58268,-0.2236 -1.12012,-1.55344 -1.24624,-3.08382 l -0.22179,-2.6907 -6.11221,-0.20319 -6.11219,-0.20318 -1.4652,2.37069 c -0.80583,1.30388 -2.06914,2.91729 -2.80734,3.58534 -1.2968,1.17362 -1.35449,1.10517 -1.70739,-2.02567 -0.20095,-1.78219 -0.54838,-3.42347 -0.77222,-3.64732 -0.60168,-0.60167 -84.39105,-0.67167 -84.99249,-0.071 -0.72772,0.72679 1.55319,11.71178 4.06415,19.57332 2.89186,9.05397 6.22679,16.16293 10.82244,23.06976 5.4665,8.21565 10.96644,13.0477 19.67672,17.28725 30.33374,14.76431 77.49316,18.43347 131.92046,10.26386 3.66413,-0.55 6.92515,-0.83739 7.24671,-0.63866 0.85734,0.52987 0.74222,37.56779 -0.11837,38.09971 z M 290.05907,441.1772 h -4.8257 l -0.31803,3.83502 c -0.6195,7.47028 -6.35092,14.66771 -12.42342,15.60113 -1.44874,0.22259 -3.42944,0.65032 -4.40154,0.95029 -1.39725,0.43114 -2.33813,0.0933 -4.49177,-1.61334 -3.34586,-2.65119 -4.69997,-5.14908 -4.69652,-8.6633 0.005,-3.97763 2.01684,-6.61427 8.58805,-11.249 l 5.90271,-4.16325 -6.00946,-0.22579 c -3.30522,-0.12426 -14.28131,0.11463 -24.39137,0.53057 -10.11004,0.41594 -21.8815,0.75787 -26.15883,0.75984 l -7.77694,0.003 -8.27335,20.67571 c -4.55035,11.37164 -9.0782,23.47526 -10.06192,26.89692 -2.01164,6.99714 -2.73009,15.74065 -1.28387,15.62495 0.48606,-0.0389 19.37529,-0.11843 41.97606,-0.17676 46.30885,-0.11953 43.1541,0.39049 34.59338,-5.59252 -8.76088,-6.12284 -11.34909,-9.30271 -11.34909,-13.94344 0,-3.68118 1.62358,-6.99451 4.33874,-8.85438 1.30775,-0.8958 2.71117,-2.02955 3.11869,-2.51951 0.56574,-0.68002 1.48543,-0.71735 3.88849,-0.15765 9.52029,2.21694 14.31213,5.78496 16.65742,12.40295 l 1.31537,3.71177 h 5.09779 5.09778 l 0.27039,-3.35825 c 0.14884,-1.84705 0.30914,-11.70962 0.35651,-21.91689 l 0.0861,-18.55863 z m 3.91395,-4.67867 c -0.0425,-0.0457 -2.22481,-0.24771 -4.84951,-0.44884 -4.26233,-0.32655 -4.77223,-0.22953 -4.77223,0.90914 0,3.10247 0.66902,3.51138 5.74506,3.51138 h 4.88681 l -0.46641,-1.94425 c -0.25653,-1.06933 -0.50121,-1.98166 -0.54372,-2.02743 z m -4.66426,49.2194 h -4.95748 l -0.016,3.35823 c -0.016,3.20063 -0.55938,6.37581 -1.69888,9.92872 -0.51571,1.60792 -0.47368,1.61977 5.01657,1.41399 l 5.53664,-0.20751 0.38601,-2.82799 c 0.21217,-1.55541 0.45474,-4.81642 0.53875,-7.2467 l 0.15285,-4.41874 z m -11.11383,-48.27236 c -0.42876,-0.74965 -8.65663,8.05893 -8.76867,9.3876 -0.23728,2.81422 1.20999,4.94897 3.35529,4.94897 1.63186,0 4.5477,-3.15325 5.55704,-6.00947 0.8824,-2.49698 0.8106,-6.65874 -0.14376,-8.3271 z m -2.41775,46.84908 c -1.92547,-3.4259 -4.24024,-4.72177 -6.82224,-3.81929 -1.56714,0.54776 -1.96609,1.16758 -2.14582,3.33386 -0.20174,2.43006 0.19721,3.11116 4.59547,7.84871 5.36202,5.77556 5.74039,5.71746 5.82705,-0.89476 0.0345,-2.63019 -0.41124,-4.61231 -1.45446,-6.46852 z m -66.28695,-72.23447 c -3.23911,1.82051 -5.91087,1.97579 -7.45345,0.43321 -1.4509,-1.45093 -1.40131,-2.18927 0.24156,-3.59595 1.00436,-0.85998 1.25663,-1.74937 0.97986,-3.45481 -0.30577,-1.88427 -0.10903,-2.3804 1.09522,-2.76262 0.80735,-0.25626 2.11014,-0.12212 2.8951,0.29791 1.534,0.82096 4.98918,5.51075 4.98918,6.7719 0,0.42139 -1.23636,1.46109 -2.7475,2.31036 z m -15.03466,-48.93972 c -0.44784,0.27678 -1.16367,0.0291 -1.59072,-0.55059 -0.42709,-0.57958 -1.14503,-0.92955 -1.59547,-0.77767 -1.06777,0.36002 -1.76666,-0.8072 -1.26543,-2.11344 0.47673,-1.24232 3.69822,-2.81248 4.61187,-2.24781 0.93631,0.5787 0.80925,5.09031 -0.16033,5.68951 z m 0.34292,-7.25408 c -0.86483,0.86485 -5.93532,0.48507 -8.03747,-0.60203 -2.64886,-1.36978 -3.55016,-4.40881 -1.70724,-5.75641 0.71744,-0.52459 1.85536,-0.77895 2.52873,-0.56524 0.9331,0.29618 1.27823,-0.0815 1.45106,-1.58742 0.30673,-2.67249 3.45055,-3.16405 5.10739,-0.79856 1.12613,1.60778 1.60332,8.36389 0.65753,9.30966 z m -1.4416,93.61801 c -0.23541,1.22276 -0.79092,1.59076 -2.40092,1.59076 -4.64905,0 -9.01572,-3.26022 -7.98039,-5.95824 0.43633,-1.13704 1.10219,-1.37023 3.28004,-1.14869 0.7965,0.081 1.23724,-0.36287 1.23724,-1.24603 0,-1.84648 1.7369,-3.17618 3.44197,-2.635 2.23352,0.70889 3.29914,4.84342 2.42206,9.3972 z m -4.62676,-138.93111 c -2.595,1.69641 -4.74941,2.14279 -5.86664,1.21554 -1.36895,-1.1361 -1.30338,-3.28165 0.12479,-4.08085 0.78712,-0.4405 0.89895,-0.80024 0.35349,-1.13733 -1.17512,-0.72628 -0.97011,-3.0202 0.31392,-3.51294 2.1523,-0.82589 6.61451,2.74393 6.64951,5.31974 0.008,0.63575 -0.70009,1.6239 -1.57499,2.19584 z m -3.56481,250.92691 c -4.59218,6.02077 -10.54201,8.1383 -12.87259,4.58137 -1.2253,-1.87004 -0.86184,-3.54307 1.28884,-5.93233 1.23496,-1.37199 1.2713,-1.59073 0.26454,-1.59073 -0.64209,0 -1.68707,-0.79306 -2.32218,-1.76234 -2.63692,-4.02448 1.40484,-7.70801 6.71269,-6.11775 2.58014,0.77302 9.25635,5.95037 9.25635,7.17821 0,0.32557 -1.04739,1.96518 -2.32755,3.64357 z m -0.30845,-166.82266 c -1.66947,2.69167 -6.79258,5.26766 -12.42781,6.24902 -2.64505,0.4606 -4.96308,0.68356 -5.15119,0.49544 -0.18812,-0.18812 -0.84682,-2.81747 -1.46384,-5.843 -1.71672,-8.41832 0.10902,-14.42907 4.89608,-16.11958 3.034,-1.07143 6.86137,3.19485 5.95966,6.64305 -0.30799,1.17768 -0.1467,1.37061 0.8,0.95769 3.01984,-1.31698 5.59827,-1.14578 7.10528,0.47184 1.79704,1.92889 1.89992,4.53676 0.28182,7.14554 z M 172.82183,588.4771 c -1.6907,1.04492 -10.09034,2.56314 -14.23374,2.57274 -5.9203,0.0136 -9.71903,-1.18972 -12.48425,-3.95496 -2.70319,-2.70317 -3.36321,-5.47175 -2.05235,-8.60902 1.20537,-2.88489 5.08652,-4.71669 8.59784,-4.05796 l 2.39864,0.44999 -1.09893,-2.12513 c -1.38357,-2.67549 -1.41614,-7.08384 -0.0665,-9.01055 0.56779,-0.81063 2.00527,-1.87687 3.19439,-2.36943 1.82607,-0.75638 2.65055,-0.70899 5.30537,0.3049 3.92183,1.49775 6.98375,5.47911 8.84281,11.49806 1.63681,5.29939 2.61496,14.67215 1.59686,15.30136 z m -2.44378,38.99346 c -1.49483,2.60652 -2.89897,3.23368 -6.6609,2.97509 l -3.62632,-0.24926 0.62068,2.16422 c 0.76289,2.65996 -0.37405,6.50225 -2.21561,7.48782 -2.73801,1.46534 -5.95704,0.82371 -8.373,-1.66893 -2.93511,-3.02824 -4.3453,-7.758 -4.33312,-14.53301 0.0134,-8.01421 0.16941,-8.31695 4.46953,-8.73509 8.9385,-0.86916 17.58635,2.10179 19.82016,6.8092 1.34872,2.84221 1.4,3.82947 0.29858,5.74997 z m -6.03928,-192.4884 c -3.61118,3.50853 -6.22122,4.44537 -8.40265,3.01606 -2.04362,-1.33904 -2.15801,-3.4704 -0.25758,-4.80146 l 1.41434,-0.99066 -1.41434,-1.27999 c -2.7344,-2.47459 -1.33101,-5.3028 2.63127,-5.3028 1.7698,0 3.12939,0.71941 5.51457,2.91802 1.74114,1.60492 3.1657,3.13107 3.1657,3.39149 0,0.26054 -1.19307,1.63261 -2.65123,3.04934 z m -5.97413,76.04622 c -1.49037,1.49036 -3.90565,1.01418 -4.37677,-0.86292 -0.44483,-1.77229 0.0607,-3.94465 0.91789,-3.94465 0.26973,0 1.34671,0.39768 2.39333,0.88374 2.02532,0.94059 2.45746,2.53193 1.06555,3.92383 z m -1.26081,21.1283 c -1.52544,3.68706 -5.66775,3.49357 -5.66775,-0.26475 0,-1.36306 -0.27787,-1.64036 -1.31417,-1.31146 -1.75491,0.557 -3.19449,-1.284 -2.66223,-3.40462 0.52847,-2.10556 3.61623,-3.44895 7.2437,-3.15151 2.71975,0.22302 2.74339,0.25089 2.89081,3.40633 0.0818,1.74982 -0.13895,3.87652 -0.49036,4.726 z m -0.71877,-171.2235 c -3.63858,1.15483 -5.45214,-1.56914 -3.00472,-4.51306 1.33228,-1.6026 2.14658,-1.33876 3.53498,1.14524 1.21805,2.17929 1.11304,2.84625 -0.53026,3.36782 z m -2.26238,189.68695 c -1.27594,1.27593 -3.39995,1.02632 -5.91165,-0.69474 -3.14502,-2.155 -4.06465,-3.78012 -3.05448,-5.39765 1.13914,-1.82405 5.05036,-4.37113 6.71214,-4.37113 2.90676,0 4.23283,3.49363 1.86514,4.91383 -1.17832,0.70678 -1.17832,0.77747 0,1.48425 1.42931,0.85734 1.61855,2.83575 0.38885,4.06544 z M 153.9399,408.89918 c -1.31126,3.67758 -3.73537,6.11919 -6.07539,6.11919 -2.57837,0 -3.81556,-1.69984 -3.68163,-5.05839 0.0994,-2.48989 -0.0411,-2.74262 -1.30129,-2.34266 -3.45745,1.09735 -6.05358,-3.22187 -4.11444,-6.84521 1.51354,-2.82804 7.93539,-4.19862 13.99465,-2.98677 2.16515,0.43305 2.20874,0.52144 2.17833,4.41871 -0.016,2.18729 -0.46717,5.20009 -1.00023,6.69513 z m -3.00375,-49.56496 c -0.16914,-0.87945 -0.16273,-2.15204 0.0134,-2.82801 0.1769,-0.67593 0.31531,0.0436 0.30748,1.599 -0.008,1.55538 -0.15257,2.10843 -0.32174,1.22901 z m -0.32712,-11.57411 c -0.69833,3.06758 -0.71981,3.08508 -3.27953,2.6697 -6.51239,-1.05682 -9.99605,-7.8785 -4.02337,-7.8785 1.37852,0 2.12666,-0.46778 2.54412,-1.59076 0.33012,-0.88791 1.18793,-1.59073 1.9416,-1.59073 2.7662,0 3.93485,3.48055 2.81718,8.39029 z m -1.41191,-27.83267 c -1.36217,2.46291 -3.621,4.59546 -4.86757,4.59546 -1.91978,0 -3.02339,-1.78028 -2.13392,-3.44231 0.62605,-1.16975 0.50623,-1.49083 -0.69902,-1.87337 -1.07483,-0.34114 -1.39771,-0.95338 -1.23674,-2.3452 0.18652,-1.61257 0.59318,-1.91476 2.82659,-2.10044 2.82402,-0.23488 6.94898,1.48713 6.91421,2.88628 -0.0107,0.47606 -0.37342,1.50189 -0.80355,2.27958 z m -5.36116,123.547 c -2.96671,2.83022 -5.65905,3.63514 -7.69562,2.30072 -2.02899,-1.32946 -2.08719,-2.06183 -0.30537,-3.84365 1.17118,-1.17118 1.22173,-1.48698 0.35349,-2.20756 -2.41278,-2.00243 0.13521,-5.53811 3.27317,-4.5421 1.40401,0.4456 6.31859,5.09025 6.31859,5.97154 0,0.25653 -0.87491,1.30092 -1.94426,2.32105 z m 0.22098,188.13023 c -1.17054,4.35576 -3.78585,7.05999 -6.82788,7.05999 -3.13265,0 -5.08588,-2.47942 -4.74759,-6.02655 l 0.25358,-2.65869 -2.6572,0.4249 c -7.06401,1.12958 -8.85478,-7.02912 -2.41623,-11.00837 2.72256,-1.68263 10.95717,-3.19099 14.15032,-2.59197 2.24198,0.4206 2.38313,0.62895 2.80495,4.14075 0.60234,5.01443 0.51614,6.65575 -0.55992,10.65994 z m -1.01903,-262.20632 c -2.58094,0.56686 -6.85939,-0.66429 -7.4243,-2.13641 -0.65806,-1.71486 0.32213,-3.14727 2.15364,-3.14727 0.98595,0 1.54346,-0.30764 1.29271,-0.71332 -0.76829,-1.24315 0.39935,-3.52865 1.80274,-3.52865 1.76247,0 3.53609,2.77373 4.00392,6.26158 0.3552,2.64828 0.26823,2.8035 -1.82871,3.26407 z m -0.40982,142.72221 c -1.24641,3.49574 -3.72595,6.11918 -5.78354,6.11918 -2.0517,0 -3.40638,-2.31694 -2.42588,-4.14903 0.8132,-1.51948 0.35611,-2.21393 -1.45721,-2.21393 -1.4656,0 -2.70159,-1.98178 -2.20465,-3.53498 0.88273,-2.75916 5.8877,-3.72106 10.67607,-2.05183 2.47357,0.86229 2.65356,1.74041 1.19521,5.83059 z m -5.85409,40.05497 c -0.83153,2.22336 -2.42451,2.60807 -4.05359,0.97898 -1.05134,-1.05134 -1.25509,-1.03967 -2.56638,0.14702 -3.29077,2.97813 -5.49535,-2.28515 -2.67884,-6.39558 2.195,-3.2034 3.97281,-4.25421 5.31413,-3.14101 2.73758,2.27199 4.7175,6.4511 3.98468,8.41058 z m -1.14254,-353.16504 c -0.63195,0.86427 -1.69986,1.11748 -4.01666,0.95248 -2.62054,-0.18678 -3.19312,-0.48651 -3.3755,-1.76769 -0.36239,-2.54556 1.81522,-6.00431 3.61869,-5.74766 0.98178,0.13975 1.63274,0.80369 1.77585,1.81132 0.12426,0.8749 0.64698,1.59076 1.1616,1.59076 1.35981,0 1.83462,1.79513 0.83602,3.16079 z m -0.38668,276.72112 c -1.43899,2.27175 -6.63095,0.47986 -8.97492,-3.09747 -1.53393,-2.3411 -0.98831,-3.41269 2.89693,-5.6896 2.7511,-1.61225 3.54245,-1.79151 4.99237,-1.13089 1.93049,0.8796 2.26389,3.02138 0.67553,4.33959 -0.92532,0.76797 -0.92532,1.04375 0,2.36487 1.21263,1.73129 1.23551,1.9104 0.41009,3.2135 z m -3.50391,-213.84002 c -0.77884,0.48133 -4.88721,-0.69037 -6.17864,-1.76215 -2.05226,-1.70326 -1.09257,-3.86827 1.57382,-3.55051 0.43907,0.0524 0.96604,-0.54626 1.17104,-1.33023 0.4455,-1.7035 2.99202,-1.92004 3.61099,-0.30705 0.64125,1.67109 0.51759,6.52051 -0.17716,6.94994 z m -3.12528,266.15993 c -0.43625,0.43624 -1.22253,0.79315 -1.74736,0.79315 -1.63935,0 -5.12594,-2.1115 -5.12594,-3.10429 0,-1.822 2.88879,-4.67266 4.73514,-4.67266 1.628,0 1.76305,0.20752 1.38035,2.12098 -0.23328,1.16655 -0.14804,2.12099 0.18945,2.12099 1.02203,0 1.41489,1.89527 0.56833,2.74183 z m -4.88638,-87.34571 c -3.38008,2.13377 -4.75283,2.14079 -5.55596,0.0283 -1.10181,-2.89804 -0.58825,-6.21089 1.00982,-6.51396 0.73109,-0.13868 1.59616,0.17689 1.92234,0.70119 0.32619,0.52432 1.31875,0.95333 2.2057,0.95333 2.35827,0 2.65418,3.41946 0.4181,4.83106 z M 121.32594,171.0506 c -2.33935,2.78011 -3.36156,2.7395 -5.18196,-0.20602 -1.74893,-2.82982 -1.8499,-4.20173 -0.39791,-5.40677 0.87504,-0.7262 1.30859,-0.67861 2.34274,0.25732 0.93604,0.84711 1.47656,0.94085 2.0602,0.35721 1.11494,-1.11494 3.00725,-0.20816 3.00725,1.4411 0,0.76005 -0.82365,2.36078 -1.83032,3.55716 z m 0.42506,242.92217 c -0.62138,4.22685 -3.01161,9.19503 -4.91353,10.21289 -4.04004,2.16219 -8.12955,-0.93545 -6.59662,-4.99669 0.74341,-1.9695 0.69315,-2.04961 -1.28592,-2.04961 -2.22378,0 -4.88755,-2.14461 -4.88755,-3.93495 0,-3.53462 3.8061,-5.96487 9.33258,-5.95904 4.57415,0.005 9.08058,1.17503 8.96111,2.327 -0.0486,0.46778 -0.32304,2.44797 -0.61007,4.4004 z m -3.76047,62.92273 c -3.31282,3.42034 -4.08204,3.87347 -6.57507,3.87347 -1.55282,0 -3.20508,-0.38179 -3.67168,-0.84839 -1.32449,-1.32449 -1.00002,-3.94899 0.69814,-5.64713 1.01467,-1.01468 1.25348,-1.64426 0.69436,-1.83061 -1.60395,-0.53466 -2.94791,-2.37936 -2.94791,-4.0463 0,-3.67019 4.21882,-5.00382 8.69581,-2.74883 2.84575,1.43335 6.85811,5.19964 6.85811,6.43752 0,0.51524 -1.6883,2.67985 -3.75176,4.81027 z m 1.87262,27.02757 c -0.42863,2.00424 -3.6905,2.16146 -7.31183,0.3524 -2.00339,-1.00082 -2.47448,-1.63992 -2.47448,-3.35713 0,-1.76973 0.31098,-2.15697 1.87777,-2.33828 1.27968,-0.14809 2.00959,-0.74252 2.29163,-1.86626 1.00587,-4.0076 5.29976,-1.90391 5.71062,2.79778 0.13548,1.55142 0.0935,3.53659 -0.0938,4.41149 z m -3.48039,37.7777 c -1.93883,6.3006 -6.86388,9.26399 -10.80666,6.50236 -1.39834,-0.97943 -1.59936,-1.64196 -1.39454,-4.59591 l 0.23942,-3.45149 -2.65122,4.4e-4 c -3.376778,5.6e-4 -5.479216,-1.98316 -5.479216,-5.16976 0,-5.66176 8.226306,-8.80977 18.558636,-7.10194 l 2.65124,0.43821 -0.0494,5.03322 c -0.027,2.76827 -0.50781,6.52346 -1.06828,8.34487 z m -2.40784,-16.56115 c -0.77243,0.48239 -2.05499,0.87707 -2.85018,0.87707 -1.59154,0 -2.86589,-2.22199 -1.52982,-2.66735 0.48542,-0.1618 0.66405,-0.95078 0.4281,-1.8908 -0.61092,-2.43413 1.5129,-2.88448 3.62807,-0.76933 2.09533,2.09532 2.18223,3.28982 0.32383,4.45041 z m 0.91816,-193.79564 c -0.42294,3.14199 -3.20717,3.78608 -10.03575,2.3216 -4.20558,-0.90191 -7.152918,-3.5228 -7.152918,-6.36061 0,-2.80598 1.836029,-4.38402 4.710368,-4.04845 2.15466,0.25144 2.34983,0.11837 2.23894,-1.52677 -0.43492,-6.45205 5.80165,-7.59154 8.8605,-1.6189 1.12461,2.19589 1.82609,7.91062 1.37886,11.23313 z m 0.016,-46.88415 c -0.82788,0.82785 -2.86136,0.50645 -3.77717,-0.597 -0.78849,-0.9501 -0.97853,-0.94267 -1.71691,0.0671 -0.48333,0.661 -1.55233,1.03357 -2.55817,0.89158 -3.48488,-0.49189 -1.80482,-7.56494 2.39325,-10.07549 2.74129,-1.63937 7.99464,7.37812 5.659,9.71376 z m -0.95555,-70.37108 -1.42159,2.33166 -2.19346,-1.27115 c -3.80532,-2.2053 -4.73366,-7.26122 -1.16178,-6.32715 0.91132,0.23835 2.04473,-0.0353 2.73536,-0.66031 1.05332,-0.95325 1.30156,-0.94499 2.32383,0.0772 1.51308,1.51309 1.44014,3.0245 -0.28236,5.84968 z m -3.68931,141.00849 c -1.00092,1.3186 -4.60091,2.84967 -5.45676,2.32073 -0.98294,-0.60748 -1.45743,-4.68681 -0.70801,-6.08709 0.84966,-1.58759 2.48625,-1.77372 3.29213,-0.37445 0.31095,0.53993 1.17529,1.09668 1.92076,1.23724 1.73171,0.3265 2.08649,1.40876 0.95188,2.90357 z m -1.42462,267.85941 c -0.48605,0.0448 -1.26665,0.12438 -1.73465,0.17676 -0.46799,0.0524 -1.30848,0.71948 -1.86772,1.4825 -0.86507,1.18022 -1.18655,1.24645 -2.15383,0.44368 -1.2878,-1.06878 -1.51579,-5.10468 -0.40552,-7.17919 0.68903,-1.2875 0.88238,-1.30372 3.33346,-0.27961 1.43107,0.59795 2.84686,1.47253 3.14616,1.94351 0.84653,1.33207 0.66116,3.32201 -0.3179,3.41236 z m -2.36529,-166.0593 c -0.58613,1.90583 -2.1926,4.5703 -3.72979,6.18624 -2.29144,2.40876 -3.13709,2.83847 -5.586317,2.83847 -2.303947,0 -3.196697,-0.39219 -4.425705,-1.94425 -1.282209,-1.61919 -1.477119,-2.55996 -1.165839,-5.6275 l 0.37374,-3.68323 -2.062728,0.41255 c -5.179515,1.03589 -9.44922,-3.77174 -7.480732,-8.42322 1.233868,-2.91556 3.185766,-4.65123 6.599973,-5.86888 2.830137,-1.00937 11.437168,-1.31717 15.954208,-0.57053 l 2.65125,0.4382 -0.0492,6.44721 c -0.027,3.54598 -0.51256,7.95371 -1.07884,9.79494 z m -4.30387,-92.65012 c -0.20415,-0.51037 -0.17903,-1.12014 0.0559,-1.35508 0.23488,-0.23488 0.40202,0.18251 0.37134,0.92792 -0.0339,0.82363 -0.20147,0.99114 -0.42713,0.42716 z m -4.749617,250.41686 c -5.095425,2.41793 -10.818549,0.4702 -8.938821,-3.04211 0.43352,-0.81005 1.268659,-1.47281 1.855878,-1.47281 0.832129,0 0.967759,-0.53243 0.61486,-2.41361 -0.3773,-2.01117 -0.19801,-2.55002 1.075869,-3.23172 2.058377,-1.10163 4.478245,0.4981 6.373703,4.21351 1.942088,3.80682 1.807338,4.62336 -0.981489,5.94674 z M 95.662355,486.73761 c -2.915327,1.50758 -4.080466,1.38314 -4.582295,-0.48943 -0.72505,-2.7055 -0.49383,-4.55907 0.691389,-5.5427 0.967089,-0.80259 1.287738,-0.7375 2.145518,0.43556 0.554649,0.75856 1.554198,1.38284 2.221217,1.3873 0.706449,0.005 1.304819,0.65515 1.433319,1.55803 0.160319,1.12648 -0.36127,1.85081 -1.909148,2.65124 z m -0.25572,-121.86107 c -3.608866,4.70054 -4.316206,4.90648 -7.211862,2.09988 -4.111366,-3.98486 -4.928385,-8.9657 -1.749729,-10.66687 1.098189,-0.58773 1.707539,-0.39694 3.063767,0.95929 1.638478,1.63848 1.729098,1.65075 2.816347,0.38091 1.373729,-1.60442 2.797757,-1.67149 4.268216,-0.20095 1.717148,1.71716 1.328088,4.15227 -1.186739,7.42782 z m 0.583859,47.97632 c -0.591309,0.49076 -2.117857,0.94013 -3.392356,0.99865 l -2.317218,0.10635 v -3.53496 c 0,-3.12765 0.1833,-3.56101 1.590729,-3.76091 1.043089,-0.14803 1.590738,0.13922 1.590738,0.83458 0,0.58327 0.715829,1.16216 1.590758,1.2864 1.916678,0.27221 2.493828,2.77814 0.937349,4.06989 z m -1.435108,140.42689 c -1.001219,0.65601 -3.222197,1.35076 -4.935525,1.54387 l -3.115117,0.35113 -0.479989,-3.20084 c -0.32124,-2.14224 -0.1622,-3.86574 0.480709,-5.21133 1.193709,-2.49813 3.727646,-3.02087 4.812975,-0.99291 0.42885,0.80129 0.52991,1.49877 0.22473,1.54996 -0.30532,0.0512 0.558389,0.2898 1.919348,0.53025 2.025248,0.35781 2.514317,0.78211 2.693937,2.33714 0.1622,1.40351 -0.25625,2.21163 -1.600938,3.09273 z m -0.62958,108.83361 c -1.163358,2.49207 -3.738816,4.95457 -5.849243,5.59271 -3.671106,1.11005 -8.039132,-3.20566 -8.044442,-7.94811 l -0.003,-2.3554 -2.381177,1.47165 c -3.426097,2.11745 -6.474603,1.91559 -8.985131,-0.59495 -4.706005,-4.70598 -1.170919,-12.42968 7.778672,-16.99542 3.613546,-1.84349 12.929056,-4.40116 13.597006,-3.73319 0.289579,0.28955 1.373788,2.75314 2.409387,5.47464 2.298338,6.03983 3.047967,15.72405 1.477568,19.08807 z M 91.245309,260.15573 c -1.308108,0.8034 -3.999965,1.97705 -5.981893,2.60812 -4.237646,1.34936 -6.909513,0.76262 -8.945561,-1.96446 -1.117689,-1.49702 -1.191569,-2.06103 -0.475819,-3.63195 0.466039,-1.02286 1.781768,-2.18547 2.923827,-2.58359 1.987777,-0.69293 2.028907,-0.79174 0.963029,-2.31348 -1.321599,-1.88686 -1.452639,-4.89493 -0.26508,-6.08258 1.201809,-1.20181 5.253874,-1.05182 7.269802,0.26908 2.187068,1.433 5.876684,7.17157 6.448173,10.02897 0.39122,1.95605 0.16941,2.37651 -1.936538,3.66989 z m -2.067737,166.2174 c -2.137068,2.13709 -3.338527,2.81469 -4.700905,2.65123 -2.518408,-0.30216 -3.656327,-2.2409 -2.449528,-4.17335 0.786459,-1.25928 0.749239,-1.68046 -0.24556,-2.77974 -2.540267,-2.80697 1.114749,-6.05706 4.721805,-4.19865 2.007368,1.0342 5.545074,4.25925 5.545074,5.05498 0,0.31609 -1.291878,1.86658 -2.870826,3.44553 z m -2.367138,64.56929 c -1.325499,0.62898 -2.916237,0.94934 -3.534986,0.7119 -1.193129,-0.45784 -1.586759,-3.10841 -0.46164,-3.10841 0.36485,0 0.60345,-0.87459 0.53023,-1.94351 -0.18892,-2.75708 2.367407,-3.03372 4.380815,-0.47412 2.053488,2.61061 1.887478,3.48455 -0.914419,4.81414 z m -0.23541,90.21709 c -0.16407,1.35941 -0.629229,2.87061 -1.033919,3.35823 -1.123918,1.35423 -3.241516,1.05623 -3.743976,-0.52688 -0.374389,-1.17959 -0.688359,-1.28515 -1.897598,-0.63798 -2.190197,1.17215 -3.922335,-0.78877 -3.003826,-3.40054 0.571669,-1.62555 5.138354,-5.0989 6.759712,-5.14132 1.509449,1.92082 3.121957,4.71655 2.919607,6.3485 z M 86.055485,391.26117 c -1.622318,4.55224 -2.510478,5.04781 -5.924874,3.30591 -3.502466,-1.78682 -5.232894,-4.21098 -4.924725,-6.89909 0.25171,-2.19616 2.699637,-3.10583 4.449546,-1.65351 0.748219,0.62098 1.061978,0.4839 1.411248,-0.61656 0.710749,-2.23939 3.238387,-2.66062 4.751625,-0.79188 1.513478,1.86909 1.552518,2.96428 0.23728,6.65513 z m -4.263946,-85.19063 c -3.764336,3.46985 -6.208053,4.53527 -8.99723,3.92266 -3.621326,-0.79535 -4.067486,-5.3988 -0.709869,-7.32406 1.131148,-0.6486 1.102458,-0.79431 -0.36216,-1.83785 -1.748788,-1.24601 -2.154438,-4.44872 -0.742359,-5.86079 1.553108,-1.55311 5.819424,-0.98604 8.79423,1.1689 2.684618,1.94471 5.204285,5.01994 5.204285,6.35172 0,0.35301 -1.434099,1.96374 -3.186897,3.57942 z m 0.20415,268.33352 c -0.865569,0.60627 -2.105248,1.10233 -2.754837,1.10233 -1.381188,0 -2.310038,-1.87023 -1.253249,-2.52337 0.39839,-0.24621 0.56842,-0.85392 0.37789,-1.35048 -0.19052,-0.49655 -0.005,-1.24485 0.41359,-1.66288 0.949909,-0.9499 3.043456,0.0679 4.064705,1.97611 0.58212,1.08771 0.41434,1.57404 -0.848099,2.45829 z m -2.605487,-36.87438 c -4.034086,2.383 -8.145741,0.74498 -5.491644,-2.18778 0.705789,-0.77988 0.889679,-1.58428 0.504659,-2.2073 -0.918779,-1.48658 -0.0729,-2.87593 1.750628,-2.87593 1.651149,0 5.289685,3.57978 5.289685,5.20427 0,0.4696 -0.924019,1.39964 -2.053328,2.06674 z m -0.23729,-115.59399 c -0.515469,0.4278 -1.797978,1.1051 -2.850017,1.50509 -1.746278,0.66391 -1.955528,0.55978 -2.403857,-1.19636 -0.2701,-1.05797 -0.44886,-2.53126 -0.39721,-3.27398 0.12719,-1.8275 1.740508,-2.76691 2.656827,-1.54687 0.39855,0.53065 1.349339,1.08511 2.112868,1.23215 1.673698,0.32231 2.179048,2.203 0.881389,3.27997 z m -3.898046,87.13496 c -3.811976,5.45638 -7.998021,8.46209 -11.785147,8.46209 -3.134627,0 -4.786365,-1.14369 -5.619264,-3.89085 -0.45936,-1.5151 1.843618,-6.00709 3.079766,-6.00709 1.411279,0 0.68134,-1.08479 -1.328628,-1.97448 -2.698637,-1.19453 -4.056016,-4.35215 -2.846677,-6.62207 0.484939,-0.91019 1.386478,-2.04246 2.003438,-2.51615 1.814688,-1.39327 6.220223,-1.03456 9.805979,0.79844 3.399137,1.73761 9.34418,6.45881 9.34418,7.42062 0,0.29213 -1.194138,2.2404 -2.653647,4.32949 z m 2.182318,-49.2759 c -1.520408,1.52041 -6.598623,-0.20976 -6.598623,-2.24821 0,-1.75765 2.593637,-4.3504 4.351935,-4.3504 1.177549,0 1.403209,0.3435 1.137759,1.73206 -0.20228,1.05807 0.0409,1.87477 0.624579,2.09878 1.006239,0.38614 1.283229,1.96892 0.48435,2.76777 z M 66.433086,442.1029 c -4.777575,3.56586 -7.974482,4.26825 -10.03744,2.2053 -1.502678,-1.50269 -1.405068,-2.19418 0.59164,-4.19089 1.433018,-1.43303 1.544958,-1.83347 0.706979,-2.52892 -1.599358,-1.32736 -1.222059,-4.11528 0.673859,-4.97912 2.159198,-0.98379 5.362574,0.58802 7.734102,3.79499 2.760737,3.7332 2.769187,3.87875 0.33086,5.69864 z m -1.976638,38.92719 c -2.399668,2.01918 -4.376626,1.76787 -4.156446,-0.52838 0.0791,-0.82512 -0.0909,-2.04176 -0.377409,-2.70362 -1.147349,-2.64876 2.130207,-3.6665 5.102694,-1.58451 2.118578,1.48391 1.978108,2.6734 -0.568839,4.81651 z m -3.927146,63.64634 c -1.876008,0.71989 -5.618894,0.47911 -6.517253,-0.41926 -1.308079,-1.30807 -1.005999,-3.24827 0.584309,-3.753 0.787949,-0.25008 1.386559,-0.82829 1.330209,-1.28488 -0.24744,-2.00425 0.17956,-2.59767 1.868658,-2.59767 1.389758,0 2.038578,0.56252 2.827967,2.45178 1.329938,3.18296 1.298328,5.06879 -0.0938,5.60303 z m -0.46583,-203.15928 c -2.440257,3.6296 -7.500932,3.73895 -5.564274,0.12025 0.59137,-1.10497 0.52761,-1.50822 -0.287999,-1.82118 -1.323039,-0.50773 -1.350829,-2.14253 -0.0545,-3.21824 1.181848,-0.98085 3.688186,-0.45559 5.931233,1.24304 l 1.621649,1.22802 -1.645939,2.44814 z M 49.319824,625.43563 c -2.821777,6.48347 -10.296039,5.66385 -10.296039,-1.12904 0,-2.72597 -0.0545,-2.78972 -1.816558,-2.11983 -5.505215,2.09307 -8.871211,-3.65404 -4.902545,-8.37054 2.236077,-2.65743 6.403073,-4.33172 12.106317,-4.86429 4.367325,-0.40783 4.486075,-0.37364 5.197064,1.49646 1.035659,2.72393 0.85008,12.37171 -0.288239,14.98724 z m -4.020136,-28.18912 c -0.648119,2.76949 -0.881899,3.00472 -2.986247,3.00472 -3.201986,0 -8.411721,-2.80114 -9.50798,-5.1122 -1.357988,-2.8628 -0.0607,-4.93779 2.907047,-4.65028 1.895858,0.18366 2.418018,-0.11642 3.311277,-1.90295 0.583269,-1.16653 1.714348,-2.21452 2.513497,-2.32885 3.258047,-0.46611 5.150005,5.0601 3.762406,10.98956 z M 43.64822,545.78854 c -1.359549,1.12829 -4.824415,0.34213 -6.460633,-1.46587 -1.186309,-1.31087 -1.196029,-1.54364 -0.13868,-3.31817 0.625489,-1.04961 1.953638,-2.38258 2.951457,-2.96215 1.625178,-0.94396 1.933878,-0.93414 2.962266,0.0943 0.89359,0.89359 0.978909,1.46404 0.38498,2.57384 -0.595459,1.11259 -0.532959,1.51409 0.28447,1.82777 1.338168,0.5135 1.346208,2.14634 0.016,3.25032 z M 30.572864,447.6735 c -2.120268,2.12027 -3.255057,2.74017 -4.700905,2.56806 -2.782387,-0.33124 -3.746066,-2.23971 -2.067518,-4.09447 1.313148,-1.45101 1.309678,-1.49398 -0.20656,-2.55596 -1.839778,-1.28862 -1.959188,-2.60282 -0.37995,-4.18207 0.78411,-0.7841 1.761489,-1.01649 3.004737,-0.71444 2.772767,0.67364 7.145063,3.76407 7.145063,5.05029 0,0.62349 -1.257739,2.39136 -2.794947,3.92859 z m -4.650865,138.27054 c -1.050079,1.48498 -5.856804,4.40925 -7.247613,4.40925 -1.078039,0 -3.688476,-6.08412 -3.688476,-8.59673 0,-2.83918 1.043599,-4.12919 3.340377,-4.12919 1.120898,0 1.866608,0.58654 2.344807,1.84433 0.568439,1.49506 0.892459,1.68562 1.711088,1.00622 0.55542,-0.46096 1.743198,-0.73415 2.639507,-0.60709 2.053378,0.29109 2.562148,3.72313 0.90031,6.07321 z M 24.4365,494.18451 c -2.282817,2.71295 -4.829385,2.72197 -4.903595,0.0187 -0.0267,-0.9721 -0.299299,-2.32425 -0.605899,-3.00473 -1.396869,-3.10061 1.380578,-4.29862 5.284984,-2.27957 2.570758,1.32937 2.617378,2.42317 0.22445,5.26693 z m -7.152842,30.59443 c -1.907648,1.81987 -5.037785,3.35874 -6.831863,3.35874 -1.3073583,0 -3.3842261,-5.03068 -3.3842261,-8.19746 0,-4.66797 4.3201351,-6.64641 5.8316931,-2.67068 0.56216,1.4786 0.830709,1.57487 2.399398,0.86013 3.925246,-1.78847 5.455724,3.33824 1.984998,6.64927 z m -4.183056,21.97629 c -0.772849,0.77284 -2.703127,0.53734 -4.1264851,-0.50345 -1.2707687,-0.9292 -1.2762987,-1.06145 -0.1189099,-2.82799 1.423998,-2.17331 3.302656,-2.44688 3.302656,-0.48093 0,0.75474 0.31814,1.56889 0.706979,1.80921 0.81647,0.50461 0.913089,1.32576 0.23568,2.00316 z"
       id="path4769"
       inkscape:connector-curvature="0"
       sodipodi:nodetypes="csscssscccscssscscscssccsscscssccccccccscsccsssccssccsscccccccccccssccccccsccsccccsccscssccccccsccscsccccccccccccscccccccsccsccsscccccccccssccsscsscccssccsccccccccccccccsccscccscccccccccccccccccccscccccccsccsscscscccccccccccccsscccccccscccccccsccccsccscccccccscccccccccccccccccsccscccccccccccscsccsccccsccccccccccsccccsccccccccsccccccccccscsccscssscscccccccccccccsccccscccccccccccccscsccscccccccssccsccscccsccccccscscccscscscccccccccccccsccccccccccccccccssscsccccccsccccccssccccssccccssscscscccscccccccccssccccccsccscccscscccccccccccccccccccccsccccccccccccscccsccccccccccccscscccscccccscccsscccccccscscccccccccccccccccccsccccccccscccccccccccsccccscccccscccccccccscccccccscsccsccccccscsscccccccccscssccssccssccccssccccscccsccscsccccccccccccsccccccsccccccccccccccccccccsccssscssccccccccssscccccsccc" />
    <path
       style="opacity:1;fill:none;fill-opacity:1;fill-rule:nonzero;stroke:#000000;stroke-width:0.37176093;stroke-linecap:round;stroke-miterlimit:4;stroke-dasharray:none;stroke-opacity:1"
       d="M 0.18588031,670.79636 V 163.68716 H 363.94778 v 507.1092 z"
       id="rect4831"
       inkscape:connector-curvature="0" />
  </g>
</svg>
