<?xml version="1.0" encoding="UTF-8" standalone="no"?>
<!-- Created with Inkscape (http://www.inkscape.org/) -->

<svg
   xmlns:dc="http://purl.org/dc/elements/1.1/"
   xmlns:cc="http://creativecommons.org/ns#"
   xmlns:rdf="http://www.w3.org/1999/02/22-rdf-syntax-ns#"
   xmlns:svg="http://www.w3.org/2000/svg"
   xmlns="http://www.w3.org/2000/svg"
   xmlns:sodipodi="http://sodipodi.sourceforge.net/DTD/sodipodi-0.dtd"
   xmlns:inkscape="http://www.inkscape.org/namespaces/inkscape"
   width="140"
   height="140"
   viewBox="0 0 140 140"
   version="1.1"
   id="svg8"
   inkscape:version="0.92.4 (5da689c313, 2019-01-14)"
   sodipodi:docname="illusion.svg">
  <defs
     id="defs2" />
  <sodipodi:namedview
     id="base"
     pagecolor="#ffffff"
     bordercolor="#666666"
     borderopacity="1.0"
     inkscape:pageopacity="0.0"
     inkscape:pageshadow="2"
     inkscape:zoom="3.959798"
     inkscape:cx="134.93572"
     inkscape:cy="85.371636"
     inkscape:document-units="px"
     inkscape:current-layer="layer1"
     showgrid="false"
     inkscape:window-width="1920"
     inkscape:window-height="1017"
     inkscape:window-x="-8"
     inkscape:window-y="-8"
     inkscape:window-maximized="1"
     units="px" />
  <metadata
     id="metadata5">
    <rdf:RDF>
      <cc:Work
         rdf:about="">
        <dc:format>image/svg+xml</dc:format>
        <dc:type
           rdf:resource="http://purl.org/dc/dcmitype/StillImage" />
        <dc:title></dc:title>
      </cc:Work>
    </rdf:RDF>
  </metadata>
  <g
     inkscape:label="Layer 1"
     inkscape:groupmode="layer"
     id="layer1"
     transform="translate(0,-259.95832)">
    <path
       id="path829"
       style="fill:none;stroke:#000000;stroke-width:0.08207477;stroke-linecap:round"
       d="m 95.91864,308.33897 -1.996434,1.41613 c 0.964361,-1.26943 2.243436,-2.30195 3.138861,-3.11202 2.441015,-2.20843 4.797453,-4.48394 7.084313,-6.78358 8.54956,-8.5963 16.56032,-17.77674 23.12009,-27.32274 1.52557,-2.21964 2.9628,-4.6863 4.77842,-6.77251 l 2.7641,-0.17159 0.15092,2.79858 v 6.02984 l -0.0348,21.66977 0.0348,68.02421 v 22.23506 5.84141 l -0.25728,2.35353 c -0.75377,0.80818 -3.53414,1.13625 -4.74789,1.38648 -4.94434,1.01905 -9.93149,1.29472 -15.01548,0.98702 -21.313488,-1.29002 -40.529306,-13.11247 -50.586928,-26.77366 -6.656866,-9.04232 -7.841587,-19.67387 -9.18247,-29.77237 -0.49401,-3.72078 -0.298558,-8.36132 -2.044358,-11.87126 -2.383958,0.54721 -7.010981,-2.36502 -9.009292,-3.33375 -8.605125,-4.17114 -16.672946,-9.39958 -21.207372,-16.45168 -2.649933,-4.12159 -2.659818,-9.75912 4.940595,-10.33158 9.435982,-0.71095 19.243847,4.48358 25.058344,9.57785 13.452123,11.78534 16.267027,27.59427 26.860452,40.51303 3.638753,4.43778 9.215002,8.9368 15.150379,11.64438 2.370189,1.08105 6.19964,2.27288 8.45146,0.39552 2.26609,-1.88941 -1.2613,-5.92356 -2.76986,-7.51752 -2.750583,-2.90619 -6.417866,-5.32962 -10.186253,-7.46682 -2.206526,-1.25139 -5.896578,-2.47563 -7.572307,-4.09898 -0.77655,-0.75204 -1.212,-2.56966 -1.552351,-3.50881 -1.149435,-3.17208 -1.214003,-6.72667 -1.677981,-9.98693 -1.124409,-7.90362 -2.071886,-15.8293 -5.637313,-23.36566 -5.337004,-11.2809 -17.098384,-20.21902 -30.608568,-26.19418 -7.960459,-3.5207 -17.150687,-6.14111 -26.527358,-5.83195 -5.827034,0.1921 -11.2859147,1.51805 -16.51703436,3.38436 l -0.2502581,-8.10261 0.40126385,-2.63281 3.85312351,-0.19368 H 14.334498 l 20.020648,0.0639 c 2.204273,0.31194 4.513405,1.40026 6.50671,2.1507 4.950105,1.86357 9.677482,3.92935 14.014453,6.53786 15.611102,9.3894 23.044267,23.57819 25.455003,38.16721 0.653174,3.95238 0.939719,7.90721 1.300091,11.87126 0.161416,1.77466 -0.400413,3.74963 0.272781,5.46455 1.112899,-2.11195 1.033316,-4.72759 1.272813,-6.972 0.308819,-2.8949 0.819096,-5.76586 0.98927,-8.66791 0.588858,-10.0363 1.379673,-20.36449 -4.341478,-29.77237 -2.778114,-4.56857 -7.103325,-8.62995 -11.67504,-12.24812 -2.375449,-1.87992 -5.186599,-5.20715 -8.268527,-6.37298 l -7.006977,-0.22217 h -17.01755 m 24.525292,0.18844 13.26368,-0.18844 4.657304,0.30214 c 2.945037,1.77788 4.603997,6.35368 5.901586,8.93106 5.166575,10.26318 5.096506,21.66072 3.66353,32.41043 -0.387151,2.90394 -1.108896,5.7943 -1.772079,8.6679 -0.288549,1.25044 -1.104889,2.71211 -0.68821,3.95709 l 1.001032,-1.88433 5.755933,0.98928 10.761107,1.58302 31.78277,6.47247 m -56.057812,-61.24062 10.510844,-0.18844 3.612725,0.30214 c 0.810838,0.57062 0.834607,1.93659 1.042072,2.71278 0.617135,2.30862 1.264557,4.62901 1.614165,6.97202 1.495043,10.02123 0.0057,19.33281 -3.661022,29.01863 -0.906691,2.39536 -1.821383,4.79505 -2.857949,7.16044 -0.493257,1.1257 -1.064791,2.4529 -1.251543,3.76866 3.176525,-2.14964 9.669722,-1.31903 13.76419,-1.31903 11.08869,0 22.1914,-0.5653 33.28433,-0.5653 m -41.542837,-47.8619 13.764187,-0.0791 17.26781,-0.10935 8.00826,0.18844 m -12.76316,0 c -0.50752,4.80241 -3.159,9.84789 -5.39957,14.32088 -5.36778,10.71523 -12.97062,21.11878 -21.127792,30.71453 m 14.014452,-44.84696 c 0,11.22377 -3.882,22.52826 -9.11565,32.97572 -1.893703,3.78034 -4.183809,7.43141 -6.365563,11.11753 -0.81359,1.37462 -1.936438,2.50038 -3.011368,4.16549 M 0.06978654,276.11698 v 8.47948 l 0.2502581,4.52238 c 1.59649646,-1.5834 3.39377526,-2.96782 5.50567776,-4.16455 11.2044066,-6.34949 25.7202766,-2.96932 37.0381986,1.29152 17.152941,6.45759 27.029626,18.19676 31.811808,31.89167 1.954015,5.59588 2.434511,11.36174 4.196328,16.95894 1.30935,4.15909 3.993118,7.84219 5.534708,11.87126 -2.848437,-1.77692 -4.044671,-5.17926 -5.172084,-7.72574 -2.461538,-5.56028 -4.775424,-11.15899 -7.020489,-16.77051 -5.312229,-13.27754 -14.755719,-24.2739 -31.352336,-31.03317 -9.889449,-4.02775 -30.354555,-6.45006 -33.2190588,5.02945 -0.3390998,1.35898 -0.4520163,2.77053 -0.2093166,4.14552 0.3217072,1.82253 0.6727693,3.56214 1.6108368,5.27612 5.5798046,10.19496 18.1174106,17.4027 30.3159906,22.91342 4.426315,1.99965 8.990272,4.04339 13.764196,5.53992 0.786561,-2.02245 -0.988521,-2.7645 -3.003098,-3.70911 -3.525636,-1.6535 -7.075296,-3.26327 -10.51084,-5.02362 -8.113118,-4.15701 -15.951451,-8.88837 -21.258624,-15.19822 -2.723084,-3.23766 -4.630876,-8.07077 -3.072994,-11.87126 3.274627,-7.98861 19.820716,-5.19397 26.58394,-1.81725 1.97679,0.98682 3.905529,2.05769 5.755937,3.17396 9.913474,5.98029 16.514531,13.76049 21.159322,22.57424 6.082524,11.54206 9.306348,24.00991 21.4271,33.13212 1.773826,1.33505 3.962836,2.68422 6.464168,3.10726 1.769069,0.29923 3.299903,-0.23215 2.907995,-1.7562 -0.945726,-3.67952 -7.108582,-7.06019 -10.666003,-9.3423 -1.339377,-0.85907 -2.656236,-1.96856 -4.254384,-2.52895 1.962524,5.12932 9.537335,7.13104 12.262647,12.05968 -2.2318,0.0115 -3.896521,-1.63446 -5.1916,-2.81631 -2.601187,-2.37387 -5.375798,-4.57779 -7.321305,-7.35905 m 50.051615,-60.86377 -26.77761,15.75298 -6.75697,3.99271 -3.253354,1.35878 23.231454,-17.90111 9.03307,-7.53731 4.77367,-3.76865 M 0.06978654,289.30727 v 10.17537 l 0.14019459,4.71082 c 1.00518667,2.43096 3.73430097,4.9277 5.68931777,6.972 6.4257271,6.71952 14.9818011,12.35724 24.2014591,16.82856 5.025434,2.43718 10.300625,4.72927 15.766261,6.56329 1.74555,0.58565 5.561128,1.73378 7.257485,2.42344 -0.209112,1.1156 -0.484751,4.08239 -0.679452,5.27611 -0.664936,4.07392 -1.264303,8.16347 -1.780586,12.24813 -1.608158,12.72316 0.119123,24.65133 8.389653,35.99064 1.656707,2.27138 3.48134,4.45323 5.418088,6.59515 l 2.748084,2.63278 4.923827,0.19371 14.014454,-0.18843 c -3.702319,-3.14099 -8.887165,-5.36468 -12.740639,-8.47948 -9.284826,-7.50489 -15.391123,-16.43321 -18.604688,-26.38058 -1.841149,-5.69914 -1.438484,-12.25981 -1.438484,-18.08953 0,-2.29437 1.194733,-7.75966 -0.250257,-9.7985 M 93.922206,309.7551 c 4.061442,-0.86887 9.888074,-4.15217 13.508314,-5.78776 9.0736,-4.09917 17.93774,-8.65566 27.27812,-12.39888 m -41.793102,18.65484 -0.750775,0.75374 3.503622,-0.91014 7.507735,-2.69628 20.77142,-7.3713 10.7611,-3.72004 M 90.913478,311.9192 134.70864,300.61323 m -52.849144,38.69601 0.0447,-3.45909 c 11.480591,4.5531 24.506264,11.43372 30.469414,20.35073 2.73282,4.08617 4.83899,9.80302 -2.19026,12.18915 -1.01779,0.3454 -2.13945,0.54871 -3.25336,0.60751 -8.568322,0.45204 -17.537077,-4.1361 -23.273987,-8.46271 -7.34107,-5.53634 -12.840243,-12.92271 -16.654676,-20.1623 -3.536397,-6.71159 -6.016206,-13.7699 -10.630714,-20.1623 -3.580943,-4.96067 -7.935184,-10.45424 -14.507713,-13.45108 -1.958018,-0.89278 -6.209154,-2.34429 -8.498013,-1.42982 -3.554667,1.42021 -0.04805,5.28026 1.465511,6.77829 3.204055,3.17134 7.604092,5.84255 11.787406,8.24677 2.961806,1.7023 5.098937,2.62193 6.256452,5.50882 -2.569148,-0.37403 -5.105264,-2.18374 -7.257484,-3.26609 -6.673883,-3.35637 -15.073045,-7.75194 -17.843652,-13.69285 -0.356367,-0.76428 -0.581851,-1.63766 -0.61063,-2.44962 -0.236243,-6.66468 10.209779,-4.32924 14.70041,-2.00737 20.198082,10.44293 22.772236,28.85451 33.708265,43.83943 4.939344,6.76794 15.008971,15.46392 25.853145,16.52762 1.03758,0.10175 2.2193,0.12324 3.25336,-0.007 6.24469,-0.78539 5.06047,-5.86648 2.93828,-8.98334 -3.85723,-5.66504 -11.262604,-10.06853 -17.95376,-13.77744 -1.96677,-1.09028 -5.249156,-3.37258 -7.757994,-3.36993 m 52.804444,-29.77238 -10.51084,0.91296 -22.77349,2.13117 -11.011345,0.91296 3.253357,-1.06483 8.008258,-1.40929 33.03406,-5.81692 m -134.63884167,0.18843 0.15002971,8.85634 c 0.5027435,1.05937 2.08297316,2.03997 3.10700466,2.82668 2.5173458,1.9337 5.2472866,3.77205 8.0045803,5.51071 7.874696,4.96559 16.595366,9.15821 25.776584,12.61463 4.862014,1.83044 11.094089,3.01288 15.650788,5.18778 m 43.159863,-31.41591 1.751806,-1.1306 m 3.253346,-1.35878 -3.753866,2.30094 m -14.765221,22.4235 c 16.976506,7.46061 36.740127,14.37364 44.683067,29.01863 1.13192,2.08708 2.03335,4.34262 2.3229,6.59514 0.20596,1.60131 0.0678,3.33526 -0.43269,4.89926 -3.6838,11.51248 -23.07781,9.20758 -33.810117,5.8676 -2.126196,-0.66177 -4.295683,-1.38837 -6.256458,-2.29963 -17.50955,-8.13728 -25.923477,-24.26579 -30.688391,-38.61646 -2.119437,-6.38391 -4.603248,-12.55187 -8.540309,-18.4664 -2.001564,-3.00683 -4.427315,-6.05039 -8.570589,-7.53731 -0.528544,2.44774 4.286671,3.96613 6.174118,5.34753 1.285827,0.94104 1.94951,2.46395 2.584916,3.69724 -3.867739,-0.82062 -8.609129,-4.92337 -11.18929,-7.16044 -0.82485,-0.71529 -2.774361,-2.31791 -2.056621,-3.37314 0.745518,-1.09592 2.761097,-0.15884 3.736103,0.21859 3.09294,1.1973 5.695625,3.16001 7.783277,5.2273 7.71796,7.64284 10.72356,16.95179 14.913131,25.81528 5.185097,10.96943 11.507867,21.02778 24.352114,28.04784 6.595547,3.60472 14.306996,6.08826 22.523226,6.0583 5.19559,-0.0189 10.41248,-2.21616 11.70231,-6.21809 0.39016,-1.2105 0.6224,-2.5233 0.55056,-3.76866 -0.21797,-3.77544 -2.79112,-7.36131 -5.64082,-10.3638 -5.03017,-5.29986 -11.59194,-10.20947 -18.874696,-13.74597 -3.70107,-1.79727 -7.452941,-3.51295 -11.261612,-5.17719 -1.248037,-0.54552 -3.789659,-1.23386 -4.487879,-2.22086 -0.509525,-0.72039 -0.003,-2.32414 -0.01677,-3.16379 m 12.018021,-19.49991 3.24772,-1.60456 m -4.254388,2.07276 1.006668,-0.4682 m -3.008728,2.1641 1.251285,-0.94216 m -1.751806,1.88432 -1.975548,0.7737 m -88.36762151,0.54533 v 9.2332 l 0.25721526,3.74887 c 1.23034385,1.6714 6.06643155,2.94238 8.25155965,3.8461 7.7863566,3.21976 15.9552046,5.90736 24.2750356,8.24281 4.298934,1.20671 8.644666,2.26759 13.013422,3.31754 1.276316,0.30676 3.657689,0.73228 5.255419,1.19542 -0.322853,0.81031 -0.581098,1.71549 -1.001032,2.26119 -3.506366,-1.76486 -9.205744,-2.32281 -13.263679,-3.20336 -8.014515,-1.73904 -16.010888,-3.77111 -23.774519,-6.06809 -3.1839333,-0.94198 -6.3968725,-1.86398 -9.5098084,-2.93315 -1.01332,-0.34822 -2.64542807,-0.63596 -3.24639785,-1.40269 l -0.25721526,-4.85912 m 88.36761851,-13.92405 -0.777288,1.29906 m 0,0 -1.25129,2.44963 m 1.25129,-2.44963 c 15.068544,0 32.196214,0.55456 47.048524,2.63806 M 86.999064,316.394 c 15.938936,0.033 32.025146,3.79852 47.709576,5.3237 m -49.300842,-2.44963 c 4.491133,1.54251 9.960277,1.87435 14.765232,2.90695 11.37548,2.44492 23.82406,5.33039 34.28535,9.52961 m -84.587232,-12.62499 3.003097,6.78357 m 32.533553,-6.59514 c -0.162918,0.53722 -0.259052,1.08392 -0.233241,1.82724 -0.56185,0.94897 1.87093,1.12719 2.73582,1.32336 2.853693,0.64707 5.681366,1.35313 8.508774,2.06278 12.901819,3.23802 26.267849,7.13763 38.039229,12.31087 M 85.174557,321.09531 c -0.401914,0.52553 -0.83502,1.49806 -0.857134,2.23932 0.634154,0.61374 2.168486,0.79387 3.092439,1.0573 2.758591,0.78671 5.542215,1.51406 8.258523,2.38518 13.567495,4.35185 27.172265,9.29124 38.789995,16.23348 M 0.57030273,321.7177 C 11.497373,327.31339 23.088527,332.39147 35.10592,336.54565 c 5.361279,1.85343 11.595281,3.11646 16.785635,5.17566 l 0.867219,-1.96642 m 31.558649,-16.42026 -1.470304,2.84321 m -29.972874,-0.31463 c 2.318391,2.83704 2.543123,7.31326 3.40351,10.55224 1.966528,7.40201 3.64576,14.89598 6.943161,22.04662 1.963776,4.25859 5.054713,7.8079 8.773047,11.30596 10.787626,10.14881 28.655057,20.03625 46.948417,17.81858 6.10881,-0.74073 10.69753,-3.00456 15.516,-5.75888 m -81.584135,-55.96452 0.250259,2.63806 m 29.722615,-2.32343 c 18.364441,6.15986 37.026981,12.6731 51.611261,23.4279 M 82.654959,328.12441 c 5.323993,0.94989 10.736072,3.26686 15.516007,5.21789 15.015974,6.12953 26.746824,14.28282 36.287414,24.93135 m -81.584135,-29.20708 0.250259,0.37687 m -0.250259,0.18843 0.250259,2.07276 m -53.05471746,1.1306 0.03783907,18.84326 0.21241912,8.47948 c 3.80129547,-1.07219 8.27928877,-1.35973 12.26264627,-1.9597 6.840855,-1.03035 13.656835,-2.21145 20.521165,-3.14362 2.995339,-0.40683 8.408171,-2.17244 11.261614,-1.30339 -0.961741,1.00641 -2.344668,1.68855 -3.389996,2.65501 -6.829043,6.31439 -13.863047,12.55942 -20.471813,19.01475 -7.910884,7.72743 -14.020635,15.88958 -20.43387436,24.30782 l 7.00722626,0.18843 H 21.091467 66.63844 m 15.282511,-67.49848 -0.01677,3.43136 m -28.529422,-1.31903 -0.250258,2.44963 m -52.55420101,0.75373 12.76316301,3.33695 24.275036,4.49732 11.511872,1.96423 1.001032,-1.50746 m 1.770149,-4.30421 -0.769117,2.04302 m 31.718212,-2.33261 1.816373,3.65164 m -84.08671801,-2.2612 c 4.01474081,1.02357 8.58495331,1.37839 12.76316301,1.8994 7.334915,0.91484 14.688899,1.7496 22.022712,2.66953 l 8.759034,1.06898 c 1.575124,0.19634 3.136985,0.20878 4.254387,1.14567 0.179186,-0.40852 0.363612,-0.65059 0.500517,-0.94216 m 1.25129,-2.63806 c -1.548346,3.43701 -2.053618,7.94601 -3.055902,11.49439 -2.983826,10.56618 -4.183814,20.68275 -0.666187,31.27983 1.171208,3.52859 2.320394,7.5586 4.723121,10.74067 M 0.32004464,347.34454 c 11.11316236,1.55344 22.79926336,1.48749 34.03510136,2.29323 3.925799,0.28152 10.496575,1.58378 14.014453,0.1564 m 0.750774,-2.26119 -0.250257,1.1306 m -0.500517,0.94216 v 0.18843 m 0,0 -0.500516,0.75374 m 0,0 -1.751807,1.50745 c -3.21932,-1.29359 -9.624174,-0.37687 -13.263679,-0.37687 H 0.32004464 M 47.869083,350.54791 c -2.245566,7.30836 -7.085556,14.15807 -9.383927,21.48132 -2.866457,9.13352 -2.094661,18.46546 -1.126913,27.69961 m 8.759033,-47.67348 -0.500516,0.94216 -1.25129,0.75374 m 1.751806,-1.6959 -1.501548,0.5653 m -44.29568336,3.58022 27.77864836,-2.22935 16.517035,-1.35087 m 1.001032,0.37686 c -9.246535,14.69304 -20.756656,29.89372 -20.771421,46.73132 m 17.518066,-44.65855 c -7.255733,1.57379 -14.358809,4.51013 -21.271938,6.80996 -6.836776,2.27419 -14.2775503,4.16303 -20.77142236,6.94562 l 0.3298151,-4.28157 c 2.35905806,-1.26908 6.43608776,-1.62504 9.17999276,-2.31357 7.4753595,-1.87585 15.0325035,-3.56402 22.5232285,-5.40236 2.918761,-0.71624 8.004506,-2.79503 11.011356,-2.32338 m 0,0 c -0.87365,1.73546 -2.64773,3.72852 -4.003378,5.27611 -2.510839,2.86625 -4.991648,5.75342 -7.402385,8.6679 -7.955704,9.61799 -15.730998,20.13008 -19.125724,31.27984 m 29.530455,-44.65855 c -3.838208,2.09951 -11.623237,4.82764 -15.76626,6.56876 -6.026215,2.53292 -11.919968,5.26349 -17.7683254,8.02045 -2.30833,1.0882 -7.145544,2.68253 -8.50181779,4.47716 l -0.006961,5.05301 C 8.7744838,374.00646 17.316269,369.00979 26.096624,364.13691 c 4.071199,-2.25949 8.611882,-5.51317 13.26368,-6.99387 -2.918511,3.11951 -7.802548,5.70632 -11.511873,8.30781 -5.958897,4.17964 -11.516502,8.65434 -17.267809,12.98509 -2.5111897,1.89093 -4.8673451,3.88134 -7.2796826,5.84142 -1.0126943,0.82288 -2.55873879,1.74714 -3.08035169,2.82648 l -0.15080552,3.76866 v 8.29104 m 39.29052181,-42.0205 1.615165,-0.73677 M 0.06978219,360.3464 v 3.95709 m 0,4.71082 v 4.71081 m 0,5.65298 v 7.16045 m 134.88912781,8.47947 -0.58011,4.78562 -3.42403,0.11363 h -8.00826 -26.02684 l -10.761103,-0.37686"
       inkscape:connector-curvature="0"
       sodipodi:nodetypes="cccccccccccccccscccccccccccccccccccccccccccccccccccccccccccccccccccccccsccccccccccccccccccccccccccccccccccccccccccccccccccccccccccsccccccsscccccccccccccccccccccccccccccccccccccccccccccccccccccccccccccccccccccccccccccccccccccccccccccccccccccccccccccccccccccccccccccccccsccccccccccccccccccccccccccccccccccccccccccccccccccccccccccccscccccccccccccccccccccccccccccccccccccccccccccccccccc" />
  </g>
</svg>
