<?xml version="1.0" encoding="UTF-8" standalone="no"?>
<!-- Created with Inkscape (http://www.inkscape.org/) -->

<svg
   xmlns:dc="http://purl.org/dc/elements/1.1/"
   xmlns:cc="http://creativecommons.org/ns#"
   xmlns:rdf="http://www.w3.org/1999/02/22-rdf-syntax-ns#"
   xmlns:svg="http://www.w3.org/2000/svg"
   xmlns="http://www.w3.org/2000/svg"
   xmlns:sodipodi="http://sodipodi.sourceforge.net/DTD/sodipodi-0.dtd"
   xmlns:inkscape="http://www.inkscape.org/namespaces/inkscape"
   width="140mm"
   height="140mm"
   viewBox="0 0 140 140"
   version="1.1"
   id="svg8"
   sodipodi:docname="pikuchu.svg"
   inkscape:version="0.92.4 (5da689c313, 2019-01-14)">
  <defs
     id="defs2" />
  <sodipodi:namedview
     id="base"
     pagecolor="#ffffff"
     bordercolor="#666666"
     borderopacity="1.0"
     inkscape:pageopacity="0.0"
     inkscape:pageshadow="2"
     inkscape:zoom="0.88588157"
     inkscape:cx="-717.20412"
     inkscape:cy="471.67534"
     inkscape:document-units="mm"
     inkscape:current-layer="g936"
     showgrid="false"
     inkscape:window-width="1920"
     inkscape:window-height="1017"
     inkscape:window-x="-8"
     inkscape:window-y="-8"
     inkscape:window-maximized="1" />
  <metadata
     id="metadata5">
    <rdf:RDF>
      <cc:Work
         rdf:about="">
        <dc:format>image/svg+xml</dc:format>
        <dc:type
           rdf:resource="http://purl.org/dc/dcmitype/StillImage" />
        <dc:title></dc:title>
      </cc:Work>
    </rdf:RDF>
  </metadata>
  <g
     inkscape:label="Layer 1"
     inkscape:groupmode="layer"
     id="layer1"
     transform="translate(0,-157)">
    <path
       inkscape:connector-curvature="0"
       id="path847"
       d="m 86.505239,294.01278 c -3.757532,-0.84757 -7.562062,-2.19323 -11.313103,-4.00143 -2.793479,-1.34661 -4.013582,-2.18683 -4.658602,-3.20815 -0.255518,-0.40459 -0.496123,-0.66618 -0.641118,-0.69705 -0.243343,-0.0518 -8.833134,-0.89543 -11.238135,-1.10372 -0.936424,-0.0811 -2.598283,-0.0997 -5.054443,-0.0566 l -3.659312,0.0643 -0.681097,0.72237 c -0.826168,0.87623 -1.660597,1.299 -3.986699,2.01986 -3.03797,0.94147 -4.180204,1.18395 -11.019915,2.33935 l -2.64775,0.44728 -0.865914,-0.21191 c -0.861931,-0.21095 -0.867189,-0.21424 -1.142857,-0.71776 -0.621616,-1.1354 -0.491751,-1.52038 0.929419,-2.75525 1.881715,-1.63503 2.659917,-2.16556 5.386448,-3.6721 0.770977,-0.426 1.425028,-0.7964 1.453447,-0.82311 0.02842,-0.0267 -0.134346,-0.19535 -0.3617,-0.37476 -1.330704,-1.05013 -2.372648,-2.30038 -3.118375,-3.74179 -1.179494,-2.27983 -1.437311,-4.82862 -0.757213,-7.48584 0.210825,-0.8237 1.099818,-3.38191 2.99965,-8.6319 2.335648,-6.45433 3.136103,-9.17855 3.659009,-12.45284 0.300688,-1.88283 0.501443,-4.13638 0.403315,-4.52736 -0.03806,-0.15165 -0.484355,-0.99708 -0.991761,-1.87873 -3.249223,-5.64573 -5.212701,-11.1402 -6.067213,-16.9781 -0.304375,-2.07945 -0.399738,-3.45717 -0.570269,-8.23879 -0.08615,-2.41565 -0.2086,-4.75208 -0.272108,-5.19207 -0.100537,-0.69654 -0.0935,-0.83351 0.05442,-1.05926 0.116993,-0.17856 0.263577,-0.25928 0.470806,-0.25928 0.555898,0 0.783604,-0.15673 0.924035,-0.63599 0.237199,-0.80952 0.36638,-0.93062 0.973398,-0.91251 0.844536,0.0252 0.883515,0.0145 1.039133,-0.28584 0.428276,-0.82649 0.94858,-1.03752 1.591536,-0.64551 0.447621,0.27291 0.589443,0.2615 1.151065,-0.0927 0.815933,-0.51453 0.864783,-0.50999 1.550582,0.14415 l 0.61089,0.58269 0.313786,-0.16226 c 0.330223,-0.17077 0.817964,-0.21131 1.000761,-0.0832 0.05958,0.0418 0.219113,0.23869 0.354526,0.43763 0.369748,0.5432 4.159253,5.06381 4.244856,5.06381 0.173825,0 1.85083,-1.88956 2.390529,-2.69351 0.795901,-1.18561 1.354165,-2.26074 2.407295,-4.63607 0.489503,-1.10408 1.617229,-3.45255 2.506058,-5.21883 l 1.616051,-3.21141 1.154045,-1.15932 c 0.634724,-0.63762 1.2068,-1.22288 1.271279,-1.30057 0.06448,-0.0777 0.233522,-0.8277 0.375649,-1.66668 1.062538,-6.27218 3.641775,-12.26584 7.650326,-17.77789 3.338827,-4.59114 7.263413,-8.35816 11.976028,-11.49523 2.242942,-1.49307 5.618526,-3.13209 6.450599,-3.13209 h 0.415849 l 0.07567,0.80091 c 0.09183,0.97194 -0.02088,1.71165 -0.633791,4.15956 -1.544197,6.16739 -4.158501,11.9973 -7.947674,17.72334 -1.775325,2.68279 -3.175705,4.47837 -4.997071,6.40727 l -1.658891,1.75683 0.536531,0.0683 c 0.295092,0.0375 1.071332,0.12076 1.724977,0.18492 3.557551,0.34921 7.400447,1.52815 10.851023,3.32894 3.582734,1.86976 6.3598,4.12062 8.50974,6.89729 0.800723,1.03415 0.896536,1.11995 1.723745,1.54358 1.505616,0.77107 3.770859,2.04475 4.930152,2.77209 9.032874,5.66725 15.741024,13.8737 18.908494,23.13183 0.33549,0.9806 0.98154,3.27582 0.93246,3.31279 -0.0126,0.01 -0.61172,-0.12999 -1.33132,-0.31 -0.78133,-0.19545 -1.39032,-0.29697 -1.51183,-0.25202 -0.12614,0.0467 -0.82397,1.16832 -1.83592,2.95098 -5.75274,10.13409 -6.99781,12.29452 -7.15528,12.41566 -0.10402,0.08 -0.30363,0.11199 -0.48644,0.0779 -0.17052,-0.0318 -0.48245,-0.0871 -0.69318,-0.12291 l -0.38315,-0.0651 0.0605,0.37302 c 0.0333,0.20515 0.005,0.5077 -0.0634,0.67233 -0.11214,0.27074 -0.0831,0.38074 0.30464,1.15181 0.47051,0.9358 0.48348,1.26774 0.0571,1.462 -0.28457,0.12966 -0.36099,0.34099 -0.25575,0.70729 0.16768,0.58366 0.10704,0.90498 -0.21794,1.15475 -0.78882,0.60626 -0.83151,0.65758 -0.88775,1.06713 -0.11836,0.86186 -0.32854,1.08885 -1.2411,1.34038 -0.1535,0.0423 -0.28723,0.24569 -0.44371,0.67483 -0.236,0.64728 -0.44429,0.93006 -0.68503,0.93006 -0.0799,0 -0.46024,-0.11993 -0.8452,-0.26651 -0.83407,-0.3176 -1.273687,-0.34028 -3.180159,-0.16406 -0.844359,0.0781 -2.445044,0.12157 -3.844138,0.10452 -1.318535,-0.0161 -2.422249,-0.004 -2.4527,0.0262 -0.03045,0.0304 -0.08571,1.00559 -0.122794,2.16698 -0.03723,1.1657 -0.114555,2.17125 -0.17263,2.24473 -0.05786,0.0732 -1.327674,0.99521 -2.82181,2.04889 -1.494135,1.05367 -2.733266,1.99362 -2.753624,2.08876 -0.02036,0.0951 0.04992,0.56828 0.156163,1.05141 1.244825,5.66047 1.545753,7.09553 1.636087,7.8021 0.109871,0.85941 0.02968,2.36257 -0.121069,2.26941 -0.04758,-0.0294 -0.136739,0.14558 -0.198137,0.38886 -0.292992,1.16093 -0.879913,2.50603 -1.466863,3.36177 -0.16569,0.24156 -0.266331,0.4392 -0.223645,0.4392 0.143556,0 -0.730896,0.84033 -1.85363,1.7813 l -1.11422,0.93383 0.907534,0.66962 c 0.499144,0.36829 1.442334,1.03266 2.095979,1.47638 2.898513,1.96761 5.266235,4.39813 5.269527,5.40931 0.001,0.30592 -0.285954,0.86689 -0.65382,1.27815 -0.283373,0.31681 -1.07822,0.29604 -2.70386,-0.0706 z m 1.27612,-0.0983 c 0.28072,-0.17791 0.04227,-0.48664 -1.057162,-1.36877 -1.396133,-1.1202 -1.448227,-1.17101 -1.045703,-1.02013 0.842907,0.31597 1.934247,1.22341 2.500623,2.07927 0.291815,0.44095 0.308284,0.44783 0.708766,0.29556 0.245228,-0.0932 0.269837,-0.1444 0.211223,-0.43921 -0.04879,-0.24539 -0.414401,-0.68528 -1.381776,-1.66252 -1.314691,-1.32809 -1.351388,-1.46277 -0.171382,-0.62895 0.624342,0.44117 1.801225,1.62292 1.801225,1.80867 0,0.0536 0.05259,0.0975 0.116865,0.0975 0.24743,0 -0.01104,-0.73574 -0.462624,-1.31687 -0.609274,-0.78407 -1.222109,-1.36319 -3.271248,-3.09129 -2.224188,-1.87574 -2.374763,-1.99141 -3.410322,-2.61981 l -0.878416,-0.53304 -0.723401,0.0646 -0.723402,0.0646 0.310029,-0.21048 c 0.170517,-0.11577 0.417992,-0.21079 0.549947,-0.21116 0.28506,-10e-4 1.872083,-1.24977 2.722252,-2.14237 1.364643,-1.43274 2.243596,-3.32571 2.61743,-5.63705 0.162368,-1.00391 0.123974,-1.34276 -0.412521,-3.64068 -0.248397,-1.06393 -1.322914,-6.75028 -1.708712,-9.04251 -0.606502,-3.60355 -0.880921,-6.79139 -0.782857,-9.09419 0.07284,-1.71049 0.393488,-4.80861 0.509708,-4.92483 0.08994,-0.0899 0.08849,-0.034 -0.07522,2.89822 -0.07581,1.35785 -0.114034,2.55982 -0.08495,2.67104 0.07981,0.30518 1.252523,0.74329 3.534923,1.32059 2.380629,0.60214 5.835292,0.84313 8.683128,0.6057 2.464124,-0.20544 3.204504,-0.17601 4.238958,0.1685 l 0.86137,0.28686 0.18919,-0.23364 c 0.10405,-0.1285 0.21917,-0.42116 0.25582,-0.65035 0.0847,-0.52965 0.35152,-0.79863 0.79224,-0.79863 0.49471,0 0.78387,-0.34999 0.86195,-1.04326 0.0735,-0.6529 0.14569,-0.76401 0.67001,-1.0315 0.54561,-0.27835 0.6236,-0.46948 0.47693,-1.16877 l -0.12187,-0.58102 0.35035,-0.29249 0.35036,-0.29248 -0.29578,-0.69597 c -0.31446,-0.73989 -0.56132,-0.99176 -0.97206,-0.99176 -0.23656,0 -0.22435,-0.0253 0.17801,-0.36975 0.23758,-0.20336 0.43197,-0.45103 0.43197,-0.55037 0,-0.25461 -0.42168,-0.62044 -0.85217,-0.7393 -0.41945,-0.11582 -0.88045,-0.59824 -1.7812,-1.86398 -1.27268,-1.78837 -5.132882,-5.36393 -7.837056,-7.25916 -1.836177,-1.28689 -6.471807,-3.99549 -6.838083,-3.99549 -0.08435,0 -0.380196,0.13956 -0.657431,0.31015 -0.853002,0.52486 -3.213784,1.61642 -4.356166,2.01418 -2.024915,0.70505 -5.672406,1.49936 -6.885042,1.49936 -0.565539,0 -0.07488,-0.17612 0.994487,-0.35697 2.227513,-0.37671 4.940144,-1.1293 6.951841,-1.9287 1.159699,-0.46085 2.910897,-1.32064 2.838098,-1.39344 -0.02706,-0.0271 -0.694598,-0.0867 -1.483413,-0.13246 -1.240562,-0.072 -1.51344,-0.12085 -2.020992,-0.3617 -1.051966,-0.4992 -2.153347,-1.96623 -2.453026,-3.26743 -0.155375,-0.67463 -0.133597,-2.23544 0.04031,-2.88892 0.469525,-1.76432 1.685117,-3.20041 3.412869,-4.03193 0.969533,-0.46661 1.64274,-0.62366 2.666171,-0.62197 1.850687,0.003 3.296585,0.80038 4.329141,2.38728 l 0.548733,0.84333 0.07367,-1.28005 c 0.189438,-3.29161 0.759244,-5.68528 2.125158,-8.92744 0.898534,-2.13278 1.004808,-2.58092 1.004808,-4.23707 0,-0.79574 -0.03336,-1.86534 -0.07414,-2.37689 -0.07208,-0.90426 -0.06982,-0.91861 0.08153,-0.51671 0.508889,1.35131 0.565836,3.49671 0.134412,5.06381 -0.125182,0.45471 -0.22489,0.93061 -0.221574,1.05757 0.01081,0.41386 1.947354,3.26358 3.530069,5.19468 0.489138,0.59681 1.377813,1.57864 1.974833,2.18184 1.266823,1.27996 1.461683,1.38688 4.142723,2.27313 3.0176,0.99751 5.5279,1.388 8.46552,1.31686 1.35066,-0.0327 1.54944,-0.0618 2.01519,-0.29465 0.69996,-0.34998 0.7141,-0.56758 0.11353,-1.74775 -3.21156,-6.311 -8.81698,-12.39691 -15.356634,-16.67299 -1.844787,-1.20625 -6.052905,-3.56677 -6.162728,-3.45695 -0.0324,0.0324 0.01897,0.29341 0.114163,0.58001 0.238499,0.71805 0.08888,0.86759 -0.213988,0.21387 -0.65656,-1.41712 -2.05127,-3.24691 -3.627742,-4.75943 -4.130087,-3.96254 -9.875988,-6.69382 -16.203831,-7.70241 -1.269143,-0.20229 -3.573263,-0.24618 -5.890555,-0.11222 -1.939797,0.11215 -1.644052,-0.0987 0.41459,-0.29559 0.817024,-0.0781 1.639283,-0.20696 1.827243,-0.28628 0.468943,-0.1979 3.097349,-2.92023 4.457943,-4.61725 2.06869,-2.5802 3.983601,-5.63772 5.598562,-8.93918 0.945876,-1.93364 3.254794,-6.96056 3.254794,-7.08624 0,-0.11731 -1.192689,-0.487 -1.963518,-0.60862 -2.592256,-0.40898 -6.237145,0.37513 -9.624701,2.07055 -3.111945,1.55747 -4.039011,2.34792 -5.693006,4.85402 -2.726382,4.13097 -4.546751,8.17235 -5.722241,12.70387 -0.332583,1.28211 -0.868783,4.0398 -0.868783,4.46817 0,0.15025 0.167201,0.0928 0.955923,-0.32824 0.534883,-0.28556 1.160754,-0.5379 1.420968,-0.5729 0.432757,-0.0582 0.385795,-0.0209 -0.676434,0.53753 -0.627812,0.33006 -1.441638,0.8161 -1.808503,1.08011 -0.829437,0.59688 -2.200763,2.00476 -2.753568,2.82697 -0.797635,1.18635 -3.030393,5.67402 -5.151498,10.35411 -0.417102,0.92031 -0.944298,1.96573 -1.171545,2.32314 -0.227246,0.35742 -0.398009,0.66502 -0.379473,0.68356 0.01854,0.0185 0.3295,-0.0433 0.69103,-0.13738 0.462699,-0.12043 0.948014,-0.15943 1.639085,-0.13173 0.839745,0.0337 1.083435,0.087 1.684658,0.36904 1.287962,0.60411 2.395147,2.02892 2.801963,3.60578 0.208135,0.80676 0.210236,2.19201 0.0045,2.98179 -0.416932,1.60072 -1.642775,3.18664 -3.268184,4.22818 -0.151534,0.0971 -0.30276,0.24754 -0.336057,0.33431 -0.0333,0.0868 0.387068,1.37448 0.934147,2.86157 1.413805,3.84307 1.672684,4.61858 1.751705,5.24752 0.114731,0.91316 -0.09716,0.48809 -0.624078,-1.25193 -1.573321,-5.1955 -3.676066,-9.75298 -6.436759,-13.95098 -1.224912,-1.86264 -1.799159,-2.61531 -3.587684,-4.70244 -0.77931,-0.90942 -1.610395,-1.92095 -1.846856,-2.24785 -0.490963,-0.67874 -0.781911,-0.80878 -1.224533,-0.54732 -0.402535,0.23779 -0.731008,0.1427 -1.077836,-0.31202 -0.559642,-0.73373 -0.800943,-0.74844 -1.635407,-0.0997 l -0.394617,0.30679 -0.50322,-0.28096 c -0.276771,-0.15452 -0.57205,-0.28096 -0.656176,-0.28096 -0.08413,0 -0.324897,0.23031 -0.535046,0.5118 -0.486975,0.65228 -0.824347,0.80329 -1.405584,0.62915 -0.399406,-0.11967 -0.442478,-0.11266 -0.614706,0.10004 -0.101863,0.12579 -0.185206,0.31888 -0.185206,0.42908 0,0.28882 -0.279293,0.78645 -0.510991,0.91045 -0.109352,0.0585 -0.361901,0.1064 -0.561218,0.1064 -0.199318,0 -0.391182,0.0466 -0.426364,0.10351 -0.09878,0.15983 0.32279,8.68772 0.57472,11.62593 0.630196,7.34986 2.869137,13.76667 7.457944,21.3745 0.508437,0.84294 0.893572,1.56348 0.855855,1.6012 -0.03772,0.0377 -0.252518,-0.12863 -0.477339,-0.36965 -0.236823,-0.25388 -0.424498,-0.38403 -0.446168,-0.30941 -0.02057,0.0709 -0.09137,0.75662 -0.157332,1.52394 -0.136703,1.59024 -0.498806,3.78536 -0.886459,5.37384 -0.343313,1.40678 -1.256027,4.1727 -3.171466,9.61091 -3.151761,8.9483 -3.22861,9.21603 -3.218454,11.21272 0.01357,2.6681 1.02048,5.159 2.820836,6.97819 1.080442,1.09173 1.852655,1.55212 3.862691,2.3029 0.10307,0.0385 0.161178,0.11242 0.129128,0.16428 -0.03274,0.053 -0.454091,-0.0146 -0.961747,-0.15428 -0.496911,-0.13671 -1.020063,-0.24825 -1.162559,-0.24786 -0.557137,0.002 -3.804365,1.98699 -6.266203,3.83133 -1.451324,1.0873 -2.015776,1.73301 -1.925901,2.20316 0.06377,0.3336 0.219447,0.27081 1.036341,-0.41802 0.811189,-0.68403 1.833251,-1.29388 2.73712,-1.63319 0.383662,-0.14402 0.697566,-0.24529 0.697566,-0.22503 0,0.0203 -0.360707,0.24642 -0.80157,0.50257 -0.858876,0.49905 -2.744701,1.87164 -3.056264,2.2245 -0.240655,0.27255 -0.191688,0.6864 0.08581,0.72525 0.11898,0.0166 0.51366,-0.19473 0.930088,-0.49814 0.39787,-0.28989 0.989678,-0.66342 1.315127,-0.83007 0.617461,-0.31618 2.148055,-0.85252 2.221971,-0.77861 0.04134,0.0414 -0.287908,0.20535 -2.147913,1.06984 -0.818873,0.3806 -1.647543,0.96684 -1.647543,1.16554 0,0.0464 0.290652,0.11452 0.645894,0.15132 1.500559,0.15545 9.274032,-1.3139 12.582019,-2.37827 1.402055,-0.45113 4.121357,-1.51865 4.499354,-1.76632 0.2702,-0.17704 0.62337,-0.73853 0.525861,-0.83604 -0.02961,-0.0296 -0.439953,-0.0982 -0.911872,-0.15235 -1.098263,-0.12608 -2.163649,-0.36432 -2.301003,-0.51455 -0.07845,-0.0858 -0.05177,-0.0954 0.09951,-0.0359 0.113677,0.0447 3.066706,0.11685 6.562285,0.16027 3.495579,0.0434 6.820643,0.12992 7.38903,0.19223 0.568386,0.0623 4.212195,0.41265 8.097352,0.77855 3.885157,0.36591 7.093959,0.69782 7.130672,0.73757 0.03671,0.0398 -0.991225,0.041 -2.284305,0.003 -1.347697,-0.0398 -2.351055,-0.0304 -2.351055,0.022 0,0.0503 0.135171,0.27808 0.30038,0.50615 0.544223,0.75128 1.887052,1.63888 4.195044,2.77287 3.387931,1.66462 6.780756,2.9225 10.565775,3.91726 1.939631,0.50975 1.886661,0.5001 2.078083,0.3788 z M 65.3112,234.12765 c -0.928541,-0.2907 -1.327979,-0.68528 -1.839901,-1.81755 -0.523123,-1.15703 -0.632237,-2.05904 -0.625067,-5.16715 0.0057,-2.47223 0.04406,-3.1377 0.294824,-5.11548 0.360126,-2.8403 0.361127,-2.9375 0.03474,-3.37291 -0.546876,-0.72953 -0.408359,-0.81391 0.252353,-0.15373 1.254464,1.25345 2.665255,1.49591 5.798848,0.9966 0.767865,-0.12235 1.006463,-0.0274 1.411931,0.56194 0.49116,0.71387 1.394617,1.5481 2.061526,1.90356 1.06734,0.56889 2.61235,0.78692 3.676828,0.51889 0.249088,-0.0627 0.513829,-0.0912 0.588313,-0.0632 0.164203,0.0616 -0.545172,0.38159 -1.015077,0.45785 -0.18449,0.0299 -0.426161,0.15344 -0.537046,0.27445 -0.110885,0.12101 -0.677681,1.1036 -1.259547,2.18354 -2.684172,4.98179 -3.318749,5.96685 -4.640227,7.20311 -1.590146,1.4876 -2.921205,1.99123 -4.202494,1.59009 z m 2.315847,-0.58626 c 0.875496,-0.431 2.093958,-1.59235 3.135077,-2.98812 0.883756,-1.1848 0.936587,-1.36437 0.59335,-2.01672 -0.932246,-1.77182 -4.082652,-3.09752 -6.923597,-2.91346 -1.385221,0.0897 -1.333971,0.0242 -1.333159,1.70434 9.3e-4,1.9302 0.482206,4.72414 0.94188,5.46791 0.703807,1.13878 2.169416,1.44366 3.586449,0.74605 z m 16.288455,-11.34583 c -1.07223,-0.27897 -2.133036,-1.22525 -2.5348,-2.26114 -0.291549,-0.75171 -0.318628,-2.20626 -0.05434,-2.91909 0.974493,-2.62842 4.180898,-3.41023 6.103032,-1.4881 0.253711,0.25372 0.614612,0.7727 0.802002,1.1533 0.314255,0.63828 0.340453,0.76841 0.337424,1.67601 -0.004,1.21147 -0.252722,1.9176 -0.947444,2.6903 -0.694568,0.77252 -1.506512,1.15196 -2.559587,1.19615 -0.456552,0.0192 -0.97238,-0.002 -1.146283,-0.0474 z m 1.210266,-3.94274 c 0.481001,-0.1336 1.087042,-0.79577 1.17953,-1.28877 0.162825,-0.86794 -0.209298,-1.66339 -0.944696,-2.01939 -0.837716,-0.40553 -1.846837,-0.0619 -2.217752,0.75518 -0.482943,1.06387 -0.0081,2.24611 1.028238,2.56018 0.374761,0.11357 0.52392,0.11245 0.95468,-0.007 z m -13.671485,-2.35655 c -0.22919,-0.0677 -0.398833,-0.34737 -0.398833,-0.65753 0,-0.22372 0.04856,-0.29027 0.211818,-0.29027 0.433478,0 1.227251,0.58843 1.091051,0.80881 -0.06745,0.10914 -0.684113,0.20394 -0.904036,0.13899 z m -13.319129,-2.75119 c -0.623484,-0.32494 -1.395207,-1.16745 -1.73526,-1.89443 -0.241648,-0.5166 -0.276481,-0.72089 -0.276964,-1.62435 -5.17e-4,-0.93125 0.02902,-1.09366 0.298521,-1.64254 0.571111,-1.16314 1.617631,-1.88627 3.088981,-2.13444 1.848573,-0.31181 3.135285,0.3155 3.950108,1.92577 0.287625,0.56841 0.309223,0.69049 0.309223,1.74787 0,1.04392 -0.02351,1.18139 -0.287814,1.68303 -0.776316,1.47342 -2.118595,2.1987 -4.048472,2.18752 -0.665492,-0.004 -0.92391,-0.0533 -1.298323,-0.24843 z m 4.1411,-3.69998 c 0.464605,-0.3131 0.735655,-0.80757 0.743964,-1.3572 0.0093,-0.61529 -0.285016,-1.09322 -0.854637,-1.3878 -1.475169,-0.76289 -3.00863,0.69666 -2.25202,2.14348 0.297748,0.56936 0.77046,0.83439 1.488253,0.83439 0.377575,0 0.62774,-0.0666 0.87444,-0.23287 z m 24.57972,55.77614 c 3.251969,-2.30302 3.25613,-2.30656 3.33612,-2.83869 0.129497,-0.86148 0.09667,-3.45804 -0.04618,-3.65341 -0.09205,-0.12588 -0.996469,-0.39205 -3.022785,-0.88961 -1.590289,-0.39049 -3.017676,-0.75856 -3.17197,-0.81793 -0.154294,-0.0594 -0.305173,-0.0681 -0.335286,-0.0194 -0.07269,0.11761 0.115527,2.91991 0.309334,4.60562 0.16345,1.42168 0.642626,4.65756 0.724665,4.89369 0.07322,0.21073 0.225534,0.12233 2.206105,-1.28031 z M 105.90814,249.0749 c 0.0996,-0.0875 0.28963,-0.34936 0.42231,-0.582 3.53882,-6.20522 8.12909,-14.34312 8.12909,-14.41172 0,-0.0499 -0.70919,-0.33445 -1.57598,-0.63229 -2.85072,-0.97951 -5.23736,-2.13554 -7.79404,-3.77525 l -1.15425,-0.74027 -2.72111,-0.0683 c -3.465132,-0.0869 -9.108977,-0.0886 -9.73403,-0.003 -0.463691,0.0636 -0.479468,0.0773 -0.479468,0.41773 0,0.6845 -0.33199,1.95608 -0.73713,2.82333 -0.51641,1.10544 -1.368547,2.22379 -2.306901,3.02759 -0.400394,0.34298 -0.739014,0.65084 -0.752488,0.68412 -0.01347,0.0333 0.567832,0.36253 1.291788,0.73167 1.437063,0.73275 4.541627,2.7583 6.749249,4.40351 2.824133,2.10467 4.66948,3.87897 6.42219,6.17494 1.20433,1.57763 1.52395,1.79261 3.12959,2.10506 0.5819,0.11324 0.84777,0.0761 1.11118,-0.15521 z M 86.115203,235.79183 c 1.235503,-0.32755 2.941039,-1.97008 3.77624,-3.63674 0.367738,-0.73383 0.695847,-1.85682 0.695847,-2.38162 0,-0.54613 -0.440875,-1.80876 -0.829118,-2.37453 -0.902629,-1.31535 -2.279454,-2.01282 -3.973379,-2.01282 -1.608451,0 -2.852987,0.52369 -4.044781,1.70202 -1.204504,1.19089 -1.748377,2.48935 -1.732768,4.13686 0.01472,1.55373 0.526278,2.75695 1.55839,3.66545 1.18085,1.03943 2.810777,1.36236 4.549569,0.90138 z m 17.381357,-7.23884 c -0.0237,-0.0202 -0.60111,-0.50278 -1.28317,-1.07236 -2.780673,-2.32211 -5.861365,-5.85805 -8.060764,-9.25192 -0.284193,-0.43854 -0.545367,-0.79794 -0.580386,-0.79867 -0.102751,-0.002 -0.677501,1.3497 -1.130907,2.65999 -0.826443,2.3883 -1.266013,4.64341 -1.402402,7.19466 l -0.06977,1.30506 h 6.28523 c 3.456879,0 6.265849,-0.0165 6.242169,-0.0368 z m -50.987914,-4.93634 c 0.701153,-0.44466 1.635766,-1.44063 2.114467,-2.25328 0.619191,-1.05116 0.855557,-1.86299 0.85974,-2.95291 0.0081,-2.10063 -1.088467,-3.92234 -2.870284,-4.76852 -1.243741,-0.59065 -2.762812,-0.5951 -3.923312,-0.0115 -0.531447,0.26726 -1.450941,1.14215 -1.613928,1.53564 -0.121698,0.2938 -0.10058,0.351 0.389171,1.05411 0.284819,0.4089 1.321162,2.20834 2.302985,3.99876 2.019897,3.68342 2.04126,3.72035 2.151646,3.72035 0.0444,0 0.309682,-0.14519 0.589515,-0.32266 z m 33.849737,55.03421 c 0.005,-0.12039 0.02945,-0.14488 0.06244,-0.0624 0.02985,0.0746 0.02618,0.16374 -0.0082,0.19808 -0.03434,0.0343 -0.05877,-0.0267 -0.05428,-0.13564 z"
       style="display:inline;fill:none;stroke:#000000;stroke-width:0.10334307" />
    <g
       id="g936"
       transform="translate(-385.83582,112.95856)"
       gcodetools="Gcodetools tool definition">
      <path
         id="path854"
         d="M -20,-20 H 380 V 155 H -20 Z"
         style="fill:#00ff00;fill-opacity:0.5;stroke:#444444;stroke-width:1px"
         gcodetools="Gcodetools tool background"
         inkscape:connector-curvature="0" />
      <g
         id="g864"
         gcodetools="Gcodetools tool parameter">
        <text
           id="text858"
           xml:space="preserve"
           y="0"
           x="0"
           style="font-style:normal;font-variant:normal;font-weight:normal;font-stretch:normal;font-size:20px;font-family:'DejaVu Sans';fill:#000000;fill-opacity:1;stroke:none"
           gcodetools="Gcodetools tool definition field name"><tspan
             id="tspan856"
             sodipodi:role="line"
             y="0"
             x="0">name</tspan></text>
        <text
           id="text862"
           xml:space="preserve"
           y="0"
           x="150"
           style="font-style:normal;font-variant:normal;font-weight:normal;font-stretch:normal;font-size:20px;font-family:'DejaVu Sans';fill:#000000;fill-opacity:1;stroke:none"
           gcodetools="Gcodetools tool definition field value"><tspan
             id="tspan860"
             sodipodi:role="line"
             y="0"
             x="150">Cylindrical cutter</tspan></text>
      </g>
      <g
         id="g874"
         gcodetools="Gcodetools tool parameter">
        <text
           id="text868"
           xml:space="preserve"
           y="20"
           x="0"
           style="font-style:normal;font-variant:normal;font-weight:normal;font-stretch:normal;font-size:10px;font-family:'DejaVu Sans';fill:#000000;fill-opacity:1;stroke:none"
           gcodetools="Gcodetools tool definition field name"><tspan
             id="tspan866"
             sodipodi:role="line"
             y="20"
             x="0">id</tspan></text>
        <text
           id="text872"
           xml:space="preserve"
           y="20"
           x="150"
           style="font-style:normal;font-variant:normal;font-weight:normal;font-stretch:normal;font-size:10px;font-family:'DejaVu Sans';fill:#000000;fill-opacity:1;stroke:none"
           gcodetools="Gcodetools tool definition field value"><tspan
             id="tspan870"
             sodipodi:role="line"
             y="20"
             x="150">Cylindrical cutter 0001</tspan></text>
      </g>
      <g
         id="g884"
         gcodetools="Gcodetools tool parameter">
        <text
           id="text878"
           xml:space="preserve"
           y="35"
           x="0"
           style="font-style:normal;font-variant:normal;font-weight:normal;font-stretch:normal;font-size:10px;font-family:'DejaVu Sans';fill:#000000;fill-opacity:1;stroke:none"
           gcodetools="Gcodetools tool definition field name"><tspan
             id="tspan876"
             sodipodi:role="line"
             y="35"
             x="0">diameter</tspan></text>
        <text
           id="text882"
           xml:space="preserve"
           y="35"
           x="150"
           style="font-style:normal;font-variant:normal;font-weight:normal;font-stretch:normal;font-size:10px;font-family:'DejaVu Sans';fill:#000000;fill-opacity:1;stroke:none"
           gcodetools="Gcodetools tool definition field value"><tspan
             id="tspan880"
             sodipodi:role="line"
             y="35"
             x="150">1</tspan></text>
      </g>
      <g
         id="g894"
         gcodetools="Gcodetools tool parameter">
        <text
           id="text888"
           xml:space="preserve"
           y="50"
           x="0"
           style="font-style:normal;font-variant:normal;font-weight:normal;font-stretch:normal;font-size:10px;font-family:'DejaVu Sans';fill:#000000;fill-opacity:1;stroke:none"
           gcodetools="Gcodetools tool definition field name"><tspan
             id="tspan886"
             sodipodi:role="line"
             y="50"
             x="0">feed</tspan></text>
        <text
           id="text892"
           xml:space="preserve"
           y="50"
           x="150"
           style="font-style:normal;font-variant:normal;font-weight:normal;font-stretch:normal;font-size:10px;font-family:'DejaVu Sans';fill:#000000;fill-opacity:1;stroke:none"
           gcodetools="Gcodetools tool definition field value"><tspan
             id="tspan890"
             sodipodi:role="line"
             y="50"
             x="150">1400</tspan></text>
      </g>
      <g
         id="g904"
         gcodetools="Gcodetools tool parameter">
        <text
           id="text898"
           xml:space="preserve"
           y="65"
           x="0"
           style="font-style:normal;font-variant:normal;font-weight:normal;font-stretch:normal;font-size:10px;font-family:'DejaVu Sans';fill:#000000;fill-opacity:1;stroke:none"
           gcodetools="Gcodetools tool definition field name"><tspan
             id="tspan896"
             sodipodi:role="line"
             y="65"
             x="0">penetration angle</tspan></text>
        <text
           id="text902"
           xml:space="preserve"
           y="65"
           x="150"
           style="font-style:normal;font-variant:normal;font-weight:normal;font-stretch:normal;font-size:10px;font-family:'DejaVu Sans';fill:#000000;fill-opacity:1;stroke:none"
           gcodetools="Gcodetools tool definition field value"><tspan
             id="tspan900"
             sodipodi:role="line"
             y="65"
             x="150">90</tspan></text>
      </g>
      <g
         id="g914"
         gcodetools="Gcodetools tool parameter">
        <text
           id="text908"
           xml:space="preserve"
           y="80"
           x="0"
           style="font-style:normal;font-variant:normal;font-weight:normal;font-stretch:normal;font-size:10px;font-family:'DejaVu Sans';fill:#000000;fill-opacity:1;stroke:none"
           gcodetools="Gcodetools tool definition field name"><tspan
             id="tspan906"
             sodipodi:role="line"
             y="80"
             x="0">penetration feed</tspan></text>
        <text
           id="text912"
           xml:space="preserve"
           y="80"
           x="150"
           style="font-style:normal;font-variant:normal;font-weight:normal;font-stretch:normal;font-size:10px;font-family:'DejaVu Sans';fill:#000000;fill-opacity:1;stroke:none"
           gcodetools="Gcodetools tool definition field value"><tspan
             id="tspan910"
             sodipodi:role="line"
             y="80"
             x="150">1000</tspan></text>
      </g>
      <g
         id="g924"
         gcodetools="Gcodetools tool parameter">
        <text
           id="text918"
           xml:space="preserve"
           y="95"
           x="0"
           style="font-style:normal;font-variant:normal;font-weight:normal;font-stretch:normal;font-size:10px;font-family:'DejaVu Sans';fill:#000000;fill-opacity:1;stroke:none"
           gcodetools="Gcodetools tool definition field name"><tspan
             id="tspan916"
             sodipodi:role="line"
             y="95"
             x="0">depth step</tspan></text>
        <text
           id="text922"
           xml:space="preserve"
           y="95"
           x="150"
           style="font-style:normal;font-variant:normal;font-weight:normal;font-stretch:normal;font-size:10px;font-family:'DejaVu Sans';fill:#000000;fill-opacity:1;stroke:none"
           gcodetools="Gcodetools tool definition field value"><tspan
             id="tspan920"
             sodipodi:role="line"
             y="95"
             x="150">1</tspan></text>
      </g>
      <g
         id="g934"
         gcodetools="Gcodetools tool parameter">
        <text
           id="text928"
           xml:space="preserve"
           y="110"
           x="0"
           style="font-style:normal;font-variant:normal;font-weight:normal;font-stretch:normal;font-size:10px;font-family:'DejaVu Sans';fill:#000000;fill-opacity:1;stroke:none"
           gcodetools="Gcodetools tool definition field name"><tspan
             id="tspan926"
             sodipodi:role="line"
             y="110"
             x="0">tool change gcode</tspan></text>
        <text
           id="text932"
           xml:space="preserve"
           y="110"
           x="150"
           style="font-style:normal;font-variant:normal;font-weight:normal;font-stretch:normal;font-size:10px;font-family:'DejaVu Sans';fill:#000000;fill-opacity:1;stroke:none"
           gcodetools="Gcodetools tool definition field value"><tspan
             id="tspan930"
             sodipodi:role="line"
             y="110"
             x="150">(None)</tspan></text>
      </g>
    </g>
  </g>
</svg>
