<?xml version="1.0" encoding="UTF-8" standalone="no"?>
<!-- Created with Inkscape (http://www.inkscape.org/) -->

<svg
   xmlns:dc="http://purl.org/dc/elements/1.1/"
   xmlns:cc="http://creativecommons.org/ns#"
   xmlns:rdf="http://www.w3.org/1999/02/22-rdf-syntax-ns#"
   xmlns:svg="http://www.w3.org/2000/svg"
   xmlns="http://www.w3.org/2000/svg"
   xmlns:sodipodi="http://sodipodi.sourceforge.net/DTD/sodipodi-0.dtd"
   xmlns:inkscape="http://www.inkscape.org/namespaces/inkscape"
   sodipodi:docname="wine.svg"
   inkscape:version="0.92.2 5c3e80d, 2017-08-06"
   width="130mm"
   height="130mm"
   viewBox="0 0 491.33857 491.33857"
   version="1.1"
   id="svg16899">
  <sodipodi:namedview
     id="base"
     pagecolor="#ffffff"
     bordercolor="#666666"
     borderopacity="1.0"
     inkscape:pageopacity="0.0"
     inkscape:pageshadow="2"
     inkscape:zoom="1.4"
     inkscape:cx="279.92588"
     inkscape:cy="251.31538"
     inkscape:document-units="px"
     inkscape:current-layer="layer1"
     showgrid="false"
     inkscape:window-width="1920"
     inkscape:window-height="981"
     inkscape:window-x="0"
     inkscape:window-y="1"
     inkscape:window-maximized="1"
     units="mm" />
  <defs
     id="defs16893" />
  <metadata
     id="metadata16896">
    <rdf:RDF>
      <cc:Work
         rdf:about="">
        <dc:format>image/svg+xml</dc:format>
        <dc:type
           rdf:resource="http://purl.org/dc/dcmitype/StillImage" />
        <dc:title></dc:title>
      </cc:Work>
    </rdf:RDF>
  </metadata>
  <g
     inkscape:label="Layer 1"
     inkscape:groupmode="layer"
     id="layer1"
     transform="translate(0,-180.89764)">
    <path
       sodipodi:nodetypes="csccccssscscssccsssccccssscccsscccccscsscsscccccsssscccscsssccsssssccccscsssccccsscsscccsccccsscccscssccssccccscccscscccssscscsscccccccccccscccscsscccccssscsccscsccsccscccsccsssc"
       inkscape:connector-curvature="0"
       id="path18911"
       d="m 441.92062,490.17547 c -1.3553,-7.22433 -11.1732,-10.32477 -24.57884,-7.76187 -11.49843,2.19829 -17.41002,0.94986 -21.32653,-4.5038 l -2.04815,-2.85199 -3.65748,3.83163 c -4.35802,4.56551 -6.62146,5.38816 -14.94513,5.43176 -7.71084,0.0404 -10.38683,-1.20135 -11.9877,-5.56265 -1.43487,-3.90908 -2.68677,-11.09142 -3.97999,-22.83386 -1.5441,-14.02043 -2.80194,-18.5338 -5.16524,-18.5338 -1.39941,0 -6.60555,5.00862 -7.94692,7.6454 -2.59343,5.09806 -5.84615,18.67829 -7.27861,30.38856 -0.84453,6.904 -1.10314,7.80033 -2.62927,9.11304 -0.93094,0.80077 -2.27743,1.45593 -2.99219,1.45593 -1.14328,0 -1.25365,-0.2884 -0.91767,-2.39816 0.92964,-5.83758 1.6348,-17.91546 1.59618,-27.33916 -0.0511,-12.46331 -0.48274,-15.88958 -2.03957,-16.18889 -1.70681,-0.32814 -3.36965,4.06915 -6.28193,16.61229 -3.8484,16.57498 -5.7066,21.444 -9.99568,26.19149 -2.47941,2.74442 -6.32871,5.04097 -8.44924,5.04097 -0.70937,0 -1.76678,-0.72802 -2.3498,-1.61782 -1.18883,-1.81439 -1.03759,-5.17939 0.68898,-15.32926 0.5385,-3.16558 1.15327,-10.64787 1.36615,-16.62732 0.32056,-9.00384 0.22581,-11.08311 -0.55147,-12.10218 -0.9212,-1.20778 -0.99623,-1.20266 -4.06325,0.2765 -4.03228,1.94468 -10.59327,2.44595 -13.70252,1.0469 -1.21685,-0.54754 -3.4605,-1.94114 -4.98588,-3.09688 -2.57171,-1.94852 -2.83269,-2.02029 -3.5884,-0.9868 -1.46404,2.00219 -3.46717,9.51277 -6.07207,22.76676 -1.40744,7.16121 -3.08443,13.92006 -3.72664,15.01967 -2.08265,3.566 -5.8495,5.65725 -10.8022,5.99707 -3.90663,0.26804 -4.74876,0.10262 -7.89069,-1.55001 -1.93452,-1.01753 -4.06992,-2.70002 -4.74532,-3.73884 l -1.22801,-1.88876 -3.9404,3.88614 c -8.25874,8.14502 -17.72608,9.8455 -21.3683,3.83807 -2.42902,-4.00639 -2.85601,-8.2084 -2.99437,-29.46764 -0.0732,-11.25541 -0.32566,-22.47885 -0.5609,-24.94097 -1.01842,-10.65934 -4.38513,-23.6902 -10.29972,-34.48368 -5.27284,-6.43148 -18.87318,-11.01665 -41.83601,-16.65503 -8.46645,-2.07888 -9.98002,-2.26074 -18.83262,-2.26283 -12.08973,-0.003 -27.88043,-0.96568 -37.44505,-2.28318 -6.09842,-0.84005 -11.504578,-2.38398 -31.655862,-9.04047 -24.166983,-7.98299 -55.732903,-18.72312 -66.273299,-22.54912 l -5.5196445,-2.00355 0.74059,-3.3245 0.7405995,-3.32449 46.347347,0.14414 c 25.491035,0.0793 51.297099,0.43624 57.346819,0.79326 9.8722,0.58259 11.49572,0.84623 15.84135,2.5725 8.28564,3.29141 13.88346,6.40298 19.52381,10.85239 11.30544,8.91834 14.75877,10.67538 41.33739,21.03215 20.37169,7.93815 21.18487,6.70407 24.4354,11.79444 2.38163,3.72966 2.27947,2.34154 3.85947,4.91215 m -8.61029,9.34214 c -3.12354,0.0296 -9.49543,-0.91422 -8.38197,-2.66999 -0.98169,-1.50566 -8.25832,-3.33226 -29.76647,-9.5626 l -11.97985,-3.47025 -22.72297,-0.63689 C 102.99102,377.7148 105.20314,378.20401 49.532992,359.9755 11.096358,347.3899 2.2607116,344.10638 0.77996783,341.85778 0.00837718,340.68607 0.22570395,335.97325 1.2933276,330.72526 4.4437309,315.23911 13.835539,295.45812 19.40527,292.57789 c 1.788672,-0.92496 2.446249,-0.76948 15.83706,3.74462 32.716405,11.02883 75.01384,26.57048 82.39872,30.27637 5.77739,2.89922 8.49653,4.64153 26.24244,16.8151 15.75162,10.80549 20.94742,13.84895 30.03464,17.59286 13.19032,5.43438 28.45668,11.24622 29.58051,10.51429 2.03865,-1.32774 8.15827,1.71247 7.89118,2.67057 0,0 0.27758,1.22639 1.65053,1.1665 2.8436,0.16666 -4.96931,17.18692 -6.5585,19.55511 m 8.61029,-9.34214 c 4.04721,6.58471 6.42701,14.47838 8.54374,28.33919 1.2241,8.01561 1.39577,11.89167 1.4507,32.75346 0.0343,13.01407 0.30327,24.5253 0.5978,25.58049 2.27145,8.13798 6.40374,9.66228 14.04851,5.18214 4.37384,-2.56324 4.33981,-2.45475 4.48157,-14.28595 0.10851,-9.05587 0.34395,-11.37243 1.51584,-14.91474 1.6033,-4.84637 4.04601,-7.65188 5.75743,-6.61257 2.44229,1.48315 3.65047,5.37453 3.55362,11.44575 -0.10626,6.66268 -1.57526,11.55305 -5.03966,16.77736 -1.22094,1.84118 -2.21989,3.66733 -2.21989,4.05811 0,2.605 6.51213,7.62283 9.89289,7.62283 2.42363,0 6.98607,-4.58915 7.94946,-7.99601 0.39753,-1.40577 2.02519,-9.46268 3.61703,-17.90423 4.16811,-22.10365 4.15053,-22.06318 9.57839,-22.06318 3.26041,0 3.41291,0.0847 6.35946,3.53371 1.66042,1.94353 3.83944,3.958 4.84227,4.47658 3.92183,2.02806 8.4972,0.58372 13.04822,-4.11903 2.30854,-2.3855 2.81138,-2.61224 5.79326,-2.61224 5.54815,0 5.70349,0.31204 5.19542,10.43581 -0.24028,4.78776 -1.1417,12.52813 -2.00317,17.20083 -2.23954,12.14753 -2.94249,17.61705 -2.49389,19.40441 0.50145,1.99795 0.96652,1.96412 3.32828,-0.2421 1.55205,-1.44983 2.51405,-3.67832 4.90018,-11.35135 9.92265,-31.90813 10.59997,-33.71991 13.21703,-35.35429 3.51434,-2.19474 5.18982,1.63019 6.3435,14.48157 0.40131,4.4703 0.80052,8.20322 0.88714,8.29538 0.0866,0.0921 0.8172,-2.35397 1.62351,-5.43586 2.54083,-9.7114 5.80219,-14.82028 11.0972,-17.38354 3.51715,-1.70262 6.23157,-1.2361 9.01751,1.54985 4.23024,4.23023 6.32385,11.46525 7.39275,25.54753 1.24105,16.35029 3.049,20.17567 9.53542,20.17567 4.11612,0 7.8176,-2.07528 12.16643,-6.82127 3.51782,-3.83907 3.75647,-4.2871 3.1227,-5.86225 -0.37742,-0.93803 -0.82985,-5.50196 -1.0054,-10.14208 -0.36337,-9.60457 0.90412,-18.69245 3.25729,-23.35464 1.36285,-2.70013 1.43482,-2.74209 4.66336,-2.71937 6.72249,0.0473 11.64256,5.82236 10.92053,12.81818 -0.41677,4.03819 -3.40772,10.55138 -8.13153,17.70751 l -3.2796,4.96828 2.07501,4.5018 c 2.48915,5.40026 5.00222,7.8163 7.496,7.20662 0.94034,-0.2299 3.93576,-1.70513 6.6565,-3.2783 l 4.94679,-2.86029 7.20394,0.33949 c 10.85601,0.51159 14.91106,2.23483 17.6523,7.50148 1.46231,2.8095 1.48677,3.14678 1.11249,15.34314 -0.21049,6.85877 -0.55289,13.90939 -0.7609,15.66805 l -1.13768,7.78418 m -7.18382,-3.66315 23.83634,-0.92347 c 8.73461,-0.3384 16.6741,0.21873 17.62877,0.48607 2.03057,0.56862 2.13845,0.89599 5.3407,16.20587 5.68563,27.18291 5.38675,44.83072 -0.89209,52.67379 -0.99494,1.24281 -4.37622,4.21649 -7.51398,6.60821 -9.7252,7.4129 -11.6083,9.42691 -12.15767,13.00291 -0.26304,1.7121 -0.13216,14.18424 0.29082,27.71585 0.73326,23.45755 0.83081,24.66867 2.09547,26.01483 1.21759,1.29606 7.39266,3.53451 17.25259,6.25403 6.98608,1.92688 6.16032,3.61959 -2.5596,5.24683 -4.68207,0.87373 -27.47326,1.72501 -30.77125,1.14933 h 5e-5 c -0.87934,-0.15348 -3.6724,-0.60467 -6.20682,-1.00264 -2.53441,-0.39796 -5.52514,-1.28131 -6.64606,-1.96298 -1.83621,-1.11667 -1.94038,-1.33705 -1.05196,-2.22548 0.54235,-0.54234 4.05138,-1.81926 7.79784,-2.83758 9.49114,-2.57981 12.81947,-4.36196 13.82255,-7.40132 1.50389,-4.55684 -0.24778,-47.37096 -2.17705,-53.21089 -0.56551,-1.71183 -2.56871,-3.7311 -8.41631,-8.48395 -10.69445,-8.69225 -13.41256,-11.75831 -15.0106,-16.93215 -1.70384,-5.51643 -1.72761,-16.14169 -0.0614,-27.40658 1.69013,-11.42599 4.49591,-32.41215 5.39963,-32.97068 m 7.18382,3.66315 c -0.22843,1.94353 -1.30566,7.46224 -2.39385,12.26378 -2.51153,11.08189 -2.80115,19.00439 -0.83197,22.75809 1.80629,3.44315 5.13037,5.07701 10.93696,5.37575 7.27274,0.37416 11.47142,-1.63595 13.70929,-6.56324 2.02654,-4.46199 1.65214,-6.22434 -2.25181,-10.59958 -1.98849,-2.22853 -3.89572,-5.14822 -4.47659,-6.85297 -1.72459,-5.06138 -1.06138,-15.91517 1.0523,-17.22149 0.40589,-0.25085 0.8582,-0.0954 1.00515,0.34542 0.14694,0.44083 2.32227,2.10968 4.83408,3.70854 7.18279,4.57215 9.95201,7.11031 13.22092,12.11777 3.92737,6.01613 4.97954,9.15612 6.07589,18.13229 1.63347,13.37375 0.78541,20.9837 -3.04894,27.35935 -2.44711,4.06898 -12.37583,11.96572 -18.87826,15.0147 -5.68698,2.6666 -6.85165,2.13986 -18.50201,-8.36778 -9.46518,-8.53678 -10.77692,-11.92061 -10.70354,-27.61115 0.0423,-9.03367 0.39135,-12.61023 2.42619,-24.85691 1.30728,-7.86772 4.31032,-22.43453 4.53805,-23.95618 0.36113,-2.41298 1.87292,-19.02406 1.34687,-21.8282 M 249.88787,460.09358 c 2.04865,-7.86153 2.75976,-13.81055 1.84474,-15.43263 -0.59667,-1.05772 -0.82248,-0.86016 -1.96951,1.72314 -0.71256,1.60481 -1.75982,4.62651 -2.32724,6.71488 -1.17057,4.30824 -1.97428,14.30683 -1.29108,16.06164 0.38986,1.00135 0.56773,0.89543 1.26511,-0.75337 0.44631,-1.0552 1.5614,-4.79635 2.47798,-8.31366 z m 153.80615,-12.52239 c 0.59925,-10.35172 -3.75868,-16.81918 -6.2489,-9.27377 -1.58962,4.8166 -1.77168,20.20082 -0.29337,24.78965 0.4129,1.2817 0.86963,0.67311 3.36328,-4.4815 2.4896,-5.14622 2.92577,-6.66019 3.17899,-11.03438 z m -95.33464,-22.81183 c -1.14023,-1.25996 -2.38192,-4.22371 -2.38192,-5.68539 0,-1.25153 3.45102,-4.70552 4.70147,-4.70552 2.65869,0 3.98419,5.56992 2.34899,9.87081 -0.74325,1.95489 -3.12949,2.22073 -4.66854,0.5201 z"
       style="fill:none;stroke:#000000;stroke-width:0.6395123" />
    <g
       id="g18999"
       transform="translate(538.49731,207.49227)"
       gcodetools="Gcodetools tool definition">
      <path
         id="path18917"
         d="M -20,-20 H 380 V 155 H -20 Z"
         style="fill:#00ff00;fill-opacity:0.5;stroke:#444444;stroke-width:1px"
         gcodetools="Gcodetools tool background"
         inkscape:connector-curvature="0" />
      <g
         id="g18927"
         gcodetools="Gcodetools tool parameter">
        <text
           id="text18921"
           xml:space="preserve"
           y="0"
           x="0"
           style="font-style:normal;font-variant:normal;font-weight:normal;font-stretch:normal;font-size:20px;font-family:'DejaVu Sans';fill:#000000;fill-opacity:1;stroke:none"
           gcodetools="Gcodetools tool definition field name"><tspan
             id="tspan18919"
             sodipodi:role="line"
             y="0"
             x="0">name</tspan></text>
        <text
           id="text18925"
           xml:space="preserve"
           y="0"
           x="150"
           style="font-style:normal;font-variant:normal;font-weight:normal;font-stretch:normal;font-size:20px;font-family:'DejaVu Sans';fill:#000000;fill-opacity:1;stroke:none"
           gcodetools="Gcodetools tool definition field value"><tspan
             id="tspan18923"
             sodipodi:role="line"
             y="0"
             x="150">Cylindrical cutter</tspan></text>
      </g>
      <g
         id="g18937"
         gcodetools="Gcodetools tool parameter">
        <text
           id="text18931"
           xml:space="preserve"
           y="20"
           x="0"
           style="font-style:normal;font-variant:normal;font-weight:normal;font-stretch:normal;font-size:10px;font-family:'DejaVu Sans';fill:#000000;fill-opacity:1;stroke:none"
           gcodetools="Gcodetools tool definition field name"><tspan
             id="tspan18929"
             sodipodi:role="line"
             y="20"
             x="0">id</tspan></text>
        <text
           id="text18935"
           xml:space="preserve"
           y="20"
           x="150"
           style="font-style:normal;font-variant:normal;font-weight:normal;font-stretch:normal;font-size:10px;font-family:'DejaVu Sans';fill:#000000;fill-opacity:1;stroke:none"
           gcodetools="Gcodetools tool definition field value"><tspan
             id="tspan18933"
             sodipodi:role="line"
             y="20"
             x="150">Cylindrical cutter 0001</tspan></text>
      </g>
      <g
         id="g18947"
         gcodetools="Gcodetools tool parameter">
        <text
           id="text18941"
           xml:space="preserve"
           y="35"
           x="0"
           style="font-style:normal;font-variant:normal;font-weight:normal;font-stretch:normal;font-size:10px;font-family:'DejaVu Sans';fill:#000000;fill-opacity:1;stroke:none"
           gcodetools="Gcodetools tool definition field name"><tspan
             id="tspan18939"
             sodipodi:role="line"
             y="35"
             x="0">diameter</tspan></text>
        <text
           id="text18945"
           xml:space="preserve"
           y="35"
           x="150"
           style="font-style:normal;font-variant:normal;font-weight:normal;font-stretch:normal;font-size:10px;font-family:'DejaVu Sans';fill:#000000;fill-opacity:1;stroke:none"
           gcodetools="Gcodetools tool definition field value"><tspan
             id="tspan18943"
             sodipodi:role="line"
             y="35"
             x="150">10</tspan></text>
      </g>
      <g
         id="g18957"
         gcodetools="Gcodetools tool parameter">
        <text
           id="text18951"
           xml:space="preserve"
           y="50"
           x="0"
           style="font-style:normal;font-variant:normal;font-weight:normal;font-stretch:normal;font-size:10px;font-family:'DejaVu Sans';fill:#000000;fill-opacity:1;stroke:none"
           gcodetools="Gcodetools tool definition field name"><tspan
             id="tspan18949"
             sodipodi:role="line"
             y="50"
             x="0">feed</tspan></text>
        <text
           id="text18955"
           xml:space="preserve"
           y="50"
           x="150"
           style="font-style:normal;font-variant:normal;font-weight:normal;font-stretch:normal;font-size:10px;font-family:'DejaVu Sans';fill:#000000;fill-opacity:1;stroke:none"
           gcodetools="Gcodetools tool definition field value"><tspan
             id="tspan18953"
             sodipodi:role="line"
             y="50"
             x="150">1100</tspan></text>
      </g>
      <g
         id="g18967"
         gcodetools="Gcodetools tool parameter">
        <text
           id="text18961"
           xml:space="preserve"
           y="65"
           x="0"
           style="font-style:normal;font-variant:normal;font-weight:normal;font-stretch:normal;font-size:10px;font-family:'DejaVu Sans';fill:#000000;fill-opacity:1;stroke:none"
           gcodetools="Gcodetools tool definition field name"><tspan
             id="tspan18959"
             sodipodi:role="line"
             y="65"
             x="0">penetration angle</tspan></text>
        <text
           id="text18965"
           xml:space="preserve"
           y="65"
           x="150"
           style="font-style:normal;font-variant:normal;font-weight:normal;font-stretch:normal;font-size:10px;font-family:'DejaVu Sans';fill:#000000;fill-opacity:1;stroke:none"
           gcodetools="Gcodetools tool definition field value"><tspan
             id="tspan18963"
             sodipodi:role="line"
             y="65"
             x="150">90</tspan></text>
      </g>
      <g
         id="g18977"
         gcodetools="Gcodetools tool parameter">
        <text
           id="text18971"
           xml:space="preserve"
           y="80"
           x="0"
           style="font-style:normal;font-variant:normal;font-weight:normal;font-stretch:normal;font-size:10px;font-family:'DejaVu Sans';fill:#000000;fill-opacity:1;stroke:none"
           gcodetools="Gcodetools tool definition field name"><tspan
             id="tspan18969"
             sodipodi:role="line"
             y="80"
             x="0">penetration feed</tspan></text>
        <text
           id="text18975"
           xml:space="preserve"
           y="80"
           x="150"
           style="font-style:normal;font-variant:normal;font-weight:normal;font-stretch:normal;font-size:10px;font-family:'DejaVu Sans';fill:#000000;fill-opacity:1;stroke:none"
           gcodetools="Gcodetools tool definition field value"><tspan
             id="tspan18973"
             sodipodi:role="line"
             y="80"
             x="150">1000</tspan></text>
      </g>
      <g
         id="g18987"
         gcodetools="Gcodetools tool parameter">
        <text
           id="text18981"
           xml:space="preserve"
           y="95"
           x="0"
           style="font-style:normal;font-variant:normal;font-weight:normal;font-stretch:normal;font-size:10px;font-family:'DejaVu Sans';fill:#000000;fill-opacity:1;stroke:none"
           gcodetools="Gcodetools tool definition field name"><tspan
             id="tspan18979"
             sodipodi:role="line"
             y="95"
             x="0">depth step</tspan></text>
        <text
           id="text18985"
           xml:space="preserve"
           y="95"
           x="150"
           style="font-style:normal;font-variant:normal;font-weight:normal;font-stretch:normal;font-size:10px;font-family:'DejaVu Sans';fill:#000000;fill-opacity:1;stroke:none"
           gcodetools="Gcodetools tool definition field value"><tspan
             id="tspan18983"
             sodipodi:role="line"
             y="95"
             x="150">1</tspan></text>
      </g>
      <g
         id="g18997"
         gcodetools="Gcodetools tool parameter">
        <text
           id="text18991"
           xml:space="preserve"
           y="110"
           x="0"
           style="font-style:normal;font-variant:normal;font-weight:normal;font-stretch:normal;font-size:10px;font-family:'DejaVu Sans';fill:#000000;fill-opacity:1;stroke:none"
           gcodetools="Gcodetools tool definition field name"><tspan
             id="tspan18989"
             sodipodi:role="line"
             y="110"
             x="0">tool change gcode</tspan></text>
        <text
           id="text18995"
           xml:space="preserve"
           y="110"
           x="150"
           style="font-style:normal;font-variant:normal;font-weight:normal;font-stretch:normal;font-size:10px;font-family:'DejaVu Sans';fill:#000000;fill-opacity:1;stroke:none"
           gcodetools="Gcodetools tool definition field value"><tspan
             id="tspan18993"
             sodipodi:role="line"
             y="110"
             x="150">(None)</tspan></text>
      </g>
    </g>
  </g>
</svg>
