<?xml version="1.0" encoding="UTF-8" standalone="no"?>
<svg
   xmlns:dc="http://purl.org/dc/elements/1.1/"
   xmlns:cc="http://creativecommons.org/ns#"
   xmlns:rdf="http://www.w3.org/1999/02/22-rdf-syntax-ns#"
   xmlns:svg="http://www.w3.org/2000/svg"
   xmlns="http://www.w3.org/2000/svg"
   xmlns:xlink="http://www.w3.org/1999/xlink"
   id="svg5330"
   version="1.1"
   viewBox="0 0 210 297"
   height="297mm"
   width="210mm">
  <defs
     id="defs5324" />
  <metadata
     id="metadata5327">
    <rdf:RDF>
      <cc:Work
         rdf:about="">
        <dc:format>image/svg+xml</dc:format>
        <dc:type
           rdf:resource="http://purl.org/dc/dcmitype/StillImage" />
        <dc:title></dc:title>
      </cc:Work>
    </rdf:RDF>
  </metadata>
  <g
     id="g7704">
    <path
       id="path5455"
       d="m 81.749531,17.083195 a 61.838913,61.838913 0 0 0 -32.591808,8.92762 61.838913,61.838913 0 0 0 -20.724318,84.962255 61.838913,61.838913 0 0 0 8.915736,11.30784 c 1.603891,-1.90593 3.620529,-3.58779 5.956742,-4.95371 5.14732,-3.00948 11.722928,-4.62621 18.317744,-4.6302 a 3.2086724,3.2086724 0 0 1 0.0031,0 c 6.283248,0.004 12.470894,1.55216 17.502809,4.29069 0.753864,-0.62025 1.556663,-1.20441 2.400369,-1.75338 A 60.245132,61.838913 58.707931 0 1 68.004118,99.976841 60.245132,61.838913 58.707931 0 1 61.942471,86.06348 10.200233,10.518991 0 0 0 69.583349,75.888907 10.200233,10.518991 0 0 0 59.586542,65.380504 60.245132,61.838913 58.707931 0 1 87.919696,17.450097 61.838913,61.838913 0 0 0 81.749531,17.083195 Z"
       style="fill:#ffdd55;stroke-width:0.22313011" />
    <path
       id="path5462"
       d="m 44.802137,52.554869 a 9.5241251,9.5241251 0 0 0 -9.393113,8.020406 h 1.747473 a 8.6122404,10.48667 0 0 1 7.746898,-5.935203 8.6122404,10.48667 0 0 1 7.750702,5.935203 h 1.547656 a 9.5241251,9.5241251 0 0 0 -9.399616,-8.020406 z"
       style="fill:#5fbcd3;stroke-width:0.17544441" />
    <circle
       r="9.5627193"
       cy="86.662773"
       cx="42.871803"
       id="path5474"
       style="fill:#ffaaaa;stroke-width:0.22313011" />
    <path
       d="m 96.404894,105.9764 -3.894349,-0.0687 7.261808,-44.464279 h 4.260887 l 7.30762,44.464279 -4.14633,0.11454 -1.14539,-8.086499 -8.315587,0.137448 z m 5.474986,-26.619009 1.62648,13.790571 -3.665289,0.04582 z m -3.459092,-19.517549 -7.788693,47.625568 7.124361,0.16036 1.328663,-7.971958 5.589541,-0.09163 1.1454,8.109408 7.39925,-0.20618 -7.8116,-47.625567 z m -0.435254,35.003307 7.330546,-0.09163 -3.25293,-27.191706 z"
       style="font-style:normal;font-variant:normal;font-weight:100;font-stretch:normal;font-size:45.25080872px;line-height:1.25;font-family:'Alimentary Outline';-inkscape-font-specification:'Alimentary Outline, Thin';font-variant-ligatures:normal;font-variant-caps:normal;font-variant-numeric:normal;font-feature-settings:normal;text-align:center;letter-spacing:0px;word-spacing:0px;writing-mode:lr-tb;text-anchor:middle;fill:#5fbcd3;fill-opacity:1;stroke:none;stroke-width:1.17284763"
       id="path5380" />
    <g
       style="fill:#5fbcd3"
       transform="matrix(1.068786,0,0,1.068786,-7.1599678,27.367986)"
       id="g5453">
      <path
         id="path5396"
         style="font-style:normal;font-variant:normal;font-weight:100;font-stretch:normal;font-size:45.25080872px;line-height:1.25;font-family:'Alimentary Outline';-inkscape-font-specification:'Alimentary Outline, Thin';font-variant-ligatures:normal;font-variant-caps:normal;font-variant-numeric:normal;font-feature-settings:normal;text-align:center;letter-spacing:0px;word-spacing:0px;writing-mode:lr-tb;text-anchor:middle;fill:#5fbcd3;fill-opacity:1;stroke:none;stroke-width:1.13123345"
         d="m 54.24496,184.60957 v 0.0221 c -2.364178,0 -4.131787,-0.928 -5.258639,-2.76189 -1.126851,-1.85599 -1.701324,-4.97141 -1.701324,-9.39043 l 0.0221,-0.9059 3.689885,-0.0442 v 0.66285 c 0,5.54588 1.082661,8.32986 3.270078,8.32986 2.342083,0 3.513125,-1.39199 3.513125,-4.17597 0,-2.91656 -1.72342,-7.11463 -5.192354,-12.59422 -3.292173,-5.14817 -4.949307,-9.67767 -4.949307,-13.5885 0.132571,-6.12035 2.518844,-9.19157 7.158819,-9.19157 4.5295,0 6.783203,4.13178 6.783203,12.41745 l -3.866647,0.0663 v -0.48609 c 0,-5.32493 -1.060566,-7.99844 -3.159602,-7.99844 -1.900181,0 -2.894461,1.67923 -2.960746,5.0156 0,3.07122 1.723419,7.13672 5.170258,12.1965 3.203793,4.75045 4.816737,9.30205 4.816737,13.67688 0,5.83312 -2.452559,8.74967 -7.335581,8.74967 z m 0,1.54666 c 5.921493,0 8.882239,-3.42474 8.882239,-10.29633 0,-4.70626 -1.701324,-9.54509 -5.081878,-14.56068 -3.270078,-4.79464 -4.905117,-8.57291 -4.905117,-11.3127 0.04419,-2.31999 0.508188,-3.46894 1.414088,-3.46894 1.082661,0 1.612944,2.14323 1.612944,6.45178 l -0.04419,2.07694 7.004153,-0.15467 c 0,-10.31842 -2.783985,-15.46658 -8.329861,-15.46658 -5.634256,0 -8.550812,3.57941 -8.705478,10.73823 0,4.19807 1.72342,9.01481 5.170259,14.42811 3.314268,5.21445 4.971402,9.12529 4.971402,11.75461 0,1.74551 -0.662853,2.62932 -1.966466,2.62932 -1.148946,0 -1.723419,-2.25371 -1.723419,-6.78321 l 0.04419,-2.20951 -6.827392,0.0442 -0.0221,2.45256 c 0,4.70626 0.684949,8.1531 2.032752,10.36261 1.347802,2.20951 3.513124,3.31427 6.47387,3.31427 z" />
      <path
         id="path5398"
         style="font-style:normal;font-variant:normal;font-weight:100;font-stretch:normal;font-size:45.25080872px;line-height:1.25;font-family:'Alimentary Outline';-inkscape-font-specification:'Alimentary Outline, Thin';font-variant-ligatures:normal;font-variant-caps:normal;font-variant-numeric:normal;font-feature-settings:normal;text-align:center;letter-spacing:0px;word-spacing:0px;writing-mode:lr-tb;text-anchor:middle;fill:#5fbcd3;fill-opacity:1;stroke:none;stroke-width:1.13123345"
         d="m 66.883369,184.0351 v -42.86454 h 3.999217 l -0.265141,38.13618 7.357675,-0.0663 0.06629,4.72835 z m 5.545876,-44.4112 h -7.092534 v 45.95786 l 14.295543,-0.0663 -0.13257,-7.84377 -7.335581,0.0663 z" />
      <path
         id="path5400"
         style="font-style:normal;font-variant:normal;font-weight:100;font-stretch:normal;font-size:45.25080872px;line-height:1.25;font-family:'Alimentary Outline';-inkscape-font-specification:'Alimentary Outline, Thin';font-variant-ligatures:normal;font-variant-caps:normal;font-variant-numeric:normal;font-feature-settings:normal;text-align:center;letter-spacing:0px;word-spacing:0px;writing-mode:lr-tb;text-anchor:middle;fill:#5fbcd3;fill-opacity:1;stroke:none;stroke-width:1.13123345"
         d="m 110.16771,184.4991 c -5.59007,0 -8.39615,-6.98206 -8.46243,-20.92408 0.0221,-15.35611 2.91655,-23.02312 8.68338,-23.02312 2.56304,0 4.48531,1.54666 5.74473,4.61788 1.25942,3.07122 1.90018,8.44034 1.90018,16.10734 l -12.08603,0.39772 c 0.0221,12.50583 1.41409,18.75875 4.22017,18.75875 2.51884,0 3.77827,-2.49675 3.77827,-7.49024 l 3.80036,0.0663 c 0,7.64491 -2.51885,11.46737 -7.57863,11.48947 z m 2.38627,-28.12709 -4.77254,0.19885 c 0,-2.89446 0.22095,-5.36911 0.68495,-7.42396 0.46399,-2.07694 1.01637,-3.09332 1.70132,-3.09332 0.70704,0 1.28152,0.95009 1.72342,2.82818 0.4419,1.90018 0.66285,4.39693 0.66285,7.49025 z M 90.083245,184.477 c -5.590066,0 -8.396146,-6.98206 -8.462432,-20.92408 0.0221,-15.35611 2.916556,-23.02312 8.683383,-23.02312 2.563034,0 4.48531,1.54666 5.744731,4.61788 1.259422,3.07123 1.900181,9.03691 1.900181,17.87496 l -12.086031,0.39771 c 0.02209,11.3348 1.414087,16.99115 4.220168,16.99115 2.673509,0 3.999217,-2.93865 3.999217,-8.79386 l 3.800361,0.24305 c 0,8.39614 -2.607225,12.59422 -7.799578,12.61631 z m 2.386273,-26.33738 -4.772546,0.17676 c 0,-2.89446 0.243046,-5.67845 0.707043,-8.30777 0.463998,-2.62932 1.038471,-3.95503 1.67923,-3.95503 0.684948,0 1.237327,1.23733 1.701324,3.71198 0.463998,2.47466 0.684949,5.25864 0.684949,8.37406 z m 17.742382,27.88404 c 6.07616,-0.0221 9.12529,-4.86093 9.12529,-14.53859 l -6.89368,-0.15467 c 0,5.0156 -0.75124,7.53444 -2.23161,7.53444 -1.76761,0 -2.65141,-5.23654 -2.67351,-15.70963 l 12.08603,-0.39771 c 0,-8.86015 -0.72914,-15.04678 -2.16532,-18.53781 -1.43618,-3.49103 -3.77827,-5.23654 -7.02625,-5.23654 -3.77826,0 -6.40758,2.2316 -7.93215,6.67272 -1.52456,4.44112 -2.29789,10.4068 -2.29789,17.89705 0.0663,14.98049 3.40265,22.47074 10.00909,22.47074 z m -3.91084,-27.75147 v 0.0221 l 7.84377,-0.4419 c -0.0221,-4.19807 -0.28723,-7.46815 -0.83961,-9.83233 -0.55238,-2.36418 -1.56876,-3.53522 -3.09332,-3.53522 -1.50247,0 -2.51884,1.23733 -3.07122,3.73408 -0.55238,2.49674 -0.83962,5.83311 -0.83962,10.05328 z m -16.19572,27.72937 c 6.230824,-0.0221 9.346236,-5.21444 9.346236,-15.62125 l -6.893678,-0.4198 c 0,5.92149 -0.817519,8.88223 -2.452558,8.88223 -1.76761,0 -2.651415,-4.63997 -2.67351,-13.94202 l 12.086032,-0.39771 c 0,-10.05328 -0.729139,-16.81439 -2.165322,-20.30542 -1.436183,-3.49103 -3.778266,-5.23654 -7.026249,-5.23654 -3.778266,0 -6.407585,2.23161 -7.932149,6.67273 -1.524563,4.44112 -2.297892,10.4068 -2.297892,17.89705 0.06629,14.98049 3.402649,22.47073 10.00909,22.47073 z m -3.910837,-26.09433 7.843768,-0.30934 c -0.02209,-4.17597 -0.287236,-7.75538 -0.817519,-10.69404 -0.530283,-2.93865 -1.568754,-4.41902 -3.115412,-4.41902 -2.607225,0 -3.910837,5.14816 -3.910837,15.4224 z" />
      <path
         id="path5402"
         style="font-style:normal;font-variant:normal;font-weight:100;font-stretch:normal;font-size:45.25080872px;line-height:1.25;font-family:'Alimentary Outline';-inkscape-font-specification:'Alimentary Outline, Thin';font-variant-ligatures:normal;font-variant-caps:normal;font-variant-numeric:normal;font-feature-settings:normal;text-align:center;letter-spacing:0px;word-spacing:0px;writing-mode:lr-tb;text-anchor:middle;fill:#5fbcd3;fill-opacity:1;stroke:none;stroke-width:1.13123345"
         d="m 127.73334,169.5186 0.28723,14.73745 h -4.24226 l -0.19886,-42.95292 c 1.03848,-0.11047 2.54094,-0.17676 4.5295,-0.17676 7.22511,0 10.82661,4.57369 10.82661,13.74317 -0.0221,9.65557 -3.75617,14.53859 -11.20222,14.64906 z m 1.65713,-5.65635 -0.15466,-16.85858 c 2.78398,0.35353 4.17597,3.2038 4.17597,8.57291 0,5.05978 -1.3478,7.82167 -4.02131,8.28567 z m -7.13672,21.94046 h 7.33558 l -0.28724,-14.75954 c 7.44606,-0.86171 11.15804,-6.25292 11.18013,-16.17363 0,-10.18585 -4.13179,-15.28983 -12.37327,-15.28983 -2.05484,0 -4.0655,0.11048 -6.07615,0.35353 z m 12.70469,-30.22613 c -0.0221,-6.76111 -2.45256,-10.14166 -7.29139,-10.16375 l 0.19886,19.99608 c 4.70626,-0.0221 7.07044,-3.29217 7.09253,-9.83233 z" />
      <path
         id="path5404"
         style="font-style:normal;font-variant:normal;font-weight:100;font-stretch:normal;font-size:45.25080872px;line-height:1.25;font-family:'Alimentary Outline';-inkscape-font-specification:'Alimentary Outline, Thin';font-variant-ligatures:normal;font-variant-caps:normal;font-variant-numeric:normal;font-feature-settings:normal;text-align:center;letter-spacing:0px;word-spacing:0px;writing-mode:lr-tb;text-anchor:middle;fill:#5fbcd3;fill-opacity:1;stroke:none;stroke-width:1.13123345"
         d="m 149.96102,184.60957 v 0.0221 c -2.36417,0 -4.13178,-0.928 -5.25863,-2.76189 -1.12686,-1.85599 -1.70133,-4.97141 -1.70133,-9.39043 l 0.0221,-0.9059 3.68988,-0.0442 v 0.66285 c 0,5.54588 1.08266,8.32986 3.27008,8.32986 2.34208,0 3.51312,-1.39199 3.51312,-4.17597 0,-2.91656 -1.72342,-7.11463 -5.19235,-12.59422 -3.29217,-5.14817 -4.94931,-9.67767 -4.94931,-13.5885 0.13257,-6.12035 2.51885,-9.19157 7.15882,-9.19157 4.5295,0 6.7832,4.13178 6.7832,12.41745 l -3.86664,0.0663 v -0.48609 c 0,-5.32493 -1.06057,-7.99844 -3.1596,-7.99844 -1.90018,0 -2.89446,1.67923 -2.96075,5.0156 0,3.07122 1.72342,7.13672 5.17026,12.1965 3.20379,4.75045 4.81673,9.30205 4.81673,13.67688 0,5.83312 -2.45255,8.74967 -7.33558,8.74967 z m 0,1.54666 c 5.9215,0 8.88224,-3.42474 8.88224,-10.29633 0,-4.70626 -1.70132,-9.54509 -5.08187,-14.56068 -3.27008,-4.79464 -4.90512,-8.57291 -4.90512,-11.3127 0.0442,-2.31999 0.50819,-3.46894 1.41409,-3.46894 1.08266,0 1.61294,2.14323 1.61294,6.45178 l -0.0442,2.07694 7.00415,-0.15467 c 0,-10.31842 -2.78398,-15.46658 -8.32986,-15.46658 -5.63425,0 -8.55081,3.57941 -8.70548,10.73823 0,4.19807 1.72342,9.01481 5.17026,14.42811 3.31427,5.21445 4.97141,9.12529 4.97141,11.75461 0,1.74551 -0.66286,2.62932 -1.96647,2.62932 -1.14895,0 -1.72342,-2.25371 -1.72342,-6.78321 l 0.0442,-2.20951 -6.82739,0.0442 -0.0221,2.45256 c 0,4.70626 0.68495,8.1531 2.03275,10.36261 1.34781,2.20951 3.51313,3.31427 6.47387,3.31427 z" />
    </g>
    <g
       style="fill:#5fbcd3"
       transform="matrix(1.068786,0,0,1.068786,-7.4717608,25.516051)"
       id="g5446">
      <path
         id="path5406"
         style="font-style:normal;font-variant:normal;font-weight:100;font-stretch:normal;font-size:45.25080872px;line-height:1.25;font-family:'Alimentary Outline';-inkscape-font-specification:'Alimentary Outline, Thin';font-variant-ligatures:normal;font-variant-caps:normal;font-variant-numeric:normal;font-feature-settings:normal;text-align:center;letter-spacing:0px;word-spacing:0px;writing-mode:lr-tb;text-anchor:middle;fill:#5fbcd3;fill-opacity:1;stroke:none;stroke-width:1.13123345"
         d="m 75.500467,236.71988 v -14.60487 l -8.528717,0.19885 0.110476,12.63841 H 63.21558 L 63.038819,194.0763 h 3.734075 l 0.154666,23.66387 8.572907,-0.30933 v -25.12215 h 3.778266 l 0.220951,44.41119 z m -6.959963,-12.88145 5.413305,-0.13257 v 14.56068 h 7.092534 l -0.220952,-47.50451 h -6.871582 v 25.16634 l -5.501686,0.22096 -0.154666,-23.61969 H 61.49216 l 0.176761,43.96929 h 6.982058 z" />
      <path
         id="path5408"
         style="font-style:normal;font-variant:normal;font-weight:100;font-stretch:normal;font-size:45.25080872px;line-height:1.25;font-family:'Alimentary Outline';-inkscape-font-specification:'Alimentary Outline, Thin';font-variant-ligatures:normal;font-variant-caps:normal;font-variant-numeric:normal;font-feature-settings:normal;text-align:center;letter-spacing:0px;word-spacing:0px;writing-mode:lr-tb;text-anchor:middle;fill:#5fbcd3;fill-opacity:1;stroke:none;stroke-width:1.13123345"
         d="m 93.50799,236.30008 c -5.590066,0 -8.396146,-6.98206 -8.462431,-20.92408 0.0221,-15.35611 2.916556,-23.02312 8.683382,-23.02312 2.563034,0 4.48531,1.54666 5.744732,4.61788 1.259417,3.07122 1.900177,9.0369 1.900177,17.87495 l -12.086028,0.39772 c 0.02209,11.33479 1.414088,16.99114 4.220168,16.99114 2.67351,0 3.999217,-2.93865 3.999217,-8.79385 l 3.800363,0.24304 c 0,8.39615 -2.607226,12.59422 -7.79958,12.61632 z m 2.386273,-26.33739 -4.772546,0.17676 c 0,-2.89446 0.243046,-5.67844 0.707044,-8.30776 0.463997,-2.62932 1.038471,-3.95503 1.679229,-3.95503 0.684949,0 1.237327,1.23733 1.701324,3.71198 0.463998,2.47465 0.684949,5.25864 0.684949,8.37405 z m -2.364178,27.88404 c 6.230824,-0.0221 9.346235,-5.21444 9.346235,-15.62125 l -6.893676,-0.4198 c 0,5.92149 -0.81752,8.88224 -2.452559,8.88224 -1.767609,0 -2.651414,-4.63998 -2.673509,-13.94203 l 12.086034,-0.39771 c 0,-10.05328 -0.72914,-16.81439 -2.16532,-20.30541 -1.436188,-3.49103 -3.778271,-5.23655 -7.026254,-5.23655 -3.778265,0 -6.407585,2.23161 -7.932148,6.67273 -1.524564,4.44112 -2.297893,10.4068 -2.297893,17.89705 0.06629,14.98049 3.402649,22.47073 10.00909,22.47073 z m -3.910836,-26.09433 7.843768,-0.30934 c -0.02209,-4.17597 -0.287237,-7.75538 -0.81752,-10.69403 -0.530283,-2.93866 -1.568753,-4.41903 -3.115412,-4.41903 -2.607224,0 -3.910836,5.14816 -3.910836,15.4224 z" />
      <path
         id="path5410"
         style="font-style:normal;font-variant:normal;font-weight:100;font-stretch:normal;font-size:45.25080872px;line-height:1.25;font-family:'Alimentary Outline';-inkscape-font-specification:'Alimentary Outline, Thin';font-variant-ligatures:normal;font-variant-caps:normal;font-variant-numeric:normal;font-feature-settings:normal;text-align:center;letter-spacing:0px;word-spacing:0px;writing-mode:lr-tb;text-anchor:middle;fill:#5fbcd3;fill-opacity:1;stroke:none;stroke-width:1.13123345"
         d="m 112.24465,212.6583 h -0.0221 l -0.24305,-14.64907 c 1.17104,0 2.2537,0.57447 3.24798,1.74552 1.01638,1.17104 1.50247,2.93865 1.50247,5.32492 0,2.65141 -0.48609,4.5295 -1.43618,5.61216 -0.97219,1.10476 -1.98856,1.76761 -3.04913,1.96647 z m -1.8118,-16.19573 0.30933,18.07381 c 2.60723,-0.37562 4.50741,-1.30361 5.72264,-2.73979 1.21523,-1.43619 1.8118,-3.68989 1.8118,-6.71692 0,-5.74473 -2.60722,-8.6171 -7.84377,-8.6171 z m 0.37562,21.63113 0.55238,17.96333 h -4.30855 l -0.15467,-42.97501 c 1.78971,-0.11048 3.35846,-0.17676 4.70626,-0.17676 6.91578,0 10.36262,4.30855 10.36262,12.92564 0,4.5516 -1.8118,8.1531 -5.41331,10.82661 l 5.25864,17.05744 -4.5074,1.06056 -3.97713,-16.83648 z m -5.30283,19.50999 h 7.44606 l -0.50819,-16.72601 3.71198,15.75382 7.60072,-1.8118 -5.39121,-17.58771 c 3.42475,-2.51885 5.14816,-6.31921 5.14816,-11.40109 0,-9.65556 -3.97712,-14.4723 -11.90927,-14.4723 -1.39199,0 -3.46893,0.0884 -6.25292,0.26514 z" />
      <path
         id="path5412"
         style="font-style:normal;font-variant:normal;font-weight:100;font-stretch:normal;font-size:45.25080872px;line-height:1.25;font-family:'Alimentary Outline';-inkscape-font-specification:'Alimentary Outline, Thin';font-variant-ligatures:normal;font-variant-caps:normal;font-variant-numeric:normal;font-feature-settings:normal;text-align:center;letter-spacing:0px;word-spacing:0px;writing-mode:lr-tb;text-anchor:middle;fill:#5fbcd3;fill-opacity:1;stroke:none;stroke-width:1.13123345"
         d="m 134.60492,236.30008 c -5.59007,0 -8.39615,-6.98206 -8.46243,-20.92408 0.0221,-15.35611 2.91655,-23.02312 8.68338,-23.02312 2.56303,0 4.48531,1.54666 5.74473,4.61788 1.25942,3.07122 1.90018,9.0369 1.90018,17.87495 l -12.08603,0.39772 c 0.0221,11.33479 1.41409,16.99114 4.22017,16.99114 2.67351,0 3.99921,-2.93865 3.99921,-8.79385 l 3.80037,0.24304 c 0,8.39615 -2.60723,12.59422 -7.79958,12.61632 z m 2.38627,-26.33739 -4.77255,0.17676 c 0,-2.89446 0.24305,-5.67844 0.70705,-8.30776 0.464,-2.62932 1.03847,-3.95503 1.67923,-3.95503 0.68495,0 1.23732,1.23733 1.70132,3.71198 0.464,2.47465 0.68495,5.25864 0.68495,8.37405 z m -2.36418,27.88404 c 6.23083,-0.0221 9.34624,-5.21444 9.34624,-15.62125 l -6.89368,-0.4198 c 0,5.92149 -0.81752,8.88224 -2.45256,8.88224 -1.76761,0 -2.65141,-4.63998 -2.67351,-13.94203 l 12.08603,-0.39771 c 0,-10.05328 -0.72913,-16.81439 -2.16532,-20.30541 -1.43618,-3.49103 -3.77826,-5.23655 -7.02625,-5.23655 -3.77826,0 -6.40758,2.23161 -7.93214,6.67273 -1.52457,4.44112 -2.2979,10.4068 -2.2979,17.89705 0.0663,14.98049 3.40265,22.47073 10.00909,22.47073 z m -3.91083,-26.09433 7.84376,-0.30934 c -0.0221,-4.17597 -0.28723,-7.75538 -0.81752,-10.69403 -0.53028,-2.93866 -1.56875,-4.41903 -3.11541,-4.41903 -2.60722,0 -3.91083,5.14816 -3.91083,15.4224 z" />
    </g>
    <path
       d="m 101.9304,109.55431 a 3.2086726,3.2086726 0 0 0 -0.50897,0.0445 c -8.489521,0.10741 -16.704195,2.79144 -22.292142,7.38899 -5.031914,-2.73853 -11.21907,-4.28642 -17.502319,-4.29075 a 3.2086726,3.2086726 0 0 0 -0.0033,0 c -6.594816,0.004 -13.170325,1.62058 -18.317644,4.63006 -4.574518,2.67459 -7.933585,6.55501 -9.339181,10.97313 -8.325913,3.69212 -14.333855,9.94988 -14.348085,17.18607 a 3.2086726,3.2086726 0 0 0 0,0.007 c -3.4e-4,6.1846 4.346707,11.84537 10.768884,15.55377 6.202919,3.5818 14.470707,5.53855 22.845582,5.67104 6.541883,5.02149 16.256603,7.89682 26.161238,7.90619 a 3.2086726,3.2086726 0 0 0 0.0033,0 c 6.884754,-2.8e-4 13.705665,-1.38635 19.432745,-3.89874 6.211902,2.17154 13.504502,3.36742 20.864092,3.37495 a 3.2086726,3.2086726 0 0 0 0.003,0 c 13.6865,-4.8e-4 27.01808,-3.98963 33.86318,-11.07854 9.08096,-0.22921 17.95028,-1.91431 24.61788,-4.9183 7.00001,-3.15376 12.05606,-7.9799 12.06188,-13.91654 a 3.2086726,3.2086726 0 0 0 0,-0.01 c -0.008,-4.16568 -2.62003,-7.91155 -6.4666,-10.71618 -3.41112,-2.48713 -8.03122,-4.3389 -13.20168,-5.71716 -1.33837,-5.00954 -5.39454,-9.37253 -11.06702,-12.36165 -6.52644,-3.43911 -15.13278,-5.30117 -23.78608,-5.30373 a 3.2086726,3.2086726 0 0 0 -0.003,0 c -6.15228,0.003 -12.25929,0.97812 -17.6275,2.76222 -4.82589,-2.1125 -10.46505,-3.27829 -16.15827,-3.28601 z"
       id="path5460"
       style="fill:#87cdde;stroke-width:0.20869209"
       xlink:href="#path5365" />
    <path
       id="path5365"
       d="m 101.92595,112.76411 a 26.533209,17.019365 0 0 0 -22.487619,8.02518 25.281642,16.757528 0 0 0 -17.81283,-4.88319 25.281642,16.757528 0 0 0 -25.056006,14.64958 31.289162,18.066709 0 0 0 -13.742742,14.93778 31.289162,18.066709 0 0 0 31.289306,18.06686 31.289162,18.066709 0 0 0 0.115679,-0.003 31.038846,18.85222 0 0 0 25.165877,7.85766 31.038846,18.85222 0 0 0 19.309023,-4.09278 35.294174,18.066709 0 0 0 20.991422,3.56905 35.294174,18.066709 0 0 0 32.4864,-11.00757 35.544487,15.710183 0 0 0 34.84811,-15.69954 35.544487,15.710183 0 0 0 -19.07632,-13.90929 32.290414,17.804874 0 0 0 -32.23796,-16.9872 32.290414,17.804874 0 0 0 -17.77756,2.95262 26.533209,17.019365 0 0 0 -16.01478,-3.47633 z"
       style="fill:#afdde9;stroke-width:0.20869209" />
    <path
       id="path5434"
       d="m 56.857369,118.20208 c -3.171046,0.41354 -5.987404,1.68755 -8.390507,3.08259 a 3.1555304,3.1555304 0 0 0 -0.01393,0.007 c -5.657583,3.31989 -9.656739,9.078 -10.556067,15.63772 a 3.1555304,3.1555304 0 0 0 -4.19e-4,0.01 c -0.532903,3.98103 0.07839,8.13621 1.965862,11.76403 a 3.1555304,3.1555304 0 0 0 0.0087,0.0169 c 0.650204,1.23228 2.057365,2.15281 3.575951,2.3565 -0.205823,0.90543 -0.440864,1.56919 -0.503756,2.70215 -0.119562,2.1538 0.55809,5.16375 3.040507,6.86076 6.48e-4,4.4e-4 0.0011,7e-4 0.0019,0.002 6.66e-4,4.6e-4 0.0011,6.9e-4 0.0019,0.002 2.115325,1.44484 4.615013,1.52412 6.593528,1.06634 1.97973,-0.45805 3.637453,-1.37534 4.965154,-2.33546 a 3.1555304,3.1555304 0 0 0 0.0224,-0.0177 c 2.903892,-2.14062 4.756136,-4.94997 6.301389,-7.44306 a 3.1555304,3.1555304 0 0 0 0.02598,-0.0411 c 0.43917,-0.73397 0.813546,-1.50849 1.216843,-2.26543 0.06933,0.28891 0.0721,0.60402 0.199834,0.85877 0.537013,1.07111 1.402264,1.74263 2.321553,2.10874 0.504598,0.20095 1.056519,0.29441 1.630866,0.30004 0.03616,0.41307 0.06264,0.82356 0.182022,1.2736 0.67271,2.74755 3.372745,5.05698 6.423533,4.90441 a 3.1555304,3.1555304 0 0 0 0.04391,-0.004 c 2.439164,-0.15709 4.080819,-1.36848 5.201612,-2.14371 0.611798,-0.42267 1.147649,-0.92248 1.691888,-1.41376 1.802752,1.30673 3.872447,1.64232 5.655095,1.53109 2.376144,-0.10782 4.162339,-1.14122 5.491647,-1.95715 0.566027,-0.32972 1.263724,-0.7803 2.004522,-1.33362 0.440041,0.33507 0.817705,0.75726 1.317437,0.98757 a 3.1555304,3.1555304 0 0 0 0.02616,0.0115 c 2.52322,1.13622 5.078637,0.6477 7.053377,-0.36793 0.36787,-0.18822 0.63651,-0.43119 0.95437,-0.64922 0.64441,0.34522 1.33666,0.62174 2.11413,0.70032 8.5e-4,1.8e-4 0.002,0.002 0.003,0.002 2.09981,0.21331 3.58667,-0.55568 4.70733,-1.22442 0.44223,0.24828 0.94188,0.41516 1.49849,0.49935 1.17354,0.18964 2.46974,-0.16651 3.32645,-0.83971 0.61263,-0.48138 0.987,-1.07616 1.26795,-1.69668 0.63695,0.75008 1.43478,1.32832 2.62326,1.50984 a 3.1555304,3.1555304 0 0 0 0.14868,0.0189 c 2.27455,0.2382 4.32597,-1.58947 4.79737,-3.40708 a 3.1555304,3.1555304 0 0 0 0.0116,-0.0508 c 0.0318,-0.13152 0.0661,-0.26087 0.0979,-0.39217 1.43786,2.21792 4.12423,3.4556 6.8259,2.59322 1.48282,-0.45943 2.49146,-1.26619 3.26092,-2.115 1.61192,0.89527 3.3616,1.12684 4.89777,1.03097 2.37059,-0.10756 4.15259,-1.1358 5.48093,-1.95085 1.14668,-0.66733 2.77636,-1.82987 4.37667,-3.52274 1.02261,2.25681 3.32842,4.0138 5.97923,3.88119 a 3.1555304,3.1555304 0 0 0 0.0439,-0.004 c 2.43915,-0.15711 4.08082,-1.36847 5.20161,-2.14371 2.66046,-1.83806 4.68538,-4.36829 6.0606,-7.16585 a 3.1555304,3.1555304 0 0 0 0.0337,-0.07 c 0.26051,-0.56528 0.4183,-1.03083 0.54241,-1.34123 a 3.1555304,3.1555304 0 0 0 0.0751,-0.2101 c 0.58957,-1.84119 -0.19782,-4.50636 -2.38009,-5.44432 -1.47798,-0.64648 -3.08704,-0.3521 -4.30043,0.56114 0.59215,-1.3907 1.11765,-2.7965 1.80483,-4.16473 l -0.009,0.0176 c 1.77966,-3.48898 -2.04125,-7.53511 -5.64677,-5.91556 l 0.12626,-0.0539 c -0.55724,0.22156 -1.00488,0.29214 -1.52269,0.45866 -0.60293,-0.66887 -1.348,-1.24856 -2.33829,-1.58228 -1.27138,-0.43957 -2.79927,-0.45773 -4.20079,0.19508 -1.14322,0.51712 -1.79484,1.33283 -2.26447,2.14416 -0.2333,-0.15175 -0.41252,-0.35738 -0.67395,-0.47787 a 3.1555304,3.1555304 0 0 0 -0.082,-0.0372 c -2.81269,-1.2007 -5.20917,-0.10374 -6.78059,0.79338 -1.85109,1.04437 -3.22218,2.48778 -4.34889,4.06321 -0.98565,-1.93071 -2.93387,-3.43214 -5.33962,-3.31182 a 3.1555304,3.1555304 0 0 0 -0.005,6.2e-4 c -1.56979,0.0815 -2.83571,0.84729 -3.73225,1.62775 -0.10573,-0.0565 -0.17036,-0.14526 -0.28298,-0.19569 -1.53846,-0.69073 -3.32901,-0.52493 -4.56458,0.036 -0.59943,0.27214 -1.09987,0.60772 -1.53804,0.97012 -0.39447,-0.19655 -0.81358,-0.35873 -1.29428,-0.43169 -1.23307,-0.19913 -2.56964,0.22604 -3.39865,0.91794 -0.28103,0.23456 -0.46224,0.50548 -0.66287,0.76985 -0.20262,-0.25933 -0.37172,-0.54023 -0.6358,-0.75886 -0.88063,-0.72901 -2.29405,-1.1849 -3.66439,-0.85776 -4.99277,1.05917 -9.4199,3.7476 -12.667551,7.58039 -0.418557,-1.83776 -1.527926,-3.60801 -3.431369,-4.48525 a 3.1555304,3.1555304 0 0 0 -0.08195,-0.0372 c -2.812678,-1.2007 -5.209173,-0.10374 -6.780596,0.79338 -2.216442,1.25051 -3.693545,3.08582 -4.897016,5.03703 -0.733725,-2.29258 -3.265652,-3.99083 -5.795772,-2.85431 l 0.126261,-0.0539 c -0.557235,0.22156 -1.004879,0.29214 -1.522683,0.45865 -0.602192,-0.66805 -1.346296,-1.24722 -2.334851,-1.58108 -0.801759,-0.27792 -1.690229,-0.40122 -2.611423,-0.28192 -0.155522,0.0201 -0.305423,0.10182 -0.460956,0.13597 0.332809,-2.84544 0.422297,-6.07975 -1.692421,-9.12832 -2.570194,-3.73348 -6.935498,-4.78663 -10.559245,-4.6371 a 3.1555304,3.1555304 0 0 0 -0.0033,4.2e-4 c -0.458509,0.0195 -0.919182,0.0583 -1.378704,0.11816 z m -3.523915,6.71933 c 0.02623,0.004 0.05363,0.0123 0.04108,0.0128 -0.015,-0.002 -0.02602,-0.0108 -0.04108,-0.0128 z m 6.000428,2.00974 c 0.732025,0.0477 1.404536,0.27763 1.795673,0.54859 0.396758,0.27486 0.550007,0.47712 0.639264,0.94085 a 3.1555304,3.1555304 0 0 0 0.01355,0.0673 c 0.156981,0.72844 0.07518,1.85585 -0.11509,3.28868 -0.182204,1.37203 -0.405801,2.68494 -0.701878,3.99785 -1.171182,5.11247 -3.415062,10.13641 -6.552098,14.2334 a 3.1555304,3.1555304 0 0 0 -0.03245,0.042 c -0.614208,0.83111 -1.322041,1.55529 -2.125488,2.16426 -0.0022,8.4e-4 -0.0025,7.7e-4 -0.0046,0.003 0.0306,-0.12397 0.04947,-0.22793 0.08125,-0.35551 a 3.1555304,3.1555304 0 0 0 0.022,-0.0981 c 1.445636,-6.70968 2.933808,-13.42992 4.423249,-20.15675 l -0.0016,0.0133 0.321576,-1.42322 a 3.1555304,3.1555304 0 0 0 0.02777,-0.14325 c 0.185461,-1.04199 -0.02261,-1.927 -0.392727,-2.70789 0.91051,-0.25286 1.816066,-0.44233 2.601671,-0.41371 z m 10.067012,5.2241 c -0.01473,0.007 -0.01805,0.0206 -0.0327,0.0272 -0.02248,0.0108 -0.04724,0.01 -0.06971,0.0204 z m 0.916804,1.90641 c -0.0024,0.0156 -0.0065,0.0348 -0.0062,0.0288 0.0013,-0.0101 0.0048,-0.019 0.0062,-0.0288 z m 49.175622,-5.44628 c -0.0218,0.0247 -0.0336,0.0448 -0.0553,0.0694 -0.009,0.0113 -0.0226,0.0223 -0.0319,0.0337 z m -10.37028,4.0301 c 0.0262,0.004 0.0527,0.0136 0.0397,0.0146 -0.0153,-0.002 -0.0243,-0.0126 -0.0397,-0.0146 z m -10.659,4.38245 c -0.0019,0.0156 -0.0059,0.0326 -0.0069,0.0255 0.0019,-0.009 0.0059,-0.0163 0.0069,-0.0255 z m 52.42875,-6.68096 c -0.002,0.0156 -0.006,0.0326 -0.007,0.0255 0.002,-0.009 0.006,-0.0163 0.007,-0.0255 z m -37.75582,5.22866 -0.32199,1.3296 c -0.01,-0.40602 0.0166,-0.80348 -0.0975,-1.16439 a 3.1555304,3.1555304 0 0 0 0.0369,-0.008 c 0.12976,-0.0323 0.25322,-0.11398 0.38265,-0.15723 z m 19.6308,-2.43914 c 0.0127,-0.0159 0.0196,0.0754 -0.13317,0.20598 0.0514,-0.079 0.12006,-0.18944 0.13317,-0.20598 z m -37.19854,5.52582 c -0.003,0.005 -0.004,0.0132 -0.0079,0.019 -0.004,0.009 -0.01106,0.0137 -0.0154,0.0216 z m -24.071911,5.05624 c -0.0089,0.0226 -0.01245,0.0426 -0.02129,0.0652 -0.0057,0.0166 -0.01432,0.032 -0.02011,0.0486 z m 80.856391,-10.30347 c -0.009,0.0226 -0.0124,0.0426 -0.0212,0.0651 -0.006,0.0166 -0.0143,0.0321 -0.0201,0.0485 z m 1.61956,6.81501 c -0.0234,0.0434 0.14858,-0.31179 -0.0272,0.0445 0.008,-0.0168 0.0192,-0.0278 0.0272,-0.0445 z m -3.68717,3.568 c 0.004,0.0158 0.015,0.0294 0.0189,0.0453 0.006,0.0239 0.004,0.0436 0.0105,0.0676 z m -25.10954,3.78811 c 0.003,0.01 0.0109,0.0152 0.0146,0.0244 0.005,0.0115 0.003,0.0219 0.007,0.0336 z"
       style="font-style:normal;font-variant:normal;font-weight:normal;font-stretch:normal;font-size:45.25080872px;line-height:1.25;font-family:Authentic;-inkscape-font-specification:'Authentic, Normal';font-variant-ligatures:normal;font-variant-caps:normal;font-variant-numeric:normal;font-feature-settings:normal;text-align:center;letter-spacing:0px;word-spacing:0px;writing-mode:lr-tb;text-anchor:middle;fill:#87cdde;fill-opacity:1;stroke:none;stroke-width:1.03915393" />
    <path
       id="path5394"
       d="m 57.265826,121.33064 c -2.564688,0.33418 -5.030313,1.41397 -7.215285,2.68238 -4.834539,2.83695 -8.266832,7.80011 -9.026953,13.34441 -0.450817,3.36782 0.08346,6.90327 1.637358,9.88992 0.331474,0.62823 1.002269,0.96158 1.682232,0.7073 0.633473,-0.29023 1.033968,-1.0955 0.702491,-1.72372 -2.486061,-4.71162 -1.979635,-10.60033 1.02084,-15.00541 1.407659,-2.10695 3.357545,-3.90587 5.545803,-5.1485 2.30145,-1.34087 5.140045,-2.41517 7.878056,-2.30314 2.490611,0.14357 4.880654,1.47329 5.376618,4.05002 0.30761,1.42743 0.120645,2.91795 -0.07182,4.36719 -0.192458,1.44924 -0.431655,2.86226 -0.753069,4.28603 -1.265438,5.52488 -3.675794,10.94463 -7.124586,15.44876 -0.786296,1.06396 -1.711883,2.01982 -2.782369,2.82667 -0.499262,0.35695 -0.962491,0.66758 -1.518752,0.90609 -0.669452,0.33673 -1.076385,0.43049 -1.736128,0.51456 -1.025611,0.17249 -1.8103,-0.0631 -2.147829,-1.06763 -0.135009,-0.40184 -0.05407,-1.08258 0.0013,-1.63438 0.147569,-0.81497 0.341956,-1.59396 0.536016,-2.37295 1.448185,-6.72152 2.93743,-13.44786 4.426852,-20.17459 l 0.321491,-1.42395 c 0.122102,-0.68601 -0.46758,-1.36538 -1.107109,-1.4515 -0.727251,-0.11684 -1.334211,0.3796 -1.456312,1.06561 l -4.468178,20.18033 c -0.576121,2.71335 -2.066938,6.80019 0.778566,8.74229 2.478852,1.69549 5.821634,0.30613 7.931872,-1.21989 2.336631,-1.72246 3.996375,-4.15524 5.490957,-6.56658 1.520049,-2.5403 2.812673,-5.21885 3.837114,-8.03122 0.983207,-2.80711 1.744869,-5.7119 2.171018,-8.61564 0.492853,-3.03793 0.855851,-6.43627 -0.991131,-9.09226 -1.748752,-2.5428 -4.916435,-3.3964 -7.834346,-3.27599 -0.369893,0.0157 -0.738321,0.048 -1.104704,0.0958 z m 14.092929,13.51116 c -0.236956,0.0307 -0.470141,0.0976 -0.692231,0.2045 -0.674708,0.29549 -1.01357,0.92542 -1.259371,1.62719 -0.137865,0.56231 0.127021,1.32498 0.442733,1.8295 0.408688,0.57647 0.956095,0.92541 1.61664,1.17648 -0.37921,0.9702 -0.758451,1.94044 -1.173642,2.95713 -0.783896,2.06936 -1.286233,3.39069 -2.157849,5.42932 -0.646028,1.50705 1.686811,2.38288 2.214398,0.93284 1.05071,-2.6062 1.783763,-4.41771 2.793245,-7.01865 0.287036,-0.70703 0.692345,-1.47092 0.932893,-2.21392 0.453573,-0.0578 0.901849,-0.15682 1.308948,-0.25049 0.453574,-0.0578 0.860806,-0.1517 1.3451,-0.29726 -0.856655,1.82721 -1.620427,3.72666 -2.29638,5.65656 -0.538092,1.36758 -0.947237,2.76048 -1.392352,4.20003 -0.367903,1.38779 -0.931614,2.88428 -0.541538,4.30119 0.364607,1.54589 1.58908,2.60525 3.212974,2.52405 1.329999,-0.0857 2.570876,-0.87272 3.610636,-1.59186 1.396773,-0.965 2.60089,-2.18787 3.59365,-3.57274 0.320594,0.77797 0.821191,1.47788 1.473466,2.04699 1.079746,0.91 2.539576,1.18516 3.91081,1.09424 1.458957,-0.0602 2.833753,-0.78035 4.038447,-1.5205 1.067153,-0.61992 2.552211,-1.60619 3.957368,-3.1707 0.301909,1.18368 1.150213,2.13599 2.301302,2.6665 1.378091,0.62056 3.021848,0.36947 4.319508,-0.29873 0.98356,-0.50247 1.72982,-1.22602 2.42394,-2.02684 0.49721,0.94233 1.29778,1.63615 2.40139,1.74693 1.27382,0.13101 2.44798,-0.52117 3.45702,-1.15258 0.73627,-0.49341 1.41901,-1.04837 2.05167,-1.64729 l -0.17919,0.73825 c -0.16859,0.65002 0.41559,1.28777 1.05511,1.37389 0.68603,0.1221 1.21061,-0.36363 1.3792,-1.01367 1.09238,-4.58098 1.78315,-9.02712 3.1144,-10.74718 1.51639,-1.91128 2.98599,-3.85843 4.50239,-5.7697 0.28784,-0.37192 0.5708,-0.7853 0.90513,-1.12123 0.0719,-0.093 0.1904,-0.15006 0.26237,-0.24303 l -0.005,0.29394 c -0.0606,0.51057 -0.20359,1.03166 -0.34146,1.59398 -1.2258,4.84939 -2.45204,9.69883 -3.63661,14.54297 -0.16858,0.65005 0.42115,1.32918 1.01943,1.42056 0.722,0.0756 1.24676,-0.41035 1.41535,-1.06039 0.65858,-2.72384 1.3223,-5.40627 2.02214,-8.13539 0.30644,-1.21235 0.56727,-2.12563 0.84986,-2.53879 0.91444,-1.37364 1.88034,-2.66992 2.80005,-4.00231 l 1.39315,-1.89548 c 0.24134,-0.40788 0.69331,-1.13607 1.10041,-1.22985 0.16492,-0.021 0.22677,0.13853 0.23727,0.22099 0.0315,0.2474 0.0316,0.24743 -0.009,0.58781 -0.0405,0.34038 -0.12712,0.64473 -0.20879,0.99038 -0.42935,1.56323 -0.81225,3.16261 -1.24159,4.72587 l -1.23638,4.76683 c -0.39338,1.51675 -0.86927,3.04399 -0.29849,4.56358 0.52428,1.48361 2.14542,2.36668 3.63429,1.88363 1.41167,-0.43132 2.36732,-1.81016 3.17909,-3.0031 0.20546,-0.30667 0.39357,-0.62239 0.57483,-0.94178 0.31521,0.61025 0.7458,1.16266 1.27835,1.62729 1.07974,0.91001 2.53957,1.18515 3.9108,1.09425 1.45895,-0.0602 2.83375,-0.78035 4.03846,-1.52052 1.72675,-1.0031 4.54624,-2.96066 6.35146,-6.79108 0.0219,-0.0395 0.0423,-0.0814 0.0611,-0.1255 0.01,-0.0219 0.021,-0.0422 0.0311,-0.0642 0.0265,-0.0582 0.0471,-0.11472 0.0648,-0.17096 1.01024,-2.50557 1.7389,-4.30966 2.72371,-6.84708 0.28704,-0.70704 0.69282,-1.47097 0.93337,-2.21397 0.45357,-0.0578 0.90186,-0.15682 1.30893,-0.2505 0.45358,-0.0578 0.86035,-0.15163 1.34464,-0.2972 -0.85665,1.8272 -1.61995,3.7266 -2.29592,5.6565 -0.5381,1.36758 -0.94723,2.76049 -1.39234,4.20002 -0.3679,1.38779 -0.93162,2.88429 -0.54153,4.30121 0.3646,1.54587 1.58908,2.60525 3.21298,2.52401 1.32999,-0.0857 2.57087,-0.8727 3.61061,-1.59183 2.15673,-1.49004 3.85825,-3.5926 5.02296,-5.9619 0.16414,-0.35615 0.31754,-0.79461 0.47643,-1.19198 0.20983,-0.65529 -0.003,-1.3402 -0.62264,-1.5965 -0.57808,-0.26158 -1.34022,0.003 -1.59127,0.6636 -0.7839,2.06936 -2.0223,3.86111 -3.67896,5.32933 -0.82834,0.7341 -1.74961,1.39633 -2.66121,1.80584 -1.4424,0.51901 -1.81589,-0.4389 -1.25838,-2.31177 0.13261,-0.60355 0.34236,-1.25868 0.51621,-1.8675 0.37841,-1.30532 0.79787,-2.61618 1.30523,-3.89605 0.92177,-2.63167 2.06562,-5.16579 3.30228,-7.62807 0.50293,-0.98596 -0.63377,-2.01426 -1.54538,-1.60477 -1.3959,0.55501 -2.80242,1.02727 -4.19913,1.24716 -0.21382,-1.02034 -0.83999,-1.98789 -1.84618,-2.32061 -0.61406,-0.21508 -1.28414,-0.21385 -1.87638,0.0711 -0.67471,0.2955 -1.01356,0.92543 -1.25937,1.62721 -0.13786,0.56231 0.12714,1.32496 0.44272,1.82949 0.40871,0.57648 0.95612,0.92543 1.61666,1.17648 -0.37922,0.97021 -0.75846,1.94046 -1.17365,2.95714 -0.7839,2.06936 -1.28623,3.39069 -2.15785,5.42933 -0.015,0.0349 -0.0266,0.0688 -0.0385,0.10304 -1.29321,3.20557 -6.35199,7.52895 -9.67958,6.79216 -0.94919,-0.21428 -1.57009,-1.14052 -1.8199,-2.11436 -0.17704,-0.7317 0.0748,-1.05734 0.70306,-1.38882 2.31721,-1.21716 4.4999,-2.50114 6.22772,-4.39748 0.83804,-0.98676 1.54212,-2.03999 2.14773,-3.20665 0.57487,-1.07895 1.0872,-2.31761 1.22345,-3.55018 0.18721,-1.49047 -0.37304,-2.92785 -1.79761,-3.58439 -1.28513,-0.54859 -2.85127,-0.0136 -3.98399,0.63354 -2.50238,1.40836 -4.12545,3.79441 -5.17618,6.4006 -0.53808,1.36759 -0.90633,2.75527 -1.26897,4.18431 -0.13763,0.59074 -0.27416,1.18174 -0.38377,1.77643 -0.48645,1.14712 -0.93215,2.38581 -1.50686,3.49297 -0.57488,1.07895 -1.33981,2.30766 -2.33308,3.06278 -1.04502,0.67793 -0.96666,-1.00808 -0.96221,-1.30199 0.0756,-0.72199 0.3161,-1.46487 0.47944,-2.15612 0.23004,-0.82549 0.4188,-1.64609 0.64883,-2.47157 l 1.23637,-4.76684 c 0.3679,-1.38779 0.93684,-2.84284 0.91789,-4.30704 -0.0243,-1.50543 -1.11517,-2.8331 -2.73907,-2.75188 -1.66512,0.0865 -2.60504,1.58895 -3.49403,2.83362 l -0.64276,0.8782 c 0.0388,-1.01064 -0.30892,-2.09783 -1.33088,-2.55425 -1.37809,-0.62056 -2.69102,0.25921 -3.5598,1.33365 -0.91526,1.03851 -1.73225,2.18992 -2.55977,3.25915 l 0.57176,-2.41913 c 0.1686,-0.65003 -0.41562,-1.28825 -1.05516,-1.37437 -0.68603,-0.12209 -1.20531,0.40508 -1.3739,1.05511 l -2.58658,10.64593 c -0.0572,0.0834 -0.10848,0.17056 -0.14886,0.26255 -0.74345,1.72897 -1.13402,2.28168 -2.33712,3.69209 -0.58617,0.66135 -1.2242,1.24532 -1.91387,1.75224 -0.72564,0.5534 -1.49768,1.0706 -2.23466,1.20641 -0.32986,0.0421 -0.90789,-0.21941 -0.80156,-1.0291 0.0712,-0.42811 0.1315,-0.93858 0.24389,-1.37194 0.12735,-0.64479 0.30118,-1.25364 0.42852,-1.89843 0.57168,-2.41944 1.09731,-4.87465 1.669,-7.2941 0.16859,-0.65004 -0.42086,-1.32922 -1.0604,-1.41534 -0.72725,-0.11685 -1.24676,0.41035 -1.41535,1.06038 l -1.8626,8.07296 c -0.15808,0.7325 -0.4768,1.19248 -0.80062,1.61087 -0.82753,1.06923 -1.53676,2.08137 -2.66949,2.72855 -0.46855,0.26921 -1.19499,0.4873 -1.57659,0.45213 -0.587787,-0.009 -0.943644,-0.17278 -1.367294,-0.53782 -0.093,-0.0719 -0.201808,-0.26772 -0.269309,-0.46864 -0.06753,-0.2009 -0.104277,-0.48947 -0.09458,-0.74212 -0.0069,-0.71149 0.151015,-1.44431 0.273113,-2.13033 0.259956,-1.24834 0.690303,-2.47623 1.20818,-3.67362 2.19521,-4.80531 6.68225,-8.39439 11.86645,-9.47404 0.69045,-0.17179 1.1687,-0.69369 1.07939,-1.39466 -0.084,-0.65975 -0.70415,-1.25071 -1.39461,-1.07893 -5.71499,1.1892 -10.57318,4.82531 -13.350111,9.99808 -0.670977,1.20623 -1.226708,2.5578 -1.605833,3.95542 -0.05904,0.085 -0.111712,0.18083 -0.153336,0.29135 -1.224553,3.21501 -6.359449,7.64049 -9.722833,6.89579 -0.949182,-0.21428 -1.570091,-1.14051 -1.8199,-2.11436 -0.177042,-0.73171 0.07484,-1.05735 0.70306,-1.38883 2.317213,-1.21716 4.500364,-2.50121 6.228186,-4.39755 0.838043,-0.98675 1.541668,-2.03992 2.147269,-3.20658 0.574868,-1.07894 1.087662,-2.31767 1.223918,-3.55024 0.187196,-1.49047 -0.373056,-2.92784 -1.797622,-3.58438 -1.285113,-0.5486 -2.851252,-0.0137 -3.983987,0.63353 -2.502364,1.40836 -4.125926,3.79447 -5.176642,6.40065 -0.53809,1.3676 -0.905857,2.75522 -1.268504,4.18426 -0.12856,0.55182 -0.256661,1.10383 -0.362384,1.65886 -0.05171,0.0751 -0.09631,0.15742 -0.13065,0.24778 -0.783894,2.06936 -2.02228,3.86111 -3.678947,5.32932 -0.828337,0.7341 -1.749618,1.39635 -2.661221,1.80584 -1.442394,0.51903 -1.815876,-0.4389 -1.258365,-2.31176 0.132607,-0.60356 0.342362,-1.25868 0.516204,-1.86749 0.378412,-1.30534 0.798334,-2.61626 1.305701,-3.89612 0.921757,-2.63168 2.065138,-5.16573 3.301806,-7.62801 0.502914,-0.98596 -0.633762,-2.01426 -1.545364,-1.60478 -1.395902,0.55502 -2.802433,1.02728 -4.199136,1.24717 -0.213823,-1.02034 -0.839531,-1.98795 -1.845711,-2.32068 -0.383787,-0.13442 -0.789699,-0.18444 -1.184624,-0.1333 z m 20.773177,0.41504 c 0.614253,-0.10902 0.864852,0.18639 0.818094,0.84709 l -0.06078,0.51068 c -0.147571,0.81498 -0.475737,1.52704 -0.839988,2.28581 -1.354312,2.85442 -3.787463,5.13384 -6.681956,6.42455 l 0.08137,-0.34534 c 0.627863,-2.63614 1.420658,-5.29333 3.209932,-7.36508 0.539694,-0.69732 1.224374,-1.2456 1.960529,-1.71655 0.644896,-0.36502 1.144238,-0.57577 1.512794,-0.64116 z m 52.428748,-6.68096 c 0.61425,-0.10903 0.86437,0.18645 0.81761,0.84714 l -0.0603,0.51062 c -0.14755,0.81498 -0.4762,1.52711 -0.84045,2.28589 -1.3543,2.85441 -3.78746,5.13383 -6.68195,6.42454 l 0.0818,-0.3454 c 0.62787,-2.63614 1.42067,-5.29332 3.20994,-7.36508 0.53968,-0.69732 1.22391,-1.24555 1.96006,-1.71649 0.6449,-0.36502 1.1447,-0.57583 1.51326,-0.64122 z"
       style="font-style:normal;font-variant:normal;font-weight:normal;font-stretch:normal;font-size:45.25080872px;line-height:1.25;font-family:Authentic;-inkscape-font-specification:'Authentic, Normal';font-variant-ligatures:normal;font-variant-caps:normal;font-variant-numeric:normal;font-feature-settings:normal;text-align:center;letter-spacing:0px;word-spacing:0px;writing-mode:lr-tb;text-anchor:middle;fill:#ffeeaa;fill-opacity:1;stroke:none;stroke-width:1.03915393" />
    <path
       d="m 158.03979,94.143666 -9.77169,-3.313674 -8.26944,6.171108 0.13187,-10.317406 -8.42447,-5.957732 9.85319,-3.062833 3.06284,-9.853189 5.95773,8.424472 10.31741,-0.131875 -6.17111,8.269444 z"
       id="path5485"
       style="fill:#ffe680;stroke-width:0.21330765" />
    <path
       style="fill:#ffe680;stroke-width:0.21330765"
       id="path5502"
       d="m 51.690684,250.40282 -9.771686,-3.31368 -8.269443,6.17111 0.131874,-10.3174 -8.424472,-5.95774 9.85319,-3.06283 3.062833,-9.85319 5.957731,8.42447 10.317407,-0.13187 -6.171109,8.26944 z" />
    <path
       d="m 188.40236,181.89857 -6.62189,-2.24555 -5.60389,4.18192 0.0894,-6.99171 -5.70894,-4.03732 6.67713,-2.07557 2.07556,-6.67712 4.03732,5.70894 6.99171,-0.0894 -4.18192,5.60388 z"
       id="path5504"
       style="fill:#ffe680;stroke-width:0.14455038" />
    <path
       style="fill:#ffe680;stroke-width:0.14455038"
       id="path5506"
       d="m 37.948905,186.36116 -6.621895,-2.24555 -5.603883,4.18193 0.08937,-6.99172 -5.70894,-4.03732 6.677127,-2.07557 2.075564,-6.67713 4.037325,5.70894 6.99171,-0.0894 -4.181923,5.60388 z" />
    <path
       d="m 173.73953,251.38766 -6.62189,-2.24555 -5.60389,4.18192 0.0894,-6.99171 -5.70895,-4.03732 6.67713,-2.07557 2.07557,-6.67713 4.03732,5.70894 6.99171,-0.0894 -4.18192,5.60388 z"
       id="path5508"
       style="fill:#ffe680;stroke-width:0.14455038" />
    <g
       transform="matrix(0.84332646,0,0,0.84332646,16.433236,56.146382)"
       id="g866">
      <path
         d="m 131.67254,-27.407874 c -2.02673,2.96503 -3.97839,5.93006 -5.7424,9.045219 -1.8766,3.377882 -3.52801,6.868361 -4.6915,10.5840305 -0.15013,0.4503837 -0.22519,1.0133644 -0.22519,1.5388121 0,0.8632367 0.56298,1.5388121 1.46375,1.6889401 0.37532,0.07506 0.75064,0.112596 1.08842,0.07506 1.0509,-0.07506 2.13933,-0.150128 3.19023,-0.225192 1.42621,-0.1125957 2.85243,-0.1501277 4.24112,-0.3002557 0.97583,-0.07506 1.91413,-0.150128 2.85243,-0.3002557 0.30026,-0.03753 0.56298,-0.18766 0.82571,-0.375321 0.33778,-0.2251917 0.41285,-0.6755754 0.22519,-1.0508954 -0.18766,-0.3753207 -0.48792,-0.5254487 -0.97584,-0.4128527 -0.22519,0.03753 -0.48791,0.07506 -0.7131,0.07506 -2.70231,0.07506 -5.40462,0.18766 -8.10692,0.2627237 -0.15013,0 -0.30026,-0.03753 -0.56298,-0.03753 0.30025,-0.5254484 0.60051,-0.9383004 0.8257,-1.3886851 1.72648,-3.0400928 3.41542,-6.1177188 5.10436,-9.1578128 1.16349,-1.989198 2.36452,-3.978395 3.49048,-6.005125 0.75064,-1.351153 1.38868,-2.739838 1.65141,-4.241119 0.22519,-1.163493 0.0375,-2.176858 -0.97584,-2.927498 -0.56298,-0.450385 -1.27609,-0.487917 -1.91413,-0.487917 -2.36452,-0.03753 -4.72904,0 -7.05602,0.03753 -0.56298,0.03753 -1.12596,0.07506 -1.68894,0.225192 -0.45039,0.112597 -0.86324,0.337789 -1.27609,0.562981 -0.33779,0.262724 -0.41285,0.638044 -0.26273,1.013365 0.15013,0.37532 0.45039,0.600512 0.86324,0.600512 0.26272,0 0.52545,-0.03753 0.78817,-0.03753 1.8766,-0.07506 3.79074,-0.150128 5.66734,-0.18766 0.86324,0 1.72647,0.112596 2.73984,0.18766 -0.33779,0.487916 -0.52545,0.863237 -0.82571,1.238557 z m -17.6134,-12.891741 c -0.30026,-0.03753 -0.60052,0 -0.90077,0.03753 -1.38869,0 -2.77737,0 -4.16606,0.03753 -1.31362,0.03753 -2.55218,0.07506 -3.8658,0.150128 -0.33779,0 -0.67557,0.150128 -1.01336,0.262724 -0.41285,0.187661 -0.56298,0.600513 -0.52545,0.975833 0.0751,0.412852 0.41285,0.713109 0.86324,0.788173 0.18766,0.03753 0.37532,0 0.60051,0 1.72647,-0.03753 3.45294,-0.03753 5.14189,-0.07506 0.52544,0 1.05089,0.03753 1.57634,0.112596 0,0.03753 0.0751,0.112596 0.0751,0.150128 -0.26272,0.262724 -0.52545,0.487916 -0.78817,0.75064 -1.23856,1.351153 -2.51465,2.664774 -3.71567,4.05346 -1.27609,1.463749 -2.51465,2.96503 -3.49048,4.691503 -0.26273,0.412853 -0.45039,0.863237 -0.52545,1.313621 -0.18766,0.825705 0.33779,1.613877 1.20103,1.801538 0.52544,0.112596 1.08842,0.18766 1.6514,0.18766 2.02673,-0.03753 4.091,-0.150128 6.15526,-0.262725 0.33779,0 0.71311,-0.07506 1.08843,-0.150128 0.41285,-0.112596 0.63805,-0.450384 0.60051,-0.825704 0,-0.412853 -0.26272,-0.600513 -0.63804,-0.750641 -0.15013,-0.03753 -0.33779,-0.03753 -0.52545,-0.03753 -1.61388,0 -3.26529,0 -4.87917,-0.03753 -0.22519,0 -0.45038,0 -0.67557,-0.03753 -0.0375,-0.07506 -0.0751,-0.112596 -0.1126,-0.18766 0.1126,-0.03753 0.22519,-0.07506 0.30026,-0.150128 1.95166,-2.101794 3.90333,-4.203587 5.81746,-6.342913 0.71311,-0.788173 1.31363,-1.688941 1.87661,-2.58971 0.30025,-0.525448 0.48791,-1.125961 0.63804,-1.726473 0.15013,-1.088429 -0.63804,-2.02673 -1.764,-2.139326 z m -22.367341,20.004569 c -2.026729,2.96503 -3.978395,5.93006 -5.7424,9.045219 -1.876601,3.377882 -3.528011,6.8683609 -4.691504,10.5840317 -0.150128,0.4503844 -0.225192,1.0133648 -0.225192,1.5388132 0,0.8632366 0.562981,1.5388131 1.463749,1.6889413 0.375321,0.075064 0.750641,0.112596 1.088429,0.075064 1.050897,-0.075064 2.139326,-0.1501281 3.190223,-0.2251922 1.426217,-0.112596 2.852434,-0.1501281 4.241119,-0.3002562 0.975833,-0.075064 1.914133,-0.1501281 2.852434,-0.3002562 0.300256,-0.037532 0.56298,-0.1876601 0.825705,-0.3753203 0.337788,-0.2251922 0.412852,-0.6755765 0.225192,-1.0508968 -0.18766,-0.3753203 -0.487917,-0.5254484 -0.975833,-0.4128523 -0.225192,0.037532 -0.487916,0.075064 -0.713109,0.075064 -2.702306,0.075064 -5.404612,0.1876601 -8.106918,0.2627242 -0.150128,0 -0.300256,-0.037532 -0.56298,-0.037532 0.300256,-0.5254484 0.600512,-0.9383007 0.825705,-1.388685 1.726473,-3.0400943 3.415414,-6.1177204 5.104355,-9.1578144 1.163493,-1.989198 2.364518,-3.978395 3.490479,-6.005125 0.750641,-1.351153 1.388685,-2.739838 1.651409,-4.241119 0.225192,-1.163493 0.03753,-2.176858 -0.975832,-2.927498 -0.562981,-0.450385 -1.276089,-0.487917 -1.914134,-0.487917 -2.364518,-0.03753 -4.729035,0 -7.056021,0.03753 -0.562981,0.03753 -1.125961,0.07506 -1.688941,0.225192 -0.450385,0.112597 -0.863237,0.337789 -1.276089,0.562981 -0.337789,0.262724 -0.412853,0.638044 -0.262725,1.013365 0.150129,0.37532 0.450385,0.600512 0.863237,0.600512 0.262724,0 0.525448,-0.03753 0.788173,-0.03753 1.876601,-0.07506 3.790734,-0.150128 5.667336,-0.18766 0.863237,0 1.726473,0.112596 2.739838,0.18766 -0.337788,0.487916 -0.525448,0.863237 -0.825705,1.238557 z"
         style="font-style:normal;font-variant:normal;font-weight:normal;font-stretch:normal;font-size:37.5320282px;line-height:1.25;font-family:FB-FlirtyNFab2;-inkscape-font-specification:'FB-FlirtyNFab2, Normal';font-variant-ligatures:normal;font-variant-caps:normal;font-variant-numeric:normal;font-feature-settings:normal;text-align:start;letter-spacing:0px;word-spacing:0px;writing-mode:lr-tb;text-anchor:start;fill:#afdde9;fill-opacity:1;stroke:none;stroke-width:0.93827456"
         id="path857" />
    </g>
  </g>
</svg>
