<?xml version="1.0" encoding="utf-8"?>
<!-- Generator: Adobe Illustrator 17.1.0, SVG Export Plug-In . SVG Version: 6.00 Build 0)  -->
<!DOCTYPE svg PUBLIC "-//W3C//DTD SVG 1.1//EN" "http://www.w3.org/Graphics/SVG/1.1/DTD/svg11.dtd">
<svg version="1.1" xmlns="http://www.w3.org/2000/svg" xmlns:xlink="http://www.w3.org/1999/xlink" x="0px" y="0px"
	 viewBox="0 0 848.1 806.8" enable-background="new 0 0 848.1 806.8" xml:space="preserve">
<g id="Слой_5">
	<path fill="#E34525" d="M462,120.1c0,0-8.6,23.1-14.9,21c-6.2-2.2,1.7-26.6,1.7-26.6s-5.2,7.9-10.5,6c-5.3-1.8-14.4-18.2-14.4-18.2
		c-7.3,30.3-21.9,15-21.9,15s11.1,23,5.9,27.1c-5.2,4.1-17.1-18.1-17.1-18.1c-3.8,15.4-23.4,3.7-23.4,3.7s7.8,21.6,6.9,26.6
		c-1,5.1-17.7,4.3-17.7,4.3s30.1,17.2,29.8,19.6c-0.3,2.3-22.7,10.1-22.7,10.1s21.9,6.8,24.9,9c3,2.1-1.1,7.1-1.1,7.1l16.8-1.1
		l-3.1,11.3l28.7-18.9c-0.5,17-0.5,37-6.5,55.7l6.3,0.6c0,0,9.3-27.8,6-55l0.2,0.1l-2.9-32.7l7.7,34.7l26.9,11.1l-8.9-12.3
		c4.4,0.5,18.5-1.4,18.5-1.4c-12.2-4.3,19.2-18.9,19.2-18.9l-21.6-6.2c4.4-4.9,23.6-22.2,23.6-22.2c-27.6,3.6-11.6-31-11.6-31
		C464,138.3,462,120.1,462,120.1z"/>
	<path fill="#E34525" d="M444,41.6c-1.2,3.2-0.1,6.8,3,8.3c3.4,1.6,7.1-0.3,9.7-2.4c8-6.3,10-15.5,10-15.5c-6.9-0.4-13.4,1.1-18,4.2
		C446.7,37.6,444.8,39.3,444,41.6z"/>
	<path fill="#E34525" d="M401.4,45.5c3.1-0.8,5-3.1,4.9-6.4c-0.1-3.1-2.4-5.6-4.6-7.5c-8-6.5-17.5-6.4-17.5-6.4
		c1.2,6.9,4,13,8.2,16.9C394.7,44.4,398,46.3,401.4,45.5z"/>
	<path fill="#E34525" d="M407.3,25.2c1.9,3.5,4,6.9,6.6,9.9c0.6,0.7,1.3,1.5,1.9,2.2c0.7,0.8,1.3,1.5,2.1,2.2
		c4.2,3.6,9.1,3.5,13.8,1c2-1.1,3.9-2.4,5.3-3.6c3.1-2.7,5.6-6,8.1-9.2c2.3-3,11.2-12.6,6.8-16.4c-0.6-0.5-1.2-0.8-1.9-1
		c-4.2-1.2-7.4,3.2-11.5,1.6c-3.2-1.3-4.9-5.4-6.6-8.1c-3.2-5-6.4-2.6-9.9,1.7c-3,3.6-4.6,7.6-9.4,3.8c-1.8-1.4-4.7-4-7.3-3.2
		c-3.3,1.1-3.1,6.6-2.4,9.3C403.8,18.9,405.6,22.1,407.3,25.2z"/>
	<path fill="#E34525" d="M719.1,379.9c-23.8-16.3-7.1-23.8-7.1-23.8s-24.7-1-24.5-7.7c0.1-6.6,25.8-6.6,25.8-6.6s-9.1-2.5-9-8.1
		c0.1-5.6,12.9-19.3,12.9-19.3c-31.1,2.4-21-16.2-21-16.2s-18.4,17.7-24,14c-5.5-3.7,11.9-21.9,11.9-21.9
		c-15.8,1.2-10.7-21.1-10.7-21.1s-18.1,14.1-23.2,14.8c-5.1,0.7-9.6-15.5-9.6-15.5s-7.1,33.9-9.4,34.4c-2.3,0.5-16.7-18.4-16.7-18.4
		s0.3,22.9-0.8,26.4c-1.1,3.5-7.1,1.1-7.1,1.1l6.3,15.7l-11.7,0.5l26.8,21.4c-16.3,4.8-35.4,10.9-55,11l1.4,6.1
		c0,0,29.4,0.2,54.1-11.3l0,0.2l30.2-12.9l-30.6,18l-2.3,29l8.9-12.3c0.9,4.3,7,17.2,7,17.2c0.3-13,23.9,12.5,23.9,12.5l-0.8-22.4
		c6,2.7,28.4,15.6,28.4,15.6C681.2,375.2,719.1,379.9,719.1,379.9z"/>
	<path fill="#E34525" d="M797.2,333.3c-1.8-6.7-5.1-12.4-9.6-15.8c-1.9-1.5-4.1-2.7-6.6-2.9c-3.4-0.2-6.5,2-7,5.5
		c-0.5,3.7,2.4,6.6,5.3,8.5C787.8,334.2,797.2,333.3,797.2,333.3z"/>
	<path fill="#E34525" d="M771.8,278c2.9-1.1,4.6-4,5.7-6.7c3.7-9.6,0.7-18.7,0.7-18.7c-6.2,3.3-11.1,7.8-13.5,13
		c-1.4,3-2.3,6.7-0.4,9.7C765.9,278.1,768.7,279.2,771.8,278z"/>
	<path fill="#E34525" d="M776.4,286.6c-0.5,0.9-1,1.7-1.4,2.7c-2.1,5.1-0.6,9.7,3.3,13.4c1.6,1.6,3.4,2.9,5.1,3.9
		c3.5,2.1,7.4,3.5,11.3,4.8c3.5,1.2,15.4,6.7,17.7,1.4c0.3-0.7,0.4-1.4,0.3-2.1c-0.2-4.4-5.3-6-5-10.5c0.2-3.4,3.6-6.4,5.6-8.8
		c3.8-4.6,0.5-6.8-4.7-8.9c-4.3-1.7-8.7-2-6.5-7.7c0.8-2.1,2.4-5.7,0.8-7.9c-2.1-2.8-7.2-0.9-9.5,0.6c-3,2-5.5,4.6-7.9,7.2
		c-2.7,2.9-5.3,6-7.4,9.4C777.4,284.9,776.9,285.8,776.4,286.6z"/>
	<path fill="#E34525" d="M635.4,603.1c0,0-19-12.9-21.2-17.5c-2.2-4.7,11.8-13.9,11.8-13.9s-34.5,3.7-35.6,1.7
		c-1.1-2,12.4-21.5,12.4-21.5s-21.7,7.3-25.4,7.4c-3.7,0.1-3.3-6.5-3.3-6.5l-12.9,10.8l-4.1-11l-12.1,32.1
		c-9.6-14-21.3-30.3-27.5-48.9l-5.4,3.2c0,0,8.8,28,27.5,48l-0.2,0l21.6,24.7l-26.6-23.6l-28.3,6.8l14.4,4.7
		c-3.8,2.2-14.2,12-14.2,12c12.4-3.7-4.5,26.6-4.5,26.6l21.1-7.7c-0.7,6.6-6.1,31.9-6.1,31.9c20.3-19.1,27.6,18.3,27.6,18.3
		c8.1-27.7,20.4-14.1,20.4-14.1s-6.6-23.8-0.3-25.7c6.3-1.9,14.2,22.5,14.2,22.5s-0.5-9.4,4.9-11c5.4-1.6,22.4,6.3,22.4,6.3
		c-11.9-28.8,8.9-25,8.9-25s-22.5-12.1-20.7-18.5c1.8-6.4,24.5,4.6,24.5,4.6C612.7,605.2,635.4,603.1,635.4,603.1z"/>
	<path fill="#E34525" d="M618.2,714.6c-3.7,0.7-5.6,4.4-6.5,7.6c-2.8,9.8,1,18.4,1,18.4c5.8-3.8,10.2-8.7,12.1-14
		c0.8-2.2,1.3-4.8,0.7-7.1C624.7,716.2,621.7,714,618.2,714.6z"/>
	<path fill="#E34525" d="M657.7,691.4c-2,2.5-2.2,5.5-0.2,8c1.9,2.4,5.2,3.1,8.1,3.3c10.3,0.6,18-5.1,18-5.1
		c-5-4.9-10.9-8.1-16.5-8.9C663.8,688.4,659.9,688.7,657.7,691.4z"/>
	<path fill="#E34525" d="M674.1,716.6c-2.8-2.2-6.1-3.8-9.3-5.3c-3.6-1.7-7.3-3.2-11.2-4.1c-1-0.2-1.9-0.4-2.9-0.7
		c-1-0.2-2-0.5-3-0.5c-5.5-0.5-9.4,2.5-11.7,7.3c-1,2-1.7,4.2-2.2,6.1c-1,4-1,8.1-1.1,12.2c-0.1,3.7-1.6,16.7,4.2,17.2
		c0.7,0.1,1.5-0.1,2.1-0.3c4.1-1.5,4.1-6.9,8.4-8c3.3-0.9,7.1,1.4,10.1,2.6c5.5,2.2,6.7-1.7,7-7.2c0.3-4.7-0.7-8.9,5.3-8.6
		c2.3,0.1,6.1,0.5,7.7-1.7C679.7,722.6,676.3,718.3,674.1,716.6z"/>
	<path fill="#E34525" d="M344.8,623.3c0,0-13.7-18.4-14.9-21.9c-1.2-3.5,5.1-5.1,5.1-5.1l-14.3-9l9.2-7.3l-34.3-1.6
		c10.3-13.5,22.2-29.6,38-41.2l-4.7-4.1c0,0-23.9,17.1-37.2,41l-0.1-0.2L274.8,602l14.2-32.5l-15.2-24.8l0,15.2
		c-3.3-3-15.8-9.8-15.8-9.8c7.4,10.7-26.7,4-26.7,4l13.8,17.7c-6.5,1.4-32.2,4.1-32.2,4.1c24.5,13.4-8.9,31.9-8.9,31.9
		c28.8-0.8,19.8,15.1,19.8,15.1s20.6-13.7,24.3-8.2c3.8,5.4-17,20.5-17,20.5s8.8-3.3,12,1.3c3.2,4.6,0.9,23.2,0.9,23.2
		c23.8-20.2,26.5,0.8,26.5,0.8s4.5-25.1,11.2-25.4c6.6-0.3,3.2,24.7,3.2,24.7c12.1-10.2,21.1,10.8,21.1,10.8s6.4-22.1,10.1-25.6
		c3.7-3.5,16.9,6.9,16.9,6.9s-14.2-31.6-12.6-33.4C322.1,616.4,344.8,623.3,344.8,623.3z"/>
	<path fill="#E34525" d="M185.5,684.5c-10.1,0.4-17.2,6.6-17.2,6.6c5.4,4.4,11.4,7,17.1,7.2c2.4,0.1,5-0.2,7-1.5
		c2.9-1.9,4.1-5.4,2.4-8.5C193,685.1,188.9,684.4,185.5,684.5z"/>
	<path fill="#E34525" d="M229.1,718.7c-3-1.2-5.9-0.4-7.7,2.3c-1.7,2.6-1.4,5.9-0.6,8.8c2.6,9.9,10.4,15.5,10.4,15.5
		c3.1-6.3,4.4-12.9,3.3-18.5C233.9,723.5,232.4,720,229.1,718.7z"/>
	<path fill="#E34525" d="M212.6,716.7c-0.1-1-0.2-2-0.4-3c-1.2-5.4-5.3-8.2-10.5-8.9c-2.2-0.3-4.5-0.4-6.4-0.2
		c-4.1,0.3-8,1.5-12,2.7c-3.6,1.1-16.4,3.6-15.1,9.3c0.2,0.7,0.5,1.4,1,1.9c2.7,3.4,7.8,1.7,10.2,5.5c1.8,2.9,0.9,7.2,0.6,10.4
		c-0.4,5.9,3.6,5.8,9,4.5c4.5-1.1,8.2-3.4,9.8,2.4c0.6,2.2,1.4,6,4,6.8c3.3,1.1,6.4-3.5,7.4-6.1c1.3-3.3,1.7-6.9,2.1-10.5
		c0.5-3.9,0.8-8,0.5-11.9C212.7,718.7,212.7,717.7,212.6,716.7z"/>
	<path fill="#E34525" d="M194.5,375.4c2.1,1,2.6,24.7,2.6,24.7s13.2-18.7,16.2-20.9c3-2.2,6.4,3.3,6.4,3.3l4.1-16.4l9.8,6.5
		l-9.1-33.1c16,5.7,35,11.9,51,23.4l2.5-5.8c0,0-23.6-17.5-50.4-22.7l0.1-0.1l-32-7.3l35.3,3.4l18.9-22.1l-14.4,4.7
		c1.8-4.1,4.4-18,4.4-18c-7.8,10.3-12-24.1-12-24.1l-12.5,18.6c-3.3-5.7-13.8-29.3-13.8-29.3c-5.2,27.4-33,1.4-33,1.4
		c9.7,27.2-8.2,23.5-8.2,23.5s19.3,15.3,15.3,20.6c-4,5.3-24.8-9.9-24.8-9.9s5.9,7.4,2.5,11.8c-3.4,4.5-21.8,8.1-21.8,8.1
		c26.6,16.3,7.5,25.5,7.5,25.5s25.3-3.5,27.6,2.8c2.3,6.2-22.5,10.7-22.5,10.7c13.5,8.3-3.7,23.4-3.7,23.4s23-0.8,27.5,1.7
		c4.5,2.5-1.3,18.2-1.3,18.2S192.4,374.4,194.5,375.4z"/>
	<path fill="#E34525" d="M76.5,271.6c0.6,2.3,1.7,4.6,3.6,6.2c2.7,2.2,6.4,2.2,8.8-0.3c2.6-2.7,1.9-6.8,0.8-10
		c-3.5-9.5-11.6-14.3-11.6-14.3C75.6,259.7,75,266.2,76.5,271.6z"/>
	<path fill="#E34525" d="M66.1,312.8c-3-0.8-6.1,0.5-8.5,2.1c-8.6,5.6-11.5,14.7-11.5,14.7c7,1,13.6,0.2,18.6-2.5
		c2.9-1.6,5.8-4.1,6-7.6C70.9,316.3,69.3,313.7,66.1,312.8z"/>
	<path fill="#E34525" d="M42.6,308.8c3.6,0.2,7.1-0.5,10.6-1.2c3.9-0.8,7.8-1.7,11.5-3.2c0.9-0.4,1.8-0.8,2.7-1.2
		c0.9-0.4,1.9-0.8,2.7-1.3c4.7-2.8,6.2-7.5,5.2-12.8c-0.4-2.2-1.1-4.4-1.8-6.2c-1.6-3.8-3.9-7.2-6.3-10.5
		c-2.1-3.1-8.5-14.5-13.5-11.5c-0.6,0.4-1.1,0.9-1.5,1.5c-2.4,3.6,0.8,8-2.1,11.4c-2.2,2.6-6.6,3-9.7,3.8c-5.8,1.5-4.4,5.3-1.5,10
		c2.5,4,5.8,6.7,0.7,10.1c-1.9,1.3-5.3,3.2-5.2,5.9C34.5,307.1,39.8,308.6,42.6,308.8z"/>
	<path fill="#E34525" d="M459.5,433.2c-4.6-2.5-9.3-4.4-13.6-7.5c-0.1-0.1-0.2-0.2-0.4-0.3c-1.4-1.8-3.3-3.5-4.7-4.8
		c-0.3-0.3-0.6-0.5-0.9-0.8c-1.5-1.8-2.8-3.7-4.3-5.5c-0.1-0.1-0.2-0.2-0.3-0.3c0-0.1,0.1-0.2,0.1-0.3c0-0.1,0-0.2,0.1-0.2
		c0.2,0,0.3,0,0.5-0.1c2.3-0.7,4.5-1.4,6.7-2c0.4,0,0.8-0.1,1.1-0.1c1.9-0.2,4.4-0.4,6.6-1.1c0.2,0,0.3,0,0.5,0
		c5.3,0,10.2,1.3,15.4,1.9c3.6,0.5,6.8-4.1,3.5-6.8c-3.6-2.8-8.5-4.8-13.7-5.7c3.7-3.8,6.5-8.3,7.8-12.7c1.2-4.1-4.2-6-6.8-3.5
		c-3.8,3.6-7.1,7.5-11.4,10.6c-0.1,0.1-0.3,0.2-0.4,0.3c-2.2,0.7-4.3,2-6,3c-0.3,0.2-0.7,0.4-1,0.6c-2.2,0.8-4.4,1.6-6.6,2.4
		c-0.2,0.1-0.3,0.1-0.4,0.2c-0.1,0-0.1-0.1-0.2-0.2c-0.1-0.1-0.1-0.1-0.2-0.1c0-0.2,0.1-0.3,0.1-0.5c0.1-2.4,0.1-4.7,0.2-7
		c0.1-0.4,0.2-0.7,0.3-1.1c0.4-1.9,1-4.3,1-6.6c0-0.2,0.1-0.3,0.1-0.5c1.7-5,4.4-9.3,6.6-14.1c1.6-3.3-1.8-7.8-5.4-5.4
		c-3.8,2.5-7.2,6.6-9.7,11.3c-2.5-4.7-5.9-8.8-9.7-11.3c-3.6-2.4-7,2.1-5.4,5.4c2.2,4.8,4.9,9,6.6,14.1c0.1,0.2,0.1,0.3,0.1,0.5
		c0,2.3,0.6,4.7,1,6.6c0.1,0.4,0.2,0.7,0.3,1.1c0.1,2.3,0.1,4.6,0.2,7c0,0.2,0,0.3,0.1,0.5c-0.1,0.1-0.1,0.1-0.2,0.1
		c-0.1,0.1-0.1,0.1-0.2,0.2c-0.1-0.1-0.3-0.1-0.4-0.2c-2.2-0.8-4.4-1.5-6.6-2.4c-0.3-0.2-0.7-0.4-1-0.6c-1.7-1-3.8-2.3-6-3
		c-0.1-0.1-0.3-0.2-0.4-0.3c-4.3-3.2-7.5-7-11.4-10.6c-2.6-2.5-8-0.7-6.8,3.5c1.2,4.4,4,8.9,7.8,12.7c-5.3,0.9-10.2,2.9-13.7,5.7
		c-3.4,2.7-0.1,7.3,3.5,6.8c5.2-0.7,10.1-1.9,15.4-1.9c0.2,0,0.3,0,0.5,0c2.2,0.7,4.7,0.9,6.6,1.1c0.4,0,0.8,0.1,1.1,0.1
		c2.2,0.6,4.5,1.3,6.7,2c0.2,0,0.3,0.1,0.5,0.1c0,0.1,0,0.2,0.1,0.2c0,0.1,0.1,0.2,0.1,0.3c-0.1,0.1-0.2,0.2-0.3,0.3
		c-1.5,1.9-2.8,3.8-4.3,5.5c-0.3,0.3-0.6,0.5-0.9,0.8c-1.5,1.3-3.4,2.9-4.7,4.8c-0.1,0.1-0.2,0.2-0.4,0.3c-4.3,3.1-9,5-13.6,7.5
		c-3.2,1.7-3.1,7.4,1.2,7.5c4.5,0.2,9.7-1.1,14.5-3.5c-0.7,5.3-0.4,10.6,1.2,14.8c1.5,4,6.9,2.4,7.5-1.2c1-5.2,1.3-10.2,2.9-15.3
		c0-0.2,0.1-0.3,0.2-0.4c1.3-1.9,2.3-4.2,3.1-6c0.1-0.3,0.3-0.7,0.4-1.1c1.2-2,2.6-3.8,3.9-5.8c0.1-0.1,0.2-0.3,0.2-0.4
		c0.1,0,0.2,0,0.3,0c0.1,0,0.2,0,0.3,0c0.1,0.1,0.1,0.3,0.2,0.4c1.3,2,2.7,3.9,3.9,5.8c0.1,0.4,0.3,0.7,0.4,1.1
		c0.8,1.8,1.7,4.1,3.1,6c0.1,0.1,0.1,0.3,0.2,0.4c1.6,5.1,1.9,10.1,2.9,15.3c0.7,3.6,6,5.2,7.5,1.2c1.6-4.3,1.9-9.5,1.2-14.8
		c4.8,2.3,9.9,3.6,14.5,3.5C462.6,440.5,462.7,434.9,459.5,433.2z M430.5,412.2c-0.2,0.6-0.5,1.1-0.9,1.6c-0.1,0-0.2-0.1-0.3-0.1
		c-0.1,0.2-0.2,0.4-0.3,0.5c-0.3,0.4-0.7,0.8-1.1,1.1c-0.4,0.3-0.9,0.5-1.4,0.7c-0.2,0.1-0.4,0.1-0.6,0.2c0,0.1,0,0.2,0,0.3
		c-0.6,0.2-1.2,0.3-1.8,0.3c-0.6,0-1.2-0.1-1.8-0.3c0-0.1,0-0.2,0-0.3c-0.2,0-0.4-0.1-0.6-0.2c-0.5-0.2-1-0.4-1.4-0.7
		c-0.4-0.3-0.8-0.7-1.1-1.1c-0.1-0.2-0.2-0.3-0.3-0.5c-0.1,0-0.2,0.1-0.3,0.1c-0.4-0.5-0.7-1-0.9-1.6c-0.2-0.6-0.2-1.2-0.2-1.8
		c0.1,0,0.2-0.1,0.3-0.1c0-0.2,0-0.4,0-0.6c0-0.5,0.1-1.1,0.2-1.6c0.2-0.5,0.4-1,0.7-1.4c0.1-0.2,0.3-0.3,0.4-0.5
		c-0.1-0.1-0.1-0.2-0.2-0.2c0.3-0.5,0.8-0.9,1.3-1.3c0.5-0.3,1.1-0.6,1.7-0.8c0.1,0.1,0.1,0.2,0.2,0.3c0.2-0.1,0.4-0.2,0.6-0.2
		c0.5-0.2,1-0.2,1.6-0.3c0.5,0,1,0.1,1.6,0.3c0.2,0.1,0.4,0.1,0.6,0.2c0.1-0.1,0.1-0.2,0.2-0.3c0.6,0.2,1.1,0.5,1.7,0.8
		c0.5,0.4,0.9,0.8,1.3,1.3c-0.1,0.1-0.1,0.2-0.2,0.2c0.1,0.2,0.3,0.3,0.4,0.5c0.3,0.4,0.6,0.9,0.7,1.4c0.1,0.5,0.2,1,0.2,1.6
		c0,0.2,0,0.4,0,0.6c0.1,0,0.2,0.1,0.3,0.1C430.7,411,430.6,411.6,430.5,412.2z"/>
</g>
<g id="Слой_4">
	<path fill="#EFC928" d="M454.5,99.2c1.3,0.4,3.4,1.1,3.4,1.1c1.3-2.2,4.7-3.6,7.2-8.3c2.4-4.7,2.4-11.9,1.3-17.2
		c0,0-6.5-4-15.8-1.9c-9.2,2.1-12.8,9.7-12.8,9.7s0.2,2.2,3.2,7.1C447.2,98.6,453.2,98.8,454.5,99.2z"/>
	<path fill="#EFC928" d="M605.8,111.4c9.1,2.6,15.9-2.4,15.9-2.4s0.9-2,0.5-7.7c-1.1-10.9-6.3-13.9-7.2-14.8c-0.9-1-2.5-2.6-2.5-2.6
		c-2.2,1.4-5.9,0.9-10.3,3.9c-4.4,2.9-7.8,9.4-9.4,14.5C592.9,102.2,596.7,108.8,605.8,111.4z"/>
	<path fill="#EFC928" d="M390.2,100.3c0,0,2.1-0.7,3.4-1.1c1.3-0.4,7.2-0.5,13.4-9.6c3-4.9,3.2-7.1,3.2-7.1s-3.6-7.6-12.8-9.7
		s-15.8,1.9-15.8,1.9c-1,5.3-1.1,12.6,1.3,17.2C385.5,96.7,389,98.1,390.2,100.3z"/>
	<path fill="#EFC928" d="M242.3,111.4c9.1-2.6,12.9-9.2,12.9-9.2c-1.6-5.1-5-11.6-9.4-14.5c-4.4-2.9-8.1-2.5-10.3-3.9
		c0,0-1.5,1.7-2.5,2.6c-0.9,1-6.1,3.9-7.2,14.8c-0.3,5.8,0.5,7.7,0.5,7.7S233.2,113.9,242.3,111.4z"/>
	<path fill="#EFC928" d="M739.2,350.8c5.2,0.9,12.1-1.4,16.8-4.1c0,0,1.8-7.5-3-15.6c-4.8-8.1-13.2-9.2-13.2-9.2s-2,0.8-5.7,5.2
		c-6.7,8.7-5,14.4-5,15.7c0,1.4,0,3.6,0,3.6C731.6,347,734,349.9,739.2,350.8z"/>
	<path fill="#EFC928" d="M785.7,479.9c-4.2-3.2-11.3-4.5-16.7-4.4c0,0-5.1,5.7-4.7,15.1c0.4,9.4,7.2,14.4,7.2,14.4s2.2,0.2,7.5-1.9
		c10-4.5,11.2-10.3,11.9-11.5c0.6-1.2,1.7-3.2,1.7-3.2C790.7,486.8,789.9,483.2,785.7,479.9z"/>
	<path fill="#EFC928" d="M731.3,295.8c0,0,6.1-5.8,5.2-15.2c-0.9-9.4-6.7-14.4-6.7-14.4c-5.3,0.6-12.3,2.8-16,6.6s-4,7.5-5.7,9.4
		c0,0,1.4,1.8,2.1,2.9c0.8,1.1,2.7,6.7,13.3,9.8C729.2,296.3,731.3,295.8,731.3,295.8z"/>
	<path fill="#EFC928" d="M652,144.9c5.2,7.9,12.7,9.5,12.7,9.5c4.4-3.1,9.5-8.3,10.9-13.4c1.5-5.1-0.1-8.5,0.5-11
		c0,0-2.1-0.9-3.3-1.5c-1.2-0.6-5.6-4.6-16.3-2.3c-5.6,1.5-7.2,2.9-7.2,2.9S646.7,137.1,652,144.9z"/>
	<path fill="#EFC928" d="M577.9,691.5c0.8,5.2,5.1,11.1,9.1,14.7c0,0,7.6-0.6,13.9-7.7c6.2-7.1,4.7-15.4,4.7-15.4s-1.4-1.7-6.8-3.8
		c-10.3-3.7-15.2-0.3-16.5,0.1c-1.3,0.4-3.4,1.1-3.4,1.1C579,683.1,577.1,686.3,577.9,691.5z"/>
	<path fill="#EFC928" d="M452.6,758.5c-8.9,3.3-11.4,11.3-11.4,11.3s0.4,2.1,4.1,6.6c7.3,8.2,13.2,7.5,14.6,7.7
		c1.3,0.2,3.5,0.7,3.5,0.7c1-2.4,4.2-4.2,6-9.2c1.8-5,0.8-12.2-0.9-17.3C468.5,758.4,461.5,755.3,452.6,758.5z"/>
	<path fill="#EFC928" d="M643.8,667.3c8.7-3.7,11.6-10.8,11.6-10.8c-2.3-4.9-6.5-10.8-11.2-13.2c-4.7-2.3-8.4-1.5-10.7-2.5
		c0,0-1.3,1.9-2.1,2.9c-0.8,1.1-5.5,4.7-5.2,15.7c0.4,5.8,1.6,7.6,1.6,7.6S635.1,671,643.8,667.3z"/>
	<path fill="#EFC928" d="M760.9,537.5c0,0-8.4,0-14.2,7.4c-5.9,7.4-5.1,15-5.1,15c4.3,3.2,10.9,6.4,16.1,6.2s8-2.7,10.6-2.9
		c0,0,0.3-2.2,0.4-3.6c0.2-1.3,2.6-6.7-2.9-16.3C762.8,538.6,760.9,537.5,760.9,537.5z"/>
	<path fill="#EFC928" d="M204.3,667.3c8.7,3.7,16-0.3,16-0.3s1.1-1.8,1.6-7.6c0.3-11-4.4-14.6-5.2-15.7c-0.8-1.1-2.1-2.9-2.1-2.9
		c-2.3,1.1-6,0.2-10.7,2.5c-4.7,2.3-8.9,8.3-11.2,13.2C192.7,656.5,195.7,663.6,204.3,667.3z"/>
	<path fill="#EFC928" d="M106.5,559.9c0,0,0.8-7.6-5.1-15c-5.9-7.4-14.2-7.4-14.2-7.4s-1.9,1.1-5,5.9c-5.5,9.5-3.1,14.9-2.9,16.3
		s0.4,3.6,0.4,3.6c2.6,0.2,5.3,2.7,10.6,2.9C95.7,566.3,102.2,563.1,106.5,559.9z"/>
	<path fill="#EFC928" d="M265.9,679.5c-1.3-0.4-6.2-3.8-16.5-0.1c-5.3,2.2-6.8,3.8-6.8,3.8s-1.5,8.2,4.7,15.4
		c6.2,7.1,13.9,7.7,13.9,7.7c3.9-3.7,8.3-9.5,9.1-14.7c0.8-5.2-1.2-8.4-0.9-10.9C269.4,680.6,267.2,679.9,265.9,679.5z"/>
	<path fill="#EFC928" d="M395.5,758.5c-8.9-3.3-15.9-0.2-15.9-0.2c-1.7,5.1-2.7,12.3-0.9,17.3s5.1,6.8,6,9.2c0,0,2.2-0.5,3.5-0.7
		c1.3-0.2,7.2,0.4,14.6-7.7c3.7-4.5,4.1-6.6,4.1-6.6S404.4,761.8,395.5,758.5z"/>
	<path fill="#EFC928" d="M137.8,285.1c0.8-1.1,2.1-2.9,2.1-2.9c-1.7-1.9-2-5.6-5.7-9.4s-10.6-5.9-16-6.6c0,0-5.8,5-6.7,14.4
		c-0.9,9.4,5.2,15.2,5.2,15.2s2.1,0.5,7.7-0.9C135,291.8,137,286.2,137.8,285.1z"/>
	<path fill="#EFC928" d="M172.5,141c1.5,5.1,6.5,10.3,10.9,13.4c0,0,7.5-1.6,12.7-9.5c5.2-7.9,2.6-15.8,2.6-15.8s-1.6-1.5-7.2-2.9
		c-10.7-2.3-15.1,1.7-16.3,2.3c-1.2,0.6-3.3,1.5-3.3,1.5C172.6,132.5,171.1,135.9,172.5,141z"/>
	<path fill="#EFC928" d="M114,327.2c-3.7-4.4-5.7-5.2-5.7-5.2s-8.3,1.1-13.2,9.2c-4.8,8.1-3,15.6-3,15.6c4.7,2.6,11.6,4.9,16.8,4.1
		c5.2-0.9,7.6-3.7,10.1-4.2c0,0,0-2.3,0-3.6C119,341.6,120.7,335.9,114,327.2z"/>
	<path fill="#EFC928" d="M83.8,490.6c0.4-9.4-4.7-15.1-4.7-15.1c-5.4-0.1-12.5,1.2-16.7,4.4c-4.2,3.2-4.9,6.9-6.9,8.6
		c0,0,1.1,2,1.7,3.2c0.6,1.2,1.8,7,11.9,11.5c5.4,2.1,7.5,1.9,7.5,1.9S83.4,500.1,83.8,490.6z"/>
	<path fill="#EFC928" d="M457.2,251.2c-8.3,23.9,1.8,33.6,8.5,37.1c5-11.6,6.3-21.4,5.4-24.7c-0.9-3.5-1.5-16.5-1.5-16.5
		c3,19,13.8-7.7,14.3-8.8c0,0-11.5,40.8-15.4,51.2c0.1,0,0.1,0,0.2,0.1c-2.4,5.9-6.9,15.3-14.5,27.8l4.5,1.6c0,0,7.3-12.2,13.3-28.7
		c14.6,1.4,24.7-8.6,29.3-26c4.8-18,2.4-39.6-6.2-61.1C495,203.2,468.2,219.5,457.2,251.2z"/>
	<path fill="#EFC928" d="M382.5,288.3c6.7-3.5,16.8-13.2,8.5-37.1c-11.1-31.7-37.8-48-37.8-48c-8.6,21.4-11,43-6.2,61.1
		c4.6,17.4,14.7,27.4,29.3,26c6,16.5,13.3,28.7,13.3,28.7l4.5-1.6c-7.6-12.5-12-21.9-14.5-27.8c0.1,0,0.1,0,0.2-0.1
		c-3.9-10.4-15.4-51.2-15.4-51.2c0.5,1.1,11.2,27.8,14.3,8.8c0,0-0.7,13-1.5,16.5C376.2,267,377.5,276.7,382.5,288.3z"/>
	<path fill="#EFC928" d="M586.6,438.4c18.6-1,38.4-10,56.2-24.7c0,0-23.7-20.4-57.4-21.2c-25.3-0.5-31.4,12.1-32.7,19.5
		c12.6,1.1,22.3-0.6,25.2-2.4c3.1-1.9,15.2-6.5,15.2-6.5c-17.1,8.8,11.6,10.7,12.8,10.9c0,0-42.3,1.7-53.4,1.2c0,0.1,0,0.1,0,0.2
		c-6.4-0.5-16.7-1.8-30.9-5.2l-0.1,4.7c0,0,13.8,3.2,31.4,3.7C556,432.9,568.6,439.3,586.6,438.4z"/>
	<path fill="#EFC928" d="M500,349.1l2.9,3.8c9.6-11.1,17.1-18.2,22-22.3c0,0,0.1,0.1,0.1,0.1c8.7-6.9,43.9-30.4,43.9-30.4
		c-0.9,0.8-23,19.3-3.9,16.3c0,0-12.5,3.4-16.1,3.6c-3.4,0.2-12.3,4.5-21.8,12.8c5.4,5.3,17.8,11.9,37.9-3.4
		c26.8-20.3,34-50.8,34-50.8c-23-1.6-44.3,2.9-60,13c-15.1,9.8-21.5,22.4-15.7,35.9C509.3,338.4,500,349.1,500,349.1z"/>
	<path fill="#EFC928" d="M447.4,573.4c6.7,17.4,21.3,33.5,40.9,45.8c0,0,12.1-28.9,2.4-61.1c-7.3-24.2-21.2-26.1-28.7-25.1
		c2.8,12.3,7.5,21,10.1,23.2c2.8,2.3,10.9,12.4,10.9,12.4c-13.6-13.6-6.6,14.3-6.4,15.5c0,0-14.7-39.8-17.7-50.4
		c-0.1,0-0.1,0-0.2,0.1c-1.5-6.2-3.4-16.4-4.6-31l-4.5,1.4c0,0,1.3,14.1,6.1,31.1C443.2,542.6,440.9,556.6,447.4,573.4z"/>
	<path fill="#EFC928" d="M603.1,535.7c-5.6-22.4-16.4-41.3-30.9-53c-14-11.4-28-13.5-39-3.8c-14.6-9.9-27.6-15.4-27.6-15.4l-2.7,3.9
		c13.5,5.7,22.6,10.7,28,14c0,0-0.1,0.1-0.1,0.1c9.2,6.1,42.5,32.4,42.5,32.4c-1-0.6-25.4-15.9-16.7,1.3c0,0-7.1-10.9-8.4-14.2
		c-1.3-3.2-8.1-10.3-18.9-16.8c-3.3,6.8-5.8,20.6,15,35C571.8,538.3,603.1,535.7,603.1,535.7z"/>
	<path fill="#EFC928" d="M342.6,463.4c0,0-13.1,5.6-27.6,15.4c-11-9.7-25-7.5-39,3.8c-14.5,11.8-25.3,30.7-30.9,53
		c0,0,31.2,2.6,58.8-16.6c20.8-14.4,18.3-28.2,15-35c-10.8,6.5-17.6,13.6-18.9,16.8c-1.4,3.4-8.4,14.2-8.4,14.2
		c8.7-17.2-15.7-1.9-16.7-1.3c0,0,33.3-26.2,42.5-32.4c0,0-0.1-0.1-0.1-0.1c5.4-3.3,14.5-8.3,28-14L342.6,463.4z"/>
	<path fill="#EFC928" d="M376,556.2c2.6-2.2,7.3-10.9,10.1-23.2c-7.5-1.1-21.4,0.9-28.7,25.1c-9.7,32.2,2.4,61.1,2.4,61.1
		c19.5-12.3,34.2-28.4,40.9-45.8c6.5-16.8,4.2-30.8-8.4-38.3c4.9-16.9,6.1-31.1,6.1-31.1l-4.5-1.4c-1.2,14.6-3.1,24.8-4.6,31
		c-0.1,0-0.1,0-0.2-0.1c-3,10.7-17.7,50.4-17.7,50.4c0.2-1.2,7.3-29.1-6.4-15.5C365.1,568.6,373.2,558.5,376,556.2z"/>
	<path fill="#EFC928" d="M309.2,291.7c-15.7-10.1-37-14.5-60-13c0,0,7.2,30.5,34,50.8c20.1,15.3,32.5,8.7,37.9,3.4
		c-9.5-8.3-18.4-12.6-21.8-12.8c-3.6-0.3-16.1-3.6-16.1-3.6c19,3-3.1-15.5-3.9-16.3c0,0,35.2,23.5,43.9,30.4c0,0,0.1-0.1,0.1-0.1
		c4.8,4.1,12.4,11.2,22,22.3l2.9-3.8c0,0-9.3-10.7-23.2-21.5C330.7,314.1,324.3,301.4,309.2,291.7z"/>
	<path fill="#EFC928" d="M295.4,412c-1.3-7.4-7.4-20.1-32.7-19.5c-33.6,0.7-57.4,21.2-57.4,21.2c17.7,14.8,37.5,23.7,56.2,24.7
		c18,1,30.6-5.5,33.8-19.8c17.6-0.6,31.4-3.7,31.4-3.7l-0.1-4.7c-14.2,3.4-24.5,4.7-30.9,5.2c0-0.1,0-0.1,0-0.2
		c-11.1,0.5-53.4-1.2-53.4-1.2c1.2-0.1,29.9-2.1,12.8-10.9c0,0,12.1,4.6,15.2,6.5C273.2,411.4,282.9,413.1,295.4,412z"/>
</g>
<g id="Слой_3">
	<path fill="#255A40" d="M578.7,144.8c0.2,0.5,0.4,0.9,0.6,1.3c-7.2,12.5-3.1,23.4-0.8,27.9c-4.7,5.5-8.4,11.6-11,17.2
		c-1.1,2.4-2,4.8-2.7,7.2c-2.5-3.5-5.5-9.2-4.9-16.5c0.1,0,0.2,0,0.3-0.1c3.6-1.2,5.6-5.1,4.4-8.7c-1.2-3.6-5.1-5.6-8.7-4.4
		c-3.6,1.2-5.6,5.1-4.4,8.7c0.4,1.4,1.3,2.5,2.3,3.3c-1.3,12.7,5.9,21.5,9,24.8c-1.1,4.7-1.8,9.5-2.5,14.1
		c-0.8,5.4-1.6,10.7-2.9,15.7c-4.5-3.4-11.9-10.8-10-22.7c0.1,0,0.2,0,0.2-0.1c3.6-1.2,5.6-5.1,4.4-8.7c-1.2-3.6-5.1-5.6-8.7-4.4
		c-3.6,1.2-5.6,5.1-4.4,8.7c0.5,1.4,1.3,2.6,2.5,3.4c-2.8,16.4,9,26.3,14.1,29.8c-0.4,1.2-0.9,2.4-1.4,3.5
		c-2.6,5.9-6.4,11.1-10.5,15.5c-2.8-3.3-7.7-9.9-9.3-17.7c3.4-1.8,5.1-5.8,3.8-9.6c-1.4-4.2-5.9-6.6-10.2-5.2
		c-4.2,1.4-6.6,5.9-5.2,10.2c0.9,2.7,3,4.6,5.5,5.3c1.8,9.7,7.8,17.6,11.1,21.3c-11.1,10.2-23.1,15.3-23.3,15.4
		c-1.5,0.6-2.3,2.4-1.6,4c0.5,1.2,1.6,1.9,2.8,1.9c0.4,0,0.8-0.1,1.2-0.2c0.8-0.3,14.2-6.1,26.3-17.6c1.6,0.2,4.3,0.4,7.5,0.4
		c5.6,0,12.9-0.7,19.2-3.8c1.9,1.3,4.3,1.7,6.7,1c4-1.3,6.2-5.6,4.9-9.7c-1.3-4-5.6-6.2-9.7-4.9c-3.6,1.2-5.8,4.8-5.2,8.5
		c-5.9,2.7-13.1,3-18,2.9c3.7-4.4,7.1-9.4,9.6-15c0.6-1.5,1.2-2.9,1.7-4.4c0.6,0.1,1.4,0.1,2.2,0.1c6,0,16.2-1.9,22.6-7.9
		c1.5,0.7,3.3,0.9,5,0.3c3.6-1.2,5.6-5.1,4.4-8.7c-1.2-3.6-5.1-5.6-8.7-4.4c-3.4,1.1-5.3,4.6-4.6,8c-5.2,5.2-14.7,6.7-19.1,6.7
		c1.4-5.5,2.3-11.1,3.1-16.6c0.6-4.1,1.3-8.3,2.1-12.4c3.2,0.7,8.3,1.8,13.8,1.8c2.3,0,4.7-0.2,6.9-0.7c1.8,1.5,4.2,2.1,6.6,1.4
		c3.6-1.2,5.6-5.1,4.4-8.7c-1.2-3.6-5.1-5.6-8.7-4.4c-2.7,0.9-4.5,3.3-4.7,6c-6.1,1-13.1-0.4-16.9-1.3c0.8-2.9,1.8-5.8,3.1-8.6
		c2.4-5.3,6-11.2,10.5-16.3c2.6,3,8.4,8.1,18.7,8.1c0.2,0,0.3,0,0.5,0c1.6,2.6,4.9,4,8,3c3.6-1.2,5.6-5.1,4.4-8.7
		c-1.2-3.6-5.1-5.6-8.7-4.4c-2,0.7-3.5,2.2-4.2,4c-8.6-0.1-12.9-4.4-14.4-6.3c4.5-4.2,9.8-7.6,15.6-9.5c1.7,2.4,4.8,3.6,7.7,2.6
		c3.6-1.2,5.6-5.1,4.4-8.7c-1.2-3.6-5.1-5.6-8.7-4.4c-2.2,0.7-3.7,2.4-4.4,4.4c-7.5,2.2-14.1,6.6-19.6,11.9
		c-1.7-4-3.3-11.4,1.5-19.9c1,0.1,2,0.1,3-0.3c3.6-1.2,5.6-5.1,4.4-8.7c-1.2-3.6-5.1-5.6-8.7-4.4
		C579.5,137.3,577.5,141.2,578.7,144.8z"/>
	<path fill="#255A40" d="M417.4,243.3c5.2-4.9,3-15.2-3.6-17.2c-3.1-1.8-7.1-2-10.8-0.2c-6.9,3.4-8.2,12.4-3.3,18.1
		C404.7,249.9,412.4,248.1,417.4,243.3z M406.5,232.3c0.4-0.3,0.9-0.5,1.3-0.7c0.8,1.4,1.8,2.7,2.7,4c0.4,0.5,0.3,1.3,0.1,1.8
		c-0.7,1.8-2.8,3.3-4.6,1.8C403.5,237.3,404.1,233.9,406.5,232.3z"/>
	<path fill="#255A40" d="M484.5,40.9c3.9-1.4,5.9-5.9,4.5-9.8c-1.4-3.9-5.9-5.9-9.8-4.5c-3.9,1.4-5.9,5.9-4.5,9.8
		C476.1,40.3,480.6,42.4,484.5,40.9z"/>
	<path fill="#255A40" d="M646.4,113c3.9-1.4,5.9-5.9,4.5-9.8c-1.4-3.9-5.9-5.9-9.8-4.5s-5.9,5.9-4.5,9.8
		C638,112.4,642.5,114.4,646.4,113z"/>
	<path fill="#255A40" d="M370.1,32.8c3.9-1.4,5.9-5.9,4.5-9.8c-1.4-3.9-5.9-5.9-9.8-4.5c-3.9,1.4-5.9,5.9-4.5,9.8
		S366.2,34.3,370.1,32.8z"/>
	<path fill="#255A40" d="M650.2,465.8c0,0.1,0.1,0.1,0.1,0.2c2.2,3.1,6.5,3.8,9.6,1.5c3.1-2.2,3.8-6.5,1.5-9.6
		c-2.2-3.1-6.5-3.8-9.6-1.5c-1.2,0.9-2,2.1-2.5,3.4c-16.5,2.4-22.3,16.7-24,22.7c-1.3,0-2.5-0.1-3.8-0.3c-6.4-0.7-12.5-2.7-18-5.2
		c2.2-3.7,7-10.4,13.9-14.3c2.8,2.6,7.1,3,10.3,0.7c3.6-2.6,4.4-7.7,1.8-11.3c-2.6-3.6-7.7-4.4-11.3-1.8c-2.3,1.6-3.4,4.2-3.3,6.8
		c-8.7,4.7-14.3,12.8-16.8,17.1c-13.1-7.4-21.7-17.2-21.8-17.4c-1.1-1.3-3-1.4-4.3-0.3c-1.3,1.1-1.4,3-0.3,4.3
		c0.6,0.7,10.1,11.6,24.9,19.6c0.8,4.3,3.8,16.4,11.4,24.3c-0.6,2.2-0.3,4.7,1.2,6.7c2.5,3.4,7.3,4.2,10.7,1.7
		c3.4-2.5,4.2-7.3,1.7-10.7c-2.2-3.1-6.4-4-9.7-2.3c-4.4-4.8-6.9-11.5-8.3-16.3c5.3,2.2,11.1,3.9,17.2,4.5c1.6,0.2,3.1,0.2,4.7,0.3
		c1.2,5.4,6.4,16.3,15.1,21.1c-0.2,1.7,0.2,3.4,1.2,4.8c2.2,3.1,6.5,3.8,9.6,1.5c3.1-2.2,3.8-6.5,1.5-9.6c-2.1-2.9-6-3.6-9-1.9
		c-6.6-3.4-10.9-11.9-12.2-16.2c5.7-0.3,11.2-1.3,16.7-2.2c4.1-0.7,8.3-1.3,12.5-1.8c0.4,4.6,1.4,13.3,5.3,20.1
		c-0.9,2.1-0.7,4.7,0.7,6.7c2.2,3.1,6.5,3.8,9.6,1.5c3.1-2.2,3.8-6.5,1.5-9.6c-1.7-2.3-4.5-3.3-7.2-2.6c-2.8-5.5-3.7-12.5-4-16.5
		c3-0.1,6-0.1,9.1,0.3c5.8,0.6,12.4,2.3,18.8,5c-2.1,3.5-5.2,10.7-1.7,20.7c-2,2.4-2.2,5.9-0.3,8.5c2.2,3.1,6.5,3.8,9.6,1.5
		c3.1-2.2,3.8-6.5,1.5-9.6c-1.3-1.7-3.2-2.7-5.2-2.8c-2.6-8.2,0.2-13.6,1.6-15.7c5.4,3,10.2,6.9,13.8,11.9c-1.8,2.4-1.9,5.7-0.1,8.2
		c2.2,3.1,6.5,3.8,9.6,1.5c3.1-2.2,3.8-6.5,1.5-9.6c-1.3-1.8-3.4-2.8-5.5-2.8c-4.4-6.4-10.6-11.3-17.3-15c3.3-2.8,9.9-6.6,19.3-4.8
		c0.2,1,0.6,1.9,1.2,2.8c2.2,3.1,6.5,3.8,9.6,1.5c3.1-2.2,3.8-6.5,1.5-9.6c-2.2-3.1-6.5-3.8-9.6-1.5c-0.4,0.3-0.7,0.6-1.1,1
		c-14.1-3-23.3,4.3-26.8,7.8c-6.7-2.8-13.6-4.5-19.7-5.1c-2.6-0.3-5.2-0.4-7.7-0.4c2.5-3.5,7-8,14.2-9.8c0.1,0.1,0.1,0.2,0.2,0.3
		c2.2,3.1,6.5,3.8,9.6,1.5c3.1-2.2,3.8-6.5,1.5-9.6c-2.2-3.1-6.5-3.8-9.6-1.5c-1.2,0.8-2,2-2.4,3.3c-12.5,2.7-18.7,12.2-20.8,16.2
		c-4.8,0.4-9.6,1.2-14.2,2c-5.4,0.9-10.7,1.7-15.9,2.1C633.6,477,638.4,467.7,650.2,465.8z"/>
	<path fill="#255A40" d="M574.8,335.1c-4,6.5,0.1,13.4,6.2,16.6c6.3,3.4,15.4-1.9,15.3-8.8c0.7-3.5-0.3-7.4-3.2-10.4
		C587.7,327.1,578.7,328.6,574.8,335.1z M588.1,337.9c0.4,0.3,0.8,0.7,1,1.1c-1.1,1.2-2,2.5-3,3.8c-0.4,0.5-1.2,0.7-1.7,0.6
		c-1.9-0.1-4-1.6-3.2-3.8C582.4,336.6,585.9,336.1,588.1,337.9z"/>
	<path fill="#255A40" d="M804.9,354.2c3.3-2.6,3.8-7.4,1.3-10.7c-2.6-3.3-7.4-3.8-10.7-1.3c-3.3,2.6-3.8,7.4-1.3,10.7
		C796.7,356.2,801.6,356.8,804.9,354.2z"/>
	<path fill="#255A40" d="M777,518.5c-3.3,2.6-3.8,7.4-1.3,10.7c2.6,3.3,7.4,3.8,10.7,1.3c3.3-2.6,3.8-7.4,1.3-10.7
		C785.1,516.5,780.2,515.9,777,518.5z"/>
	<path fill="#255A40" d="M777.2,242.9c3.3-2.6,3.8-7.4,1.3-10.7c-2.6-3.3-7.4-3.8-10.7-1.3c-3.3,2.6-3.8,7.4-1.3,10.7
		C769.1,244.9,774,245.5,777.2,242.9z"/>
	<path fill="#255A40" d="M428.3,725.1c1.3-1.8,1.6-4.1,1-6.1c4.7-6.2,7.5-13.6,8.9-21.1c3.7,2.3,9.3,7.3,10.5,16.9
		c-0.9,0.5-1.7,1.1-2.3,2c-2.2,3.1-1.6,7.4,1.5,9.6s7.4,1.6,9.6-1.5c2.2-3.1,1.6-7.4-1.5-9.6c-0.4-0.3-0.8-0.5-1.2-0.7
		c-1.5-14.3-11.2-20.8-15.7-23.1c0.6-7.2,0-14.3-1.2-20.3c-0.5-2.6-1.2-5-2-7.4c4.1,1.3,9.8,4.2,13.7,10.4c-0.1,0.1-0.1,0.2-0.2,0.2
		c-2.2,3.1-1.6,7.4,1.5,9.6c3.1,2.2,7.4,1.6,9.6-1.5c2.2-3.1,1.6-7.4-1.5-9.6c-1.2-0.8-2.5-1.3-3.8-1.3c-6.4-11-17.4-14-21.9-14.7
		c-1.9-4.5-4.1-8.7-6.3-12.9c-2.5-4.9-5-9.6-6.9-14.5c5.6,0,16,1.7,21.4,12.4c-0.1,0.1-0.1,0.1-0.2,0.2c-2.2,3.1-1.6,7.4,1.5,9.6
		s7.4,1.6,9.6-1.5c2.2-3.1,1.6-7.4-1.5-9.6c-1.2-0.9-2.6-1.3-4-1.3c-7.4-14.9-22.8-16-28.9-15.8c-0.3-1.2-0.7-2.4-0.9-3.7
		c-1.3-6.3-1.3-12.7-0.6-18.7c4.2,1,12.1,3.4,17.9,8.8c-1.7,3.5-0.7,7.7,2.5,10c3.6,2.6,8.7,1.8,11.3-1.8c2.6-3.6,1.8-8.7-1.8-11.3
		c-2.3-1.6-5.1-1.9-7.5-1.1c-7.1-6.8-16.6-9.6-21.5-10.7c3-14.8,9.7-25.9,9.8-26.1c0.9-1.4,0.4-3.3-1-4.2c-1.4-0.9-3.3-0.4-4.2,1
		c-0.5,0.8-7.9,13.2-10.9,29.7c-3.8,2.1-14.4,8.6-19.6,18.4c-2.3,0.1-4.5,1.2-6,3.2c-2.5,3.4-1.7,8.2,1.7,10.7s8.2,1.7,10.7-1.7
		c2.2-3.1,1.8-7.3-0.8-9.9c3.2-5.7,8.8-10.1,12.9-12.9c-0.5,5.7-0.2,11.7,1,17.8c0.3,1.6,0.7,3.1,1.2,4.6
		c-4.7,2.8-13.5,11.1-15.4,20.9c-1.6,0.3-3.2,1.2-4.2,2.7c-2.2,3.1-1.6,7.4,1.5,9.6s7.4,1.6,9.6-1.5c2.1-2.9,1.6-6.8-1-9.2
		c1.1-7.3,7.9-14.1,11.6-16.6c2.1,5.3,4.7,10.3,7.2,15.2c1.9,3.7,3.8,7.4,5.6,11.3c-4.3,1.8-12.2,5.4-17.4,11.3
		c-2.3-0.2-4.7,0.8-6.2,2.8c-2.2,3.1-1.6,7.4,1.5,9.6c3.1,2.2,7.4,1.6,9.6-1.5c1.7-2.3,1.7-5.3,0.3-7.6c4.3-4.4,10.8-7.4,14.4-8.9
		c1,2.8,1.9,5.7,2.6,8.7c1.2,5.7,1.7,12.5,1.1,19.4c-4-1-11.8-1.6-20.3,4.8c-2.9-1.2-6.3-0.3-8.2,2.3c-2.2,3.1-1.6,7.4,1.5,9.6
		c3.1,2.2,7.4,1.6,9.6-1.5c1.3-1.7,1.6-3.9,1.1-5.8c7-5,13-4,15.4-3.3c-1.2,6-3.4,11.9-7,16.8c-2.8-1-6-0.1-7.8,2.4
		c-2.2,3.1-1.6,7.4,1.5,9.6C421.7,728.9,426,728.2,428.3,725.1z"/>
	<path fill="#255A40" d="M528.5,540.8c-1.3,7,6.5,14,13,11.8c3.6-0.4,6.9-2.5,8.9-6.2c3.5-6.8-0.7-14.9-8-16.6
		C534.9,528,529.7,533.9,528.5,540.8z M543.7,543.3c-0.2,0.5-0.4,0.9-0.7,1.3c-1.4-0.7-3-1.2-4.5-1.7c-0.6-0.2-1-0.9-1.1-1.4
		c-0.5-1.9,0.3-4.3,2.7-4.2C543.3,537.4,544.8,540.6,543.7,543.3z"/>
	<path fill="#255A40" d="M603.7,741.8c-3.4-2.3-8.2-1.4-10.5,2.1c-2.3,3.4-1.4,8.2,2.1,10.5s8.2,1.4,10.5-2.1
		C608.1,748.9,607.2,744.1,603.7,741.8z"/>
	<path fill="#255A40" d="M430.4,778.7c-3.4-2.3-8.2-1.4-10.5,2.1c-2.3,3.4-1.4,8.2,2.1,10.5c3.4,2.3,8.2,1.4,10.5-2.1
		C434.8,785.8,433.8,781,430.4,778.7z"/>
	<path fill="#255A40" d="M701,681.1c-3.4-2.3-8.2-1.4-10.5,2.1c-2.3,3.4-1.4,8.2,2.1,10.5c3.4,2.3,8.2,1.4,10.5-2.1
		C705.4,688.2,704.4,683.4,701,681.1z"/>
	<path fill="#255A40" d="M219.6,469.6c1-0.7,2.1-1.4,3.2-2c5.6-3.2,11.7-5.2,17.6-6.4c0.4,4.3,0.5,12.5-2.8,19.8
		c-3.8-0.5-7.5,1.7-8.8,5.5c-1.4,4.2,0.9,8.8,5.2,10.2c4.2,1.4,8.8-0.9,10.2-5.2c0.9-2.7,0.3-5.4-1.3-7.5c4.2-8.9,4-18.8,3.6-23.7
		c15-1.7,27.7,1.2,27.9,1.3c1.6,0.4,3.3-0.6,3.6-2.3c0.4-1.6-0.6-3.3-2.3-3.6c-0.9-0.2-15-3.4-31.6-1.2c-3.2-3-12.7-11-23.6-13
		c-0.8-2.2-2.5-4-4.9-4.7c-4-1.3-8.4,0.9-9.7,4.9c-1.3,4,0.9,8.4,4.9,9.7c3.6,1.2,7.5-0.5,9.2-3.8c6.4,1.3,12.4,5.2,16.3,8.3
		c-5.6,1.3-11.2,3.4-16.6,6.5c-1.4,0.8-2.7,1.7-4,2.5c-4.1-3.6-14.8-9.4-24.7-8.2c-0.8-1.5-2.1-2.6-3.8-3.2
		c-3.6-1.2-7.5,0.8-8.7,4.4c-1.2,3.6,0.8,7.5,4.4,8.7c3.4,1.1,7-0.6,8.4-3.8c7.3-1.2,15.8,3.2,19.4,5.9c-4.4,3.6-8.4,7.6-12.2,11.6
		c-2.9,3-5.9,5.9-9,8.8c-3-3.5-8.9-9.9-16.1-13.1c-0.5-2.3-2.2-4.2-4.5-5c-3.6-1.2-7.5,0.8-8.7,4.4c-1.2,3.6,0.8,7.5,4.4,8.7
		c2.7,0.9,5.6,0,7.3-2.1c5.5,2.8,10.3,8,12.9,11c-2.4,1.9-4.9,3.6-7.5,5.1c-5.1,2.9-11.4,5.5-18.1,7c-0.3-4-2.1-11.7-10.8-17.8
		c0.2-3.1-1.6-6.1-4.7-7.1c-3.6-1.2-7.5,0.8-8.7,4.4s0.8,7.5,4.4,8.7c2,0.7,4.1,0.3,5.8-0.8c6.9,5.1,7.8,11.2,7.9,13.6
		c-6.1,0.7-12.4,0.4-18.2-1.5c0.1-2.9-1.8-5.7-4.7-6.7c-3.6-1.2-7.5,0.8-8.7,4.4c-1.2,3.6,0.8,7.5,4.4,8.7c2.2,0.7,4.4,0.3,6.2-1
		c4.9,1.7,10,2.5,15.1,2.5c2.6,0,5.2-0.2,7.7-0.5c-1,4.2-4,11.1-12.9,15.2c-0.7-0.7-1.6-1.2-2.6-1.6c-3.6-1.2-7.5,0.8-8.7,4.4
		s0.8,7.5,4.4,8.7c3.6,1.2,7.5-0.8,8.7-4.4c0.2-0.5,0.2-0.9,0.3-1.4c13.1-5.9,16.3-17.1,17.1-22.1c7.1-1.7,13.6-4.4,19-7.4
		c2.3-1.3,4.4-2.7,6.4-4.2c0,4.3-1,10.6-5.7,16.2c-0.1,0-0.2-0.1-0.3-0.1c-3.6-1.2-7.5,0.8-8.7,4.4c-1.2,3.6,0.8,7.5,4.4,8.7
		c3.6,1.2,7.5-0.8,8.7-4.4c0.4-1.4,0.4-2.8,0.1-4.1c8.5-9.5,7.9-20.9,7.3-25.3c3.7-3.2,7-6.6,10.3-10c3.9-3.9,7.6-7.7,11.6-11
		c1.7,5.3,3.3,15.8-5.2,24.2c-0.1,0-0.1-0.1-0.2-0.1c-3.6-1.2-7.5,0.8-8.7,4.4c-1.2,3.6,0.8,7.5,4.4,8.7c3.6,1.2,7.5-0.8,8.7-4.4
		c0.5-1.4,0.4-2.9,0-4.2C225.4,490.3,221.7,475.4,219.6,469.6z"/>
	<path fill="#255A40" d="M325.2,565.3c1.5,3.3,4.6,5.8,8.7,6.5c7.6,1.3,13.9-5.2,13.3-12.7c-0.6-7.6-7.9-10.8-14.8-9.8
		C325.3,550.2,321.1,559.8,325.2,565.3z M333.5,559.5c0-0.7,0.6-1.2,1-1.5c1.6-1,4.2-1,4.8,1.2c0.8,3.1-1.7,5.5-4.6,5.4
		c-0.5,0-1-0.1-1.5-0.3C333.5,562.7,333.4,561,333.5,559.5z"/>
	<path fill="#255A40" d="M159.2,673.5c-4-1.1-8.3,1.3-9.4,5.2c-1.1,4,1.3,8.3,5.2,9.4c4,1.1,8.3-1.3,9.4-5.2
		C165.6,678.9,163.2,674.7,159.2,673.5z"/>
	<path fill="#255A40" d="M70.6,520.1c-4-1.1-8.3,1.3-9.4,5.2c-1.1,4,1.3,8.3,5.2,9.4c4,1.1,8.3-1.3,9.4-5.2S74.6,521.2,70.6,520.1z"
		/>
	<path fill="#255A40" d="M247,747.3c-4-1.1-8.3,1.3-9.4,5.2c-1.1,4,1.3,8.3,5.2,9.4c4,1.1,8.3-1.3,9.4-5.2
		C253.4,752.7,251,748.4,247,747.3z"/>
	<path fill="#255A40" d="M257.5,164.6c0,2.1,1,4,2.5,5.3c-2.7,8.1-8.2,10.9-10.5,11.7c-2.6-5.6-4.2-11.6-4.2-17.8
		c2.8-0.9,4.9-3.4,4.9-6.5c0-3.8-3.1-6.9-6.9-6.9s-6.9,3.1-6.9,6.9c0,2.3,1.1,4.3,2.8,5.5c-0.2,7.8,1.9,15.4,5.2,22.3
		c-4.4,0.3-11.8-0.4-18.4-7.5c0.4-0.9,0.7-1.9,0.7-2.9c0-3.8-3.1-6.9-6.9-6.9c-3.8,0-6.9,3.1-6.9,6.9c0,3.8,3.1,6.9,6.9,6.9
		c0.5,0,1-0.1,1.4-0.2c7.3,8.1,15.8,9.8,21.6,9.8c1.9,0,3.5-0.2,4.7-0.4c3.8,6.2,8.4,11.6,12.9,15.7c1.9,1.8,4,3.4,6,4.8
		c-4.1,1.4-10.4,2.4-17.2-0.4c0-0.1,0-0.2,0-0.3c0-3.8-3.1-6.9-6.9-6.9s-6.9,3.1-6.9,6.9c0,3.8,3.1,6.9,6.9,6.9
		c1.4,0,2.8-0.5,3.9-1.2c4.2,1.8,8.2,2.5,11.8,2.5c6.6,0,11.9-2.2,14.5-3.4c4.2,2.5,8.5,4.6,12.7,6.7c4.9,2.5,9.7,4.9,14.1,7.7
		c-4.6,3.3-14,8.1-24.7,2.5c0-0.1,0-0.2,0-0.3c0-3.8-3.1-6.9-6.9-6.9c-3.8,0-6.9,3.1-6.9,6.9c0,3.8,3.1,6.9,6.9,6.9
		c1.5,0,2.8-0.5,4-1.3c4.4,2.3,8.7,3.2,12.7,3.2c9.2,0,16.6-4.8,20-7.5c1,0.8,2,1.6,2.9,2.4c4.8,4.3,8.6,9.5,11.5,14.8
		c-4,1.7-11.8,4.3-19.7,3.4c-0.7-3.8-4-6.6-7.9-6.6c-4.5,0-8.1,3.6-8.1,8.1s3.6,8.1,8.1,8.1c2.8,0,5.3-1.4,6.7-3.6
		c1.5,0.2,3.1,0.3,4.6,0.3c8,0,15.2-2.6,19.1-4.2c6.2,13.7,7.4,26.7,7.4,26.9c0.1,1.6,1.5,2.8,3,2.8c0.1,0,0.2,0,0.3,0
		c1.7-0.1,2.9-1.6,2.8-3.3c-0.1-0.9-1.4-15.4-8.6-30.4c1.8-4,6.6-15.5,5-26.4c1.8-1.4,3-3.6,3-6.1c0-4.2-3.4-7.7-7.7-7.7
		c-4.2,0-7.7,3.4-7.7,7.7c0,3.8,2.8,7,6.5,7.6c0.7,6.5-1.2,13.4-2.9,18c-3-4.9-6.7-9.6-11.3-13.8c-1.2-1.1-2.4-2.1-3.6-3
		c2.2-5,4.4-17,0.2-26c1.1-1.2,1.8-2.8,1.8-4.6c0-3.8-3.1-6.9-6.9-6.9c-3.8,0-6.9,3.1-6.9,6.9c0,3.6,2.7,6.5,6.2,6.8
		c3.4,6.6,1.9,16,0.4,20.3c-4.8-3.1-9.8-5.6-14.8-8.1c-3.7-1.9-7.5-3.8-11.1-5.9c2.4-4,6.7-11.6,7.5-19.4c2-1.2,3.3-3.4,3.3-5.9
		c0-3.8-3.1-6.9-6.9-6.9c-3.8,0-6.9,3.1-6.9,6.9c0,2.9,1.8,5.3,4.2,6.3c-0.9,6.1-4.4,12.3-6.4,15.7c-2.5-1.7-4.9-3.5-7.2-5.6
		c-4.3-3.9-8.8-9.1-12.3-15.1c3.8-1.5,10.5-5.6,13.6-15.8c3-0.7,5.3-3.4,5.3-6.7c0-3.8-3.1-6.9-6.9-6.9S257.5,160.8,257.5,164.6z"/>
	<path fill="#255A40" d="M259,382.5c7.1-3,7.8-10.9,4.8-17.1c-3.1-6.4-13.5-7.5-17.5-1.9c-2.7,2.4-4.1,6.1-3.5,10.3
		C243.9,381.3,252.1,385.4,259,382.5z M254.4,369.6c0.6-0.2,1.4,0.1,1.8,0.5c1.5,1.2,2.3,3.7,0.3,5c-2.7,1.8-5.8,0.1-6.5-2.7
		c-0.1-0.5-0.2-1-0.2-1.5C251.3,370.6,252.9,370,254.4,369.6z"/>
	<path fill="#255A40" d="M84.2,231.8c-4.1,0.2-7.5,3.7-7.3,7.9s3.7,7.5,7.9,7.3c4.1-0.2,7.5-3.7,7.3-7.9
		C91.9,234.9,88.3,231.6,84.2,231.8z"/>
	<path fill="#255A40" d="M203.3,115.3c4.1-0.2,7.5-3.7,7.3-7.9c-0.2-4.1-3.7-7.5-7.9-7.3c-4.1,0.2-7.5,3.7-7.3,7.9
		C195.6,112.1,199.1,115.4,203.3,115.3z"/>
	<path fill="#255A40" d="M41.7,353.2c4.1-0.2,7.5-3.7,7.3-7.9c-0.2-4.1-3.7-7.5-7.9-7.3c-4.1,0.2-7.5,3.7-7.3,7.9
		C34,350.1,37.6,353.4,41.7,353.2z"/>
	<path fill="#255A40" d="M501.1,161.8c-10.4,0-10.4,16.2,0,16.2C511.6,178,511.6,161.8,501.1,161.8z"/>
	<path fill="#255A40" d="M567,124.2c0,3.7,3.1,6.7,6.7,6.7s6.7-3.1,6.7-6.7c0-3.7-3.1-6.7-6.7-6.7S567,120.6,567,124.2z"/>
	<path fill="#255A40" d="M347,161.8c-10.4,0-10.4,16.2,0,16.2C357.4,178,357.4,161.8,347,161.8z"/>
	<path fill="#255A40" d="M274.4,131c3.7,0,6.7-3.1,6.7-6.7c0-3.7-3.1-6.7-6.7-6.7c-3.7,0-6.7,3.1-6.7,6.7
		C267.7,127.9,270.7,131,274.4,131z"/>
	<path fill="#255A40" d="M668.6,411.7c3.2,9.9,18.6,4.9,15.4-5C680.8,396.8,665.4,401.8,668.6,411.7z"/>
	<path fill="#255A40" d="M744.2,470.5c3.5-1.1,5.4-5,4.3-8.5c-1.1-3.5-5-5.4-8.5-4.3s-5.4,5-4.3,8.5S740.7,471.6,744.2,470.5z"/>
	<path fill="#255A40" d="M636.3,260c-3.2-9.9-18.6-4.9-15.4,5C624.2,275,639.6,270,636.3,260z"/>
	<path fill="#255A40" d="M651.7,185.8c3.5-1.1,5.4-5,4.3-8.5s-5-5.4-8.5-4.3c-3.5,1.1-5.4,5-4.3,8.5
		C644.4,185,648.2,186.9,651.7,185.8z"/>
	<path fill="#255A40" d="M507.6,656.2c8.4-6.1-1.1-19.2-9.5-13.1C489.7,649.3,499.2,662.4,507.6,656.2z"/>
	<path fill="#255A40" d="M467,723.9c-3,2.2-3.6,6.4-1.5,9.4c2.2,3,6.4,3.6,9.4,1.5c3-2.2,3.6-6.4,1.5-9.4
		C474.3,722.4,470,721.7,467,723.9z"/>
	<path fill="#255A40" d="M622.8,552.5c-8.4,6.1,1.1,19.2,9.5,13.1C640.8,559.5,631.3,546.4,622.8,552.5z"/>
	<path fill="#255A40" d="M709.2,547.9c-3,2.2-3.6,6.4-1.5,9.4c2.2,3,6.4,3.6,9.4,1.5c3-2.2,3.6-6.4,1.5-9.4
		C716.4,546.4,712.2,545.8,709.2,547.9z"/>
	<path fill="#255A40" d="M215.8,565.6c8.4,6.1,17.9-7,9.5-13.1C216.8,546.4,207.3,559.5,215.8,565.6z"/>
	<path fill="#255A40" d="M129.5,549.4c-2.2,3-1.5,7.2,1.5,9.4c3,2.2,7.2,1.5,9.4-1.5c2.2-3,1.5-7.2-1.5-9.4
		C136,545.8,131.7,546.4,129.5,549.4z"/>
	<path fill="#255A40" d="M340.5,656.2c8.4,6.1,17.9-7,9.5-13.1C341.6,637,332.1,650.1,340.5,656.2z"/>
	<path fill="#255A40" d="M382.6,733.2c2.2-3,1.5-7.2-1.5-9.4c-3-2.2-7.2-1.5-9.4,1.5c-2.2,3-1.5,7.2,1.5,9.4
		C376.1,736.9,380.4,736.2,382.6,733.2z"/>
	<path fill="#255A40" d="M227.2,265c3.2-9.9-12.2-14.9-15.4-5C208.6,270,223.9,275,227.2,265z"/>
	<path fill="#255A40" d="M192.1,177.3c-1.1,3.5,0.8,7.3,4.3,8.5c3.5,1.1,7.3-0.8,8.5-4.3c1.1-3.5-0.8-7.3-4.3-8.5
		C197.1,171.9,193.2,173.9,192.1,177.3z"/>
	<path fill="#255A40" d="M164.1,406.7c-3.2,9.9,12.2,14.9,15.4,5C182.7,401.8,167.4,396.8,164.1,406.7z"/>
	<path fill="#255A40" d="M112.4,466.2c1.1-3.5-0.8-7.3-4.3-8.5c-3.5-1.1-7.3,0.8-8.5,4.3c-1.1,3.5,0.8,7.3,4.3,8.5
		C107.4,471.6,111.2,469.6,112.4,466.2z"/>
</g>
<g id="Слой_2">
	<path fill="#CC882A" d="M462.1,62.3c-6.7-2.8-13.9-0.5-13.9-0.5c-0.6-1.9-2.4-4.9-3.9-6.6c-1.3-1.5-3.9-2.1-5.8-2.2
		c-4.1-0.2-3.6,2.1-0.9,3.9c1.9,1.2,4.1,2,5.9,3.3c1.5,1.1,1.9,2.3,1.9,2.3c-11.5,4.2-13.4,12-13,15.2c0.4,3.2,2.6,5.1,2.6,5.1
		s1.6-7.9,14.1-12s19.8,2.7,19.8,2.7C469.5,69.3,468.8,65.1,462.1,62.3z"/>
	<path fill="#CC882A" d="M602.7,122.3c-0.4,1.9-0.2,5.4,0.3,7.7c0.4,2,2.4,3.7,4.1,4.7c3.5,2.1,4.2-0.1,2.6-3
		c-1.1-2-2.7-3.7-3.6-5.7c-0.8-1.7-0.6-2.9-0.6-2.9c12.1,1.8,17.5-4.2,18.7-7.2c1.2-3,0.1-5.7,0.1-5.7s-5.2,6.2-18.1,3.8
		c-12.9-2.4-16.1-11.8-16.1-11.8c-2.7,3.4-4,7.5,0.5,13.2C595.3,120.9,602.7,122.3,602.7,122.3z"/>
	<path fill="#CC882A" d="M503.8,57.3c-4.4,3.8-16.9-10-19.4,1.5c-3.5,18.5,24.9,20.3,23.2,27.3c-1.7,7-21-6.3-23.1,1.8
		c-3.3,11.7,15.4,18.6,22.1,20.7c6.7,2,2.5,7.2-0.4,5.9c-2.9-1.2-7.8-0.5-7.7,3.6c1,13.8,16.8,12.4,18.7,16.9
		c1.9,4.5-6.2,0.3-7.2,4.9c-0.9,4,3.4,9.7,12.7,14.5c1.2-10,6.3-53.9,6.3-62.3c0,0,2.6,38.1-2.3,67c-0.8,4.4-1.4,7.4-1.9,9.3
		c-1.4,6.8-3.4,15-6.4,24.5l7.2-1.4c0,0,5.5-20,6.9-35.7l-2.1,0.8c12.7-4.5,18.8-11,18.1-15.7c-0.8-4.7-9.1-0.9-7-5.3
		c2.1-4.4,17.8-2.2,19.5-15.9c0.3-4.1-4.5-5-7.5-4c-3,1.1-6.9-4.3-0.1-6c6.8-1.7,25.8-7.7,23.1-19.5c-1.7-8.2-21.7,4-23-3
		c-1.4-7,27.1-7.4,24.6-26.1c-1.8-11.5-15.1,1.6-19.3-2.5c-4.2-4,16-14.9,8.7-26.1c-4-5.6-10.8,4.3-14.6,2.2
		c-3.8-2,10.9-13.7,1.1-19c-3.9-2.3-6.8,4.8-9.1,3.3c-2.3-1.4,2.9-5.6,1-10c-1.9-4.5-4.9-1.2-6.8-2.6c-1.9-1.4-2.3-6.9-5.3-6.5
		l-1.9,0c-3-0.6-3.7,4.9-5.6,6.2c-2,1.3-4.8-2.1-6.9,2.2c-2.1,4.4,2.9,8.8,0.5,10.1c-2.4,1.3-4.9-5.9-8.9-3.8
		c-10.1,4.7,4,17.2,0.1,19c-3.9,1.8-10.2-8.3-14.5-3C488.5,41.5,508.1,53.5,503.8,57.3z"/>
	<path fill="#CC882A" d="M479.3,513c2.3,1.9,5.4,3.2,7.7,4.1c4.3,1.8,9.9,2.9,14.6,1.9c0.5,0.1,1,0,1.4-0.4c0.5-0.3,0.8-0.7,0.8-1.3
		c2.4-4.2,3-9.8,2.7-14.4c-0.2-2.5-0.5-5.8-1.6-8.6c0.2-0.2,0.4-0.4,0.7-0.5c2.3-0.9,4.4,9.6,5.3,11.5c1.6,3.3,3.8,6.3,6.8,8.3
		c0.9,0.5,2.1,0.9,2.8,0.2c0.2-0.3,0.3-0.6,0.4-0.9c0.3-2.4-1.1-4.6-2-6.8c-2.1-4.8-2.8-9.9-5.2-14.7c-2.5-4.8-6.2-9.5-11.3-11.9
		c-7.1-3.4-15.1-4.7-23-5.2c2.1-5.2,4-10.6,5.5-16.1c8.9-0.1,18-2.2,25.3-7.5c2.9-2.1,8.1-6.2,8.7-9.9c1.7-3.4-0.1-9.8-1.2-13.1
		c-2.7-8.6-8.9-15.7-16-21c2-5.3,3.7-10.7,5-16.2c6.6,4.2,13.9,7.8,21.6,9.3c5.5,1,11.2-0.5,16.1-3c4.8-2.4,8.3-6.2,12.9-8.8
		c2.1-1.2,4.5-2.2,5.7-4.3c0.2-0.3,0.3-0.6,0.3-1c-0.1-1-1.3-1.4-2.3-1.5c-3.6-0.2-7.2,1-10.4,2.7c-1.8,1-9.7,8.3-11,6.2
		c-0.2-0.3-0.2-0.5-0.2-0.8c2.5-1.6,4.7-4.1,6.3-6c3-3.6,5.8-8.5,6.3-13.3c0.3-0.4,0.3-1,0.1-1.5c-0.1-0.6-0.5-1-0.9-1.2
		c-3.2-3.6-8.4-5.9-12.9-7c-2.4-0.6-5.6-1.3-8.6-1.2c-0.1-0.2-0.2-0.5-0.3-0.8c-0.2-2.5,10.5-1.2,12.6-1.5c3.6-0.5,7.2-1.6,10-3.9
		c0.8-0.6,1.6-1.7,1-2.6c-0.2-0.3-0.5-0.5-0.8-0.6c-2.2-1.1-4.7-0.4-7.1-0.2c-5.3,0.5-10.3-0.4-15.6,0.4c-5.4,0.9-11,3-14.8,7
		c-5.4,5.8-9.1,12.9-12,20.2c-4.3-3.6-8.9-7.1-13.6-10.1c2.7-8.5,3.5-17.8,0.7-26.4c-1.1-3.4-3.4-9.6-6.8-11.3
		c-2.7-2.7-9.3-2.9-12.9-2.9c-9,0-17.6,3.6-24.9,8.8c-4.4-3.5-9.1-6.8-13.8-9.8c6.1-5,11.7-10.8,15.5-17.7c2.7-4.9,3-10.8,2.1-16.2
		c-0.8-5.3-3.3-9.8-4.4-15c-0.5-2.4-0.7-5-2.4-6.7c-0.2-0.2-0.5-0.5-0.8-0.6c-1-0.2-1.8,0.8-2.1,1.8c-1.3,3.4-1.3,7.1-0.7,10.7
		c0.4,2.1,4.9,11.8,2.5,12.4c-0.3,0.1-0.6,0.1-0.8,0c-0.8-2.9-2.5-5.8-3.8-7.8c-2.5-4-6.3-8.1-10.7-10.1c-0.3-0.4-0.8-0.6-1.4-0.5
		c-0.6-0.1-1.1,0.1-1.4,0.5c-4.4,2-8.2,6.1-10.7,10.1c-1.3,2.1-3,5-3.8,7.8c-0.3,0.1-0.5,0.1-0.8,0c-2.5-0.6,2.1-10.3,2.5-12.4
		c0.6-3.6,0.7-7.3-0.7-10.7c-0.4-0.9-1.2-2-2.1-1.8c-0.3,0.1-0.6,0.3-0.8,0.6c-1.7,1.7-1.9,4.4-2.4,6.7c-1.1,5.2-3.6,9.7-4.4,15
		c-0.8,5.4-0.5,11.4,2.1,16.2c3.8,6.9,9.5,12.7,15.5,17.7c-4.8,3-9.5,6.3-13.8,9.8c-7.3-5.2-15.9-8.8-24.9-8.8
		c-3.5,0-10.2,0.2-12.9,2.9c-3.4,1.7-5.7,8-6.8,11.3c-2.8,8.6-2,17.9,0.7,26.4c-4.7,3.1-9.3,6.5-13.6,10.1
		c-2.9-7.3-6.6-14.5-12-20.2c-3.8-4-9.4-6.2-14.8-7c-5.3-0.9-10.4,0.1-15.6-0.4c-2.4-0.2-5-0.9-7.1,0.2c-0.3,0.2-0.6,0.3-0.8,0.6
		c-0.5,0.9,0.2,1.9,1,2.6c2.8,2.3,6.4,3.4,10,3.9c2.1,0.3,12.7-1,12.6,1.5c0,0.3-0.1,0.6-0.3,0.8c-3-0.1-6.2,0.6-8.6,1.2
		c-4.5,1.1-9.7,3.5-12.9,7c-0.5,0.2-0.8,0.6-0.9,1.2c-0.3,0.5-0.2,1.1,0.1,1.5c0.5,4.8,3.3,9.7,6.3,13.3c1.6,1.9,3.8,4.4,6.3,6
		c0,0.3-0.1,0.5-0.2,0.8c-1.3,2.1-9.2-5.2-11-6.2c-3.2-1.7-6.8-2.9-10.4-2.7c-1,0.1-2.3,0.5-2.3,1.5c0,0.3,0.1,0.7,0.3,1
		c1.1,2.1,3.6,3.1,5.7,4.3c4.6,2.6,8.1,6.4,12.9,8.8c4.9,2.4,10.6,4,16.1,3c7.8-1.5,15-5.1,21.6-9.3c1.4,5.5,3,10.9,5,16.2
		c-7.2,5.3-13.3,12.3-16,21c-1.1,3.4-2.9,9.8-1.2,13.1c0.6,3.7,5.8,7.8,8.7,9.9c7.3,5.4,16.4,7.5,25.3,7.5
		c1.5,5.4,3.3,10.8,5.5,16.1c-7.8,0.5-15.8,1.8-23,5.2c-5,2.4-8.8,7-11.3,11.9c-2.5,4.8-3.1,9.9-5.2,14.7c-1,2.2-2.4,4.4-2,6.8
		c0,0.3,0.1,0.7,0.4,0.9c0.7,0.8,1.9,0.4,2.8-0.2c3-2,5.2-5,6.8-8.3c0.9-1.9,2.9-12.4,5.3-11.5c0.3,0.1,0.5,0.3,0.7,0.5
		c-1.1,2.8-1.4,6.1-1.6,8.6c-0.3,4.7,0.3,10.3,2.7,14.4c0,0.5,0.3,1,0.8,1.3c0.4,0.4,0.9,0.5,1.4,0.4c4.7,1,10.2-0.1,14.6-1.9
		c2.3-0.9,5.3-2.3,7.7-4.1c0.2,0.1,0.5,0.2,0.7,0.5c1.6,1.9-7.8,7.1-9.3,8.6c-2.6,2.5-4.8,5.5-5.8,9c-0.3,1-0.2,2.3,0.7,2.7
		c0.3,0.1,0.7,0.1,1,0.1c2.4-0.4,4.1-2.4,5.9-4c3.9-3.5,8.6-5.7,12.4-9.5c3.8-3.9,7.1-8.9,7.8-14.4c1-7.8-0.2-15.8-2.2-23.4
		c5.6,0.4,11.3,0.5,17,0.2c2.8,8.5,7.6,16.5,15,21.7c2.9,2.1,8.4,5.8,12.1,5.2c3.7,0.6,9.2-3.1,12.1-5.2c7.3-5.3,12.2-13.3,15-21.7
		c5.6,0.3,11.3,0.2,17-0.2c-2,7.6-3.2,15.6-2.2,23.4c0.7,5.5,4,10.5,7.8,14.4c3.8,3.8,8.4,6,12.4,9.5c1.8,1.6,3.5,3.6,5.9,4
		c0.3,0.1,0.7,0.1,1-0.1c0.9-0.4,0.9-1.7,0.7-2.7c-0.9-3.5-3.2-6.5-5.8-9c-1.5-1.5-10.9-6.6-9.3-8.6
		C478.8,513.3,479,513.1,479.3,513z M482.4,504.3c1.1,0.9,2.4,1.6,3.7,1.8c1.1,0.2,2.3-0.6,2.4-1.8c0.6-3.9-2.5-7-4.9-10
		c0.5-0.1,0.9-0.3,1.3-0.7c0.4-0.2,0.7-0.5,0.9-0.9c2.1,3.2,4.1,7,8,7.7c1.1,0.2,2.2-0.6,2.4-1.8c0.2-1.3-0.1-2.7-0.6-4.1
		c0.1-0.1,0.1-0.1,0.2-0.2c1.1,2,2,4,2.9,6c0.3,1.1,0.6,2.2,0.7,3.3c0.3,3.4,0,6.9,0.1,10.4c-3.2-1.2-6.7-1.9-9.8-3.3
		c-1-0.4-1.9-1-2.9-1.7c-1.6-1.5-3.2-3-4.8-4.7C482.2,504.4,482.3,504.3,482.4,504.3z M530.6,368.8c-1.2-0.6-2.6-0.8-4-0.7
		c0-0.1-0.1-0.2-0.1-0.2c2.2-0.4,4.4-0.7,6.6-1c1.1,0,2.3,0.1,3.3,0.3c3.4,0.7,6.6,2.1,9.9,3.1c-2.1,2.7-3.9,5.8-6.2,8.3
		c-0.7,0.8-1.6,1.5-2.5,2.2c-2,1.1-3.9,2.1-5.9,3.1c0-0.1,0-0.2,0-0.3c1.2-0.8,2.2-1.8,2.9-2.9c0.5-1,0.1-2.3-0.9-2.9
		c-3.6-1.7-7.4,0.2-11,1.5c0.1-0.5,0-1-0.3-1.4c-0.1-0.4-0.3-0.8-0.6-1.2c3.7-1.1,8-1.7,9.8-5.2
		C532.1,370.7,531.7,369.3,530.6,368.8z M325.8,378c-0.2,0.4-0.3,0.9-0.3,1.4c-3.6-1.3-7.5-3.3-11-1.5c-1,0.5-1.4,1.8-0.9,2.9
		c0.6,1.2,1.6,2.1,2.9,2.9c0,0.1,0,0.2,0,0.3c-2-0.9-3.9-2-5.9-3.1c-0.9-0.7-1.8-1.4-2.5-2.2c-2.3-2.6-4.1-5.6-6.2-8.3
		c3.3-0.9,6.5-2.4,9.9-3.1c1.1-0.2,2.2-0.3,3.3-0.3c2.2,0.3,4.4,0.5,6.6,1c-0.1,0.1-0.1,0.2-0.1,0.2c-1.5-0.1-2.8,0.1-4,0.7
		c-1,0.5-1.5,1.8-0.9,2.8c1.8,3.5,6.2,4.2,9.8,5.2C326,377.2,325.9,377.6,325.8,378z M361.2,509.1c-0.9,0.6-1.9,1.2-2.9,1.7
		c-3.1,1.4-6.6,2.1-9.8,3.3c0.1-3.4-0.2-6.9,0.1-10.4c0.1-1.1,0.4-2.2,0.7-3.3c1-2,1.9-4,2.9-6c0.1,0.1,0.1,0.1,0.2,0.2
		c-0.5,1.4-0.8,2.7-0.6,4.1c0.2,1.1,1.3,2,2.4,1.8c3.9-0.7,5.9-4.6,8-7.7c0.2,0.4,0.5,0.7,0.9,0.9c0.4,0.4,0.8,0.6,1.3,0.7
		c-2.3,3-5.4,6.1-4.9,10c0.2,1.1,1.3,1.9,2.4,1.8c1.3-0.2,2.5-0.9,3.7-1.8c0.1,0,0.2,0.1,0.2,0.1C364.5,506,362.8,507.5,361.2,509.1
		z M509.2,426.7c1.1,1.9,1.7,3.9,2.3,6c0.5,1.9,0.5,3.9,0,5.8c-0.7,1.8-1.9,3.5-3.4,4.7c-1.7,1.3-3.4,2.6-5.4,3.5
		c-3.9,1.7-8.3,2.1-12.5,2.2c-2.9,0.1-2.8,0-2.7-2.7c0-1.9-0.2-3.7-0.7-5.5c0-0.2-0.1-0.3-0.2-0.5c1.2,0.2,2.4,0.3,3.8,0.1
		c2.3-0.4,4.5-1.3,6.8-1.9c0.8-0.2,1.5-0.4,2.3-0.5c1-0.1,2.4-0.2,3.2-0.9c0.1-0.1,0.3-0.3,0.3-0.5c0-0.2-0.1-0.4-0.2-0.6
		c-2.5-3.3-4.4-6.7-6.4-10.4c-1.6-3-2-2.6-4.3-2.8c0.2-0.2,0.5-0.3,0.7-0.5c1.4-1.2,2.7-2.6,3.8-4.1c1.6-2.2,1.5-2.4,3.8-0.6
		C503.7,420.1,507.1,423,509.2,426.7z M454.7,339.8c3.4-2.4,7.3-4.7,11.4-5.5c2.2-0.4,4.2-0.4,6.4-0.3c2,0.1,3.9,0.7,5.5,1.8
		c1.5,1.2,2.7,2.9,3.4,4.7c0.7,2,1.4,4,1.7,6.2c0.5,4.2-0.5,8.6-1.7,12.6c-0.8,2.8-0.8,2.6-3.4,1.8c-1.7-0.6-3.5-0.9-5.3-1.1
		c0.4-0.9,0.8-1.9,1-3.1c0.4-2.3,0.2-4.7,0.3-7c0-0.8,0.1-1.6,0.3-2.4c0.2-1,0.5-2.4,0.1-3.3c-0.1-0.2-0.2-0.3-0.3-0.4
		c-0.2-0.1-0.4,0-0.6,0c-3.9,1.3-7.8,2.1-11.8,2.9c-3.5,0.6-3.1,1.1-4.1,3.5c0,0,0,0,0,0c-0.2-0.5-0.3-1.1-0.5-1.6
		c-0.7-1.7-1.6-3.3-2.7-4.8C452.5,341.4,452.3,341.4,454.7,339.8z M415.9,299.6c-0.1,0-0.2,0-0.3,0.1c0.3-2.2,0.7-4.4,1.1-6.6
		c0.4-1.1,0.8-2.1,1.4-3c1.7-3,4.1-5.6,6-8.4c1.9,2.8,4.3,5.5,6,8.4c0.5,0.9,1,2,1.4,3c0.4,2.2,0.9,4.4,1.1,6.6
		c-0.1,0-0.2,0-0.3-0.1c-0.4-1.4-1-2.7-1.9-3.6c-0.8-0.8-2.2-0.8-3,0c-2.8,2.8-2.1,7.1-1.9,10.9c-0.4-0.2-0.9-0.3-1.4-0.2
		c-0.5-0.1-0.9,0-1.4,0.2c0.1-3.8,0.8-8.1-1.9-10.9c-0.8-0.8-2.2-0.8-3,0C416.8,296.9,416.2,298.2,415.9,299.6z M364.9,346.6
		c0.2-2.2,0.9-4.2,1.7-6.2c0.7-1.8,1.9-3.5,3.4-4.7c1.7-1.1,3.6-1.7,5.5-1.8c2.2-0.1,4.2-0.1,6.4,0.3c4.2,0.9,8,3.1,11.4,5.5
		c2.4,1.7,2.2,1.6,0.6,3.8c-1.1,1.5-2,3.1-2.7,4.8c0,0,0,0,0,0c-0.6-0.5-1.4-1-2.2-1.5c-2.1-1.1-4.4-1.6-6.6-2.4
		c-0.7-0.3-1.5-0.6-2.2-1c-0.9-0.5-2.1-1.2-3.1-1.2c-0.2,0-0.4,0.1-0.5,0.2c-0.1,0.2-0.2,0.4-0.2,0.6c0,4.1-0.4,8.1-0.9,12.2
		c-0.4,3.1,0,3.3,1.5,4.5c-0.5,0-1,0-1.5,0c-1.8,0.1-3.7,0.5-5.4,1.1c-2.6,0.9-2.6,1-3.4-1.8C365.5,355.2,364.5,350.8,364.9,346.6z
		 M361.3,440.7c-0.5,1.8-0.7,3.6-0.7,5.5c0,2.7,0.2,2.8-2.7,2.7c-4.2-0.1-8.6-0.5-12.5-2.2c-2-0.9-3.7-2.1-5.4-3.5
		c-1.5-1.2-2.7-2.9-3.4-4.7c-0.5-1.9-0.5-3.9,0-5.8c0.6-2.1,1.2-4.1,2.3-6c2.1-3.7,5.5-6.6,8.8-9.1c2.3-1.8,2.2-1.6,3.8,0.6
		c1.1,1.5,2.3,2.9,3.8,4.1c0.2,0.2,0.4,0.3,0.6,0.4c-0.8,0.5-1.5,1-2.2,1.7c-1.7,1.7-2.9,3.7-4.4,5.5c-0.5,0.6-1,1.2-1.6,1.8
		c-0.7,0.7-1.8,1.6-2.1,2.6c0,0.2-0.1,0.4,0,0.5c0.1,0.2,0.3,0.3,0.5,0.3c3.9,1.2,7.6,2.9,11.3,4.7c2.4,1.2,2.9,1.1,4,0.4
		C361.4,440.4,361.4,440.5,361.3,440.7z M440.6,485c-1.4,4-3.1,8-6,11.2c-1.5,1.6-3.2,2.8-5,4c-1.6,1.1-3.6,1.7-5.5,1.8
		c-2-0.1-3.9-0.7-5.5-1.8c-1.8-1.2-3.5-2.4-5-4c-2.8-3.1-4.6-7.2-6-11.2c-1-2.7-0.9-2.6,1.8-3.4c1.8-0.6,3.5-1.3,5-2.3
		c0.3-0.2,0.6-0.4,0.8-0.6c0.2,1.1,0.5,2.3,1.1,3.4c1.1,2.1,2.6,3.9,3.9,5.9c0.4,0.7,0.8,1.3,1.2,2.1c0.4,0.9,0.9,2.2,1.9,2.8
		c0.2,0.1,0.3,0.2,0.5,0.1c0.2,0,0.4-0.2,0.5-0.4c2.4-3.4,5-6.3,7.9-9.3c2-2.1,2-2.6,1.6-4c0,0,0,0,0.1,0c1.6,1,3.3,1.8,5,2.3
		C441.4,482.3,441.5,482.2,440.6,485z M470.8,474.4c-6.9,0.4-15.4,1.2-23.1,0.6c-0.2,0-0.4-0.1-0.6-0.1c-4.6-0.2-10-1.5-13.8-4.3
		c-2.8-2.1-3.6-5.9-5.6-8.4c-1.2-4-2-8.6-2-12.4c-0.1-4.3,0.9-8.7-0.8-12.8c-0.7-1.8-3.1-1.8-4.2-0.5c-3.1,3.7-2,10-1.5,14.5
		c0.4,3.8,1.5,7.5,1.2,11.1c-2.1,2.5-2.9,6.4-5.7,8.5c-3.8,2.8-9.1,4.2-13.8,4.3c-0.2,0-0.4,0-0.6,0.1c-7.6,0.6-16.2-0.2-23.1-0.6
		c-2.5-6.4-5.9-14.3-7.7-21.8c0-0.2-0.1-0.4-0.1-0.6c-1.3-4.5-1.7-10-0.1-14.4c1.2-3.5,4.9-5.5,6.5-8.4c3.4-2.4,7.6-4.6,11.3-5.8
		c4-1.4,8.6-1.8,12-4.7c1.5-1.3,0.8-3.5-0.9-4.2c-4.5-1.8-10.1,1.2-14.2,3.1c-3.9,1.8-7.4,4.3-11.4,4.8c-2.9-0.9-6.4-0.7-9-2.5
		c-3.9-2.7-6.8-7.4-8.4-11.7c-0.1-0.2-0.2-0.4-0.2-0.6c-2.9-7.1-4.8-15.4-6.6-22.1c5.4-4.4,11.8-10.1,18.3-14
		c0.2-0.1,0.4-0.2,0.5-0.3c3.9-2.6,9-4.7,13.7-4.6c4.1,0.1,7.5,3.7,11.3,3.7c3.1,2.4,6.1,5.4,8.2,8.3c2.6,3.4,4.4,7.6,8.2,9.9
		c1.7,1,3.6-0.3,3.7-2.1c0.3-4.8-4.3-9.2-7.3-12.6c-3.2-3.5-7.2-6.3-8.7-10.6c-0.3-2.5-1-5.1-0.2-7.6c1.4-4.5,4.9-8.7,8.6-11.6
		c0.2-0.1,0.3-0.3,0.5-0.4c5.8-5,13.2-9.3,19-13.1c5.8,3.7,13.2,8.1,19,13.1c0.1,0.1,0.3,0.3,0.5,0.4c3.7,2.9,7.2,7.1,8.6,11.6
		c1.2,4-1.3,8.5,0,12.1c-1.3,3.4-3.1,6.9-5,9.5c-2.5,3.5-5.8,6.5-6.9,10.8c-0.5,1.9,1.4,3.3,3.2,2.9c4.7-1.2,7.5-6.9,9.7-10.8
		c2.1-3.7,3.5-8,6.5-10.7c2.4-1.1,4.9-2.7,7.6-2.8c4.7-0.1,9.8,2,13.7,4.6c0.2,0.1,0.3,0.2,0.5,0.3c6.5,4,13,9.7,18.3,14
		c-1.8,6.7-3.6,15.1-6.6,22.1c-0.1,0.2-0.2,0.4-0.2,0.6c-1.6,4.4-4.5,9-8.4,11.7c-3.2,2.2-7.7,1.5-10.7,3.2c-3.8-0.2-7.8-0.9-11-1.9
		c-4.1-1.3-8-3.5-12.4-3.2c-2,0.1-2.7,2.4-1.7,3.9c2.6,4.1,8.9,5,13.3,5.9c3.7,0.8,7.6,0.9,10.9,2.2c1.8,2.5,4.9,4.4,6,7.6
		c1.5,4.4,1.1,10-0.1,14.4c-0.1,0.2-0.1,0.4-0.1,0.6C476.7,460.1,473.3,468,470.8,474.4z"/>
	<path fill="#CC882A" d="M399.1,70.9c12.5,4,14.1,12,14.1,12s2.2-1.9,2.6-5.1c0.4-3.2-1.4-11-13-15.2c0,0,0.3-1.2,1.9-2.3
		c1.8-1.3,4-2.1,5.9-3.3c2.8-1.8,3.2-4.1-0.9-3.9c-1.9,0.1-4.5,0.6-5.8,2.2c-1.5,1.7-3.3,4.7-3.9,6.6c0,0-7.2-2.3-13.9,0.5
		c-6.7,2.8-7.5,7-6.8,11.4C379.3,73.6,386.5,66.9,399.1,70.9z"/>
	<path fill="#CC882A" d="M242.6,123c0,0,0.3,1.2-0.6,2.9c-1,2-2.5,3.7-3.6,5.7c-1.6,2.9-0.9,5.2,2.6,3c1.6-1,3.7-2.7,4.1-4.7
		c0.5-2.2,0.7-5.8,0.3-7.7c0,0,7.4-1.4,12-7.1c4.6-5.7,3.2-9.8,0.5-13.2c0,0-3.1,9.4-16.1,11.8c-12.9,2.4-18.1-3.8-18.1-3.8
		s-1,2.7,0.1,5.7C225.1,118.8,230.4,124.7,242.6,123z"/>
	<path fill="#CC882A" d="M294.9,87.1c-1.4,7-21.3-5.2-23,3c-2.7,11.8,16.3,17.8,23.1,19.5c6.8,1.7,2.9,7-0.1,6c-3-1.1-7.8-0.1-7.5,4
		c1.7,13.8,17.4,11.5,19.5,15.9c2.1,4.4-6.2,0.6-7,5.3c-0.8,4.7,5.3,11.2,18.1,15.7l-2.1-0.8c1.4,15.7,6.9,35.7,6.9,35.7l7.2,1.4
		c-3-9.5-5.1-17.7-6.4-24.5c-0.5-1.9-1.1-4.9-1.9-9.3c-5-28.8-2.3-67-2.3-67c0,8.5,5.1,52.3,6.3,62.3c9.3-4.8,13.6-10.5,12.7-14.5
		c-1-4.6-9.1-0.5-7.2-4.9c1.9-4.5,17.7-3.1,18.7-16.9c0.1-4.1-4.8-4.8-7.7-3.6c-2.9,1.2-7.1-3.9-0.4-5.9c6.7-2,25.4-9,22.1-20.7
		c-2.2-8.1-21.4,5.1-23.1-1.8c-1.7-7,26.7-8.8,23.2-27.3c-2.4-11.4-15,2.4-19.4-1.5c-4.4-3.8,15.2-15.7,7.4-26.5
		c-4.3-5.3-10.6,4.8-14.5,3c-3.9-1.8,10.2-14.3,0.1-19c-4-2.1-6.5,5.1-8.9,3.8c-2.4-1.3,2.7-5.7,0.5-10.1c-2.1-4.4-4.9-0.9-6.9-2.2
		c-2-1.3-2.6-6.8-5.6-6.2l-1.9,0c-3.1-0.4-3.4,5.1-5.3,6.5c-1.9,1.4-4.9-1.9-6.8,2.6c-1.9,4.5,3.3,8.6,1,10
		c-2.3,1.4-5.2-5.6-9.1-3.3c-9.9,5.2,4.9,16.9,1.1,19c-3.8,2-10.6-7.8-14.6-2.2c-7.3,11.2,12.9,22.1,8.7,26.1
		c-4.2,4-17.4-9.1-19.3,2.5C267.8,79.7,296.3,80.1,294.9,87.1z"/>
	<path fill="#CC882A" d="M767.8,319.6c1-1.7,0.8-4.3,0.3-6.2c-1.1-4-3.1-2.8-4,0.4c-0.6,2.2-0.6,4.5-1.3,6.6
		c-0.6,1.8-1.6,2.5-1.6,2.5c-7.6-9.7-15.6-9-18.5-7.6c-2.9,1.4-4,4-4,4s8-1,15.7,9.7c7.7,10.7,3.5,19.6,3.5,19.6
		c4.3-0.6,8.1-2.7,8.7-9.9c0.6-7.3-3.8-13.4-3.8-13.4C764.3,324.2,766.6,321.5,767.8,319.6z"/>
	<path fill="#CC882A" d="M762.1,491.8c-1.7-13,6.3-18.9,6.3-18.9c-4.1-1.5-8.4-1.5-12.4,4.6c-4,6.1-3,13.6-3,13.6
		c-1.9,0.3-5.2,1.5-7.2,2.7c-1.7,1-2.7,3.5-3.2,5.3c-0.9,4,1.4,4,3.7,1.6c1.5-1.6,2.7-3.7,4.3-5.2c1.4-1.3,2.6-1.4,2.6-1.4
		c2,12.1,9.4,15.4,12.6,15.5c3.2,0.2,5.5-1.6,5.5-1.6S763.8,504.9,762.1,491.8z"/>
	<path fill="#CC882A" d="M847.9,387.5l-0.6-1.8c-0.4-3.1-5.8-2-7.6-3.5c-1.9-1.5,0.6-5.2-4.2-5.9c-4.8-0.7-7.5,5.5-9.4,3.6
		c-2-1.9,4.1-6.5,0.9-9.6c-7.6-8.2-15.1,9.1-18,6c-2.9-3.2,4.8-12.3-1.6-14.7c-12.7-4.2-18,18.2-22.9,15.2c-5-3,4.3-19.2-7.4-18
		c-18.7,2.4-11.6,30-18.8,30.5c-7.1,0.5-0.5-21.9-8.9-21.4c-12.1,0.5-13,20.4-12.8,27.4c0.1,7-6,4.6-5.8,1.4
		c0.2-3.2-1.9-7.6-5.8-6.2c-12.8,5.2-6.6,19.8-10.3,23c-3.7,3.2-2.2-5.8-6.9-5.3c-4.1,0.4-8.2,6.2-9.9,16.5
		c9.9-2,53.2-10.7,61.2-13.3c0,0-35.5,14.3-64.4,18.5c-4.4,0.6-7.5,1-9.4,1.1c-6.9,0.8-15.3,1.4-25.3,1.5l3.5,6.4
		c0,0,20.7-0.9,36.1-4.5l-1.4-1.7c8.2,10.7,16.3,14.5,20.5,12.3c4.2-2.2-1.9-8.9,2.9-8.3c4.8,0.7,7.6,16.3,21.2,13.6
		c4-1,3.4-5.9,1.5-8.4c-1.9-2.5,1.9-7.9,5.6-1.9c3.7,5.9,15.3,22.2,25.7,16c7.3-4.2-10.5-19.4-4.2-22.8c6.3-3.5,15.4,23.5,32.4,15.3
		c10.4-5.3-6.2-13.9-3.6-19.1c2.6-5.2,19.1,10.6,27.5,0.2c4.1-5.5-7.4-9-6.6-13.2c0.7-4.3,16.5,6.2,18.4-4.8c0.9-4.4-6.6-5-6-7.6
		c0.6-2.6,6.2,1.1,9.9-2.1c3.7-3.2-0.4-5,0.4-7.2C844.1,392.4,849.2,390.3,847.9,387.5z"/>
	<path fill="#CC882A" d="M558.5,450.4c-0.6-0.4-1.1-1.3-0.9-2.1c0.1-0.3,0.2-0.5,0.4-0.7c0.5-0.8,0.9-1.6,1.3-2.5
		c0.1-0.3,0.2-0.6,0.1-0.9c-0.1-0.1-0.2-0.2-0.3-0.3c-1.1-0.8-2.7-0.9-4-0.9c-1.3,0-4.2,0.8-4.6-1.2c-0.4-1.8,2.2-4.3,3-5.9
		c0-0.1,0.1-0.2,0.1-0.3c0-0.1-0.1-0.2-0.2-0.2c-1.8-0.8-3.8-0.8-5.7-0.4c-1.5,0.3-3,0.7-4.3,1.3c-0.5,0.2-1.1,0.8-1.6,0.3
		c-0.6-0.5-0.3-2.4-0.2-3.1l0.6-5.2c-0.8,0-1.5,0-2.3,0.1c-6.2,0.8-11.2,6.1-12.8,12c0,0.1,0,0.2-0.1,0.3c-0.9-0.4-2,0-2.4,0.9
		c0,0-0.1,0.1-0.1,0.1c-0.2,0.2-0.3,0.5-0.3,0.8c-0.1,0.2-0.2,0.5-0.2,0.8c0,0,0,0.1,0,0.1c-0.2,1,0.4,1.9,1.4,2.1
		c0,0.1-0.1,0.2-0.1,0.2c-2.2,5.7-1.2,12.9,3.3,17.2c0.5,0.5,1.1,1,1.8,1.4l2.6-4.6c0.3-0.6,1.2-2.3,2-2.4c0.7-0.1,0.8,0.7,1.1,1.2
		c0.8,1.3,1.7,2.5,2.8,3.6c1.3,1.4,2.9,2.6,4.8,3c0.1,0,0.2,0,0.3,0c0.1-0.1,0.1-0.2,0.1-0.2c0.3-1.7-0.3-5.3,1-6.5
		c1.5-1.4,3.3,0.9,4.4,1.7c1.1,0.8,2.4,1.6,3.7,1.6c0.2,0,0.3,0,0.4-0.1c0.3-0.1,0.4-0.5,0.5-0.7c0.3-0.9,0.4-1.8,0.4-2.8
		c0-0.3,0-0.5,0.1-0.8c0.2-0.7,1.2-1.2,1.9-1.1c1.3,0,2.8-0.2,3.7-1.2c0.2-0.1,0.3-0.2,0.4-0.4c0.1-0.1,0.1-0.3,0.1-0.4
		c0.1-0.1,0.1-0.2,0.2-0.4c0.1-0.2,0-0.4-0.1-0.6C560.7,452.3,559.6,451.2,558.5,450.4z M558.7,453.9
		C558.7,453.9,558.7,453.9,558.7,453.9c0-0.1,0-0.1,0-0.1C558.8,453.8,558.8,453.8,558.7,453.9C558.8,453.9,558.8,453.9,558.7,453.9
		z"/>
	<path fill="#CC882A" d="M738.9,281.5c0,13.1-7,17.1-7,17.1s2.4,1.5,5.6,0.9c3.2-0.6,10-4.8,10.5-17c0,0,1.2,0,2.8,1.1
		c1.8,1.3,3.2,3.2,5,4.6c2.6,2.1,4.9,1.8,3.4-2c-0.7-1.8-2-4.1-3.8-4.9c-2.1-0.9-5.5-1.7-7.5-1.7c0,0,0-7.5-4.8-13.1
		s-9-4.9-12.9-2.9C730.2,263.5,738.9,268.3,738.9,281.5z"/>
	<path fill="#CC882A" d="M629.5,150.9c1.4,1.2,3.7,2.6,5.7,2.4c2.3-0.2,5.7-1.1,7.4-2.1c0,0,3.6,6.6,10.4,9.2
		c6.8,2.6,10.3,0,12.7-3.6c0,0-9.9-0.1-16.2-11.6c-6.3-11.5-2-18.4-2-18.4s-2.9-0.1-5.4,1.9c-2.5,2-6.5,9-1.1,20c0,0-1.1,0.6-3,0.4
		c-2.2-0.3-4.3-1.3-6.6-1.7C628.3,146.8,626.3,148.2,629.5,150.9z"/>
	<path fill="#CC882A" d="M669.9,194.5c0.5,7-5.8,4.9-5.7,1.7c0.1-3.2-2.3-7.5-6.1-5.9c-12.6,5.9-5.6,20.1-9.1,23.5
		c-3.5,3.4-2.5-5.7-7.2-5c-4.7,0.7-9,8.5-9.3,22l0.1-2.2c-14.5,6.2-31.9,17.6-31.9,17.6l0.9,7.3c8.1-5.8,15.2-10.3,21.3-13.7
		c1.7-1.1,4.3-2.6,8.3-4.7c25.9-13.6,63-22.9,63-22.9c-8,2.6-48.2,21-57.3,25.2c7.4,7.4,14.1,9.7,17.7,7.6c4.1-2.4-2.4-8.8,2.5-8.4
		c4.8,0.4,8.4,15.9,21.8,12.5c4-1.2,3.1-6,1-8.5c-2.1-2.4,1.5-8,5.5-2.2c4,5.7,16.4,21.4,26.5,14.6c7.1-4.6-11.5-18.8-5.4-22.6
		c6.1-3.8,16.6,22.7,33.1,13.6c10.1-5.8-6.9-13.5-4.6-18.9c2.3-5.3,19.7,9.6,27.5-1.2c3.8-5.7-7.8-8.6-7.3-12.8
		c0.5-4.3,16.7,5.3,18.1-5.8c0.7-4.4-6.9-4.6-6.4-7.3c0.5-2.7,6.2,0.8,9.7-2.6c3.5-3.4-0.7-5,0-7.2c0.6-2.3,5.6-4.6,4.1-7.3
		l-0.5-1.8c-0.6-3-5.9-1.7-7.8-3.1c-1.9-1.4,0.3-5.2-4.5-5.7c-4.8-0.4-7.2,5.8-9.2,4.1c-2.1-1.7,3.7-6.7,0.4-9.7
		c-8-7.8-14.6,9.9-17.7,6.9c-3.1-3,4.1-12.5-2.4-14.6c-12.9-3.5-17,19.1-22.1,16.4c-5.1-2.7,3.3-19.4-8.3-17.5
		c-18.5,3.3-10.1,30.6-17.2,31.4c-7.1,0.9-1.6-21.8-10-21C669.2,167.6,669.4,187.5,669.9,194.5z"/>
	<path fill="#CC882A" d="M509.2,294.5c0-0.2-0.1-0.4-0.2-0.5c-0.1-0.1-0.2-0.1-0.4-0.2c-0.1-0.1-0.2-0.2-0.3-0.3
		c-0.2-0.1-0.4-0.1-0.6-0.1c-1.3-0.2-2.7,0.5-3.7,1.3c-0.6,0.4-1.6,0.7-2.2,0.2c-0.2-0.2-0.4-0.4-0.5-0.6c-0.6-0.7-1.2-1.4-2-2
		c-0.2-0.2-0.5-0.4-0.8-0.3c-0.2,0-0.3,0.1-0.4,0.2c-1.1,0.8-1.7,2.3-2.1,3.5c-0.4,1.3-0.6,4.2-2.6,4c-1.8-0.2-3.4-3.5-4.6-4.7
		c-0.1-0.1-0.1-0.1-0.2-0.1c-0.1,0-0.2,0.1-0.3,0.2c-1.3,1.4-1.9,3.4-2.1,5.3c-0.2,1.5-0.3,3-0.1,4.5c0.1,0.6,0.4,1.3-0.2,1.6
		c-0.7,0.4-2.4-0.5-3-0.8l-4.8-2.2c-0.3,0.7-0.5,1.4-0.6,2.2c-1.1,6.1,2.4,12.6,7.5,15.9c0.1,0,0.1,0.1,0.2,0.1
		c-0.6,0.7-0.6,1.9,0.1,2.5c0,0,0,0.1,0.1,0.1c0.1,0.3,0.4,0.4,0.6,0.6c0.2,0.2,0.4,0.4,0.7,0.4c0,0,0.1,0,0.1,0
		c0.8,0.5,2,0.2,2.5-0.6c0.1,0.1,0.1,0.1,0.2,0.2c4.7,3.8,11.9,5.1,17.4,2.2c0.7-0.4,1.3-0.8,1.9-1.2l-3.6-3.9
		c-0.5-0.5-1.8-1.9-1.7-2.6c0.2-0.7,0.9-0.5,1.5-0.7c1.5-0.3,2.9-0.9,4.3-1.5c1.8-0.8,3.4-2,4.4-3.6c0.1-0.1,0.1-0.2,0.1-0.3
		c0-0.1-0.1-0.1-0.2-0.2c-1.5-0.8-5.1-1.3-5.9-3c-0.8-1.8,1.9-2.9,3-3.7c1.1-0.8,2.3-1.7,2.7-3c0-0.1,0.1-0.3,0-0.5
		c-0.1-0.3-0.3-0.5-0.6-0.7c-0.8-0.5-1.6-0.9-2.5-1.3c-0.3-0.1-0.5-0.2-0.7-0.3c-0.6-0.5-0.7-1.5-0.5-2.2
		C509.5,297.2,509.8,295.6,509.2,294.5z M507.3,295.5C507.3,295.5,507.3,295.5,507.3,295.5C507.3,295.4,507.3,295.4,507.3,295.5
		C507.4,295.5,507.4,295.5,507.3,295.5C507.3,295.5,507.3,295.5,507.3,295.5z"/>
	<path fill="#CC882A" d="M622.3,707.4c3.4-2.3,1.7-3.9-1.6-3.7c-2.2,0.1-4.5,0.8-6.7,0.8c-1.9,0-2.9-0.8-2.9-0.8
		c6.9-10.2,3.8-17.6,1.5-19.9c-2.2-2.3-5.1-2.6-5.1-2.6s3.4,7.3-4.3,18c-7.8,10.6-17.6,9.4-17.6,9.4c1.9,3.9,5.1,6.9,12.1,5.2
		c7.1-1.7,11.5-7.8,11.5-7.8c1.6,1.1,4.8,2.5,7.1,3C618.3,709.5,620.7,708.4,622.3,707.4z"/>
	<path fill="#CC882A" d="M462.5,746.6c-7-1.9-13.8,1.3-13.8,1.3c-0.8-1.8-3.1-4.5-4.8-6c-1.5-1.3-4.1-1.5-6-1.4
		c-4.1,0.3-3.3,2.6-0.4,4c2,1,4.3,1.4,6.3,2.5c1.7,0.9,2.2,2.1,2.2,2.1c-10.9,5.7-11.7,13.7-10.9,16.8c0.8,3.1,3.2,4.7,3.2,4.7
		s0.5-8.1,12.4-13.7c11.9-5.6,20,0.1,20,0.1C470.9,752.6,469.6,748.5,462.5,746.6z"/>
	<path fill="#CC882A" d="M566.9,742.4c1.3-5.7,19.6-1.9,14.8-12.6c-8-17-32.1-1.8-34.8-8.4c-2.7-6.6,20.7-7.2,17.6-15.1
		c-4.2-11.4-23.4-6-30-3.7c-6.6,2.3-6.3-4.3-3.2-5c3.1-0.8,6.6-4.1,4.1-7.5c-8.9-10.6-20.9-0.2-25-2.7c-4.2-2.5,4.8-3.9,2.9-8.2
		c-1.7-3.8-8.4-5.9-18.8-4.3c4.9,8.8,26.6,47.3,31.6,54.1c0,0-24.5-29.3-37.5-55.6c-2-4-3.2-6.8-3.9-8.6c-2.9-6.3-6.1-14.2-9.2-23.6
		l-5,5.3c0,0,7.3,19.4,15.4,33l1.2-1.9c-7.7,11.1-8.8,20-5.4,23.3c3.4,3.3,7.9-4.6,8.7,0.2c0.9,4.8-13.1,12.2-6.4,24.3
		c2.2,3.5,6.6,1.4,8.4-1.2c1.8-2.6,8.1-0.6,3.6,4.8c-4.5,5.4-16.4,21.4-7.3,29.4c6.3,5.6,15.2-16,20.4-11.1
		c5.2,4.9-17.6,21.9-4.6,35.5c8.3,8.3,11.3-10.1,17-9.3c5.7,0.8-4.2,21.5,8.3,26.2c6.5,2.2,6.2-9.8,10.5-10.4s-0.8,17.5,10.3,16
		c4.5-0.5,2.7-7.8,5.4-8c2.7-0.2,0.9,6.2,5.1,8.7c4.2,2.5,4.6-1.9,7-1.9c2.4,0,5.9,4.2,8.1,2.1l1.5-1.1c2.8-1.3,0.1-6.1,0.9-8.3
		c0.8-2.2,5.1-1.1,4.3-5.9c-0.8-4.8-7.5-5.4-6.3-7.8c1.2-2.4,7.4,1.9,9.4-2.2c5.4-9.7-13.3-11.5-11.2-15.3
		c2.1-3.8,13.2,0.7,13.5-6.1C588.5,746.1,565.6,748,566.9,742.4z"/>
	<path fill="#CC882A" d="M437.9,529.1l5.2-1c-0.2-0.7-0.5-1.4-0.8-2.1c-2.7-5.6-9.3-8.8-15.4-8.4c-0.1,0-0.2,0-0.3,0
		c0.1-0.9-0.6-1.9-1.6-2c0,0-0.1,0-0.1-0.1c-0.3-0.1-0.6-0.1-0.8-0.1c-0.3-0.1-0.5-0.1-0.8,0.1c0,0-0.1,0-0.1,0.1
		c-1,0.1-1.7,1-1.6,2c-0.1,0-0.2,0-0.3,0c-6.1-0.3-12.7,2.9-15.4,8.4c-0.3,0.7-0.6,1.4-0.8,2.1l5.2,1c0.7,0.1,2.6,0.4,2.9,1.2
		c0.3,0.7-0.4,1-0.8,1.4c-1,1.1-1.8,2.4-2.6,3.7c-1,1.7-1.6,3.6-1.4,5.5c0,0.1,0,0.2,0.1,0.3c0.1,0,0.2,0,0.3,0
		c1.7-0.3,4.9-1.9,6.5-1.1c1.8,1,0.2,3.5-0.3,4.7c-0.4,1.2-0.8,2.8-0.4,4.1c0.1,0.1,0.1,0.3,0.2,0.4c0.2,0.2,0.6,0.2,0.9,0.2
		c0.9,0,1.9-0.2,2.8-0.4c0.3-0.1,0.5-0.2,0.8-0.2c0.8,0,1.5,0.8,1.7,1.5c0.4,1.2,1.1,2.6,2.2,3.2c0.1,0.2,0.3,0.3,0.5,0.3
		c0.1,0,0.3,0,0.4,0c0.1,0,0.3,0,0.4,0c0.2,0,0.4-0.1,0.5-0.3c1.1-0.6,1.9-2,2.2-3.2c0.2-0.7,0.9-1.5,1.7-1.5c0.3,0,0.5,0.1,0.8,0.2
		c0.9,0.3,1.8,0.4,2.8,0.4c0.3,0,0.6,0,0.9-0.2c0.1-0.1,0.2-0.2,0.2-0.4c0.4-1.3,0-2.8-0.4-4.1c-0.4-1.3-2-3.7-0.3-4.7
		c1.6-0.9,4.8,0.8,6.5,1.1c0.1,0,0.2,0,0.3,0c0.1-0.1,0.1-0.2,0.1-0.3c0.2-1.9-0.4-3.8-1.4-5.5c-0.8-1.3-1.5-2.6-2.6-3.7
		c-0.4-0.4-1.1-0.8-0.8-1.4C435.3,529.5,437.2,529.2,437.9,529.1z M424.1,551.8C424,551.8,424,551.7,424.1,551.8c0-0.1,0-0.1,0-0.1
		C424.1,551.7,424.1,551.7,424.1,551.8C424.1,551.7,424.1,551.8,424.1,551.8z"/>
	<path fill="#CC882A" d="M645.5,678.7c0,0,0.4,1.2-0.2,3c-0.7,2.1-2,4-2.8,6.1c-1.2,3.1-0.2,5.2,3,2.6c1.5-1.2,3.3-3.2,3.4-5.2
		c0.2-2.3-0.1-5.8-0.7-7.6c0,0,7.2-2.3,11-8.6c3.8-6.2,1.9-10.1-1.2-13.2c0,0-1.9,9.7-14.4,13.8c-12.5,4.1-18.4-1.4-18.4-1.4
		s-0.7,2.8,0.9,5.6C627.6,676.9,633.7,682.1,645.5,678.7z"/>
	<path fill="#CC882A" d="M734,525.3c-0.7,1.8-1.4,4.3-0.6,6.2c0.9,2.1,2.8,5.1,4.3,6.4c0,0-5.2,5.5-5.5,12.8
		c-0.4,7.3,3.1,9.8,7.3,11c0,0-3-9.5,6.1-19c9-9.6,16.9-7.5,16.9-7.5s-0.7-2.8-3.5-4.5c-2.7-1.8-10.6-3.5-19.3,5.1
		c0,0-0.9-0.8-1.3-2.7c-0.4-2.2-0.1-4.5-0.4-6.7C737.5,523,735.6,521.5,734,525.3z"/>
	<path fill="#CC882A" d="M761.9,631.4c-0.7-13.3-23.4-10.3-22.4-16c1-5.7,19.4-2.9,14.1-13.3c-8.9-16.6-32.2-0.1-35.2-6.6
		c-3-6.5,20.3-8.3,16.8-16c-4.8-11.1-23.7-4.8-30.2-2.2c-6.5,2.6-6.5-4-3.4-4.9c3-0.9,6.4-4.5,3.8-7.7c-9.5-10.1-20.9,0.9-25.1-1.4
		c-4.3-2.3,4.6-4.1,2.5-8.4c-2.1-4.2-10.9-5.9-23.8-2.1l2.1-0.6c-10.4-11.9-26.6-24.8-26.6-24.8l-6.6,3.1c8,5.9,14.5,11.3,19.6,16
		c1.5,1.3,3.8,3.3,7,6.4c21,20.4,41.3,52.8,41.3,52.8c-5-6.8-34.9-39.4-41.7-46.7c-4.7,9.3-4.8,16.4-1.7,19.2c3.5,3.2,7.6-5,8.7-0.2
		c1.1,4.7-12.5,12.9-5.2,24.6c2.4,3.4,6.7,1.1,8.4-1.6c1.7-2.7,8-1,3.8,4.6c-4.2,5.6-15.3,22.2-5.7,29.7
		c6.5,5.3,14.3-16.7,19.8-12.1c5.5,4.6-16.4,22.8-2.7,35.7c8.7,7.8,10.7-10.7,16.5-10.2c5.8,0.5-3.1,21.7,9.6,25.8
		c6.6,1.8,5.7-10.1,10-10.9c4.2-0.8,0.1,17.6,11.1,15.4c4.4-0.7,2.3-8,5-8.3s1.2,6.2,5.5,8.5c4.3,2.3,4.5-2.2,6.9-2.3
		c2.4-0.1,6.1,3.9,8.2,1.7l1.5-1.1c2.7-1.5-0.2-6.1,0.5-8.4c0.7-2.3,5.1-1.3,4-6.1c-1.1-4.7-7.8-5-6.7-7.5c1-2.5,7.5,1.5,9.3-2.6
		c4.9-10-13.9-10.8-12-14.7C750.6,634.3,761.9,638.2,761.9,631.4z"/>
	<path fill="#CC882A" d="M222,674c1.5-2.8,0.9-5.6,0.9-5.6s-5.9,5.5-18.4,1.4c-12.5-4.1-14.4-13.8-14.4-13.8
		c-3.1,3.1-5,6.9-1.2,13.2c3.8,6.2,11,8.6,11,8.6c-0.6,1.9-0.9,5.4-0.7,7.6c0.2,2,1.9,4,3.4,5.2c3.2,2.6,4.2,0.4,3-2.6
		c-0.8-2.1-2.2-4-2.8-6.1c-0.6-1.8-0.2-3-0.2-3C214.4,682.1,220.5,676.9,222,674z"/>
	<path fill="#CC882A" d="M115.9,550.6c-0.4-7.3-5.5-12.8-5.5-12.8c1.4-1.3,3.3-4.3,4.3-6.4c0.8-1.8,0.2-4.4-0.6-6.2
		c-1.6-3.8-3.5-2.4-3.9,0.9c-0.3,2.2,0,4.6-0.4,6.7c-0.4,1.9-1.3,2.7-1.3,2.7c-8.8-8.6-16.6-6.9-19.3-5.1c-2.7,1.8-3.5,4.5-3.5,4.5
		s7.8-2,16.9,7.5c9,9.6,6.1,19,6.1,19C112.8,560.4,116.3,557.9,115.9,550.6z"/>
	<path fill="#CC882A" d="M152.2,648.6c5.8-0.5,7.8,18,16.5,10.2c13.7-12.9-8.2-31.1-2.7-35.7c5.5-4.6,13.3,17.4,19.8,12.1
		c9.5-7.5-1.5-24.1-5.7-29.7c-4.2-5.6,2.2-7.3,3.8-4.6c1.7,2.7,6,5,8.4,1.6c7.3-11.8-6.3-19.9-5.2-24.6c1.1-4.7,5.2,3.4,8.7,0.2
		c3.1-2.7,3-9.8-1.7-19.2c-6.8,7.4-36.7,39.9-41.7,46.7c0,0,20.3-32.4,41.3-52.8c3.2-3.1,5.5-5.2,7-6.4c5.1-4.7,11.6-10.1,19.6-16
		l-6.6-3.1c0,0-16.2,12.9-26.6,24.8l2.1,0.6c-12.9-3.9-21.7-2.2-23.8,2.1c-2.1,4.2,6.8,6.1,2.5,8.4c-4.3,2.3-15.7-8.7-25.1,1.4
		c-2.6,3.2,0.7,6.8,3.8,7.7c3,0.9,3.1,7.5-3.4,4.9c-6.5-2.6-25.4-9-30.2,2.2c-3.4,7.7,19.9,9.5,16.8,16c-3,6.5-26.3-9.9-35.2,6.6
		c-5.3,10.4,13.1,7.6,14.1,13.3c1,5.7-21.7,2.6-22.4,16c-0.1,6.8,11.2,2.9,13.1,6.8c1.9,3.9-16.9,4.7-12,14.7
		c1.8,4.1,8.3,0.1,9.3,2.6c1,2.5-5.7,2.8-6.7,7.5c-1.1,4.7,3.3,3.8,4,6.1c0.7,2.3-2.2,6.9,0.5,8.4l1.5,1.1c2.1,2.2,5.8-1.8,8.2-1.7
		c2.4,0.1,2.6,4.5,6.9,2.3c4.3-2.3,2.8-8.8,5.5-8.5c2.7,0.3,0.5,7.6,5,8.3c10.9,2.1,6.8-16.3,11.1-15.4c4.2,0.8,3.4,12.8,10,10.9
		C155.3,670.3,146.4,649.2,152.2,648.6z"/>
	<path fill="#CC882A" d="M262.5,708.6c0,0-9.8,1.2-17.6-9.4s-4.3-18-4.3-18s-2.9,0.2-5.1,2.6c-2.2,2.3-5.3,9.7,1.5,19.9
		c0,0-1,0.8-2.9,0.8c-2.2,0-4.5-0.7-6.7-0.8c-3.3-0.2-5,1.4-1.6,3.7c1.6,1,4,2.1,6,1.7c2.2-0.5,5.5-1.9,7.1-3c0,0,4.5,6.1,11.5,7.8
		C257.4,715.5,260.6,712.5,262.5,708.6z"/>
	<path fill="#CC882A" d="M402.1,749c0,0,0.5-1.1,2.2-2.1c2-1.1,4.3-1.5,6.3-2.5c3-1.4,3.8-3.6-0.4-4c-1.9-0.2-4.5,0-6,1.4
		c-1.7,1.5-3.9,4.3-4.8,6c0,0-6.8-3.2-13.8-1.3c-7,1.9-8.3,6-8.2,10.4c0,0,8.1-5.8,20-0.1c11.9,5.6,12.4,13.7,12.4,13.7
		s2.4-1.6,3.2-4.7C413.8,762.7,413,754.7,402.1,749z"/>
	<path fill="#CC882A" d="M362.1,679.4c8.1-13.6,15.4-33,15.4-33l-5-5.3c-3.1,9.5-6.3,17.3-9.2,23.6c-0.7,1.9-2,4.6-3.9,8.6
		c-12.9,26.2-37.5,55.6-37.5,55.6c5-6.8,26.7-45.3,31.6-54.1c-10.3-1.6-17.1,0.5-18.8,4.3c-1.9,4.3,7.1,5.7,2.9,8.2
		c-4.2,2.5-16.1-7.9-25,2.7c-2.5,3.3,1.1,6.7,4.1,7.5c3.1,0.7,3.5,7.3-3.2,5c-6.6-2.3-25.9-7.6-30,3.7c-3,7.9,20.3,8.4,17.6,15.1
		c-2.7,6.6-26.8-8.6-34.8,8.4c-4.8,10.7,13.5,6.9,14.8,12.6c1.3,5.7-21.6,3.8-21.5,17.1c0.3,6.8,11.4,2.3,13.5,6.1
		s-16.7,5.6-11.2,15.3c2,4,8.3-0.3,9.4,2.2c1.2,2.4-5.5,3.1-6.3,7.8c-0.8,4.8,3.5,3.6,4.3,5.9c0.8,2.2-1.9,7,0.9,8.3l1.5,1.1
		c2.2,2.1,5.7-2.1,8.1-2.1c2.4,0,2.8,4.4,7,1.9c4.2-2.5,2.4-8.9,5.1-8.7c2.7,0.2,0.9,7.6,5.4,8c11,1.6,6-16.6,10.3-16
		c4.3,0.6,4,12.6,10.5,10.4c12.5-4.8,2.5-25.4,8.3-26.2c5.7-0.8,8.8,17.6,17,9.3c13-13.6-9.8-30.6-4.6-35.5
		c5.2-4.9,14.1,16.7,20.4,11.1c9.1-8-2.8-24-7.3-29.4c-4.5-5.4,1.8-7.4,3.6-4.8c1.8,2.6,6.2,4.7,8.4,1.2c6.7-12.1-7.3-19.6-6.4-24.3
		c0.9-4.8,5.4,3.1,8.7-0.2c3.4-3.3,2.3-12.2-5.4-23.3L362.1,679.4z"/>
	<path fill="#CC882A" d="M92.4,288.1c1.7-1.4,3.1-3.3,5-4.6c1.6-1.1,2.8-1.1,2.8-1.1c0.4,12.3,7.3,16.5,10.5,17
		c3.2,0.6,5.6-0.9,5.6-0.9s-7.1-3.9-7-17.1c0-13.1,8.7-18,8.7-18c-3.9-2-8.1-2.6-12.9,2.9s-4.8,13.1-4.8,13.1
		c-1.9,0-5.4,0.8-7.5,1.7c-1.8,0.8-3.2,3.1-3.8,4.9C87.5,289.9,89.8,290.2,92.4,288.1z"/>
	<path fill="#CC882A" d="M207.1,148.7c5.5-11,1.4-17.9-1.1-20c-2.5-2-5.4-1.9-5.4-1.9s4.3,6.8-2,18.4c-6.3,11.5-16.2,11.6-16.2,11.6
		c2.4,3.6,5.9,6.2,12.7,3.6c6.8-2.6,10.4-9.2,10.4-9.2c1.7,0.9,5.1,1.8,7.4,2.1c2,0.2,4.2-1.2,5.7-2.4c3.1-2.7,1.2-4-2.1-3.4
		c-2.2,0.4-4.3,1.4-6.6,1.7C208.1,149.4,207.1,148.7,207.1,148.7z"/>
	<path fill="#CC882A" d="M71.5,188.3c0.6,2.3-3.5,3.9,0,7.2c3.5,3.4,9.2,0,9.7,2.6c0.5,2.7-7.1,2.9-6.4,7.3
		c1.3,11.1,17.6,1.5,18.1,5.8c0.5,4.3-11.1,7.1-7.3,12.8c7.8,10.8,25.2-4.2,27.5,1.2c2.3,5.3-14.7,13-4.6,18.9
		c16.5,9,27.1-17.4,33.1-13.6c6.1,3.8-12.5,18-5.4,22.6c10.1,6.7,22.5-8.9,26.5-14.6c4-5.7,7.6-0.2,5.5,2.2c-2.1,2.4-2.9,7.2,1,8.5
		c13.4,3.3,17-12.1,21.8-12.5c4.8-0.4-1.6,6,2.5,8.4c3.6,2.1,10.3-0.2,17.7-7.6c-9.1-4.2-49.3-22.6-57.3-25.2c0,0,37.1,9.3,63,22.9
		c4,2.1,6.6,3.6,8.3,4.7c6.1,3.4,13.2,7.9,21.3,13.7l0.9-7.3c0,0-17.3-11.4-31.9-17.6l0.1,2.2c-0.3-13.5-4.6-21.3-9.3-22
		c-4.7-0.7-3.7,8.3-7.2,5c-3.5-3.4,3.4-17.6-9.1-23.5c-3.8-1.5-6.2,2.8-6.1,5.9c0.1,3.2-6.2,5.2-5.7-1.7c0.5-7,0.7-27-11.4-28
		c-8.4-0.9-2.9,21.8-10,21c-7.1-0.9,1.3-28.1-17.2-31.4c-11.5-1.8-3.2,14.8-8.3,17.5c-5.1,2.7-9.2-19.9-22.1-16.4
		c-6.5,2.1,0.7,11.6-2.4,14.6s-9.7-14.6-17.7-6.9c-3.4,3,2.4,7.9,0.4,9.7c-2.1,1.7-4.4-4.5-9.2-4.1c-4.8,0.4-2.6,4.3-4.5,5.7
		c-1.9,1.4-7.2,0-7.8,3.1l-0.5,1.8C65.9,183.7,70.9,186,71.5,188.3z"/>
	<path fill="#CC882A" d="M334.6,313c-0.1,0-0.2,0.1-0.2,0.2c0,0.1,0,0.2,0.1,0.3c1,1.7,2.6,2.9,4.4,3.6c1.4,0.6,2.8,1.2,4.3,1.5
		c0.6,0.1,1.4,0,1.5,0.7c0.2,0.8-1.2,2.1-1.7,2.6l-3.6,3.9c0.6,0.5,1.2,0.9,1.9,1.2c5.5,2.9,12.7,1.6,17.4-2.2
		c0.1-0.1,0.1-0.1,0.2-0.2c0.5,0.8,1.6,1.2,2.5,0.6c0,0,0.1,0,0.1,0c0.3-0.1,0.5-0.2,0.7-0.4c0.2-0.1,0.5-0.3,0.6-0.6
		c0,0,0-0.1,0.1-0.1c0.8-0.6,0.8-1.8,0.1-2.5c0.1,0,0.1-0.1,0.2-0.1c5.1-3.3,8.6-9.8,7.5-15.9c-0.1-0.7-0.3-1.5-0.6-2.2l-4.8,2.2
		c-0.6,0.3-2.3,1.2-3,0.8c-0.6-0.4-0.2-1-0.2-1.6c0.2-1.5,0-3-0.1-4.5c-0.2-1.9-0.8-3.8-2.1-5.3c-0.1-0.1-0.2-0.2-0.3-0.2
		c-0.1,0-0.2,0.1-0.2,0.1c-1.2,1.2-2.8,4.5-4.6,4.7c-2,0.2-2.2-2.7-2.6-4c-0.4-1.2-0.9-2.7-2.1-3.5c-0.1-0.1-0.3-0.2-0.4-0.2
		c-0.3,0-0.6,0.2-0.8,0.3c-0.7,0.6-1.4,1.2-2,2c-0.2,0.2-0.3,0.4-0.5,0.6c-0.6,0.5-1.7,0.2-2.2-0.2c-1-0.8-2.4-1.5-3.7-1.3
		c-0.2-0.1-0.4-0.1-0.6,0.1c-0.1,0.1-0.2,0.2-0.3,0.3c-0.1,0.1-0.2,0.1-0.4,0.2c-0.2,0.1-0.2,0.3-0.2,0.5c-0.6,1.1-0.3,2.7,0.1,3.9
		c0.2,0.7,0.1,1.7-0.5,2.2c-0.2,0.2-0.5,0.2-0.7,0.3c-0.9,0.3-1.7,0.7-2.5,1.3c-0.2,0.2-0.5,0.4-0.6,0.7c0,0.2,0,0.3,0,0.5
		c0.4,1.3,1.6,2.3,2.7,3c1.1,0.8,3.8,1.8,3,3.7C339.7,311.7,336.1,312.2,334.6,313z M340.8,295.4c0,0,0.1,0,0.1,0
		C340.8,295.5,340.8,295.5,340.8,295.4c0,0.1,0,0.1,0,0.1C340.7,295.5,340.8,295.5,340.8,295.4z"/>
	<path fill="#CC882A" d="M109.5,319.3c0,0-1.1-2.6-4-4c-2.9-1.4-10.9-2-18.5,7.6c0,0-1-0.7-1.6-2.5c-0.7-2.1-0.7-4.5-1.3-6.6
		c-0.8-3.2-2.9-4.4-4-0.4c-0.5,1.8-0.8,4.5,0.3,6.2c1.2,2,3.5,4.6,5.1,5.8c0,0-4.4,6.1-3.8,13.4c0.6,7.3,4.4,9.3,8.7,9.9
		c0,0-4.2-9,3.5-19.6C101.4,318.4,109.5,319.3,109.5,319.3z"/>
	<path fill="#CC882A" d="M94.9,494c0,0,1.2,0.1,2.6,1.4c1.6,1.5,2.8,3.6,4.3,5.2c2.3,2.4,4.6,2.4,3.7-1.6c-0.4-1.9-1.4-4.3-3.2-5.3
		c-2-1.2-5.3-2.4-7.2-2.7c0,0,1-7.5-3-13.6c-4-6.1-8.3-6.1-12.4-4.6c0,0,8,5.9,6.3,18.9c-1.7,13-9.2,16-9.2,16s2.2,1.8,5.5,1.6
		C85.5,509.3,92.9,506.1,94.9,494z"/>
	<path fill="#CC882A" d="M77,433.1c6.3,3.5-11.5,18.6-4.2,22.8c10.4,6.2,22-10,25.7-16c3.7-5.9,7.6-0.6,5.6,1.9
		c-1.9,2.5-2.5,7.4,1.5,8.4c13.6,2.6,16.4-13,21.2-13.6c4.8-0.7-1.3,6.1,2.9,8.3c4.2,2.2,12.3-1.6,20.5-12.3l-1.4,1.7
		c15.4,3.5,36.1,4.5,36.1,4.5l3.5-6.4c-10-0.1-18.4-0.7-25.3-1.5c-2-0.1-5-0.4-9.4-1.1c-29-4.2-64.4-18.5-64.4-18.5
		c8,2.6,51.4,11.3,61.2,13.3c-1.7-10.3-5.8-16.1-9.9-16.5c-4.7-0.5-3.3,8.5-6.9,5.3c-3.7-3.2,2.5-17.8-10.3-23
		c-3.9-1.3-6.1,3.1-5.8,6.2c0.2,3.2-5.9,5.6-5.8-1.4c0.1-7-0.7-27-12.8-27.4c-8.4-0.5-1.7,21.9-8.9,21.4
		c-7.1-0.5-0.1-28.1-18.8-30.5c-11.6-1.2-2.4,15-7.4,18c-5,3-10.2-19.4-22.9-15.2c-6.4,2.4,1.3,11.5-1.6,14.7
		c-2.9,3.2-10.4-14.1-18-6c-3.2,3.2,2.8,7.8,0.9,9.6c-2,1.9-4.6-4.3-9.4-3.6c-4.8,0.7-2.4,4.4-4.2,5.9c-1.9,1.5-7.2,0.4-7.6,3.5
		l-0.6,1.8c-1.3,2.8,3.8,4.8,4.5,7.1c0.8,2.2-3.3,4,0.3,7.2c3.7,3.2,9.2-0.5,9.9,2.1c0.6,2.6-6.9,3.2-6,7.6
		c1.9,11,17.6,0.6,18.4,4.8c0.7,4.3-10.7,7.7-6.6,13.2c8.4,10.4,25-5.4,27.5-0.2c2.6,5.2-14,13.8-3.6,19.1
		C61.6,456.6,70.7,429.6,77,433.1z"/>
	<path fill="#CC882A" d="M289.6,450.4c-1,0.7-2.1,1.9-2.3,3.1c-0.1,0.1-0.2,0.3-0.1,0.6c0,0.1,0.1,0.3,0.2,0.4c0,0.1,0,0.3,0.1,0.4
		c0.1,0.2,0.2,0.3,0.4,0.4c0.9,0.9,2.5,1.2,3.7,1.2c0.7,0,1.7,0.4,1.9,1.1c0.1,0.3,0.1,0.5,0.1,0.8c0,0.9,0.2,1.9,0.4,2.8
		c0.1,0.3,0.2,0.6,0.5,0.7c0.1,0.1,0.3,0.1,0.4,0.1c1.4,0,2.7-0.9,3.7-1.6c1.1-0.8,2.9-3.1,4.4-1.7c1.3,1.2,0.7,4.8,1,6.5
		c0,0.1,0,0.2,0.1,0.2c0.1,0.1,0.2,0.1,0.3,0c1.9-0.4,3.5-1.6,4.8-3c1-1.1,2-2.3,2.8-3.6c0.3-0.5,0.4-1.3,1.1-1.2
		c0.8,0.1,1.7,1.8,2,2.4l2.6,4.6c0.6-0.4,1.2-0.9,1.8-1.4c4.5-4.3,5.5-11.6,3.3-17.2c0-0.1-0.1-0.2-0.1-0.2c0.9-0.2,1.6-1.2,1.4-2.1
		c0,0,0-0.1,0-0.1c0-0.3,0-0.6-0.2-0.8c0-0.3-0.1-0.5-0.3-0.8c0,0-0.1-0.1-0.1-0.1c-0.4-0.9-1.5-1.3-2.4-0.9c0-0.1,0-0.2-0.1-0.3
		c-1.5-5.9-6.6-11.2-12.8-12c-0.8-0.1-1.5-0.1-2.3-0.1l0.6,5.2c0.1,0.7,0.4,2.6-0.2,3.1c-0.5,0.5-1.1-0.1-1.6-0.3
		c-1.4-0.6-2.9-1-4.3-1.3c-1.9-0.4-3.9-0.4-5.7,0.4c-0.1,0-0.2,0.1-0.2,0.2c0,0.1,0,0.2,0.1,0.3c0.8,1.5,3.4,4.1,3,5.9
		c-0.4,2-3.2,1.2-4.6,1.2c-1.3,0-2.9,0.1-4,0.9c-0.1,0.1-0.2,0.2-0.3,0.3c-0.1,0.3,0,0.6,0.1,0.9c0.3,0.9,0.7,1.7,1.3,2.5
		c0.1,0.2,0.3,0.4,0.4,0.7C290.7,449.1,290.1,450,289.6,450.4z M289.4,453.9C289.3,453.9,289.3,453.9,289.4,453.9
		c-0.1-0.1-0.1-0.1,0-0.1C289.3,453.8,289.4,453.8,289.4,453.9C289.4,453.9,289.4,453.9,289.4,453.9z"/>
</g>
</svg>
