<?xml version="1.0" encoding="UTF-8" standalone="no"?>
<!-- Created with Inkscape (http://www.inkscape.org/) -->

<svg
   xmlns:dc="http://purl.org/dc/elements/1.1/"
   xmlns:cc="http://creativecommons.org/ns#"
   xmlns:rdf="http://www.w3.org/1999/02/22-rdf-syntax-ns#"
   xmlns:svg="http://www.w3.org/2000/svg"
   xmlns="http://www.w3.org/2000/svg"
   xmlns:sodipodi="http://sodipodi.sourceforge.net/DTD/sodipodi-0.dtd"
   xmlns:inkscape="http://www.inkscape.org/namespaces/inkscape"
   version="1.1"
   id="svg7750"
   width="140mm"
   height="140mm"
   viewBox="0 0 529.13384 529.13386"
   sodipodi:docname="bowie1.svg"
   inkscape:version="0.92.2 5c3e80d, 2017-08-06"
   style="enable-background:new">
  <metadata
     id="metadata7756">
    <rdf:RDF>
      <cc:Work
         rdf:about="">
        <dc:format>image/svg+xml</dc:format>
        <dc:type
           rdf:resource="http://purl.org/dc/dcmitype/StillImage" />
        <dc:title></dc:title>
      </cc:Work>
    </rdf:RDF>
  </metadata>
  <defs
     id="defs7754">
    <filter
       inkscape:collect="always"
       style="color-interpolation-filters:sRGB"
       id="filter23030">
      <feBlend
         inkscape:collect="always"
         mode="normal"
         in2="BackgroundImage"
         id="feBlend23032" />
    </filter>
  </defs>
  <sodipodi:namedview
     pagecolor="#ffffff"
     bordercolor="#666666"
     borderopacity="1"
     objecttolerance="10"
     gridtolerance="10"
     guidetolerance="10"
     inkscape:pageopacity="0"
     inkscape:pageshadow="2"
     inkscape:window-width="1920"
     inkscape:window-height="981"
     id="namedview7752"
     showgrid="false"
     inkscape:document-units="px"
     units="mm"
     inkscape:zoom="1.0382979"
     inkscape:cx="403.12007"
     inkscape:cy="254.40814"
     inkscape:window-x="0"
     inkscape:window-y="1"
     inkscape:window-maximized="1"
     inkscape:current-layer="svg7750" />
  <g
     id="g7766"
     style="display:inline;filter:url(#filter23030)"
     transform="matrix(3.142962,0,0,3.142962,-42.991719,-159.91336)">
    <path
       style="display:inline;fill:none;stroke:#000000;stroke-width:0.22506328"
       d="m 15.006385,139.47522 v -79.3348 h 63.467837 63.467808 v 79.3348 79.33481 H 78.474222 15.006385 Z m 45.549213,44.0385 c 0.08365,-1.03092 0.35084,-2.85394 0.593746,-4.05114 1.020376,-5.02909 1.114325,-5.19244 5.652885,-9.82888 1.575232,-1.60921 3.173539,-3.33094 3.551793,-3.82608 0.378257,-0.49514 0.771677,-1.00272 0.87427,-1.12796 0.67575,-0.82491 2.107141,-3.33187 3.455696,-6.05235 0.864967,-1.74492 1.793105,-3.60966 2.062526,-4.14385 0.749626,-1.48629 3.06153,-4.26614 4.901156,-5.89318 0.909731,-0.8046 1.815506,-1.61483 2.012836,-1.80051 0.197328,-0.18567 1.339265,-1.1372 2.537639,-2.1145 1.19837,-0.9773 2.17886,-1.80578 2.17886,-1.84106 0,-0.31701 -3.936032,1.5306 -6.414303,3.01093 -0.742708,0.44363 -2.227728,1.5213 -3.300042,2.3948 -1.581312,1.28813 -5.315823,3.50123 -5.908183,3.50123 -0.310607,0 3.472758,-5.46314 7.868867,-11.36257 2.442269,-3.27743 7.215076,-8.52078 13.167464,-14.46561 l 3.396384,-3.39207 -1.727122,-0.38424 c -1.34435,-0.29909 -2.432838,-0.36115 -4.911486,-0.28001 -2.815332,0.0922 -3.424719,0.18585 -5.258387,0.80847 -1.140713,0.38733 -2.975728,1.1631 -4.077809,1.72393 -1.102082,0.56083 -2.244981,1.02079 -2.539773,1.02213 -0.958616,0.004 -2.716716,0.6538 -5.330635,1.96915 -2.784053,1.40095 -2.773061,1.39008 -6.279096,6.20917 -2.823631,3.88111 -6.914724,11.26494 -9.773368,17.63951 -0.986731,2.20034 -1.991596,4.33556 -2.23303,4.74494 -0.241432,0.40938 -0.43897,0.88201 -0.43897,1.05029 0,0.16829 -0.08896,0.33974 -0.197692,0.381 -0.10873,0.0412 -0.615122,0.90832 -1.125316,1.9268 -1.026898,2.04995 -1.195806,3.39108 -0.577645,4.58647 l 0.349983,0.67679 1.324451,-1.2262 c 1.176798,-1.08952 1.596005,-1.31375 3.76027,-2.01142 1.339701,-0.43186 3.675198,-1.40106 5.189997,-2.1538 1.514797,-0.75272 2.754178,-1.2654 2.754178,-1.13929 0,0.12611 -0.23249,0.65391 -0.516644,1.17287 -1.209825,2.20954 -3.705288,8.27973 -4.535453,11.03244 -1.203789,3.99159 -1.56305,6.49406 -1.575575,10.97483 -0.0093,3.33036 0.05467,4.2642 0.313615,4.57731 0.308769,0.37337 0.332843,0.37233 0.47356,-0.0203 0.08154,-0.2275 0.216697,-1.25713 0.300353,-2.28805 z m 0.363689,-26.75374 c -1.218981,-0.44092 -1.934255,-0.93114 -2.501853,-1.71469 -1.174065,-1.62075 -0.661062,-2.0241 1.445129,-1.13623 1.20187,0.50664 1.613049,0.57133 2.979041,0.46869 0.96154,-0.0722 2.156356,-0.35449 3.038354,-0.71775 1.716618,-0.70699 3.535467,-0.95991 4.230004,-0.58821 0.679502,0.36366 0.607276,0.69495 -0.151506,0.69495 -0.380922,0 -1.130054,0.35077 -1.856772,0.86941 -0.670021,0.47818 -1.623334,1.07338 -2.118474,1.32266 -1.497577,0.75395 -4.069495,1.16086 -5.063923,0.80117 z"
       id="path7772"
       inkscape:connector-curvature="0" />
    <path
       style="display:inline;fill:none;stroke:#000000;stroke-width:0.22506328"
       d="m 105.11306,193.71547 c -0.0713,-0.18567 -0.3074,-0.33759 -0.52478,-0.33759 -0.91831,0 -1.71997,-4.61274 -1.9433,-11.1817 -0.13364,-3.93079 -0.0959,-4.79413 0.31766,-7.2735 0.2581,-1.5473 0.5342,-3.92735 0.61353,-5.28898 0.17225,-2.95663 0.64027,-6.10414 1.13783,-7.65215 0.42212,-1.31329 1.63123,-3.79271 2.11841,-4.34402 1.60018,-1.81086 1.62441,-1.8634 1.46744,-3.18121 -0.082,-0.68873 -0.33387,-2.01183 -0.5596,-2.94022 -1.45399,-5.9798 -2.15745,-13.83901 -1.59008,-17.76447 0.17592,-1.21707 0.13935,-1.65478 -0.2298,-2.75057 -0.24145,-0.71674 -0.65156,-1.68587 -0.91137,-2.15362 -0.86409,-1.55567 -2.81559,-3.8888 -3.25271,-3.8888 -0.0656,0 -0.33158,-0.1977 -0.59094,-0.43933 -0.80158,-0.74679 -3.128529,-1.75553 -5.240092,-2.27161 -1.744336,-0.42632 -2.459152,-0.47913 -5.288981,-0.39076 -2.920928,0.0912 -3.494622,0.17786 -5.34608,0.80731 -1.140713,0.38782 -2.975728,1.16399 -4.077809,1.72482 -1.102082,0.56083 -2.244981,1.02079 -2.539773,1.02213 -0.97991,0.004 -2.705083,0.65444 -5.664465,2.13418 -2.52202,1.26106 -3.097734,1.4644 -4.146108,1.4644 -0.754304,0 -1.164509,-0.0856 -1.078325,-0.22507 0.0765,-0.12378 0.315808,-0.22506 0.53179,-0.22506 0.566338,0 1.921746,-1.46544 1.755678,-1.8982 -0.110445,-0.28782 -0.559484,-0.35326 -2.449204,-0.35693 -3.658671,-0.007 -6.173841,-0.53125 -8.901195,-1.85492 -1.249342,-0.60635 -1.361919,-0.59562 -2.58584,0.24646 -0.56973,0.39199 -1.144224,0.7127 -1.276653,0.7127 -0.132428,0 -0.240777,0.0872 -0.240777,0.19373 0,0.25953 -2.811241,1.12019 -3.929776,1.20311 -0.841874,0.0624 -0.901975,0.11611 -1.081283,0.96633 -0.328016,1.55535 -0.302886,12.11126 0.03751,15.75591 0.291891,3.12528 0.286536,3.43332 -0.07173,4.12613 -0.289706,0.56023 -0.420186,1.56355 -0.51832,3.98561 -0.07213,1.7803 -0.211265,3.1874 -0.309179,3.12689 -0.31803,-0.19656 -2.637615,-4.22135 -3.465301,-6.01277 -1.386413,-3.0007 -1.540658,-5.26798 -0.540287,-7.94171 0.382758,-1.02301 0.449771,-1.58623 0.355379,-2.98673 -0.06398,-0.9493 -0.226285,-2.18175 -0.360677,-2.73877 -0.13439,-0.55704 -0.347212,-1.82302 -0.472934,-2.81329 -0.125723,-0.99028 -0.336983,-2.3069 -0.469469,-2.92583 -0.132486,-0.61892 -0.318565,-2.44194 -0.413508,-4.05114 -0.09494,-1.6092 -0.296085,-3.36895 -0.446976,-3.91056 -0.289141,-1.03782 -1.352061,-3.43774 -1.607303,-3.62906 -0.08257,-0.0619 -0.669982,-0.80152 -1.305355,-1.64363 l -1.155224,-1.53109 v -1.97614 c 0,-1.08688 0.07242,-2.04857 0.160948,-2.13709 0.226049,-0.22605 0.71745,-2.15872 0.729374,-2.8686 0.0055,-0.32526 -0.141986,-0.71745 -0.327663,-0.87155 -0.68866,-0.57154 -0.36145,-1.0013 0.731455,-0.96072 0.3105,0.0115 0.369655,-0.30717 0.292814,-1.57759 -0.04716,-0.77978 0.08196,-0.98452 1.556315,-2.46766 1.682958,-1.69299 1.980701,-2.177072 2.610443,-4.244189 0.277199,-0.909904 0.704104,-1.598388 1.535085,-2.475696 0.633108,-0.668402 1.353659,-1.332321 1.601228,-1.475375 l 0.450127,-0.260104 -0.450127,-0.374605 c -0.43024,-0.358052 -0.404272,-0.369314 0.587751,-0.254867 0.878692,0.10137 1.111698,0.04116 1.519177,-0.392585 0.575386,-0.61247 0.600336,-0.89478 0.121404,-1.37371 -0.329822,-0.329821 -0.285669,-0.348029 0.528318,-0.217866 0.783433,0.125275 0.986582,0.05567 1.722028,-0.590066 0.676608,-0.594069 0.820989,-0.863537 0.765794,-1.429258 -0.05301,-0.543332 -0.239315,-0.777724 -0.844347,-1.062274 -0.691028,-0.324996 -0.72594,-0.381107 -0.317726,-0.510669 0.268801,-0.08531 1.081244,0.08881 1.963051,0.420718 2.201875,0.828784 3.527988,0.678467 3.512627,-0.398164 -0.0074,-0.51839 -0.931773,-1.736322 -1.31782,-1.736322 -0.121664,0 -0.502885,-0.107095 -0.847158,-0.237987 -0.501123,-0.190525 -0.560147,-0.279603 -0.29598,-0.446679 0.509615,-0.322315 1.967091,-0.253446 2.70431,0.127787 0.365208,0.188855 0.664013,0.251281 0.664013,0.13872 0,-0.253633 -1.584436,-1.701002 -2.254884,-2.059813 -0.869921,-0.465568 -0.155505,-0.728287 1.728229,-0.635538 2.045414,0.10071 4.205253,0.943917 4.45806,1.740437 0.300005,0.945234 0.569861,0.437462 0.569861,-1.072272 0,-1.204301 -0.09928,-1.671307 -0.450127,-2.117335 -0.710981,-0.903866 -0.494606,-1.818518 0.225063,-0.951371 0.439702,0.529809 0.73997,0.401277 0.57724,-0.24709 -0.220902,-0.880146 0.30863,-0.587863 1.128864,0.623093 0.476163,0.702988 0.705188,1.326449 0.73121,1.990551 0.03793,0.967943 0.631773,2.293674 1.046753,2.336829 0.122691,0.01276 0.18999,-0.401708 0.151587,-0.933573 -0.03798,-0.526086 -0.02018,-0.956519 0.03957,-0.956519 0.05975,0 0.479562,0.516313 0.932928,1.147364 0.453363,0.631048 0.883008,1.088649 0.954768,1.016892 0.07176,-0.07176 0.10952,-0.922935 0.08392,-1.891502 -0.05215,-1.97273 0.580011,-4.132733 1.350294,-4.613784 0.254489,-0.15893 0.429957,-0.521969 0.429957,-0.889564 0,-0.488584 0.104918,-0.621052 0.491887,-0.621052 0.270537,0 0.731625,0.225223 1.024639,0.500495 0.344675,0.323805 0.588158,0.415154 0.689695,0.258756 0.254972,-0.39273 1.159235,-0.7923 1.423471,-0.628993 0.167438,0.103482 0.150302,0.209253 -0.0544,0.335765 -0.164362,0.101581 -0.225414,0.258118 -0.135672,0.34786 0.08974,0.08974 0.397171,-0.05667 0.683177,-0.325358 0.599551,-0.563248 1.469305,-0.644111 1.623379,-0.150929 0.357853,1.145457 0.365894,1.154881 0.576056,0.675189 l 0.19721,-0.450126 -0.03943,0.450126 c -0.06042,0.689672 0.265895,1.462912 0.617363,1.462912 0.173325,0 0.7357,-0.557032 1.249721,-1.237848 1.007051,-1.333829 1.555695,-1.575682 1.555695,-0.68578 0,0.648261 0.43984,1.698564 0.711316,1.698564 0.103914,0 0.188937,-0.283579 0.188937,-0.630177 0,-0.586171 0.343902,-1.170329 0.688992,-1.170329 0.08186,0 0.102609,0.241847 0.0461,0.537438 -0.10546,0.551677 0.263977,1.488132 0.587077,1.488132 0.09956,0 0.296382,-0.253197 0.437384,-0.562659 0.361582,-0.793586 0.889,-0.738142 0.768803,0.08082 -0.121359,0.826861 0.09204,0.88822 3.998477,1.149693 3.239627,0.216842 3.610387,0.294782 5.793327,1.21787 1.235253,0.522344 3.919672,2.275856 5.072164,3.313226 0.490687,0.441671 2.114105,0.950107 2.423365,0.758972 0.74434,-0.460031 2.32517,0.712251 1.80525,1.338712 -0.28394,0.34213 -0.0898,0.580581 0.47277,0.580581 0.22693,0 0.41261,0.144567 0.41261,0.321259 0,0.176693 0.25975,0.52558 0.57722,0.775303 0.49455,0.389013 0.54028,0.523054 0.31936,0.935865 -0.30639,0.572493 -0.36965,0.505994 0.95238,1.001196 1.17768,0.441136 1.42512,0.744024 2.20975,2.705045 0.67019,1.674984 2.20396,3.263863 3.15066,3.263863 0.80687,0 0.97031,0.259019 0.63199,1.001552 -0.24026,0.527299 -0.19603,0.657977 0.44727,1.321693 0.39263,0.405096 0.71388,0.811911 0.71388,0.904032 0,0.09212 0.18894,0.370296 0.41986,0.618166 0.23092,0.247862 0.65196,0.901932 0.93564,1.453492 0.35563,0.69147 0.65852,1.00283 0.97553,1.00283 0.35758,0 0.39974,0.06 0.18968,0.27008 -0.33496,0.33495 -0.32078,1.35989 0.0351,2.54096 0.25748,0.85445 0.31918,0.90141 1.27185,0.96807 1.01074,0.0707 1.79889,0.54594 1.79889,1.08465 0,0.23636 -0.17249,0.23187 -0.89575,-0.0233 -0.78456,-0.27681 -0.93821,-0.27357 -1.23785,0.0261 -0.41451,0.41451 -0.44541,1.24178 -0.0608,1.62698 0.20169,0.20199 0.27505,1.21814 0.25916,3.58976 -0.0196,2.9297 -0.093,3.53967 -0.64104,5.33359 -0.34039,1.11406 -0.71061,2.43068 -0.82272,2.92582 -0.31431,1.38806 -0.87248,6.37513 -0.87499,7.81772 -0.002,1.27302 0.40688,3.327 0.70705,3.54988 0.28791,0.21378 0.64108,4.46911 0.64108,7.72445 0,2.81062 -0.0703,3.44923 -0.52742,4.79147 -1.79713,5.27691 -2.14065,6.38853 -2.28683,7.40028 -0.0894,0.61892 -0.24695,1.63171 -0.35005,2.25064 -0.47324,2.84092 -0.8451,8.01338 -0.84854,11.8031 -0.003,3.57927 0.0744,4.52466 0.56376,6.86442 0.31214,1.49242 0.6501,3.57434 0.75101,4.62653 0.18693,1.94905 0.067,4.65715 -0.22428,5.06392 -0.59968,0.83747 -0.81393,4.50458 -0.34519,5.90791 0.27704,0.82938 -0.44614,0.62153 -0.97884,-0.28133 -0.25563,-0.43325 -0.55782,-0.78772 -0.67154,-0.78772 -0.31164,0 -0.93373,1.04637 -0.93373,1.57057 0,0.25361 -0.0895,0.63697 -0.1988,0.85192 -0.10934,0.21493 -0.31874,0.65013 -0.46534,0.9671 -0.1466,0.31696 -0.72365,1.1525 -1.28233,1.85677 -1.015,1.27946 -1.76074,1.62699 -2.02326,0.94288 z m -54.345346,-1.75721 c -1.37989,-0.65688 -1.774838,-1.01283 -1.627056,-1.4664 0.422668,-1.29723 2.903574,-5.92111 4.127059,-7.69196 0.817036,-1.18256 1.741179,-4.70016 1.857928,-7.0719 0.02999,-0.60924 0.171849,-1.1463 0.315242,-1.19346 0.349563,-0.11497 1.160276,2.10477 1.408253,3.8558 0.256506,1.81126 0.922331,4.1845 1.173984,4.1845 0.107471,0 0.198222,0.17723 0.201665,0.39386 0.0034,0.21662 0.307279,0.7917 0.67519,1.27794 0.367911,0.48625 0.668928,0.97325 0.668928,1.08224 0,0.109 0.321676,0.59846 0.714837,1.08769 0.693857,0.86342 0.702114,0.89915 0.281329,1.21749 -0.238429,0.1804 -0.542191,0.3312 -0.675023,0.33514 -0.132834,0.004 -0.782651,0.51253 -1.44404,1.13021 -1.0894,1.01741 -4.292699,3.37821 -4.583791,3.37821 -0.06549,0 -0.15515,-0.43043 -0.199239,-0.95652 l -0.08017,-0.95651 -0.281572,0.70043 c -0.217373,0.54073 -1.126233,1.29197 -1.451338,1.19963 -0.02513,-0.007 -0.512108,-0.23502 -1.082188,-0.50639 z m 23.591424,-3.53685 c -1.488942,-0.2353 -3.070345,-0.88249 -4.128583,-1.68966 -0.400858,-0.30574 -0.836867,-0.5559 -0.968911,-0.5559 -0.132045,0 -0.240079,-0.095 -0.240079,-0.21118 0,-0.11614 -0.303836,-0.54382 -0.675191,-0.9504 -0.932186,-1.02062 -0.959144,-2.32433 -0.05627,-2.721 0.340409,-0.14957 0.669563,-0.33486 0.731456,-0.41177 0.06189,-0.0769 0.365728,-0.19987 0.67519,-0.27325 0.309462,-0.0734 1.220968,-0.30115 2.025569,-0.50617 1.716098,-0.43727 3.789642,-0.32742 5.035633,0.26675 0.799159,0.38109 0.8515,0.3782 1.838103,-0.10112 1.188107,-0.57723 2.471694,-0.62373 4.041832,-0.14642 0.618924,0.18814 1.884905,0.39706 2.813291,0.46424 0.928387,0.0672 2.060088,0.27855 2.514888,0.46969 l 0.826915,0.34752 -0.675674,1.26763 c -0.814536,1.52815 -1.522235,2.23711 -3.150301,3.15594 -2.175331,1.22768 -3.644625,1.60777 -6.605321,1.70872 -1.485417,0.0507 -3.286567,-4.4e-4 -4.002551,-0.11362 z m 4.670092,-4.95674 c 0.862285,-0.12462 1.781218,-0.36642 2.042073,-0.53734 0.260855,-0.17092 0.720052,-0.36411 1.020437,-0.4293 0.92628,-0.20103 -2.984577,0.10481 -4.177041,0.32666 -0.746877,0.13895 -1.499586,0.1256 -2.250633,-0.0399 -1.131281,-0.2493 -3.450508,-0.20362 -2.816426,0.0555 0.366898,0.14992 3.727577,0.80492 4.276202,0.83343 0.185677,0.01 1.043101,-0.0844 1.905388,-0.20902 z m -4.927666,-11.37135 c -0.434899,-0.4349 -0.475819,-1.6719 -0.05531,-1.6719 0.164098,0 0.528133,0.24458 0.808965,0.54351 0.87208,0.92829 0.140928,2.02298 -0.753658,1.12839 z m 6.398227,-0.87626 c 0,-0.65366 0.803156,-1.20782 1.189944,-0.82104 0.339827,0.33983 -0.245889,1.37578 -0.777849,1.37578 -0.287957,0 -0.412095,-0.16711 -0.412095,-0.55474 z M 60.919287,156.75998 c -1.218981,-0.44092 -1.934255,-0.93114 -2.501853,-1.71469 -1.174065,-1.62075 -0.661062,-2.0241 1.445129,-1.13623 1.20187,0.50664 1.613049,0.57133 2.979041,0.46869 0.96154,-0.0722 2.156356,-0.35449 3.038354,-0.71775 1.716618,-0.70699 3.535467,-0.95991 4.230004,-0.58821 0.679502,0.36366 0.607276,0.69495 -0.151506,0.69495 -0.380922,0 -1.130054,0.35077 -1.856772,0.86941 -0.670021,0.47818 -1.623334,1.07338 -2.118474,1.32266 -1.497577,0.75395 -4.069495,1.16086 -5.063923,0.80117 z m 29.951642,-0.66744 c -0.299436,-0.0641 -1.210944,-0.53049 -2.02557,-1.03655 -1.938124,-1.20398 -3.397498,-1.96444 -3.769915,-1.96444 -0.532207,0 -0.318054,-0.38781 0.371987,-0.67364 0.798376,-0.3307 1.717006,-0.18838 3.524374,0.54603 2.659758,1.08075 4.261782,0.95873 6.137765,-0.46749 0.727487,-0.55308 1.224587,-0.75528 1.856778,-0.75528 0.858109,0 0.863318,0.005 0.863318,0.90625 0,1.78777 -2.18788,3.33403 -4.92605,3.48144 -0.81854,0.0441 -1.733252,0.0277 -2.032687,-0.0363 z"
       id="path7768"
       inkscape:connector-curvature="0" />
  </g>
  <g
     inkscape:groupmode="layer"
     id="layer1"
     inkscape:label="Layer 1"
     transform="translate(0,-362.83465)" />
</svg>
