<?xml version="1.0" encoding="UTF-8" standalone="no"?>
<!-- Created with Inkscape (http://www.inkscape.org/) -->

<svg
   xmlns:dc="http://purl.org/dc/elements/1.1/"
   xmlns:cc="http://creativecommons.org/ns#"
   xmlns:rdf="http://www.w3.org/1999/02/22-rdf-syntax-ns#"
   xmlns:svg="http://www.w3.org/2000/svg"
   xmlns="http://www.w3.org/2000/svg"
   xmlns:sodipodi="http://sodipodi.sourceforge.net/DTD/sodipodi-0.dtd"
   xmlns:inkscape="http://www.inkscape.org/namespaces/inkscape"
   inkscape:version="0.92.2 5c3e80d, 2017-08-06"
   sodipodi:docname="kes.svg"
   viewBox="0 0 582 453"
   height="119.85625mm"
   width="153.9875mm"
   id="svg55381"
   version="1.1">
  <metadata
     id="metadata55387">
    <rdf:RDF>
      <cc:Work
         rdf:about="">
        <dc:format>image/svg+xml</dc:format>
        <dc:type
           rdf:resource="http://purl.org/dc/dcmitype/StillImage" />
        <dc:title></dc:title>
      </cc:Work>
    </rdf:RDF>
  </metadata>
  <defs
     id="defs55385" />
  <sodipodi:namedview
     units="mm"
     inkscape:current-layer="svg55381"
     inkscape:window-maximized="1"
     inkscape:window-y="1"
     inkscape:window-x="0"
     inkscape:cy="220.63572"
     inkscape:cx="28.990046"
     inkscape:zoom="1.0419426"
     showgrid="false"
     id="namedview55383"
     inkscape:window-height="981"
     inkscape:window-width="1920"
     inkscape:pageshadow="2"
     inkscape:pageopacity="0"
     guidetolerance="10"
     gridtolerance="10"
     objecttolerance="10"
     borderopacity="1"
     bordercolor="#666666"
     pagecolor="#ffffff" />
  <path
     style="fill:none;stroke:#000000;stroke-width:1.40884995"
     d="m 29.159729,441.4729 c 0,-0.73962 1.584956,-2.83374 3.522125,-4.65363 4.894331,-4.59798 4.396725,-5.85705 -1.363598,-3.45023 -5.903631,2.46669 -12.020477,2.65945 -12.020477,0.37879 0,-2.28313 11.421617,-12.72574 20.535088,-18.77492 7.656634,-5.08217 10.337535,-7.73949 7.808199,-7.73949 -0.774868,0 -1.778392,0.59793 -2.230041,1.32873 -1.828279,2.95821 -21.776397,12.75977 -25.968642,12.75977 H 15.0029 l 4.435426,-4.87421 c 2.439494,-2.68082 8.843224,-7.49283 14.230498,-10.69335 5.387287,-3.20053 9.501045,-6.11316 9.141689,-6.47251 -0.359355,-0.35937 -4.638075,0.96573 -9.508258,2.94466 -12.559743,5.10349 -15.905325,4.80907 -8.915005,-0.78452 11.53741,-9.23215 29.044879,-19.22168 44.06022,-25.14018 10.062429,-3.96624 38.00455,-17.66809 55.80963,-27.36712 16.13938,-8.79166 24.63791,-14.67165 24.6787,-17.07474 0.0244,-1.43427 7.96595,-9.99607 17.78331,-19.1721 5.01283,-4.68538 14.66579,-10.10941 31.98667,-17.97343 l 6.82387,-3.09819 -3.30175,-2.55347 c -1.81596,-1.40441 -5.2037,-2.92223 -7.5283,-3.37294 -2.3246,-0.45071 -7.23797,-2.11144 -10.91859,-3.69054 -5.46906,-2.34638 -6.69204,-3.5239 -6.69204,-6.44326 0,-1.96471 -0.63398,-3.65145 -1.40885,-3.7483 -0.77486,-0.0969 -2.20132,-0.25536 -3.16991,-0.35222 -0.96858,-0.0969 -1.98174,-1.74063 -2.25147,-3.65283 -0.26972,-1.91219 -1.69618,-4.5225 -3.16991,-5.80065 -1.47373,-1.27816 -2.67951,-3.63286 -2.67951,-5.23265 0,-1.6237 -1.86665,-4.23791 -4.22526,-5.91738 -3.45211,-2.45812 -3.96702,-3.49122 -2.81389,-5.64584 0.94289,-1.76182 0.94247,-2.92697 -0.001,-3.51025 -0.77695,-0.48019 -1.41266,-2.34299 -1.41266,-4.13954 0,-1.79656 -0.95097,-4.05571 -2.11327,-5.02034 -1.1623,-0.96462 -2.11328,-3.54668 -2.11328,-5.73789 0,-2.22927 -1.01866,-4.55412 -2.31279,-5.27836 -1.72129,-0.96327 -2.06177,-2.33236 -1.33129,-5.35319 1.95728,-8.09415 1.60976,-9.46061 -3.24719,-12.76811 -6.14789,-4.1866 -8.87504,-9.32164 -9.49171,-17.87232 -0.39418,-5.46558 -1.49193,-7.9616 -5.40774,-12.29594 -4.49728,-4.97794 -5.47823,-9.72784 -2.00899,-9.72784 2.60155,0 1.07894,-3.2933 -4.4008,-9.51861 -3.71738,-4.22318 -5.3882,-7.28177 -4.86988,-8.91485 0.93949,-2.96007 -5.60145,-12.72927 -15.18271,-22.67609 -7.395932,-7.67812 -7.825092,-8.7897 -4.226552,-10.94724 2.181882,-1.30818 1.614682,-2.25168 -4.93098,-8.20234 -4.068051,-3.698262 -7.396459,-7.751608 -7.396459,-9.007442 0,-2.460374 3.668927,-4.504545 5.762539,-3.210629 3.40886,2.106795 0.62977,-3.05178 -4.705901,-8.735151 -7.073554,-7.534502 -8.555157,-9.896946 -7.389574,-11.782903 1.330673,-2.153075 6.428611,-1.612133 13.024975,1.382067 3.29319,1.494833 5.98078,2.273391 5.97242,1.730125 -0.008,-0.543267 -2.38579,-3.534861 -5.28318,-6.647997 C 78.878595,50.397528 75.651779,46.482094 75.651779,44.338797 c 0,-3.373717 7.218328,-1.674757 15.521244,3.653204 3.609435,2.316178 6.997085,4.211222 7.528105,4.211222 0.53102,0 -3.80385,-5.60766 -9.633068,-12.461476 -18.981027,-22.317297 -12.153965,-21.247755 21.10055,3.305641 7.83964,5.788387 11.97522,7.658255 11.97522,5.414479 0,-1.424728 -6.07352,-8.951594 -13.02968,-16.147549 -3.45843,-3.577662 -6.98044,-8.491026 -7.82669,-10.918588 -1.367432,-3.92259 -1.24496,-4.413758 1.10053,-4.413758 2.87444,0 24.71318,19.366546 43.67218,38.7284 6.5676,6.707168 12.17343,11.497892 12.45739,10.646045 0.28394,-0.851833 -1.73087,-4.036102 -4.47737,-7.076132 -7.10142,-7.860425 -15.13495,-26.895848 -11.29193,-26.756161 3.26299,0.118625 8.48526,6.687797 24.60404,30.949899 7.29549,10.981211 45.01074,58.810437 62.21232,78.895597 2.32269,2.71204 7.70922,9.52735 11.97007,15.14514 4.26087,5.61779 8.34587,10.21416 9.0778,10.21416 0.73192,0 2.53182,-0.64277 3.99974,-1.42839 2.31939,-1.24129 3.57294,-0.0879 9.57058,8.80531 3.79588,5.62854 8.54147,13.47286 10.54573,17.43185 3.7022,7.31287 8.02418,23.23643 8.02418,29.5636 0,5.0139 3.17576,5.53585 12.48954,2.05272 6.59745,-2.46727 8.66118,-4.02084 10.52042,-7.91969 1.27212,-2.66769 4.09756,-5.95546 6.27873,-7.30617 5.3281,-3.29949 13.9283,-13.05286 14.58826,-16.54435 0.34774,-1.83969 2.60552,-3.53613 6.50483,-4.88754 3.72614,-1.2914 5.97223,-2.93128 5.97223,-4.36041 0,-3.40284 4.2427,-6.58767 10.26472,-7.70532 4.30236,-0.7985 5.71468,-1.90158 7.30363,-5.70446 2.66145,-6.36977 7.91153,-7.70805 16.42243,-4.18623 1.70411,0.70515 2.54132,-0.0666 3.26532,-3.01008 2.51345,-10.21831 9.30713,-13.26789 16.66463,-7.48049 1.97016,1.54974 3.95761,2.8177 4.41655,2.8177 0.45893,0 0.83442,-2.72612 0.83442,-6.05805 0,-7.02158 1.85065,-9.4393 7.22538,-9.4393 4.48434,0 6.19401,1.55819 11.40719,10.39653 4.24933,7.20424 7.69517,8.37233 8.81316,2.98755 0.4022,-1.93717 1.05574,-5.08878 1.45233,-7.00359 0.88733,-4.28433 5.12968,-6.73373 9.68329,-5.59084 4.21964,1.05906 5.15811,3.82922 6.30349,18.60631 0.98979,12.76986 3.67762,15.38314 3.7041,3.60136 0.0194,-8.66999 4.03262,-15.24864 9.30205,-15.24864 2.79809,0 3.50987,0.92306 4.34553,5.6354 4.1016,23.1293 -4.26638,49.54387 -20.84717,65.80682 -4.16733,4.08742 -7.57695,8.12278 -7.57695,8.96747 0,0.84469 3.01141,2.11753 6.69203,2.82855 5.31121,1.02601 6.78236,1.92716 7.12974,4.36732 1.36695,9.60182 -12.88962,18.94248 -33.02258,21.63579 -20.35507,2.72304 -35.81318,8.90429 -52.44253,20.97024 l -7.54066,5.47137 7.58975,4.85509 c 10.43471,6.67501 14.70883,12.24846 18.19518,23.72653 3.4617,11.39687 2.86814,17.4768 -2.30657,23.62659 -1.90634,2.26555 -3.46606,5.48294 -3.46606,7.14975 0,3.11489 -5.76198,9.94675 -8.38907,9.94675 -0.81009,0 -1.47288,-0.91947 -1.47288,-2.04327 0,-4.13001 -4.4195,-4.44383 -26.45864,-1.87875 -12.18068,1.41767 -28.80351,2.51995 -36.93962,2.44952 -33.70679,-0.29179 -59.86165,1.00778 -67.9053,3.37406 -4.41605,1.29911 -8.31423,2.82918 -8.66261,3.40014 -0.34839,0.57097 -2.00452,7.69494 -3.68029,15.83105 -3.36014,16.31382 -6.55917,26.02556 -9.5619,29.02829 -2.54461,2.54461 -9.86199,2.50234 -14.82328,-0.0857 -3.80156,-1.98301 -3.99223,-1.89626 -7.50806,3.41653 -4.94994,7.47985 -12.83846,12.74178 -18.17718,12.12485 -2.3246,-0.26863 -5.01903,-0.56071 -5.98761,-0.64906 -2.10254,-0.19179 -2.29957,-5.6051 -0.38708,-10.6353 1.81827,-4.78242 -0.14459,-4.62059 -3.15966,0.2605 -6.49309,10.51164 -16.89125,17.94283 -26.4279,18.88708 -4.14758,0.41066 -4.96156,0.0127 -5.33458,-2.60883 -0.2421,-1.70139 1.18436,-6.00327 3.16991,-9.55973 1.98555,-3.55646 3.61009,-6.85517 3.61009,-7.33046 0,-0.4753 -4.27938,3.58582 -9.50973,9.02469 -13.46267,13.99939 -31.346912,22.38113 -31.346912,14.69123 0,-1.3205 1.01564,-3.85095 2.25698,-5.6232 3.997572,-5.70733 1.04438,-4.82722 -7.849057,2.33919 -10.001144,8.05901 -22.992601,13.84668 -23.75655,10.5835 -0.432376,-1.84689 10.459514,-14.20271 24.769866,-28.0991 12.427653,-12.06815 2.922711,-7.93653 -10.918588,4.74611 -13.470776,12.34313 -32.755946,23.88982 -41.913288,25.09491 -4.436609,0.58386 -7.396462,0.43524 -7.396462,-0.3714 z"
     id="path63555"
     inkscape:connector-curvature="0" />
  <g
     inkscape:groupmode="layer"
     id="layer2"
     inkscape:label="Layer 1" />
</svg>
